%TF.GenerationSoftware,KiCad,Pcbnew,(6.0.9)*%
%TF.CreationDate,2023-07-19T12:20:02-07:00*%
%TF.ProjectId,pcb,7063622e-6b69-4636-9164-5f7063625858,0.1*%
%TF.SameCoordinates,Original*%
%TF.FileFunction,Paste,Top*%
%TF.FilePolarity,Positive*%
%FSLAX46Y46*%
G04 Gerber Fmt 4.6, Leading zero omitted, Abs format (unit mm)*
G04 Created by KiCad (PCBNEW (6.0.9)) date 2023-07-19 12:20:02*
%MOMM*%
%LPD*%
G01*
G04 APERTURE LIST*
G04 Aperture macros list*
%AMRoundRect*
0 Rectangle with rounded corners*
0 $1 Rounding radius*
0 $2 $3 $4 $5 $6 $7 $8 $9 X,Y pos of 4 corners*
0 Add a 4 corners polygon primitive as box body*
4,1,4,$2,$3,$4,$5,$6,$7,$8,$9,$2,$3,0*
0 Add four circle primitives for the rounded corners*
1,1,$1+$1,$2,$3*
1,1,$1+$1,$4,$5*
1,1,$1+$1,$6,$7*
1,1,$1+$1,$8,$9*
0 Add four rect primitives between the rounded corners*
20,1,$1+$1,$2,$3,$4,$5,0*
20,1,$1+$1,$4,$5,$6,$7,0*
20,1,$1+$1,$6,$7,$8,$9,0*
20,1,$1+$1,$8,$9,$2,$3,0*%
G04 Aperture macros list end*
%ADD10C,0.127000*%
%ADD11C,0.010000*%
%ADD12RoundRect,0.140000X-0.170000X0.140000X-0.170000X-0.140000X0.170000X-0.140000X0.170000X0.140000X0*%
%ADD13R,0.500000X0.250000*%
%ADD14R,0.250000X0.500000*%
%ADD15RoundRect,0.200000X-0.200000X-0.275000X0.200000X-0.275000X0.200000X0.275000X-0.200000X0.275000X0*%
%ADD16RoundRect,0.218750X-0.256250X0.218750X-0.256250X-0.218750X0.256250X-0.218750X0.256250X0.218750X0*%
%ADD17R,1.500000X0.450000*%
%ADD18RoundRect,0.140000X-0.140000X-0.170000X0.140000X-0.170000X0.140000X0.170000X-0.140000X0.170000X0*%
%ADD19RoundRect,0.200000X0.200000X0.275000X-0.200000X0.275000X-0.200000X-0.275000X0.200000X-0.275000X0*%
%ADD20RoundRect,0.218750X0.256250X-0.218750X0.256250X0.218750X-0.256250X0.218750X-0.256250X-0.218750X0*%
%ADD21RoundRect,0.225000X0.225000X0.250000X-0.225000X0.250000X-0.225000X-0.250000X0.225000X-0.250000X0*%
%ADD22RoundRect,0.200000X0.275000X-0.200000X0.275000X0.200000X-0.275000X0.200000X-0.275000X-0.200000X0*%
%ADD23RoundRect,0.140000X0.140000X0.170000X-0.140000X0.170000X-0.140000X-0.170000X0.140000X-0.170000X0*%
%ADD24RoundRect,0.140000X0.170000X-0.140000X0.170000X0.140000X-0.170000X0.140000X-0.170000X-0.140000X0*%
%ADD25R,1.500000X0.700000*%
%ADD26R,0.800000X1.000000*%
%ADD27RoundRect,0.225000X-0.225000X-0.250000X0.225000X-0.250000X0.225000X0.250000X-0.225000X0.250000X0*%
%ADD28RoundRect,0.135000X-0.135000X-0.185000X0.135000X-0.185000X0.135000X0.185000X-0.135000X0.185000X0*%
%ADD29RoundRect,0.135000X0.135000X0.185000X-0.135000X0.185000X-0.135000X-0.185000X0.135000X-0.185000X0*%
%ADD30R,0.300000X0.300000*%
%ADD31R,0.900000X0.300000*%
%ADD32R,0.300000X0.900000*%
%ADD33RoundRect,0.200000X-0.275000X0.200000X-0.275000X-0.200000X0.275000X-0.200000X0.275000X0.200000X0*%
%ADD34R,2.500000X1.200000*%
%ADD35RoundRect,0.135000X0.185000X-0.135000X0.185000X0.135000X-0.185000X0.135000X-0.185000X-0.135000X0*%
%ADD36R,1.200000X1.400000*%
%ADD37RoundRect,0.075000X-0.700000X-0.075000X0.700000X-0.075000X0.700000X0.075000X-0.700000X0.075000X0*%
%ADD38RoundRect,0.075000X-0.075000X-0.700000X0.075000X-0.700000X0.075000X0.700000X-0.075000X0.700000X0*%
G04 APERTURE END LIST*
%TO.C,U1*%
G36*
X95647000Y-31063000D02*
G01*
X95673000Y-31065000D01*
X95699000Y-31068000D01*
X95726000Y-31073000D01*
X95751000Y-31079000D01*
X95777000Y-31087000D01*
X95802000Y-31096000D01*
X95827000Y-31106000D01*
X95851000Y-31117000D01*
X95874000Y-31130000D01*
X95897000Y-31144000D01*
X95919000Y-31159000D01*
X95940000Y-31175000D01*
X95960000Y-31192000D01*
X95998000Y-31230000D01*
X96015000Y-31250000D01*
X96031000Y-31271000D01*
X96046000Y-31293000D01*
X96060000Y-31316000D01*
X96073000Y-31339000D01*
X96084000Y-31363000D01*
X96094000Y-31388000D01*
X96103000Y-31413000D01*
X96111000Y-31439000D01*
X96117000Y-31464000D01*
X96122000Y-31491000D01*
X96125000Y-31517000D01*
X96127000Y-31543000D01*
X96128000Y-31570000D01*
X96127000Y-31597000D01*
X96125000Y-31623000D01*
X96122000Y-31649000D01*
X96117000Y-31676000D01*
X96111000Y-31701000D01*
X96103000Y-31727000D01*
X96094000Y-31752000D01*
X96084000Y-31777000D01*
X96073000Y-31801000D01*
X96060000Y-31824000D01*
X96046000Y-31847000D01*
X96031000Y-31869000D01*
X96015000Y-31890000D01*
X95998000Y-31910000D01*
X95960000Y-31948000D01*
X95940000Y-31965000D01*
X95919000Y-31981000D01*
X95897000Y-31996000D01*
X95874000Y-32010000D01*
X95851000Y-32023000D01*
X95827000Y-32034000D01*
X95802000Y-32044000D01*
X95777000Y-32053000D01*
X95751000Y-32061000D01*
X95726000Y-32067000D01*
X95699000Y-32072000D01*
X95673000Y-32075000D01*
X95647000Y-32077000D01*
X95620000Y-32078000D01*
X95593000Y-32077000D01*
X95567000Y-32075000D01*
X95541000Y-32072000D01*
X95514000Y-32067000D01*
X95489000Y-32061000D01*
X95463000Y-32053000D01*
X95438000Y-32044000D01*
X95413000Y-32034000D01*
X95389000Y-32023000D01*
X95366000Y-32010000D01*
X95343000Y-31996000D01*
X95321000Y-31981000D01*
X95300000Y-31965000D01*
X95280000Y-31948000D01*
X95242000Y-31910000D01*
X95225000Y-31890000D01*
X95209000Y-31869000D01*
X95194000Y-31847000D01*
X95180000Y-31824000D01*
X95167000Y-31801000D01*
X95156000Y-31777000D01*
X95146000Y-31752000D01*
X95137000Y-31727000D01*
X95129000Y-31701000D01*
X95123000Y-31676000D01*
X95118000Y-31649000D01*
X95115000Y-31623000D01*
X95113000Y-31597000D01*
X95112000Y-31570000D01*
X95113000Y-31543000D01*
X95115000Y-31517000D01*
X95118000Y-31491000D01*
X95123000Y-31464000D01*
X95129000Y-31439000D01*
X95137000Y-31413000D01*
X95146000Y-31388000D01*
X95156000Y-31363000D01*
X95167000Y-31339000D01*
X95180000Y-31316000D01*
X95194000Y-31293000D01*
X95209000Y-31271000D01*
X95225000Y-31250000D01*
X95242000Y-31230000D01*
X95280000Y-31192000D01*
X95300000Y-31175000D01*
X95321000Y-31159000D01*
X95343000Y-31144000D01*
X95366000Y-31130000D01*
X95389000Y-31117000D01*
X95413000Y-31106000D01*
X95438000Y-31096000D01*
X95463000Y-31087000D01*
X95489000Y-31079000D01*
X95514000Y-31073000D01*
X95541000Y-31068000D01*
X95567000Y-31065000D01*
X95593000Y-31063000D01*
X95620000Y-31062000D01*
X95647000Y-31063000D01*
G37*
D10*
X95647000Y-31063000D02*
X95673000Y-31065000D01*
X95699000Y-31068000D01*
X95726000Y-31073000D01*
X95751000Y-31079000D01*
X95777000Y-31087000D01*
X95802000Y-31096000D01*
X95827000Y-31106000D01*
X95851000Y-31117000D01*
X95874000Y-31130000D01*
X95897000Y-31144000D01*
X95919000Y-31159000D01*
X95940000Y-31175000D01*
X95960000Y-31192000D01*
X95998000Y-31230000D01*
X96015000Y-31250000D01*
X96031000Y-31271000D01*
X96046000Y-31293000D01*
X96060000Y-31316000D01*
X96073000Y-31339000D01*
X96084000Y-31363000D01*
X96094000Y-31388000D01*
X96103000Y-31413000D01*
X96111000Y-31439000D01*
X96117000Y-31464000D01*
X96122000Y-31491000D01*
X96125000Y-31517000D01*
X96127000Y-31543000D01*
X96128000Y-31570000D01*
X96127000Y-31597000D01*
X96125000Y-31623000D01*
X96122000Y-31649000D01*
X96117000Y-31676000D01*
X96111000Y-31701000D01*
X96103000Y-31727000D01*
X96094000Y-31752000D01*
X96084000Y-31777000D01*
X96073000Y-31801000D01*
X96060000Y-31824000D01*
X96046000Y-31847000D01*
X96031000Y-31869000D01*
X96015000Y-31890000D01*
X95998000Y-31910000D01*
X95960000Y-31948000D01*
X95940000Y-31965000D01*
X95919000Y-31981000D01*
X95897000Y-31996000D01*
X95874000Y-32010000D01*
X95851000Y-32023000D01*
X95827000Y-32034000D01*
X95802000Y-32044000D01*
X95777000Y-32053000D01*
X95751000Y-32061000D01*
X95726000Y-32067000D01*
X95699000Y-32072000D01*
X95673000Y-32075000D01*
X95647000Y-32077000D01*
X95620000Y-32078000D01*
X95593000Y-32077000D01*
X95567000Y-32075000D01*
X95541000Y-32072000D01*
X95514000Y-32067000D01*
X95489000Y-32061000D01*
X95463000Y-32053000D01*
X95438000Y-32044000D01*
X95413000Y-32034000D01*
X95389000Y-32023000D01*
X95366000Y-32010000D01*
X95343000Y-31996000D01*
X95321000Y-31981000D01*
X95300000Y-31965000D01*
X95280000Y-31948000D01*
X95242000Y-31910000D01*
X95225000Y-31890000D01*
X95209000Y-31869000D01*
X95194000Y-31847000D01*
X95180000Y-31824000D01*
X95167000Y-31801000D01*
X95156000Y-31777000D01*
X95146000Y-31752000D01*
X95137000Y-31727000D01*
X95129000Y-31701000D01*
X95123000Y-31676000D01*
X95118000Y-31649000D01*
X95115000Y-31623000D01*
X95113000Y-31597000D01*
X95112000Y-31570000D01*
X95113000Y-31543000D01*
X95115000Y-31517000D01*
X95118000Y-31491000D01*
X95123000Y-31464000D01*
X95129000Y-31439000D01*
X95137000Y-31413000D01*
X95146000Y-31388000D01*
X95156000Y-31363000D01*
X95167000Y-31339000D01*
X95180000Y-31316000D01*
X95194000Y-31293000D01*
X95209000Y-31271000D01*
X95225000Y-31250000D01*
X95242000Y-31230000D01*
X95280000Y-31192000D01*
X95300000Y-31175000D01*
X95321000Y-31159000D01*
X95343000Y-31144000D01*
X95366000Y-31130000D01*
X95389000Y-31117000D01*
X95413000Y-31106000D01*
X95438000Y-31096000D01*
X95463000Y-31087000D01*
X95489000Y-31079000D01*
X95514000Y-31073000D01*
X95541000Y-31068000D01*
X95567000Y-31065000D01*
X95593000Y-31063000D01*
X95620000Y-31062000D01*
X95647000Y-31063000D01*
%TO.C,U3*%
G36*
X58320000Y-42820000D02*
G01*
X57570000Y-42820000D01*
X57570000Y-42070000D01*
X58320000Y-42070000D01*
X58320000Y-42820000D01*
G37*
D11*
X58320000Y-42820000D02*
X57570000Y-42820000D01*
X57570000Y-42070000D01*
X58320000Y-42070000D01*
X58320000Y-42820000D01*
G36*
X58320000Y-41870000D02*
G01*
X57570000Y-41870000D01*
X57570000Y-41120000D01*
X58320000Y-41120000D01*
X58320000Y-41870000D01*
G37*
X58320000Y-41870000D02*
X57570000Y-41870000D01*
X57570000Y-41120000D01*
X58320000Y-41120000D01*
X58320000Y-41870000D01*
G36*
X57370000Y-42820000D02*
G01*
X56620000Y-42820000D01*
X56620000Y-42070000D01*
X57370000Y-42070000D01*
X57370000Y-42820000D01*
G37*
X57370000Y-42820000D02*
X56620000Y-42820000D01*
X56620000Y-42070000D01*
X57370000Y-42070000D01*
X57370000Y-42820000D01*
G36*
X57370000Y-41870000D02*
G01*
X56620000Y-41870000D01*
X56620000Y-41120000D01*
X57370000Y-41120000D01*
X57370000Y-41870000D01*
G37*
X57370000Y-41870000D02*
X56620000Y-41870000D01*
X56620000Y-41120000D01*
X57370000Y-41120000D01*
X57370000Y-41870000D01*
%TD*%
D12*
%TO.C,C10*%
X98820000Y-29440000D03*
X98820000Y-30400000D03*
%TD*%
D13*
%TO.C,U1*%
X93770000Y-30570000D03*
X93770000Y-31070000D03*
X93770000Y-31570000D03*
X93770000Y-32070000D03*
X93770000Y-32570000D03*
D14*
X94620000Y-33420000D03*
X95120000Y-33420000D03*
X95620000Y-33420000D03*
X96120000Y-33420000D03*
X96620000Y-33420000D03*
D13*
X97470000Y-32570000D03*
X97470000Y-32070000D03*
X97470000Y-31570000D03*
X97470000Y-31070000D03*
X97470000Y-30570000D03*
D14*
X96620000Y-29720000D03*
X96120000Y-29720000D03*
X95620000Y-29720000D03*
X95120000Y-29720000D03*
X94620000Y-29720000D03*
%TD*%
D15*
%TO.C,R15*%
X95570000Y-24270000D03*
X97220000Y-24270000D03*
%TD*%
D16*
%TO.C,FB1*%
X66670000Y-41320000D03*
X66670000Y-42895000D03*
%TD*%
D17*
%TO.C,J4*%
X48180000Y-41210000D03*
X48180000Y-41860000D03*
X48180000Y-42510000D03*
X48180000Y-43160000D03*
X48180000Y-43810000D03*
%TD*%
D15*
%TO.C,R11*%
X98415000Y-26020000D03*
X100065000Y-26020000D03*
%TD*%
D18*
%TO.C,C1*%
X96440000Y-38220000D03*
X97400000Y-38220000D03*
%TD*%
D19*
%TO.C,R3*%
X88920000Y-32970000D03*
X87270000Y-32970000D03*
%TD*%
D12*
%TO.C,C5*%
X62460000Y-36780000D03*
X62460000Y-37740000D03*
%TD*%
D20*
%TO.C,D1*%
X72370000Y-45007500D03*
X72370000Y-43432500D03*
%TD*%
D21*
%TO.C,C19*%
X54075000Y-44860000D03*
X52525000Y-44860000D03*
%TD*%
D22*
%TO.C,R14*%
X92320000Y-27570000D03*
X92320000Y-25920000D03*
%TD*%
D23*
%TO.C,C14*%
X77130000Y-42770000D03*
X76170000Y-42770000D03*
%TD*%
D24*
%TO.C,C16*%
X65220000Y-37820000D03*
X65220000Y-36860000D03*
%TD*%
D23*
%TO.C,C12*%
X99750000Y-27770000D03*
X98790000Y-27770000D03*
%TD*%
D25*
%TO.C,SW1*%
X61770000Y-25420000D03*
X61770000Y-28420000D03*
X61770000Y-29920000D03*
D26*
X60985000Y-24020000D03*
X59055000Y-24020000D03*
X59055000Y-31320000D03*
X60985000Y-31320000D03*
%TD*%
D24*
%TO.C,C6*%
X92320000Y-30200000D03*
X92320000Y-29240000D03*
%TD*%
D19*
%TO.C,R1*%
X88895000Y-27870000D03*
X87245000Y-27870000D03*
%TD*%
D27*
%TO.C,C7*%
X68920000Y-26220000D03*
X70470000Y-26220000D03*
%TD*%
D15*
%TO.C,R13*%
X92295000Y-24270000D03*
X93945000Y-24270000D03*
%TD*%
D19*
%TO.C,R7*%
X88895000Y-34720000D03*
X87245000Y-34720000D03*
%TD*%
D18*
%TO.C,C3*%
X93170000Y-36370000D03*
X94130000Y-36370000D03*
%TD*%
D24*
%TO.C,C9*%
X65470000Y-31570000D03*
X65470000Y-30610000D03*
%TD*%
D23*
%TO.C,C15*%
X99600000Y-24270000D03*
X98640000Y-24270000D03*
%TD*%
D24*
%TO.C,C2*%
X62370000Y-35370000D03*
X62370000Y-34410000D03*
%TD*%
D28*
%TO.C,R12*%
X64860000Y-26370000D03*
X65880000Y-26370000D03*
%TD*%
D21*
%TO.C,C17*%
X64420000Y-40370000D03*
X62870000Y-40370000D03*
%TD*%
D29*
%TO.C,R6*%
X88070000Y-31220000D03*
X87050000Y-31220000D03*
%TD*%
D15*
%TO.C,R4*%
X93395000Y-38170000D03*
X95045000Y-38170000D03*
%TD*%
D29*
%TO.C,R5*%
X88040000Y-29620000D03*
X87020000Y-29620000D03*
%TD*%
D28*
%TO.C,R8*%
X95320000Y-36370000D03*
X96340000Y-36370000D03*
%TD*%
D30*
%TO.C,U3*%
X56220000Y-40720000D03*
D31*
X55920000Y-41220000D03*
X55920000Y-41720000D03*
X55920000Y-42220000D03*
X55920000Y-42720000D03*
D30*
X56220000Y-43220000D03*
D32*
X56720000Y-43520000D03*
X57220000Y-43520000D03*
X57720000Y-43520000D03*
X58220000Y-43520000D03*
D30*
X58720000Y-43220000D03*
D31*
X59020000Y-42720000D03*
X59020000Y-42220000D03*
X59020000Y-41720000D03*
X59020000Y-41220000D03*
D30*
X58720000Y-40720000D03*
D32*
X58220000Y-40420000D03*
X57720000Y-40420000D03*
X57220000Y-40420000D03*
X56720000Y-40420000D03*
%TD*%
D33*
%TO.C,R10*%
X96470000Y-25920000D03*
X96470000Y-27570000D03*
%TD*%
D34*
%TO.C,J1*%
X88820000Y-39870000D03*
X82320000Y-40970000D03*
X82320000Y-44970000D03*
X82320000Y-47970000D03*
%TD*%
D16*
%TO.C,D2*%
X55870000Y-35895000D03*
X55870000Y-37470000D03*
%TD*%
D15*
%TO.C,R9*%
X98085000Y-36500000D03*
X99735000Y-36500000D03*
%TD*%
D18*
%TO.C,C8*%
X68670000Y-42810000D03*
X69630000Y-42810000D03*
%TD*%
D28*
%TO.C,R16*%
X72410000Y-47680000D03*
X73430000Y-47680000D03*
%TD*%
D12*
%TO.C,C20*%
X55550000Y-44850000D03*
X55550000Y-45810000D03*
%TD*%
D21*
%TO.C,C22*%
X55420000Y-47270000D03*
X53870000Y-47270000D03*
%TD*%
D35*
%TO.C,R18*%
X59470000Y-45800000D03*
X59470000Y-44780000D03*
%TD*%
D36*
%TO.C,Y1*%
X58770000Y-35020000D03*
X58770000Y-37220000D03*
X60470000Y-37220000D03*
X60470000Y-35020000D03*
%TD*%
D27*
%TO.C,C18*%
X62870000Y-43470000D03*
X64420000Y-43470000D03*
%TD*%
D18*
%TO.C,C13*%
X69160000Y-27770000D03*
X70120000Y-27770000D03*
%TD*%
D12*
%TO.C,C21*%
X57490000Y-45260000D03*
X57490000Y-46220000D03*
%TD*%
%TO.C,C11*%
X80870000Y-31360000D03*
X80870000Y-32320000D03*
%TD*%
D29*
%TO.C,R17*%
X56170000Y-33870000D03*
X55150000Y-33870000D03*
%TD*%
D37*
%TO.C,U2*%
X67445000Y-31570000D03*
X67445000Y-32070000D03*
X67445000Y-32570000D03*
X67445000Y-33070000D03*
X67445000Y-33570000D03*
X67445000Y-34070000D03*
X67445000Y-34570000D03*
X67445000Y-35070000D03*
X67445000Y-35570000D03*
X67445000Y-36070000D03*
X67445000Y-36570000D03*
X67445000Y-37070000D03*
X67445000Y-37570000D03*
X67445000Y-38070000D03*
X67445000Y-38570000D03*
X67445000Y-39070000D03*
D38*
X69370000Y-40995000D03*
X69870000Y-40995000D03*
X70370000Y-40995000D03*
X70870000Y-40995000D03*
X71370000Y-40995000D03*
X71870000Y-40995000D03*
X72370000Y-40995000D03*
X72870000Y-40995000D03*
X73370000Y-40995000D03*
X73870000Y-40995000D03*
X74370000Y-40995000D03*
X74870000Y-40995000D03*
X75370000Y-40995000D03*
X75870000Y-40995000D03*
X76370000Y-40995000D03*
X76870000Y-40995000D03*
D37*
X78795000Y-39070000D03*
X78795000Y-38570000D03*
X78795000Y-38070000D03*
X78795000Y-37570000D03*
X78795000Y-37070000D03*
X78795000Y-36570000D03*
X78795000Y-36070000D03*
X78795000Y-35570000D03*
X78795000Y-35070000D03*
X78795000Y-34570000D03*
X78795000Y-34070000D03*
X78795000Y-33570000D03*
X78795000Y-33070000D03*
X78795000Y-32570000D03*
X78795000Y-32070000D03*
X78795000Y-31570000D03*
D38*
X76870000Y-29645000D03*
X76370000Y-29645000D03*
X75870000Y-29645000D03*
X75370000Y-29645000D03*
X74870000Y-29645000D03*
X74370000Y-29645000D03*
X73870000Y-29645000D03*
X73370000Y-29645000D03*
X72870000Y-29645000D03*
X72370000Y-29645000D03*
X71870000Y-29645000D03*
X71370000Y-29645000D03*
X70870000Y-29645000D03*
X70370000Y-29645000D03*
X69870000Y-29645000D03*
X69370000Y-29645000D03*
%TD*%
D12*
%TO.C,C4*%
X92370000Y-32790000D03*
X92370000Y-33750000D03*
%TD*%
D19*
%TO.C,R2*%
X95070000Y-40020000D03*
X93420000Y-40020000D03*
%TD*%
M02*
