%TF.GenerationSoftware,KiCad,Pcbnew,(6.0.9)*%
%TF.CreationDate,2023-07-19T12:20:02-07:00*%
%TF.ProjectId,pcb,7063622e-6b69-4636-9164-5f7063625858,0.1*%
%TF.SameCoordinates,Original*%
%TF.FileFunction,Copper,L2,Bot*%
%TF.FilePolarity,Positive*%
%FSLAX46Y46*%
G04 Gerber Fmt 4.6, Leading zero omitted, Abs format (unit mm)*
G04 Created by KiCad (PCBNEW (6.0.9)) date 2023-07-19 12:20:02*
%MOMM*%
%LPD*%
G01*
G04 APERTURE LIST*
%TA.AperFunction,ComponentPad*%
%ADD10O,1.100000X2.200000*%
%TD*%
%TA.AperFunction,ComponentPad*%
%ADD11R,1.700000X1.700000*%
%TD*%
%TA.AperFunction,ComponentPad*%
%ADD12O,1.700000X1.700000*%
%TD*%
%TA.AperFunction,ViaPad*%
%ADD13C,0.800000*%
%TD*%
%TA.AperFunction,Conductor*%
%ADD14C,0.300000*%
%TD*%
%TA.AperFunction,Conductor*%
%ADD15C,0.500000*%
%TD*%
%TA.AperFunction,Conductor*%
%ADD16C,0.250000*%
%TD*%
%TA.AperFunction,Conductor*%
%ADD17C,0.200000*%
%TD*%
G04 APERTURE END LIST*
D10*
%TO.P,J4,S1,SHIELD*%
%TO.N,unconnected-(J4-PadS1)*%
X48430000Y-39710000D03*
%TO.P,J4,S2,SHIELD*%
X48430000Y-45310000D03*
%TO.P,J4,S3,SHIELD*%
X46280000Y-42510000D03*
%TD*%
D11*
%TO.P,J2,1,Pin_1*%
%TO.N,/ADC1_IN1*%
X102830000Y-38220000D03*
D12*
%TO.P,J2,2,Pin_2*%
%TO.N,GND*%
X102830000Y-35680000D03*
%TD*%
D11*
%TO.P,J3,1,Pin_1*%
%TO.N,+3.3V*%
X83970000Y-24320000D03*
D12*
%TO.P,J3,2,Pin_2*%
%TO.N,/TMS*%
X81430000Y-24320000D03*
%TO.P,J3,3,Pin_3*%
%TO.N,/TCK*%
X78890000Y-24320000D03*
%TO.P,J3,4,Pin_4*%
%TO.N,GND*%
X76350000Y-24320000D03*
%TD*%
D13*
%TO.N,/ADC1_IN1*%
X70450000Y-37820000D03*
X75630000Y-37830000D03*
%TO.N,GND*%
X52380000Y-47270000D03*
X60360000Y-42720000D03*
X76170000Y-43860000D03*
X63660000Y-34410000D03*
X57710000Y-47460000D03*
X64420000Y-44990000D03*
X82010000Y-32310000D03*
X57470000Y-41970000D03*
X58660000Y-38920000D03*
X95620000Y-31570000D03*
X46700000Y-47440000D03*
X61360000Y-40350000D03*
X66830000Y-30360000D03*
X69440000Y-43790000D03*
X71810000Y-26220000D03*
X76350000Y-26740000D03*
X54000000Y-33820000D03*
X100790500Y-27760000D03*
X74600000Y-47680000D03*
%TO.N,/REFOUT*%
X101540000Y-31350000D03*
X96340000Y-35290000D03*
%TO.N,+3.3V*%
X77130000Y-45900000D03*
X54460000Y-41280000D03*
X97770000Y-27770000D03*
X86520000Y-24280000D03*
X58500000Y-45800000D03*
X87880000Y-25500000D03*
X80180000Y-40350000D03*
X71150000Y-46410000D03*
X89080000Y-31650000D03*
X89684691Y-29048313D03*
X56471608Y-44717017D03*
X78080000Y-41450000D03*
X54460000Y-43480000D03*
%TO.N,/NRST*%
X69260000Y-34570000D03*
X69260000Y-39080000D03*
%TO.N,/SW*%
X90520000Y-29840000D03*
X90760000Y-35950000D03*
%TO.N,+3.3VA*%
X64110000Y-38160000D03*
X66070000Y-39794500D03*
%TO.N,+5V*%
X50330000Y-44570000D03*
X50330000Y-40510000D03*
%TO.N,/RA*%
X86630000Y-40820000D03*
X85440000Y-39580000D03*
%TO.N,/USB_D+*%
X51930378Y-42839622D03*
X53120000Y-41920000D03*
%TO.N,/IAOUT*%
X88370000Y-37460000D03*
X89380000Y-22790000D03*
X93940000Y-22790000D03*
X83460000Y-37460000D03*
%TO.N,/AD8232_LOD_N*%
X72968768Y-39431232D03*
X73905000Y-42785082D03*
%TO.N,/AD8232_LOD_P*%
X74955000Y-42785082D03*
X73711232Y-38688768D03*
%TD*%
D14*
%TO.N,/ADC1_IN1*%
X75620000Y-37820000D02*
X70450000Y-37820000D01*
X75630000Y-37830000D02*
X75620000Y-37820000D01*
%TO.N,/REFOUT*%
X101540000Y-31350000D02*
X97600000Y-35290000D01*
X97600000Y-35290000D02*
X96340000Y-35290000D01*
%TO.N,+3.3V*%
X79080000Y-41450000D02*
X80180000Y-40350000D01*
D15*
X56471608Y-44717017D02*
X57417017Y-44717017D01*
X76620000Y-46410000D02*
X77130000Y-45900000D01*
X87130000Y-24750000D02*
X87880000Y-25500000D01*
X89080000Y-31650000D02*
X89080000Y-29653004D01*
D14*
X94750000Y-24750000D02*
X87130000Y-24750000D01*
D15*
X86660000Y-24280000D02*
X87130000Y-24750000D01*
X57417017Y-44717017D02*
X58500000Y-45800000D01*
X54460000Y-43480000D02*
X54460000Y-41280000D01*
X71150000Y-46410000D02*
X76620000Y-46410000D01*
D14*
X97770000Y-27770000D02*
X94750000Y-24750000D01*
D15*
X86520000Y-24280000D02*
X86660000Y-24280000D01*
X89080000Y-29653004D02*
X89684691Y-29048313D01*
D14*
X78080000Y-41450000D02*
X79080000Y-41450000D01*
D16*
%TO.N,/NRST*%
X69260000Y-34570000D02*
X69260000Y-39080000D01*
D14*
%TO.N,/SW*%
X90520000Y-35710000D02*
X90760000Y-35950000D01*
X90520000Y-29840000D02*
X90520000Y-35710000D01*
D15*
%TO.N,+3.3VA*%
X65744500Y-39794500D02*
X64110000Y-38160000D01*
X66070000Y-39794500D02*
X65744500Y-39794500D01*
%TO.N,+5V*%
X50330000Y-40510000D02*
X50330000Y-44570000D01*
D14*
%TO.N,/RA*%
X86630000Y-40770000D02*
X85440000Y-39580000D01*
X86630000Y-40820000D02*
X86630000Y-40770000D01*
D17*
%TO.N,/USB_D+*%
X51930378Y-42839622D02*
X52200378Y-42839622D01*
X52200378Y-42839622D02*
X53120000Y-41920000D01*
D14*
%TO.N,/IAOUT*%
X88370000Y-37460000D02*
X83460000Y-37460000D01*
X89380000Y-22790000D02*
X93940000Y-22790000D01*
D17*
%TO.N,/AD8232_LOD_N*%
X74204999Y-40243199D02*
X73393033Y-39431232D01*
X73905000Y-42785082D02*
X74204999Y-42485083D01*
X74204999Y-42485083D02*
X74204999Y-40243199D01*
X73393033Y-39431232D02*
X72968768Y-39431232D01*
%TO.N,/AD8232_LOD_P*%
X74655001Y-42485083D02*
X74655001Y-40056801D01*
X74655001Y-40056801D02*
X73711232Y-39113033D01*
X74955000Y-42785082D02*
X74655001Y-42485083D01*
X73711232Y-39113033D02*
X73711232Y-38688768D01*
%TD*%
%TA.AperFunction,Conductor*%
%TO.N,GND*%
G36*
X103354391Y-20322384D02*
G01*
X103370000Y-20325136D01*
X103380685Y-20323252D01*
X103390580Y-20323252D01*
X103404264Y-20322445D01*
X103542501Y-20330291D01*
X103674074Y-20337758D01*
X103688030Y-20339348D01*
X103981273Y-20389710D01*
X103994956Y-20392868D01*
X104187621Y-20448995D01*
X104280608Y-20476084D01*
X104293855Y-20480773D01*
X104568250Y-20595772D01*
X104580877Y-20601926D01*
X104605210Y-20615545D01*
X104840516Y-20747245D01*
X104852362Y-20754787D01*
X105093890Y-20928550D01*
X105104800Y-20937378D01*
X105325112Y-21137348D01*
X105334965Y-21147367D01*
X105343779Y-21157409D01*
X105531239Y-21370984D01*
X105539885Y-21382040D01*
X105709595Y-21626426D01*
X105716934Y-21638388D01*
X105775044Y-21746397D01*
X105857905Y-21900412D01*
X105863851Y-21913145D01*
X105974264Y-22189423D01*
X105978731Y-22202747D01*
X106057172Y-22489733D01*
X106060103Y-22503476D01*
X106105572Y-22797514D01*
X106106929Y-22811495D01*
X106116437Y-23048857D01*
X106117745Y-23081520D01*
X106116709Y-23095192D01*
X106116544Y-23105089D01*
X106114482Y-23115741D01*
X106116188Y-23126457D01*
X106116188Y-23126459D01*
X106117471Y-23134518D01*
X106119014Y-23154241D01*
X106069562Y-49986257D01*
X106068020Y-50005522D01*
X106064906Y-50025083D01*
X106066967Y-50035734D01*
X106067128Y-50045384D01*
X106068187Y-50059320D01*
X106057651Y-50326194D01*
X106056324Y-50340039D01*
X106016050Y-50603493D01*
X106011826Y-50631122D01*
X106008958Y-50644723D01*
X105948776Y-50867423D01*
X105932137Y-50928993D01*
X105927761Y-50942196D01*
X105819584Y-51216074D01*
X105813756Y-51228704D01*
X105730986Y-51384479D01*
X105686290Y-51468599D01*
X105675592Y-51488732D01*
X105668386Y-51500631D01*
X105501967Y-51743548D01*
X105493475Y-51754564D01*
X105300888Y-51977324D01*
X105291218Y-51987316D01*
X105251885Y-52023642D01*
X105074900Y-52187096D01*
X105064168Y-52195946D01*
X104826831Y-52370245D01*
X104815175Y-52377836D01*
X104559812Y-52524455D01*
X104547384Y-52530692D01*
X104505610Y-52548797D01*
X104277206Y-52647787D01*
X104264153Y-52652594D01*
X104103472Y-52701723D01*
X103982557Y-52738694D01*
X103969056Y-52742007D01*
X103849180Y-52764377D01*
X103679581Y-52796025D01*
X103665786Y-52797805D01*
X103399509Y-52817078D01*
X103385226Y-52816463D01*
X103375791Y-52816615D01*
X103365077Y-52814904D01*
X103353814Y-52817078D01*
X103352907Y-52817253D01*
X103329407Y-52819500D01*
X48407139Y-52819500D01*
X48385609Y-52817616D01*
X48370000Y-52814864D01*
X48359315Y-52816748D01*
X48349661Y-52816748D01*
X48335722Y-52817575D01*
X48235268Y-52811934D01*
X48074704Y-52802916D01*
X48060887Y-52801359D01*
X47776174Y-52752985D01*
X47762616Y-52749891D01*
X47485101Y-52669940D01*
X47471976Y-52665347D01*
X47205166Y-52554830D01*
X47192638Y-52548797D01*
X47052487Y-52471339D01*
X46939868Y-52409097D01*
X46928100Y-52401702D01*
X46692569Y-52234583D01*
X46681697Y-52225914D01*
X46466358Y-52033475D01*
X46456525Y-52023642D01*
X46264086Y-51808303D01*
X46255417Y-51797431D01*
X46088298Y-51561900D01*
X46080899Y-51550126D01*
X46053545Y-51500631D01*
X46011879Y-51425243D01*
X45941203Y-51297362D01*
X45935170Y-51284834D01*
X45824653Y-51018024D01*
X45820060Y-51004899D01*
X45740109Y-50727384D01*
X45737015Y-50713826D01*
X45688641Y-50429113D01*
X45687084Y-50415296D01*
X45674882Y-50198021D01*
X45672425Y-50154278D01*
X45673252Y-50140339D01*
X45673252Y-50130685D01*
X45675136Y-50120000D01*
X45672384Y-50104391D01*
X45670500Y-50082861D01*
X45670500Y-50003789D01*
X46965996Y-50003789D01*
X46974913Y-50241295D01*
X46975990Y-50246430D01*
X46975991Y-50246435D01*
X47014321Y-50429113D01*
X47023719Y-50473904D01*
X47111020Y-50694963D01*
X47113741Y-50699447D01*
X47113743Y-50699451D01*
X47179099Y-50807154D01*
X47234319Y-50898153D01*
X47390090Y-51077664D01*
X47467712Y-51141310D01*
X47566791Y-51222549D01*
X47573880Y-51228362D01*
X47578441Y-51230958D01*
X47578442Y-51230959D01*
X47775875Y-51343345D01*
X47775880Y-51343347D01*
X47780433Y-51345939D01*
X48003844Y-51427034D01*
X48237725Y-51469326D01*
X48262619Y-51470500D01*
X48429680Y-51470500D01*
X48432296Y-51470278D01*
X48432297Y-51470278D01*
X48601590Y-51455913D01*
X48606823Y-51455469D01*
X48836874Y-51395760D01*
X49053576Y-51298143D01*
X49250732Y-51165409D01*
X49422705Y-51001355D01*
X49564579Y-50810670D01*
X49606924Y-50727384D01*
X49669913Y-50603493D01*
X49669915Y-50603488D01*
X49672295Y-50598807D01*
X49742775Y-50371824D01*
X49753248Y-50292812D01*
X49773315Y-50141412D01*
X49773315Y-50141408D01*
X49774004Y-50136211D01*
X49765759Y-49916601D01*
X49765284Y-49903949D01*
X49765284Y-49903948D01*
X49765087Y-49898705D01*
X49737700Y-49768176D01*
X49717361Y-49671242D01*
X49717360Y-49671239D01*
X49716281Y-49666096D01*
X49683270Y-49582506D01*
X49676110Y-49564376D01*
X84764455Y-49564376D01*
X84765179Y-49571265D01*
X84765179Y-49571268D01*
X84774632Y-49661208D01*
X84783227Y-49742983D01*
X84841103Y-49912993D01*
X84844734Y-49918895D01*
X84922551Y-50045384D01*
X84935206Y-50065955D01*
X85060859Y-50194268D01*
X85211817Y-50291554D01*
X85279994Y-50316368D01*
X85374063Y-50350607D01*
X85374065Y-50350608D01*
X85380578Y-50352978D01*
X85438253Y-50360264D01*
X85515417Y-50370012D01*
X85515423Y-50370012D01*
X85519283Y-50370500D01*
X85615155Y-50370500D01*
X85618602Y-50370113D01*
X85618608Y-50370113D01*
X85741581Y-50356319D01*
X85748472Y-50355546D01*
X85918073Y-50296485D01*
X86070375Y-50201316D01*
X86167976Y-50104394D01*
X86192890Y-50079653D01*
X86192891Y-50079652D01*
X86197807Y-50074770D01*
X86242853Y-50003789D01*
X101965996Y-50003789D01*
X101974913Y-50241295D01*
X101975990Y-50246430D01*
X101975991Y-50246435D01*
X102014321Y-50429113D01*
X102023719Y-50473904D01*
X102111020Y-50694963D01*
X102113741Y-50699447D01*
X102113743Y-50699451D01*
X102179099Y-50807154D01*
X102234319Y-50898153D01*
X102390090Y-51077664D01*
X102467712Y-51141310D01*
X102566791Y-51222549D01*
X102573880Y-51228362D01*
X102578441Y-51230958D01*
X102578442Y-51230959D01*
X102775875Y-51343345D01*
X102775880Y-51343347D01*
X102780433Y-51345939D01*
X103003844Y-51427034D01*
X103237725Y-51469326D01*
X103262619Y-51470500D01*
X103429680Y-51470500D01*
X103432296Y-51470278D01*
X103432297Y-51470278D01*
X103601590Y-51455913D01*
X103606823Y-51455469D01*
X103836874Y-51395760D01*
X104053576Y-51298143D01*
X104250732Y-51165409D01*
X104422705Y-51001355D01*
X104564579Y-50810670D01*
X104606924Y-50727384D01*
X104669913Y-50603493D01*
X104669915Y-50603488D01*
X104672295Y-50598807D01*
X104742775Y-50371824D01*
X104753248Y-50292812D01*
X104773315Y-50141412D01*
X104773315Y-50141408D01*
X104774004Y-50136211D01*
X104765759Y-49916601D01*
X104765284Y-49903949D01*
X104765284Y-49903948D01*
X104765087Y-49898705D01*
X104737700Y-49768176D01*
X104717361Y-49671242D01*
X104717360Y-49671239D01*
X104716281Y-49666096D01*
X104683270Y-49582506D01*
X104630908Y-49449920D01*
X104628980Y-49445037D01*
X104604026Y-49403913D01*
X104508408Y-49246341D01*
X104505681Y-49241847D01*
X104360071Y-49074045D01*
X104353356Y-49066307D01*
X104353355Y-49066306D01*
X104349910Y-49062336D01*
X104166120Y-48911638D01*
X104161558Y-48909041D01*
X103964125Y-48796655D01*
X103964120Y-48796653D01*
X103959567Y-48794061D01*
X103736156Y-48712966D01*
X103502275Y-48670674D01*
X103477381Y-48669500D01*
X103310320Y-48669500D01*
X103307704Y-48669722D01*
X103307703Y-48669722D01*
X103296484Y-48670674D01*
X103133177Y-48684531D01*
X102903126Y-48744240D01*
X102686424Y-48841857D01*
X102489268Y-48974591D01*
X102317295Y-49138645D01*
X102175421Y-49329330D01*
X102173042Y-49334008D01*
X102173042Y-49334009D01*
X102118875Y-49440549D01*
X102067705Y-49541193D01*
X101997225Y-49768176D01*
X101996534Y-49773386D01*
X101996534Y-49773388D01*
X101968320Y-49986257D01*
X101965996Y-50003789D01*
X86242853Y-50003789D01*
X86294037Y-49923136D01*
X86300869Y-49903949D01*
X86351957Y-49760479D01*
X86351958Y-49760475D01*
X86354281Y-49753951D01*
X86375545Y-49575624D01*
X86373640Y-49557494D01*
X86357498Y-49403913D01*
X86357498Y-49403911D01*
X86356773Y-49397017D01*
X86298897Y-49227007D01*
X86204794Y-49074045D01*
X86079141Y-48945732D01*
X85928183Y-48848446D01*
X85860006Y-48823632D01*
X85765937Y-48789393D01*
X85765935Y-48789392D01*
X85759422Y-48787022D01*
X85701747Y-48779736D01*
X85624583Y-48769988D01*
X85624577Y-48769988D01*
X85620717Y-48769500D01*
X85524845Y-48769500D01*
X85521398Y-48769887D01*
X85521392Y-48769887D01*
X85398419Y-48783681D01*
X85391528Y-48784454D01*
X85221927Y-48843515D01*
X85069625Y-48938684D01*
X85064708Y-48943567D01*
X84948462Y-49059005D01*
X84942193Y-49065230D01*
X84845963Y-49216864D01*
X84843636Y-49223399D01*
X84788043Y-49379521D01*
X84788042Y-49379525D01*
X84785719Y-49386049D01*
X84764455Y-49564376D01*
X49676110Y-49564376D01*
X49630908Y-49449920D01*
X49628980Y-49445037D01*
X49604026Y-49403913D01*
X49508408Y-49246341D01*
X49505681Y-49241847D01*
X49360071Y-49074045D01*
X49353356Y-49066307D01*
X49353355Y-49066306D01*
X49349910Y-49062336D01*
X49166120Y-48911638D01*
X49161558Y-48909041D01*
X48964125Y-48796655D01*
X48964120Y-48796653D01*
X48959567Y-48794061D01*
X48736156Y-48712966D01*
X48502275Y-48670674D01*
X48477381Y-48669500D01*
X48310320Y-48669500D01*
X48307704Y-48669722D01*
X48307703Y-48669722D01*
X48296484Y-48670674D01*
X48133177Y-48684531D01*
X47903126Y-48744240D01*
X47686424Y-48841857D01*
X47489268Y-48974591D01*
X47317295Y-49138645D01*
X47175421Y-49329330D01*
X47173042Y-49334008D01*
X47173042Y-49334009D01*
X47118875Y-49440549D01*
X47067705Y-49541193D01*
X46997225Y-49768176D01*
X46996534Y-49773386D01*
X46996534Y-49773388D01*
X46968320Y-49986257D01*
X46965996Y-50003789D01*
X45670500Y-50003789D01*
X45670500Y-45906164D01*
X47579500Y-45906164D01*
X47594442Y-46043709D01*
X47653383Y-46218848D01*
X47748557Y-46377244D01*
X47875524Y-46511507D01*
X48028360Y-46615375D01*
X48199935Y-46684000D01*
X48206558Y-46685096D01*
X48206560Y-46685097D01*
X48375616Y-46713084D01*
X48375618Y-46713084D01*
X48382244Y-46714181D01*
X48566781Y-46704510D01*
X48744936Y-46655438D01*
X48863495Y-46592929D01*
X48902458Y-46572386D01*
X48902459Y-46572385D01*
X48908398Y-46569254D01*
X48913523Y-46564923D01*
X48913526Y-46564921D01*
X49044413Y-46454313D01*
X49044415Y-46454311D01*
X49049540Y-46449980D01*
X49161777Y-46303180D01*
X49197044Y-46227550D01*
X49237037Y-46141786D01*
X49237039Y-46141782D01*
X49239873Y-46135703D01*
X49241337Y-46129154D01*
X49279074Y-45960326D01*
X49279075Y-45960322D01*
X49280183Y-45955363D01*
X49280500Y-45949693D01*
X49280500Y-44713836D01*
X49265558Y-44576291D01*
X49260954Y-44562611D01*
X49624394Y-44562611D01*
X49625214Y-44570039D01*
X49625214Y-44570041D01*
X49626641Y-44582968D01*
X49642999Y-44731135D01*
X49645565Y-44738147D01*
X49645566Y-44738151D01*
X49694082Y-44870724D01*
X49701266Y-44890356D01*
X49705433Y-44896558D01*
X49705435Y-44896561D01*
X49718510Y-44916018D01*
X49795830Y-45031083D01*
X49801360Y-45036115D01*
X49915702Y-45140159D01*
X49915706Y-45140162D01*
X49921233Y-45145191D01*
X50070235Y-45226092D01*
X50165585Y-45251107D01*
X50227005Y-45267220D01*
X50227007Y-45267220D01*
X50234233Y-45269116D01*
X50317178Y-45270419D01*
X50396290Y-45271662D01*
X50396293Y-45271662D01*
X50403760Y-45271779D01*
X50533623Y-45242037D01*
X50561738Y-45235598D01*
X50561739Y-45235598D01*
X50569029Y-45233928D01*
X50692370Y-45171894D01*
X50713820Y-45161106D01*
X50713822Y-45161105D01*
X50720498Y-45157747D01*
X50726180Y-45152894D01*
X50726183Y-45152892D01*
X50843741Y-45052487D01*
X50849423Y-45047634D01*
X50948361Y-44909947D01*
X51011601Y-44752634D01*
X51015718Y-44723707D01*
X51017722Y-44709628D01*
X55766002Y-44709628D01*
X55766822Y-44717056D01*
X55766822Y-44717058D01*
X55767556Y-44723707D01*
X55784607Y-44878152D01*
X55787173Y-44885164D01*
X55787174Y-44885168D01*
X55793705Y-44903014D01*
X55842874Y-45037373D01*
X55847041Y-45043575D01*
X55847043Y-45043578D01*
X55884867Y-45099866D01*
X55937438Y-45178100D01*
X55942968Y-45183132D01*
X56057310Y-45287176D01*
X56057314Y-45287179D01*
X56062841Y-45292208D01*
X56211843Y-45373109D01*
X56307193Y-45398124D01*
X56368613Y-45414237D01*
X56368615Y-45414237D01*
X56375841Y-45416133D01*
X56458786Y-45417436D01*
X56537898Y-45418679D01*
X56537901Y-45418679D01*
X56545368Y-45418796D01*
X56667817Y-45390752D01*
X56703346Y-45382615D01*
X56703347Y-45382615D01*
X56710637Y-45380945D01*
X56815163Y-45328374D01*
X56855428Y-45308123D01*
X56855430Y-45308122D01*
X56862106Y-45304764D01*
X56870933Y-45297225D01*
X56873688Y-45295991D01*
X56874017Y-45295772D01*
X56874053Y-45295827D01*
X56934695Y-45268656D01*
X56951463Y-45267517D01*
X57137630Y-45267517D01*
X57204669Y-45287202D01*
X57225311Y-45303836D01*
X57773568Y-45852092D01*
X57807053Y-45913415D01*
X57809138Y-45926165D01*
X57811544Y-45947959D01*
X57812999Y-45961135D01*
X57815565Y-45968147D01*
X57815566Y-45968151D01*
X57857781Y-46083506D01*
X57871266Y-46120356D01*
X57875433Y-46126558D01*
X57875435Y-46126561D01*
X57885666Y-46141786D01*
X57965830Y-46261083D01*
X57971360Y-46266115D01*
X58085702Y-46370159D01*
X58085706Y-46370162D01*
X58091233Y-46375191D01*
X58240235Y-46456092D01*
X58335585Y-46481107D01*
X58397005Y-46497220D01*
X58397007Y-46497220D01*
X58404233Y-46499116D01*
X58487178Y-46500419D01*
X58566290Y-46501662D01*
X58566293Y-46501662D01*
X58573760Y-46501779D01*
X58696209Y-46473735D01*
X58731738Y-46465598D01*
X58731739Y-46465598D01*
X58739029Y-46463928D01*
X58814111Y-46426166D01*
X58860945Y-46402611D01*
X70444394Y-46402611D01*
X70445214Y-46410039D01*
X70445214Y-46410041D01*
X70449904Y-46452522D01*
X70462999Y-46571135D01*
X70465565Y-46578147D01*
X70465566Y-46578151D01*
X70494502Y-46657221D01*
X70521266Y-46730356D01*
X70525433Y-46736558D01*
X70525435Y-46736561D01*
X70561604Y-46790386D01*
X70615830Y-46871083D01*
X70621360Y-46876115D01*
X70735702Y-46980159D01*
X70735706Y-46980162D01*
X70741233Y-46985191D01*
X70890235Y-47066092D01*
X70985585Y-47091107D01*
X71047005Y-47107220D01*
X71047007Y-47107220D01*
X71054233Y-47109116D01*
X71137178Y-47110419D01*
X71216290Y-47111662D01*
X71216293Y-47111662D01*
X71223760Y-47111779D01*
X71346209Y-47083735D01*
X71381738Y-47075598D01*
X71381739Y-47075598D01*
X71389029Y-47073928D01*
X71464111Y-47036166D01*
X71533820Y-47001106D01*
X71533822Y-47001105D01*
X71540498Y-46997747D01*
X71549325Y-46990208D01*
X71552080Y-46988974D01*
X71552409Y-46988755D01*
X71552445Y-46988810D01*
X71613087Y-46961639D01*
X71629855Y-46960500D01*
X76605043Y-46960500D01*
X76610236Y-46960609D01*
X76663846Y-46962856D01*
X76663847Y-46962856D01*
X76672294Y-46963210D01*
X76680525Y-46961279D01*
X76680529Y-46961279D01*
X76714747Y-46953253D01*
X76726232Y-46951124D01*
X76744088Y-46948678D01*
X76761060Y-46946353D01*
X76761061Y-46946353D01*
X76769432Y-46945206D01*
X76783390Y-46939166D01*
X76804325Y-46932242D01*
X76810903Y-46930699D01*
X76819136Y-46928768D01*
X76857348Y-46907761D01*
X76867835Y-46902624D01*
X76900097Y-46888663D01*
X76900102Y-46888660D01*
X76907855Y-46885305D01*
X76914421Y-46879988D01*
X76914423Y-46879987D01*
X76919676Y-46875733D01*
X76937965Y-46863443D01*
X76951308Y-46856107D01*
X76959422Y-46849103D01*
X76984034Y-46824491D01*
X76993679Y-46815806D01*
X77025070Y-46790386D01*
X77029965Y-46783499D01*
X77029968Y-46783495D01*
X77036063Y-46774918D01*
X77049456Y-46759069D01*
X77105798Y-46702727D01*
X77182406Y-46626118D01*
X77242405Y-46592929D01*
X77361738Y-46565599D01*
X77361747Y-46565596D01*
X77369029Y-46563928D01*
X77473257Y-46511507D01*
X77513820Y-46491106D01*
X77513822Y-46491105D01*
X77520498Y-46487747D01*
X77526180Y-46482894D01*
X77526183Y-46482892D01*
X77643741Y-46382487D01*
X77649423Y-46377634D01*
X77748361Y-46239947D01*
X77811601Y-46082634D01*
X77813337Y-46070436D01*
X77834918Y-45918800D01*
X77834918Y-45918794D01*
X77835490Y-45914778D01*
X77835546Y-45909501D01*
X77835602Y-45904065D01*
X77835645Y-45900000D01*
X77830085Y-45854053D01*
X77816175Y-45739105D01*
X77816174Y-45739101D01*
X77815276Y-45731680D01*
X77777489Y-45631680D01*
X77757989Y-45580073D01*
X77757987Y-45580070D01*
X77755345Y-45573077D01*
X77691425Y-45480073D01*
X77663549Y-45439513D01*
X77663546Y-45439510D01*
X77659312Y-45433349D01*
X77593831Y-45375007D01*
X77538303Y-45325533D01*
X77538301Y-45325532D01*
X77532721Y-45320560D01*
X77518347Y-45312949D01*
X77440589Y-45271779D01*
X77382881Y-45241224D01*
X77218441Y-45199919D01*
X77132248Y-45199468D01*
X77056368Y-45199070D01*
X77056367Y-45199070D01*
X77048895Y-45199031D01*
X77027235Y-45204231D01*
X76891295Y-45236868D01*
X76891293Y-45236869D01*
X76884032Y-45238612D01*
X76877399Y-45242035D01*
X76877395Y-45242037D01*
X76824705Y-45269233D01*
X76733369Y-45316375D01*
X76727737Y-45321288D01*
X76618880Y-45416250D01*
X76605604Y-45427831D01*
X76508113Y-45566547D01*
X76446524Y-45724513D01*
X76445548Y-45731925D01*
X76445548Y-45731926D01*
X76442947Y-45751684D01*
X76414681Y-45815581D01*
X76356357Y-45854053D01*
X76320008Y-45859500D01*
X71631645Y-45859500D01*
X71560875Y-45837322D01*
X71558308Y-45835537D01*
X71552721Y-45830560D01*
X71402881Y-45751224D01*
X71238441Y-45709919D01*
X71152248Y-45709468D01*
X71076368Y-45709070D01*
X71076367Y-45709070D01*
X71068895Y-45709031D01*
X71047235Y-45714231D01*
X70911295Y-45746868D01*
X70911293Y-45746869D01*
X70904032Y-45748612D01*
X70897399Y-45752035D01*
X70897395Y-45752037D01*
X70830465Y-45786583D01*
X70753369Y-45826375D01*
X70747737Y-45831288D01*
X70647420Y-45918800D01*
X70625604Y-45937831D01*
X70528113Y-46076547D01*
X70466524Y-46234513D01*
X70465548Y-46241923D01*
X70465548Y-46241925D01*
X70457484Y-46303180D01*
X70444394Y-46402611D01*
X58860945Y-46402611D01*
X58883820Y-46391106D01*
X58883822Y-46391105D01*
X58890498Y-46387747D01*
X58896180Y-46382894D01*
X58896183Y-46382892D01*
X59013741Y-46282487D01*
X59019423Y-46277634D01*
X59118361Y-46139947D01*
X59181601Y-45982634D01*
X59187107Y-45943948D01*
X59204918Y-45818800D01*
X59204918Y-45818794D01*
X59205490Y-45814778D01*
X59205645Y-45800000D01*
X59199798Y-45751684D01*
X59186175Y-45639105D01*
X59186174Y-45639101D01*
X59185276Y-45631680D01*
X59125345Y-45473077D01*
X59098041Y-45433349D01*
X59033549Y-45339513D01*
X59033546Y-45339510D01*
X59029312Y-45333349D01*
X58960208Y-45271779D01*
X58908303Y-45225533D01*
X58908301Y-45225532D01*
X58902721Y-45220560D01*
X58862134Y-45199070D01*
X58810807Y-45171894D01*
X58752881Y-45141224D01*
X58675398Y-45121761D01*
X58608328Y-45104914D01*
X58550856Y-45072331D01*
X57816874Y-44338349D01*
X57813280Y-44334602D01*
X57812064Y-44333280D01*
X57771218Y-44288861D01*
X57734155Y-44265881D01*
X57724527Y-44259264D01*
X57696533Y-44238015D01*
X57696530Y-44238013D01*
X57689800Y-44232905D01*
X57681942Y-44229794D01*
X57681937Y-44229791D01*
X57675662Y-44227307D01*
X57655961Y-44217399D01*
X57650216Y-44213837D01*
X57643031Y-44209382D01*
X57617063Y-44201838D01*
X57601159Y-44197217D01*
X57590108Y-44193433D01*
X57557425Y-44180493D01*
X57557422Y-44180492D01*
X57549564Y-44177381D01*
X57534435Y-44175791D01*
X57512801Y-44171546D01*
X57504436Y-44169116D01*
X57498192Y-44167302D01*
X57490693Y-44166751D01*
X57489777Y-44166684D01*
X57489775Y-44166684D01*
X57487502Y-44166517D01*
X57452695Y-44166517D01*
X57439734Y-44165838D01*
X57438298Y-44165687D01*
X57436776Y-44165527D01*
X57407969Y-44162499D01*
X57407966Y-44162499D01*
X57399563Y-44161616D01*
X57391233Y-44163025D01*
X57391230Y-44163025D01*
X57380850Y-44164781D01*
X57360171Y-44166517D01*
X56953253Y-44166517D01*
X56882483Y-44144339D01*
X56879916Y-44142554D01*
X56874329Y-44137577D01*
X56724489Y-44058241D01*
X56560049Y-44016936D01*
X56473856Y-44016485D01*
X56397976Y-44016087D01*
X56397975Y-44016087D01*
X56390503Y-44016048D01*
X56368843Y-44021248D01*
X56232903Y-44053885D01*
X56232901Y-44053886D01*
X56225640Y-44055629D01*
X56219007Y-44059052D01*
X56219003Y-44059054D01*
X56152073Y-44093600D01*
X56074977Y-44133392D01*
X56069345Y-44138305D01*
X55955045Y-44238015D01*
X55947212Y-44244848D01*
X55849721Y-44383564D01*
X55788132Y-44541530D01*
X55787156Y-44548940D01*
X55787156Y-44548942D01*
X55783849Y-44574065D01*
X55766002Y-44709628D01*
X51017722Y-44709628D01*
X51034918Y-44588800D01*
X51034918Y-44588794D01*
X51035490Y-44584778D01*
X51035645Y-44570000D01*
X51031357Y-44534567D01*
X51016175Y-44409105D01*
X51016174Y-44409101D01*
X51015276Y-44401680D01*
X50990648Y-44336504D01*
X50957989Y-44250073D01*
X50957987Y-44250070D01*
X50955345Y-44243077D01*
X50944507Y-44227307D01*
X50902309Y-44165910D01*
X50880500Y-44095675D01*
X50880500Y-42832233D01*
X51224772Y-42832233D01*
X51243377Y-43000757D01*
X51245943Y-43007769D01*
X51245944Y-43007773D01*
X51265075Y-43060050D01*
X51301644Y-43159978D01*
X51305811Y-43166180D01*
X51305813Y-43166183D01*
X51331890Y-43204989D01*
X51396208Y-43300705D01*
X51401738Y-43305737D01*
X51516080Y-43409781D01*
X51516084Y-43409784D01*
X51521611Y-43414813D01*
X51670613Y-43495714D01*
X51765963Y-43520729D01*
X51827383Y-43536842D01*
X51827385Y-43536842D01*
X51834611Y-43538738D01*
X51917556Y-43540041D01*
X51996668Y-43541284D01*
X51996671Y-43541284D01*
X52004138Y-43541401D01*
X52147720Y-43508517D01*
X52162116Y-43505220D01*
X52162117Y-43505220D01*
X52169407Y-43503550D01*
X52245659Y-43465199D01*
X52314198Y-43430728D01*
X52314200Y-43430727D01*
X52320876Y-43427369D01*
X52326558Y-43422516D01*
X52326561Y-43422514D01*
X52444119Y-43322109D01*
X52449801Y-43317256D01*
X52548739Y-43179569D01*
X52611979Y-43022256D01*
X52612756Y-43016797D01*
X52644395Y-42961998D01*
X52950720Y-42655673D01*
X53012043Y-42622188D01*
X53040348Y-42619369D01*
X53086235Y-42620090D01*
X53186290Y-42621662D01*
X53186293Y-42621662D01*
X53193760Y-42621779D01*
X53316209Y-42593735D01*
X53351738Y-42585598D01*
X53351739Y-42585598D01*
X53359029Y-42583928D01*
X53434111Y-42546166D01*
X53503820Y-42511106D01*
X53503822Y-42511105D01*
X53510498Y-42507747D01*
X53516180Y-42502894D01*
X53516183Y-42502892D01*
X53633741Y-42402487D01*
X53639423Y-42397634D01*
X53684804Y-42334480D01*
X53739907Y-42291527D01*
X53809488Y-42285183D01*
X53871453Y-42317465D01*
X53906129Y-42378123D01*
X53909500Y-42406841D01*
X53909500Y-43005757D01*
X53886951Y-43077057D01*
X53838113Y-43146547D01*
X53776524Y-43304513D01*
X53775548Y-43311923D01*
X53775548Y-43311925D01*
X53769704Y-43356319D01*
X53754394Y-43472611D01*
X53755214Y-43480039D01*
X53755214Y-43480041D01*
X53757994Y-43505220D01*
X53772999Y-43641135D01*
X53775565Y-43648147D01*
X53775566Y-43648151D01*
X53819884Y-43769254D01*
X53831266Y-43800356D01*
X53835433Y-43806558D01*
X53835435Y-43806561D01*
X53868279Y-43855438D01*
X53925830Y-43941083D01*
X53931360Y-43946115D01*
X54045702Y-44050159D01*
X54045706Y-44050162D01*
X54051233Y-44055191D01*
X54200235Y-44136092D01*
X54295585Y-44161107D01*
X54357005Y-44177220D01*
X54357007Y-44177220D01*
X54364233Y-44179116D01*
X54447178Y-44180419D01*
X54526290Y-44181662D01*
X54526293Y-44181662D01*
X54533760Y-44181779D01*
X54656209Y-44153735D01*
X54691738Y-44145598D01*
X54691739Y-44145598D01*
X54699029Y-44143928D01*
X54776985Y-44104720D01*
X54843820Y-44071106D01*
X54843822Y-44071105D01*
X54850498Y-44067747D01*
X54856180Y-44062894D01*
X54856183Y-44062892D01*
X54973741Y-43962487D01*
X54979423Y-43957634D01*
X55078361Y-43819947D01*
X55141601Y-43662634D01*
X55142654Y-43655237D01*
X55164918Y-43498800D01*
X55164918Y-43498794D01*
X55165490Y-43494778D01*
X55165645Y-43480000D01*
X55160515Y-43437604D01*
X55146175Y-43319105D01*
X55146174Y-43319101D01*
X55145276Y-43311680D01*
X55126774Y-43262716D01*
X55087989Y-43160073D01*
X55087987Y-43160070D01*
X55085345Y-43153077D01*
X55070241Y-43131100D01*
X55032309Y-43075910D01*
X55010500Y-43005675D01*
X55010500Y-41754318D01*
X55033802Y-41681959D01*
X55073999Y-41626019D01*
X55074003Y-41626012D01*
X55078361Y-41619947D01*
X55081904Y-41611135D01*
X55133041Y-41483928D01*
X55141601Y-41462634D01*
X55142837Y-41453948D01*
X55164918Y-41298800D01*
X55164918Y-41298794D01*
X55165490Y-41294778D01*
X55165645Y-41280000D01*
X55163373Y-41261224D01*
X55146175Y-41119105D01*
X55146174Y-41119101D01*
X55145276Y-41111680D01*
X55123209Y-41053282D01*
X55087989Y-40960073D01*
X55087987Y-40960070D01*
X55085345Y-40953077D01*
X55056775Y-40911507D01*
X54993549Y-40819513D01*
X54993546Y-40819510D01*
X54989312Y-40813349D01*
X54917167Y-40749070D01*
X54868303Y-40705533D01*
X54868301Y-40705532D01*
X54862721Y-40700560D01*
X54848347Y-40692949D01*
X54784426Y-40659105D01*
X54712881Y-40621224D01*
X54548441Y-40579919D01*
X54462248Y-40579468D01*
X54386368Y-40579070D01*
X54386367Y-40579070D01*
X54378895Y-40579031D01*
X54357235Y-40584231D01*
X54221295Y-40616868D01*
X54221293Y-40616869D01*
X54214032Y-40618612D01*
X54207399Y-40622035D01*
X54207395Y-40622037D01*
X54163520Y-40644683D01*
X54063369Y-40696375D01*
X54057737Y-40701288D01*
X53956729Y-40789403D01*
X53935604Y-40807831D01*
X53838113Y-40946547D01*
X53776524Y-41104513D01*
X53775548Y-41111923D01*
X53775548Y-41111925D01*
X53772729Y-41133336D01*
X53754394Y-41272611D01*
X53754626Y-41274709D01*
X53734907Y-41339351D01*
X53681627Y-41384550D01*
X53612368Y-41393768D01*
X53548812Y-41363806D01*
X53528303Y-41345533D01*
X53528301Y-41345532D01*
X53522721Y-41340560D01*
X53508347Y-41332949D01*
X53408343Y-41280000D01*
X53372881Y-41261224D01*
X53208441Y-41219919D01*
X53122248Y-41219468D01*
X53046368Y-41219070D01*
X53046367Y-41219070D01*
X53038895Y-41219031D01*
X53018202Y-41223999D01*
X52881295Y-41256868D01*
X52881293Y-41256869D01*
X52874032Y-41258612D01*
X52867399Y-41262035D01*
X52867395Y-41262037D01*
X52810189Y-41291564D01*
X52723369Y-41336375D01*
X52717737Y-41341288D01*
X52601422Y-41442756D01*
X52595604Y-41447831D01*
X52498113Y-41586547D01*
X52436524Y-41744513D01*
X52435548Y-41751923D01*
X52435548Y-41751925D01*
X52427569Y-41812538D01*
X52414394Y-41912611D01*
X52415214Y-41920039D01*
X52415214Y-41920041D01*
X52422436Y-41985453D01*
X52410227Y-42054247D01*
X52386866Y-42086741D01*
X52318633Y-42154974D01*
X52257310Y-42188459D01*
X52187592Y-42183140D01*
X52183259Y-42180846D01*
X52176014Y-42179026D01*
X52176011Y-42179025D01*
X52101039Y-42160194D01*
X52018819Y-42139541D01*
X51932626Y-42139090D01*
X51856746Y-42138692D01*
X51856745Y-42138692D01*
X51849273Y-42138653D01*
X51827613Y-42143853D01*
X51691673Y-42176490D01*
X51691671Y-42176491D01*
X51684410Y-42178234D01*
X51677777Y-42181657D01*
X51677773Y-42181659D01*
X51621673Y-42210615D01*
X51533747Y-42255997D01*
X51528115Y-42260910D01*
X51443778Y-42334482D01*
X51405982Y-42367453D01*
X51308491Y-42506169D01*
X51246902Y-42664135D01*
X51224772Y-42832233D01*
X50880500Y-42832233D01*
X50880500Y-40984318D01*
X50903802Y-40911959D01*
X50943999Y-40856019D01*
X50944003Y-40856012D01*
X50948361Y-40849947D01*
X50963074Y-40813349D01*
X51005216Y-40708517D01*
X51011601Y-40692634D01*
X51017430Y-40651680D01*
X51034918Y-40528800D01*
X51034918Y-40528794D01*
X51035490Y-40524778D01*
X51035645Y-40510000D01*
X51033783Y-40494610D01*
X51016175Y-40349105D01*
X51016174Y-40349101D01*
X51015276Y-40341680D01*
X51000333Y-40302135D01*
X50957989Y-40190073D01*
X50957987Y-40190070D01*
X50955345Y-40183077D01*
X50938632Y-40158760D01*
X50863549Y-40049513D01*
X50863546Y-40049510D01*
X50859312Y-40043349D01*
X50776692Y-39969737D01*
X50738303Y-39935533D01*
X50738301Y-39935532D01*
X50732721Y-39930560D01*
X50718347Y-39922949D01*
X50657801Y-39890892D01*
X50582881Y-39851224D01*
X50418441Y-39809919D01*
X50332248Y-39809468D01*
X50256368Y-39809070D01*
X50256367Y-39809070D01*
X50248895Y-39809031D01*
X50231114Y-39813300D01*
X50091295Y-39846868D01*
X50091293Y-39846869D01*
X50084032Y-39848612D01*
X50077399Y-39852035D01*
X50077395Y-39852037D01*
X50016730Y-39883349D01*
X49933369Y-39926375D01*
X49927737Y-39931288D01*
X49819978Y-40025292D01*
X49805604Y-40037831D01*
X49708113Y-40176547D01*
X49646524Y-40334513D01*
X49645548Y-40341923D01*
X49645548Y-40341925D01*
X49642010Y-40368800D01*
X49624394Y-40502611D01*
X49625214Y-40510039D01*
X49625214Y-40510041D01*
X49637288Y-40619403D01*
X49642999Y-40671135D01*
X49645565Y-40678147D01*
X49645566Y-40678151D01*
X49692060Y-40805200D01*
X49701266Y-40830356D01*
X49705433Y-40836557D01*
X49705438Y-40836567D01*
X49758421Y-40915413D01*
X49779500Y-40984573D01*
X49779500Y-44095757D01*
X49756951Y-44167057D01*
X49708113Y-44236547D01*
X49646524Y-44394513D01*
X49624394Y-44562611D01*
X49260954Y-44562611D01*
X49206617Y-44401152D01*
X49111443Y-44242756D01*
X49018374Y-44144339D01*
X48989090Y-44113372D01*
X48989089Y-44113371D01*
X48984476Y-44108493D01*
X48831640Y-44004625D01*
X48660065Y-43936000D01*
X48653442Y-43934904D01*
X48653440Y-43934903D01*
X48484384Y-43906916D01*
X48484382Y-43906916D01*
X48477756Y-43905819D01*
X48293219Y-43915490D01*
X48115064Y-43964562D01*
X47951602Y-44050746D01*
X47946477Y-44055077D01*
X47946474Y-44055079D01*
X47815587Y-44165687D01*
X47810460Y-44170020D01*
X47698223Y-44316820D01*
X47695384Y-44322907D01*
X47695384Y-44322908D01*
X47622963Y-44478214D01*
X47622961Y-44478218D01*
X47620127Y-44484297D01*
X47618663Y-44490845D01*
X47618663Y-44490846D01*
X47600988Y-44569923D01*
X47579817Y-44664637D01*
X47579500Y-44670307D01*
X47579500Y-45906164D01*
X45670500Y-45906164D01*
X45670500Y-43908309D01*
X45690185Y-43841270D01*
X45742989Y-43795515D01*
X45812147Y-43785571D01*
X45864199Y-43805752D01*
X45872803Y-43811599D01*
X45872807Y-43811601D01*
X45878360Y-43815375D01*
X46049935Y-43884000D01*
X46056558Y-43885096D01*
X46056560Y-43885097D01*
X46225616Y-43913084D01*
X46225618Y-43913084D01*
X46232244Y-43914181D01*
X46416781Y-43904510D01*
X46594936Y-43855438D01*
X46758398Y-43769254D01*
X46763523Y-43764923D01*
X46763526Y-43764921D01*
X46894413Y-43654313D01*
X46894415Y-43654311D01*
X46899540Y-43649980D01*
X47011777Y-43503180D01*
X47014616Y-43497092D01*
X47087037Y-43341786D01*
X47087039Y-43341782D01*
X47089873Y-43335703D01*
X47100581Y-43287799D01*
X47129074Y-43160326D01*
X47129075Y-43160322D01*
X47130183Y-43155363D01*
X47130500Y-43149693D01*
X47130500Y-41913836D01*
X47115558Y-41776291D01*
X47107276Y-41751680D01*
X47058761Y-41607523D01*
X47056617Y-41601152D01*
X46961443Y-41442756D01*
X46865489Y-41341288D01*
X46839090Y-41313372D01*
X46839089Y-41313371D01*
X46834476Y-41308493D01*
X46681640Y-41204625D01*
X46510065Y-41136000D01*
X46503442Y-41134904D01*
X46503440Y-41134903D01*
X46334384Y-41106916D01*
X46334382Y-41106916D01*
X46327756Y-41105819D01*
X46143219Y-41115490D01*
X45965064Y-41164562D01*
X45959124Y-41167694D01*
X45852332Y-41223999D01*
X45783850Y-41237853D01*
X45718749Y-41212483D01*
X45677698Y-41155944D01*
X45670500Y-41114311D01*
X45670500Y-40306164D01*
X47579500Y-40306164D01*
X47594442Y-40443709D01*
X47596585Y-40450076D01*
X47596585Y-40450077D01*
X47600077Y-40460453D01*
X47653383Y-40618848D01*
X47748557Y-40777244D01*
X47753169Y-40782121D01*
X47837491Y-40871288D01*
X47875524Y-40911507D01*
X48028360Y-41015375D01*
X48199935Y-41084000D01*
X48206558Y-41085096D01*
X48206560Y-41085097D01*
X48375616Y-41113084D01*
X48375618Y-41113084D01*
X48382244Y-41114181D01*
X48566781Y-41104510D01*
X48744936Y-41055438D01*
X48879827Y-40984318D01*
X48902458Y-40972386D01*
X48902459Y-40972385D01*
X48908398Y-40969254D01*
X48913523Y-40964923D01*
X48913526Y-40964921D01*
X49044413Y-40854313D01*
X49044415Y-40854311D01*
X49049540Y-40849980D01*
X49161777Y-40703180D01*
X49189055Y-40644683D01*
X49237037Y-40541786D01*
X49237039Y-40541782D01*
X49239873Y-40535703D01*
X49241416Y-40528800D01*
X49279074Y-40360326D01*
X49279075Y-40360322D01*
X49280183Y-40355363D01*
X49280500Y-40349693D01*
X49280500Y-39113836D01*
X49265558Y-38976291D01*
X49206617Y-38801152D01*
X49111443Y-38642756D01*
X49031881Y-38558622D01*
X48989090Y-38513372D01*
X48989089Y-38513371D01*
X48984476Y-38508493D01*
X48831640Y-38404625D01*
X48660065Y-38336000D01*
X48653442Y-38334904D01*
X48653440Y-38334903D01*
X48484384Y-38306916D01*
X48484382Y-38306916D01*
X48477756Y-38305819D01*
X48293219Y-38315490D01*
X48115064Y-38364562D01*
X47951602Y-38450746D01*
X47946477Y-38455077D01*
X47946474Y-38455079D01*
X47815587Y-38565687D01*
X47810460Y-38570020D01*
X47698223Y-38716820D01*
X47620127Y-38884297D01*
X47618663Y-38890845D01*
X47618663Y-38890846D01*
X47586575Y-39034405D01*
X47579817Y-39064637D01*
X47579500Y-39070307D01*
X47579500Y-40306164D01*
X45670500Y-40306164D01*
X45670500Y-38152611D01*
X63404394Y-38152611D01*
X63422999Y-38321135D01*
X63425565Y-38328147D01*
X63425566Y-38328151D01*
X63478399Y-38472522D01*
X63481266Y-38480356D01*
X63485433Y-38486558D01*
X63485435Y-38486561D01*
X63516116Y-38532219D01*
X63575830Y-38621083D01*
X63581360Y-38626115D01*
X63695702Y-38730159D01*
X63695706Y-38730162D01*
X63701233Y-38735191D01*
X63850235Y-38816092D01*
X63970364Y-38847607D01*
X64003934Y-38856414D01*
X64060149Y-38888674D01*
X65344642Y-40173166D01*
X65348235Y-40176912D01*
X65390299Y-40222656D01*
X65411969Y-40236092D01*
X65427362Y-40245636D01*
X65436990Y-40252253D01*
X65464984Y-40273502D01*
X65464987Y-40273504D01*
X65471717Y-40278612D01*
X65479575Y-40281723D01*
X65479580Y-40281726D01*
X65485855Y-40284210D01*
X65505556Y-40294118D01*
X65518486Y-40302135D01*
X65532354Y-40306164D01*
X65560358Y-40314300D01*
X65571407Y-40318082D01*
X65608965Y-40332953D01*
X65646768Y-40356529D01*
X65661233Y-40369691D01*
X65667805Y-40373259D01*
X65667806Y-40373260D01*
X65684358Y-40382247D01*
X65810235Y-40450592D01*
X65905585Y-40475607D01*
X65967005Y-40491720D01*
X65967007Y-40491720D01*
X65974233Y-40493616D01*
X66057178Y-40494919D01*
X66136290Y-40496162D01*
X66136293Y-40496162D01*
X66143760Y-40496279D01*
X66266209Y-40468235D01*
X66301738Y-40460098D01*
X66301739Y-40460098D01*
X66309029Y-40458428D01*
X66407125Y-40409091D01*
X66453820Y-40385606D01*
X66453822Y-40385605D01*
X66460498Y-40382247D01*
X66466180Y-40377394D01*
X66466183Y-40377392D01*
X66583741Y-40276987D01*
X66589423Y-40272134D01*
X66688361Y-40134447D01*
X66751601Y-39977134D01*
X66753610Y-39963021D01*
X66774918Y-39813300D01*
X66774918Y-39813294D01*
X66775490Y-39809278D01*
X66775645Y-39794500D01*
X66773904Y-39780110D01*
X66756175Y-39633605D01*
X66756174Y-39633601D01*
X66755276Y-39626180D01*
X66732233Y-39565199D01*
X66697989Y-39474573D01*
X66697987Y-39474570D01*
X66695345Y-39467577D01*
X66666782Y-39426018D01*
X66603549Y-39334013D01*
X66603546Y-39334010D01*
X66599312Y-39327849D01*
X66518385Y-39255745D01*
X66478303Y-39220033D01*
X66478301Y-39220032D01*
X66472721Y-39215060D01*
X66322881Y-39135724D01*
X66158441Y-39094419D01*
X66072248Y-39093968D01*
X65996368Y-39093570D01*
X65996367Y-39093570D01*
X65988895Y-39093531D01*
X65981633Y-39095275D01*
X65981629Y-39095275D01*
X65921879Y-39109620D01*
X65852097Y-39106129D01*
X65805251Y-39076727D01*
X65801135Y-39072611D01*
X68554394Y-39072611D01*
X68555214Y-39080039D01*
X68555214Y-39080041D01*
X68566451Y-39181827D01*
X68572999Y-39241135D01*
X68575565Y-39248147D01*
X68575566Y-39248151D01*
X68619601Y-39368481D01*
X68631266Y-39400356D01*
X68635433Y-39406558D01*
X68635435Y-39406561D01*
X68676436Y-39467577D01*
X68725830Y-39541083D01*
X68731360Y-39546115D01*
X68845702Y-39650159D01*
X68845706Y-39650162D01*
X68851233Y-39655191D01*
X69000235Y-39736092D01*
X69095585Y-39761107D01*
X69157005Y-39777220D01*
X69157007Y-39777220D01*
X69164233Y-39779116D01*
X69247178Y-39780419D01*
X69326290Y-39781662D01*
X69326293Y-39781662D01*
X69333760Y-39781779D01*
X69465583Y-39751588D01*
X69491738Y-39745598D01*
X69491739Y-39745598D01*
X69499029Y-39743928D01*
X69616924Y-39684633D01*
X69643820Y-39671106D01*
X69643822Y-39671105D01*
X69650498Y-39667747D01*
X69656180Y-39662894D01*
X69656183Y-39662892D01*
X69773741Y-39562487D01*
X69779423Y-39557634D01*
X69878361Y-39419947D01*
X69941601Y-39262634D01*
X69943283Y-39250815D01*
X69964918Y-39098800D01*
X69964918Y-39098794D01*
X69965490Y-39094778D01*
X69965645Y-39080000D01*
X69962113Y-39050812D01*
X69946175Y-38919105D01*
X69946174Y-38919101D01*
X69945276Y-38911680D01*
X69909874Y-38817990D01*
X69887989Y-38760073D01*
X69887987Y-38760070D01*
X69885345Y-38753077D01*
X69856758Y-38711483D01*
X69793549Y-38619513D01*
X69793546Y-38619510D01*
X69789312Y-38613349D01*
X69735818Y-38565687D01*
X69727011Y-38557840D01*
X69690052Y-38498545D01*
X69685500Y-38465257D01*
X69685500Y-38345171D01*
X69705185Y-38278132D01*
X69757989Y-38232377D01*
X69827147Y-38222433D01*
X69890703Y-38251458D01*
X69906570Y-38269396D01*
X69906776Y-38269219D01*
X69911660Y-38274877D01*
X69915830Y-38281083D01*
X69921360Y-38286115D01*
X70035702Y-38390159D01*
X70035706Y-38390162D01*
X70041233Y-38395191D01*
X70190235Y-38476092D01*
X70258222Y-38493928D01*
X70347005Y-38517220D01*
X70347007Y-38517220D01*
X70354233Y-38519116D01*
X70437178Y-38520419D01*
X70516290Y-38521662D01*
X70516293Y-38521662D01*
X70523760Y-38521779D01*
X70660037Y-38490568D01*
X70681738Y-38485598D01*
X70681739Y-38485598D01*
X70689029Y-38483928D01*
X70777279Y-38439543D01*
X70833820Y-38411106D01*
X70833822Y-38411105D01*
X70840498Y-38407747D01*
X70846180Y-38402894D01*
X70846183Y-38402892D01*
X70966407Y-38300210D01*
X71030168Y-38271639D01*
X71046939Y-38270500D01*
X72940975Y-38270500D01*
X73008014Y-38290185D01*
X73053769Y-38342989D01*
X73063713Y-38412147D01*
X73056505Y-38439543D01*
X73030471Y-38506315D01*
X73030469Y-38506322D01*
X73027756Y-38513281D01*
X73026780Y-38520691D01*
X73026780Y-38520693D01*
X73013382Y-38622461D01*
X72985115Y-38686358D01*
X72926791Y-38724829D01*
X72902443Y-38728413D01*
X72902562Y-38729443D01*
X72895136Y-38730302D01*
X72887663Y-38730263D01*
X72880399Y-38732007D01*
X72730063Y-38768100D01*
X72730061Y-38768101D01*
X72722800Y-38769844D01*
X72716167Y-38773267D01*
X72716163Y-38773269D01*
X72662142Y-38801152D01*
X72572137Y-38847607D01*
X72566505Y-38852520D01*
X72483737Y-38924723D01*
X72444372Y-38959063D01*
X72346881Y-39097779D01*
X72285292Y-39255745D01*
X72284316Y-39263155D01*
X72284316Y-39263157D01*
X72275966Y-39326586D01*
X72263162Y-39423843D01*
X72263982Y-39431271D01*
X72263982Y-39431273D01*
X72275420Y-39534877D01*
X72281767Y-39592367D01*
X72284333Y-39599379D01*
X72284334Y-39599383D01*
X72316988Y-39688612D01*
X72340034Y-39751588D01*
X72344201Y-39757790D01*
X72344203Y-39757793D01*
X72379806Y-39810775D01*
X72434598Y-39892315D01*
X72440128Y-39897347D01*
X72554470Y-40001391D01*
X72554474Y-40001394D01*
X72560001Y-40006423D01*
X72709003Y-40087324D01*
X72804353Y-40112339D01*
X72865773Y-40128452D01*
X72865775Y-40128452D01*
X72873001Y-40130348D01*
X72955946Y-40131651D01*
X73035058Y-40132894D01*
X73035061Y-40132894D01*
X73042528Y-40133011D01*
X73164977Y-40104967D01*
X73200506Y-40096830D01*
X73200507Y-40096830D01*
X73207797Y-40095160D01*
X73214476Y-40091801D01*
X73214481Y-40091799D01*
X73315900Y-40040791D01*
X73384636Y-40028255D01*
X73449238Y-40054870D01*
X73459296Y-40063888D01*
X73768180Y-40372772D01*
X73801665Y-40434095D01*
X73804499Y-40460453D01*
X73804499Y-41991016D01*
X73784814Y-42058055D01*
X73732010Y-42103810D01*
X73709447Y-42111590D01*
X73666296Y-42121950D01*
X73659032Y-42123694D01*
X73652399Y-42127117D01*
X73652395Y-42127119D01*
X73609551Y-42149233D01*
X73508369Y-42201457D01*
X73502737Y-42206370D01*
X73412392Y-42285183D01*
X73380604Y-42312913D01*
X73283113Y-42451629D01*
X73221524Y-42609595D01*
X73220548Y-42617005D01*
X73220548Y-42617007D01*
X73214344Y-42664135D01*
X73199394Y-42777693D01*
X73200214Y-42785121D01*
X73200214Y-42785123D01*
X73201841Y-42799860D01*
X73217999Y-42946217D01*
X73220565Y-42953229D01*
X73220566Y-42953233D01*
X73248363Y-43029191D01*
X73276266Y-43105438D01*
X73280433Y-43111640D01*
X73280435Y-43111643D01*
X73330159Y-43185640D01*
X73370830Y-43246165D01*
X73376360Y-43251197D01*
X73490702Y-43355241D01*
X73490706Y-43355244D01*
X73496233Y-43360273D01*
X73645235Y-43441174D01*
X73736813Y-43465199D01*
X73802005Y-43482302D01*
X73802007Y-43482302D01*
X73809233Y-43484198D01*
X73892178Y-43485501D01*
X73971290Y-43486744D01*
X73971293Y-43486744D01*
X73978760Y-43486861D01*
X74101209Y-43458817D01*
X74136738Y-43450680D01*
X74136739Y-43450680D01*
X74144029Y-43449010D01*
X74222027Y-43409781D01*
X74288820Y-43376188D01*
X74288822Y-43376187D01*
X74295498Y-43372829D01*
X74348824Y-43327284D01*
X74412585Y-43298713D01*
X74481671Y-43309150D01*
X74512809Y-43329859D01*
X74546233Y-43360273D01*
X74695235Y-43441174D01*
X74786813Y-43465199D01*
X74852005Y-43482302D01*
X74852007Y-43482302D01*
X74859233Y-43484198D01*
X74942178Y-43485501D01*
X75021290Y-43486744D01*
X75021293Y-43486744D01*
X75028760Y-43486861D01*
X75151209Y-43458817D01*
X75186738Y-43450680D01*
X75186739Y-43450680D01*
X75194029Y-43449010D01*
X75272027Y-43409781D01*
X75338820Y-43376188D01*
X75338822Y-43376187D01*
X75345498Y-43372829D01*
X75351180Y-43367976D01*
X75351183Y-43367974D01*
X75468741Y-43267569D01*
X75474423Y-43262716D01*
X75573361Y-43125029D01*
X75636601Y-42967716D01*
X75640718Y-42938789D01*
X75659918Y-42803882D01*
X75659918Y-42803876D01*
X75660490Y-42799860D01*
X75660645Y-42785082D01*
X75656045Y-42747072D01*
X75641175Y-42624187D01*
X75641174Y-42624183D01*
X75640276Y-42616762D01*
X75620481Y-42564376D01*
X84764455Y-42564376D01*
X84765179Y-42571265D01*
X84765179Y-42571268D01*
X84774208Y-42657172D01*
X84783227Y-42742983D01*
X84785461Y-42749544D01*
X84785461Y-42749546D01*
X84798942Y-42789147D01*
X84841103Y-42912993D01*
X84844734Y-42918895D01*
X84921809Y-43044178D01*
X84935206Y-43065955D01*
X85060859Y-43194268D01*
X85077495Y-43204989D01*
X85174600Y-43267569D01*
X85211817Y-43291554D01*
X85267113Y-43311680D01*
X85374063Y-43350607D01*
X85374065Y-43350608D01*
X85380578Y-43352978D01*
X85438253Y-43360264D01*
X85515417Y-43370012D01*
X85515423Y-43370012D01*
X85519283Y-43370500D01*
X85615155Y-43370500D01*
X85618602Y-43370113D01*
X85618608Y-43370113D01*
X85741581Y-43356319D01*
X85748472Y-43355546D01*
X85918073Y-43296485D01*
X86070375Y-43201316D01*
X86166924Y-43105438D01*
X86192890Y-43079653D01*
X86192891Y-43079652D01*
X86197807Y-43074770D01*
X86294037Y-42923136D01*
X86299984Y-42906436D01*
X86351957Y-42760479D01*
X86351958Y-42760475D01*
X86354281Y-42753951D01*
X86375545Y-42575624D01*
X86373640Y-42557494D01*
X86357498Y-42403913D01*
X86357498Y-42403911D01*
X86356773Y-42397017D01*
X86298897Y-42227007D01*
X86245614Y-42140397D01*
X86208427Y-42079950D01*
X86208426Y-42079949D01*
X86204794Y-42074045D01*
X86079141Y-41945732D01*
X85928183Y-41848446D01*
X85829527Y-41812538D01*
X85765937Y-41789393D01*
X85765935Y-41789392D01*
X85759422Y-41787022D01*
X85701747Y-41779736D01*
X85624583Y-41769988D01*
X85624577Y-41769988D01*
X85620717Y-41769500D01*
X85524845Y-41769500D01*
X85521398Y-41769887D01*
X85521392Y-41769887D01*
X85398419Y-41783681D01*
X85391528Y-41784454D01*
X85221927Y-41843515D01*
X85069625Y-41938684D01*
X84942193Y-42065230D01*
X84845963Y-42216864D01*
X84843636Y-42223399D01*
X84788043Y-42379521D01*
X84788042Y-42379525D01*
X84785719Y-42386049D01*
X84764455Y-42564376D01*
X75620481Y-42564376D01*
X75599083Y-42507747D01*
X75582989Y-42465155D01*
X75582987Y-42465152D01*
X75580345Y-42458159D01*
X75543063Y-42403913D01*
X75488549Y-42324595D01*
X75488546Y-42324592D01*
X75484312Y-42318431D01*
X75389060Y-42233564D01*
X75363303Y-42210615D01*
X75363301Y-42210614D01*
X75357721Y-42205642D01*
X75343347Y-42198031D01*
X75282801Y-42165974D01*
X75207881Y-42126306D01*
X75158603Y-42113928D01*
X75149292Y-42111589D01*
X75089068Y-42076165D01*
X75057556Y-42013805D01*
X75055501Y-41991325D01*
X75055501Y-41442611D01*
X77374394Y-41442611D01*
X77375214Y-41450039D01*
X77375214Y-41450041D01*
X77377696Y-41472522D01*
X77392999Y-41611135D01*
X77395565Y-41618147D01*
X77395566Y-41618151D01*
X77444521Y-41751925D01*
X77451266Y-41770356D01*
X77455433Y-41776558D01*
X77455435Y-41776561D01*
X77503740Y-41848446D01*
X77545830Y-41911083D01*
X77551360Y-41916115D01*
X77665702Y-42020159D01*
X77665706Y-42020162D01*
X77671233Y-42025191D01*
X77820235Y-42106092D01*
X77910624Y-42129805D01*
X77977005Y-42147220D01*
X77977007Y-42147220D01*
X77984233Y-42149116D01*
X78067178Y-42150419D01*
X78146290Y-42151662D01*
X78146293Y-42151662D01*
X78153760Y-42151779D01*
X78284003Y-42121950D01*
X78311738Y-42115598D01*
X78311739Y-42115598D01*
X78319029Y-42113928D01*
X78394112Y-42076165D01*
X78463820Y-42041106D01*
X78463822Y-42041105D01*
X78470498Y-42037747D01*
X78476180Y-42032894D01*
X78476183Y-42032892D01*
X78596407Y-41930210D01*
X78660168Y-41901639D01*
X78676939Y-41900500D01*
X79045897Y-41900500D01*
X79060471Y-41901359D01*
X79085105Y-41904275D01*
X79085108Y-41904275D01*
X79094310Y-41905364D01*
X79130975Y-41898668D01*
X79152022Y-41894824D01*
X79155864Y-41894184D01*
X79189017Y-41889199D01*
X79213962Y-41885449D01*
X79220475Y-41882321D01*
X79227573Y-41881025D01*
X79235799Y-41876752D01*
X79279663Y-41853967D01*
X79283146Y-41852227D01*
X79336079Y-41826809D01*
X79341299Y-41821984D01*
X79341520Y-41821835D01*
X79347788Y-41818579D01*
X79352828Y-41814275D01*
X79390097Y-41777006D01*
X79393607Y-41773631D01*
X79428749Y-41741147D01*
X79428751Y-41741144D01*
X79435556Y-41734854D01*
X79439237Y-41728516D01*
X79444828Y-41722275D01*
X80080336Y-41086767D01*
X80141659Y-41053282D01*
X80169964Y-41050463D01*
X80246290Y-41051662D01*
X80246293Y-41051662D01*
X80253760Y-41051779D01*
X80401826Y-41017868D01*
X80411738Y-41015598D01*
X80411739Y-41015598D01*
X80419029Y-41013928D01*
X80540018Y-40953077D01*
X80563820Y-40941106D01*
X80563822Y-40941105D01*
X80570498Y-40937747D01*
X80576180Y-40932894D01*
X80576183Y-40932892D01*
X80693741Y-40832487D01*
X80699423Y-40827634D01*
X80798361Y-40689947D01*
X80861601Y-40532634D01*
X80862719Y-40524778D01*
X80884918Y-40368800D01*
X80884918Y-40368794D01*
X80885490Y-40364778D01*
X80885645Y-40350000D01*
X80883854Y-40335199D01*
X80866175Y-40189105D01*
X80866174Y-40189101D01*
X80865276Y-40181680D01*
X80846255Y-40131342D01*
X80807989Y-40030073D01*
X80807987Y-40030070D01*
X80805345Y-40023077D01*
X80785077Y-39993587D01*
X80713549Y-39889513D01*
X80713546Y-39889510D01*
X80709312Y-39883349D01*
X80658635Y-39838197D01*
X80588303Y-39775533D01*
X80588301Y-39775532D01*
X80582721Y-39770560D01*
X80568347Y-39762949D01*
X80439489Y-39694723D01*
X80432881Y-39691224D01*
X80268441Y-39649919D01*
X80182248Y-39649468D01*
X80106368Y-39649070D01*
X80106367Y-39649070D01*
X80098895Y-39649031D01*
X80077235Y-39654231D01*
X79941295Y-39686868D01*
X79941293Y-39686869D01*
X79934032Y-39688612D01*
X79927399Y-39692035D01*
X79927395Y-39692037D01*
X79860465Y-39726583D01*
X79783369Y-39766375D01*
X79777737Y-39771288D01*
X79670525Y-39864815D01*
X79655604Y-39877831D01*
X79558113Y-40016547D01*
X79496524Y-40174513D01*
X79495548Y-40181923D01*
X79495548Y-40181925D01*
X79491005Y-40216435D01*
X79474394Y-40342611D01*
X79475405Y-40351772D01*
X79475183Y-40353025D01*
X79475136Y-40357516D01*
X79474387Y-40357508D01*
X79463199Y-40420563D01*
X79439836Y-40453061D01*
X78929716Y-40963181D01*
X78868393Y-40996666D01*
X78842035Y-40999500D01*
X78674667Y-40999500D01*
X78607628Y-40979815D01*
X78592178Y-40968083D01*
X78488303Y-40875533D01*
X78488301Y-40875532D01*
X78482721Y-40870560D01*
X78468347Y-40862949D01*
X78387307Y-40820041D01*
X78332881Y-40791224D01*
X78168441Y-40749919D01*
X78082248Y-40749468D01*
X78006368Y-40749070D01*
X78006367Y-40749070D01*
X77998895Y-40749031D01*
X77977235Y-40754231D01*
X77841295Y-40786868D01*
X77841293Y-40786869D01*
X77834032Y-40788612D01*
X77827399Y-40792035D01*
X77827395Y-40792037D01*
X77765343Y-40824065D01*
X77683369Y-40866375D01*
X77677737Y-40871288D01*
X77561846Y-40972386D01*
X77555604Y-40977831D01*
X77458113Y-41116547D01*
X77396524Y-41274513D01*
X77395548Y-41281923D01*
X77395548Y-41281925D01*
X77391408Y-41313372D01*
X77374394Y-41442611D01*
X75055501Y-41442611D01*
X75055501Y-40025282D01*
X75055500Y-40025277D01*
X75055500Y-39993368D01*
X75048652Y-39972291D01*
X75044115Y-39953395D01*
X75040647Y-39931497D01*
X75030587Y-39911753D01*
X75023141Y-39893776D01*
X75022667Y-39892315D01*
X75016297Y-39872711D01*
X75003275Y-39854787D01*
X74993108Y-39838197D01*
X74987481Y-39827154D01*
X74983051Y-39818459D01*
X74737203Y-39572611D01*
X84734394Y-39572611D01*
X84735214Y-39580039D01*
X84735214Y-39580041D01*
X84739991Y-39623310D01*
X84752999Y-39741135D01*
X84755565Y-39748147D01*
X84755566Y-39748151D01*
X84803023Y-39877831D01*
X84811266Y-39900356D01*
X84815433Y-39906558D01*
X84815435Y-39906561D01*
X84838667Y-39941134D01*
X84905830Y-40041083D01*
X84911360Y-40046115D01*
X85025702Y-40150159D01*
X85025706Y-40150162D01*
X85031233Y-40155191D01*
X85180235Y-40236092D01*
X85275585Y-40261107D01*
X85337005Y-40277220D01*
X85337007Y-40277220D01*
X85344233Y-40279116D01*
X85454313Y-40280845D01*
X85521034Y-40301580D01*
X85540046Y-40317149D01*
X85894081Y-40671184D01*
X85927566Y-40732507D01*
X85929339Y-40775048D01*
X85924394Y-40812611D01*
X85925214Y-40820039D01*
X85925214Y-40820041D01*
X85934773Y-40906628D01*
X85942999Y-40981135D01*
X85945565Y-40988147D01*
X85945566Y-40988151D01*
X85988627Y-41105819D01*
X86001266Y-41140356D01*
X86005433Y-41146558D01*
X86005435Y-41146561D01*
X86054730Y-41219919D01*
X86095830Y-41281083D01*
X86101360Y-41286115D01*
X86215702Y-41390159D01*
X86215706Y-41390162D01*
X86221233Y-41395191D01*
X86370235Y-41476092D01*
X86465585Y-41501107D01*
X86527005Y-41517220D01*
X86527007Y-41517220D01*
X86534233Y-41519116D01*
X86617178Y-41520419D01*
X86696290Y-41521662D01*
X86696293Y-41521662D01*
X86703760Y-41521779D01*
X86826209Y-41493735D01*
X86861738Y-41485598D01*
X86861739Y-41485598D01*
X86869029Y-41483928D01*
X86965916Y-41435199D01*
X87013820Y-41411106D01*
X87013822Y-41411105D01*
X87020498Y-41407747D01*
X87026180Y-41402894D01*
X87026183Y-41402892D01*
X87143741Y-41302487D01*
X87149423Y-41297634D01*
X87248361Y-41159947D01*
X87311601Y-41002634D01*
X87313662Y-40988151D01*
X87334918Y-40838800D01*
X87334918Y-40838794D01*
X87335490Y-40834778D01*
X87335537Y-40830356D01*
X87335602Y-40824065D01*
X87335645Y-40820000D01*
X87330471Y-40777244D01*
X87316175Y-40659105D01*
X87316174Y-40659101D01*
X87315276Y-40651680D01*
X87271452Y-40535703D01*
X87257989Y-40500073D01*
X87257987Y-40500070D01*
X87255345Y-40493077D01*
X87214808Y-40434095D01*
X87163549Y-40359513D01*
X87163546Y-40359510D01*
X87159312Y-40353349D01*
X87106353Y-40306164D01*
X87038303Y-40245533D01*
X87038301Y-40245532D01*
X87032721Y-40240560D01*
X87024283Y-40236092D01*
X86912514Y-40176914D01*
X86882881Y-40161224D01*
X86718441Y-40119919D01*
X86673493Y-40119684D01*
X86667469Y-40119652D01*
X86600534Y-40099617D01*
X86580438Y-40083335D01*
X86181736Y-39684633D01*
X86148251Y-39623310D01*
X86146269Y-39594786D01*
X86145490Y-39594778D01*
X86145602Y-39584065D01*
X86145645Y-39580000D01*
X86143526Y-39562487D01*
X86126175Y-39419105D01*
X86126174Y-39419101D01*
X86125276Y-39411680D01*
X86108992Y-39368585D01*
X86067989Y-39260073D01*
X86067987Y-39260070D01*
X86065345Y-39253077D01*
X86060857Y-39246547D01*
X85973549Y-39119513D01*
X85973546Y-39119510D01*
X85969312Y-39113349D01*
X85909069Y-39059674D01*
X85848303Y-39005533D01*
X85848301Y-39005532D01*
X85842721Y-39000560D01*
X85828347Y-38992949D01*
X85699489Y-38924723D01*
X85692881Y-38921224D01*
X85528441Y-38879919D01*
X85442248Y-38879468D01*
X85366368Y-38879070D01*
X85366367Y-38879070D01*
X85358895Y-38879031D01*
X85337235Y-38884231D01*
X85201295Y-38916868D01*
X85201293Y-38916869D01*
X85194032Y-38918612D01*
X85187399Y-38922035D01*
X85187395Y-38922037D01*
X85125186Y-38954146D01*
X85043369Y-38996375D01*
X85037737Y-39001288D01*
X84927127Y-39097779D01*
X84915604Y-39107831D01*
X84818113Y-39246547D01*
X84756524Y-39404513D01*
X84734394Y-39572611D01*
X74737203Y-39572611D01*
X74346419Y-39181827D01*
X74312934Y-39120504D01*
X74317918Y-39050812D01*
X74325327Y-39034652D01*
X74329593Y-39028715D01*
X74392833Y-38871402D01*
X74393886Y-38864005D01*
X74416150Y-38707568D01*
X74416150Y-38707562D01*
X74416722Y-38703546D01*
X74416877Y-38688768D01*
X74407823Y-38613948D01*
X74397407Y-38527873D01*
X74397406Y-38527869D01*
X74396508Y-38520448D01*
X74386487Y-38493928D01*
X74365479Y-38438330D01*
X74360196Y-38368661D01*
X74393418Y-38307195D01*
X74454598Y-38273448D01*
X74481474Y-38270500D01*
X75025237Y-38270500D01*
X75092276Y-38290185D01*
X75108690Y-38302786D01*
X75215698Y-38400155D01*
X75215700Y-38400157D01*
X75221233Y-38405191D01*
X75370235Y-38486092D01*
X75441241Y-38504720D01*
X75527005Y-38527220D01*
X75527007Y-38527220D01*
X75534233Y-38529116D01*
X75617178Y-38530419D01*
X75696290Y-38531662D01*
X75696293Y-38531662D01*
X75703760Y-38531779D01*
X75848870Y-38498545D01*
X75861738Y-38495598D01*
X75861739Y-38495598D01*
X75869029Y-38493928D01*
X75961114Y-38447614D01*
X76013820Y-38421106D01*
X76013822Y-38421105D01*
X76020498Y-38417747D01*
X76026180Y-38412894D01*
X76026183Y-38412892D01*
X76143741Y-38312487D01*
X76149423Y-38307634D01*
X76248361Y-38169947D01*
X76311601Y-38012634D01*
X76313527Y-37999104D01*
X76334918Y-37848800D01*
X76334918Y-37848794D01*
X76335490Y-37844778D01*
X76335540Y-37840073D01*
X76335602Y-37834065D01*
X76335645Y-37830000D01*
X76330388Y-37786561D01*
X76316175Y-37669105D01*
X76316174Y-37669101D01*
X76315276Y-37661680D01*
X76297149Y-37613707D01*
X76257989Y-37510073D01*
X76257987Y-37510070D01*
X76255345Y-37503077D01*
X76226935Y-37461740D01*
X76220661Y-37452611D01*
X82754394Y-37452611D01*
X82755214Y-37460039D01*
X82755214Y-37460041D01*
X82768133Y-37577061D01*
X82772999Y-37621135D01*
X82775565Y-37628147D01*
X82775566Y-37628151D01*
X82799645Y-37693948D01*
X82831266Y-37780356D01*
X82835433Y-37786558D01*
X82835435Y-37786561D01*
X82877258Y-37848800D01*
X82925830Y-37921083D01*
X82931360Y-37926115D01*
X83045702Y-38030159D01*
X83045706Y-38030162D01*
X83051233Y-38035191D01*
X83200235Y-38116092D01*
X83292724Y-38140356D01*
X83357005Y-38157220D01*
X83357007Y-38157220D01*
X83364233Y-38159116D01*
X83447178Y-38160419D01*
X83526290Y-38161662D01*
X83526293Y-38161662D01*
X83533760Y-38161779D01*
X83656209Y-38133735D01*
X83691738Y-38125598D01*
X83691739Y-38125598D01*
X83699029Y-38123928D01*
X83792162Y-38077087D01*
X83843820Y-38051106D01*
X83843822Y-38051105D01*
X83850498Y-38047747D01*
X83856180Y-38042894D01*
X83856183Y-38042892D01*
X83976407Y-37940210D01*
X84040168Y-37911639D01*
X84056939Y-37910500D01*
X87776227Y-37910500D01*
X87843266Y-37930185D01*
X87859680Y-37942786D01*
X87955698Y-38030155D01*
X87955700Y-38030157D01*
X87961233Y-38035191D01*
X88110235Y-38116092D01*
X88202724Y-38140356D01*
X88267005Y-38157220D01*
X88267007Y-38157220D01*
X88274233Y-38159116D01*
X88357178Y-38160419D01*
X88436290Y-38161662D01*
X88436293Y-38161662D01*
X88443760Y-38161779D01*
X88566209Y-38133735D01*
X88601738Y-38125598D01*
X88601739Y-38125598D01*
X88609029Y-38123928D01*
X88702162Y-38077087D01*
X88753820Y-38051106D01*
X88753822Y-38051105D01*
X88760498Y-38047747D01*
X88766180Y-38042894D01*
X88766183Y-38042892D01*
X88883741Y-37942487D01*
X88889423Y-37937634D01*
X88988361Y-37799947D01*
X89051601Y-37642634D01*
X89060332Y-37581288D01*
X89074918Y-37478800D01*
X89074918Y-37478794D01*
X89075490Y-37474778D01*
X89075645Y-37460000D01*
X89073854Y-37445199D01*
X89056175Y-37299105D01*
X89056174Y-37299101D01*
X89055276Y-37291680D01*
X89036862Y-37242949D01*
X88997989Y-37140073D01*
X88997987Y-37140070D01*
X88995345Y-37133077D01*
X88985718Y-37119070D01*
X88903549Y-36999513D01*
X88903546Y-36999510D01*
X88899312Y-36993349D01*
X88772721Y-36880560D01*
X88758347Y-36872949D01*
X88629489Y-36804723D01*
X88622881Y-36801224D01*
X88458441Y-36759919D01*
X88372248Y-36759468D01*
X88296368Y-36759070D01*
X88296367Y-36759070D01*
X88288895Y-36759031D01*
X88267235Y-36764231D01*
X88131295Y-36796868D01*
X88131293Y-36796869D01*
X88124032Y-36798612D01*
X88117399Y-36802035D01*
X88117395Y-36802037D01*
X88050465Y-36836583D01*
X87973369Y-36876375D01*
X87856779Y-36978083D01*
X87855794Y-36978942D01*
X87792336Y-37008178D01*
X87774280Y-37009500D01*
X84054667Y-37009500D01*
X83987628Y-36989815D01*
X83972178Y-36978083D01*
X83868303Y-36885533D01*
X83868301Y-36885532D01*
X83862721Y-36880560D01*
X83848347Y-36872949D01*
X83719489Y-36804723D01*
X83712881Y-36801224D01*
X83548441Y-36759919D01*
X83462248Y-36759468D01*
X83386368Y-36759070D01*
X83386367Y-36759070D01*
X83378895Y-36759031D01*
X83357235Y-36764231D01*
X83221295Y-36796868D01*
X83221293Y-36796869D01*
X83214032Y-36798612D01*
X83207399Y-36802035D01*
X83207395Y-36802037D01*
X83140465Y-36836583D01*
X83063369Y-36876375D01*
X83057737Y-36881288D01*
X82945794Y-36978942D01*
X82935604Y-36987831D01*
X82838113Y-37126547D01*
X82776524Y-37284513D01*
X82775548Y-37291923D01*
X82775548Y-37291925D01*
X82768188Y-37347831D01*
X82754394Y-37452611D01*
X76220661Y-37452611D01*
X76163549Y-37369513D01*
X76163546Y-37369510D01*
X76159312Y-37363349D01*
X76087844Y-37299673D01*
X76038303Y-37255533D01*
X76038301Y-37255532D01*
X76032721Y-37250560D01*
X76018347Y-37242949D01*
X75951034Y-37207309D01*
X75882881Y-37171224D01*
X75718441Y-37129919D01*
X75632248Y-37129468D01*
X75556368Y-37129070D01*
X75556367Y-37129070D01*
X75548895Y-37129031D01*
X75532043Y-37133077D01*
X75391295Y-37166868D01*
X75391293Y-37166869D01*
X75384032Y-37168612D01*
X75377399Y-37172035D01*
X75377395Y-37172037D01*
X75328475Y-37197287D01*
X75233369Y-37246375D01*
X75227737Y-37251288D01*
X75127257Y-37338942D01*
X75063799Y-37368178D01*
X75045743Y-37369500D01*
X71044667Y-37369500D01*
X70977628Y-37349815D01*
X70962178Y-37338083D01*
X70858303Y-37245533D01*
X70858301Y-37245532D01*
X70852721Y-37240560D01*
X70838347Y-37232949D01*
X70755690Y-37189185D01*
X70702881Y-37161224D01*
X70538441Y-37119919D01*
X70452248Y-37119468D01*
X70376368Y-37119070D01*
X70376367Y-37119070D01*
X70368895Y-37119031D01*
X70347235Y-37124231D01*
X70211295Y-37156868D01*
X70211293Y-37156869D01*
X70204032Y-37158612D01*
X70197399Y-37162035D01*
X70197395Y-37162037D01*
X70145621Y-37188760D01*
X70053369Y-37236375D01*
X70047737Y-37241288D01*
X69935794Y-37338942D01*
X69925604Y-37347831D01*
X69921306Y-37353946D01*
X69921300Y-37353953D01*
X69910950Y-37368680D01*
X69856297Y-37412209D01*
X69786786Y-37419281D01*
X69724487Y-37387650D01*
X69689178Y-37327358D01*
X69685500Y-37297379D01*
X69685500Y-35185017D01*
X69705185Y-35117978D01*
X69728968Y-35090727D01*
X69773741Y-35052487D01*
X69779423Y-35047634D01*
X69878361Y-34909947D01*
X69941601Y-34752634D01*
X69946881Y-34715533D01*
X69964918Y-34588800D01*
X69964918Y-34588794D01*
X69965490Y-34584778D01*
X69965645Y-34570000D01*
X69957672Y-34504114D01*
X69946175Y-34409105D01*
X69946174Y-34409101D01*
X69945276Y-34401680D01*
X69885345Y-34243077D01*
X69876657Y-34230436D01*
X69793549Y-34109513D01*
X69793546Y-34109510D01*
X69789312Y-34103349D01*
X69662721Y-33990560D01*
X69648347Y-33982949D01*
X69519489Y-33914723D01*
X69512881Y-33911224D01*
X69348441Y-33869919D01*
X69262248Y-33869468D01*
X69186368Y-33869070D01*
X69186367Y-33869070D01*
X69178895Y-33869031D01*
X69157235Y-33874231D01*
X69021295Y-33906868D01*
X69021293Y-33906869D01*
X69014032Y-33908612D01*
X69007399Y-33912035D01*
X69007395Y-33912037D01*
X68940465Y-33946583D01*
X68863369Y-33986375D01*
X68735604Y-34097831D01*
X68638113Y-34236547D01*
X68576524Y-34394513D01*
X68575548Y-34401923D01*
X68575548Y-34401925D01*
X68574603Y-34409105D01*
X68554394Y-34562611D01*
X68555214Y-34570039D01*
X68555214Y-34570041D01*
X68563569Y-34645719D01*
X68572999Y-34731135D01*
X68575565Y-34738147D01*
X68575566Y-34738151D01*
X68599364Y-34803181D01*
X68631266Y-34890356D01*
X68635433Y-34896558D01*
X68635435Y-34896561D01*
X68648510Y-34916018D01*
X68725830Y-35031083D01*
X68731358Y-35036113D01*
X68731364Y-35036120D01*
X68793953Y-35093071D01*
X68830290Y-35152748D01*
X68834500Y-35184785D01*
X68834500Y-38465180D01*
X68814815Y-38532219D01*
X68792015Y-38558621D01*
X68735604Y-38607831D01*
X68638113Y-38746547D01*
X68576524Y-38904513D01*
X68575548Y-38911923D01*
X68575548Y-38911925D01*
X68568537Y-38965180D01*
X68554394Y-39072611D01*
X65801135Y-39072611D01*
X64835888Y-38107364D01*
X64802403Y-38046041D01*
X64800467Y-38034579D01*
X64798650Y-38019564D01*
X64795276Y-37991680D01*
X64792634Y-37984688D01*
X64792633Y-37984684D01*
X64737989Y-37840073D01*
X64737987Y-37840070D01*
X64735345Y-37833077D01*
X64730857Y-37826547D01*
X64643549Y-37699513D01*
X64643546Y-37699510D01*
X64639312Y-37693349D01*
X64512721Y-37580560D01*
X64498347Y-37572949D01*
X64437801Y-37540892D01*
X64362881Y-37501224D01*
X64198441Y-37459919D01*
X64112248Y-37459468D01*
X64036368Y-37459070D01*
X64036367Y-37459070D01*
X64028895Y-37459031D01*
X64007927Y-37464065D01*
X63871295Y-37496868D01*
X63871293Y-37496869D01*
X63864032Y-37498612D01*
X63857399Y-37502035D01*
X63857395Y-37502037D01*
X63790465Y-37536583D01*
X63713369Y-37576375D01*
X63707737Y-37581288D01*
X63615582Y-37661680D01*
X63585604Y-37687831D01*
X63488113Y-37826547D01*
X63426524Y-37984513D01*
X63425548Y-37991923D01*
X63425548Y-37991925D01*
X63420515Y-38030155D01*
X63404394Y-38152611D01*
X45670500Y-38152611D01*
X45670500Y-31642611D01*
X88374394Y-31642611D01*
X88375214Y-31650039D01*
X88375214Y-31650041D01*
X88376841Y-31664778D01*
X88392999Y-31811135D01*
X88395565Y-31818147D01*
X88395566Y-31818151D01*
X88437556Y-31932892D01*
X88451266Y-31970356D01*
X88455433Y-31976558D01*
X88455435Y-31976561D01*
X88468510Y-31996018D01*
X88545830Y-32111083D01*
X88551360Y-32116115D01*
X88665702Y-32220159D01*
X88665706Y-32220162D01*
X88671233Y-32225191D01*
X88820235Y-32306092D01*
X88915585Y-32331107D01*
X88977005Y-32347220D01*
X88977007Y-32347220D01*
X88984233Y-32349116D01*
X89067178Y-32350419D01*
X89146290Y-32351662D01*
X89146293Y-32351662D01*
X89153760Y-32351779D01*
X89276209Y-32323735D01*
X89311738Y-32315598D01*
X89311739Y-32315598D01*
X89319029Y-32313928D01*
X89394111Y-32276166D01*
X89463820Y-32241106D01*
X89463822Y-32241105D01*
X89470498Y-32237747D01*
X89476180Y-32232894D01*
X89476183Y-32232892D01*
X89593741Y-32132487D01*
X89599423Y-32127634D01*
X89698361Y-31989947D01*
X89761601Y-31832634D01*
X89762654Y-31825237D01*
X89784918Y-31668800D01*
X89784918Y-31668794D01*
X89785490Y-31664778D01*
X89785645Y-31650000D01*
X89765276Y-31481680D01*
X89742182Y-31420563D01*
X89707989Y-31330073D01*
X89707987Y-31330070D01*
X89705345Y-31323077D01*
X89652309Y-31245910D01*
X89630500Y-31175675D01*
X89630500Y-30147449D01*
X89650185Y-30080410D01*
X89702989Y-30034655D01*
X89772147Y-30024711D01*
X89835703Y-30053736D01*
X89870948Y-30104835D01*
X89891266Y-30160356D01*
X89895433Y-30166558D01*
X89895435Y-30166561D01*
X89908510Y-30186018D01*
X89985830Y-30301083D01*
X90009353Y-30322487D01*
X90028954Y-30340323D01*
X90065290Y-30400001D01*
X90069500Y-30432037D01*
X90069500Y-35675897D01*
X90068641Y-35690471D01*
X90064636Y-35724310D01*
X90066302Y-35733432D01*
X90071886Y-35764008D01*
X90072843Y-35802471D01*
X90054394Y-35942611D01*
X90055214Y-35950039D01*
X90055214Y-35950041D01*
X90056841Y-35964778D01*
X90072999Y-36111135D01*
X90075565Y-36118147D01*
X90075566Y-36118151D01*
X90086635Y-36148397D01*
X90131266Y-36270356D01*
X90135433Y-36276558D01*
X90135435Y-36276561D01*
X90148510Y-36296018D01*
X90225830Y-36411083D01*
X90231360Y-36416115D01*
X90345702Y-36520159D01*
X90345706Y-36520162D01*
X90351233Y-36525191D01*
X90500235Y-36606092D01*
X90595585Y-36631107D01*
X90657005Y-36647220D01*
X90657007Y-36647220D01*
X90664233Y-36649116D01*
X90747178Y-36650419D01*
X90826290Y-36651662D01*
X90826293Y-36651662D01*
X90833760Y-36651779D01*
X90956209Y-36623735D01*
X90991738Y-36615598D01*
X90991739Y-36615598D01*
X90999029Y-36613928D01*
X91074111Y-36576166D01*
X91143820Y-36541106D01*
X91143822Y-36541105D01*
X91150498Y-36537747D01*
X91156180Y-36532894D01*
X91156183Y-36532892D01*
X91273741Y-36432487D01*
X91279423Y-36427634D01*
X91378361Y-36289947D01*
X91441601Y-36132634D01*
X91445718Y-36103707D01*
X91464918Y-35968800D01*
X91464918Y-35968794D01*
X91465490Y-35964778D01*
X91465645Y-35950000D01*
X91457308Y-35881106D01*
X91446175Y-35789105D01*
X91446174Y-35789101D01*
X91445276Y-35781680D01*
X91422846Y-35722321D01*
X91387989Y-35630073D01*
X91387987Y-35630070D01*
X91385345Y-35623077D01*
X91350532Y-35572424D01*
X91293549Y-35489513D01*
X91293546Y-35489510D01*
X91289312Y-35483349D01*
X91222954Y-35424226D01*
X91168303Y-35375533D01*
X91168301Y-35375532D01*
X91162721Y-35370560D01*
X91156113Y-35367061D01*
X91036477Y-35303717D01*
X91014821Y-35282611D01*
X95634394Y-35282611D01*
X95635214Y-35290039D01*
X95635214Y-35290041D01*
X95649194Y-35416668D01*
X95652999Y-35451135D01*
X95655565Y-35458147D01*
X95655566Y-35458151D01*
X95667043Y-35489513D01*
X95711266Y-35610356D01*
X95715433Y-35616558D01*
X95715435Y-35616561D01*
X95765101Y-35690471D01*
X95805830Y-35751083D01*
X95811360Y-35756115D01*
X95925702Y-35860159D01*
X95925706Y-35860162D01*
X95931233Y-35865191D01*
X96080235Y-35946092D01*
X96135975Y-35960715D01*
X96237005Y-35987220D01*
X96237007Y-35987220D01*
X96244233Y-35989116D01*
X96327178Y-35990419D01*
X96406290Y-35991662D01*
X96406293Y-35991662D01*
X96413760Y-35991779D01*
X96549395Y-35960715D01*
X96571738Y-35955598D01*
X96571739Y-35955598D01*
X96579029Y-35953928D01*
X96602097Y-35942326D01*
X101502667Y-35942326D01*
X101555168Y-36138264D01*
X101558857Y-36148397D01*
X101654110Y-36352667D01*
X101659508Y-36362017D01*
X101788784Y-36546643D01*
X101795719Y-36554907D01*
X101955091Y-36714279D01*
X101963357Y-36721215D01*
X102138604Y-36843925D01*
X102182228Y-36898502D01*
X102189421Y-36968001D01*
X102157899Y-37030355D01*
X102097669Y-37065769D01*
X102067480Y-37069500D01*
X101935354Y-37069500D01*
X101931700Y-37069935D01*
X101931698Y-37069935D01*
X101926734Y-37070526D01*
X101909154Y-37072618D01*
X101806847Y-37118061D01*
X101727759Y-37197287D01*
X101723130Y-37207758D01*
X101723129Y-37207759D01*
X101692275Y-37277550D01*
X101682494Y-37299673D01*
X101679500Y-37325354D01*
X101679500Y-39114646D01*
X101682618Y-39140846D01*
X101728061Y-39243153D01*
X101807287Y-39322241D01*
X101817758Y-39326870D01*
X101817759Y-39326871D01*
X101901147Y-39363737D01*
X101901149Y-39363738D01*
X101909673Y-39367506D01*
X101935354Y-39370500D01*
X103724646Y-39370500D01*
X103728300Y-39370065D01*
X103728302Y-39370065D01*
X103733266Y-39369474D01*
X103750846Y-39367382D01*
X103853153Y-39321939D01*
X103932241Y-39242713D01*
X103942268Y-39220033D01*
X103973737Y-39148853D01*
X103973738Y-39148851D01*
X103977506Y-39140327D01*
X103980500Y-39114646D01*
X103980500Y-37325354D01*
X103977382Y-37299154D01*
X103931939Y-37196847D01*
X103852713Y-37117759D01*
X103842242Y-37113130D01*
X103842241Y-37113129D01*
X103758853Y-37076263D01*
X103758851Y-37076262D01*
X103750327Y-37072494D01*
X103724646Y-37069500D01*
X103592520Y-37069500D01*
X103525481Y-37049815D01*
X103479726Y-36997011D01*
X103469782Y-36927853D01*
X103498807Y-36864297D01*
X103521396Y-36843925D01*
X103696643Y-36721215D01*
X103704909Y-36714279D01*
X103864281Y-36554907D01*
X103871216Y-36546643D01*
X104000492Y-36362017D01*
X104005890Y-36352667D01*
X104101143Y-36148397D01*
X104104832Y-36138264D01*
X104156022Y-35947221D01*
X104155691Y-35933347D01*
X104147875Y-35930000D01*
X101517194Y-35930000D01*
X101503877Y-35933910D01*
X101502667Y-35942326D01*
X96602097Y-35942326D01*
X96654111Y-35916166D01*
X96723820Y-35881106D01*
X96723822Y-35881105D01*
X96730498Y-35877747D01*
X96736180Y-35872894D01*
X96736183Y-35872892D01*
X96856407Y-35770210D01*
X96920168Y-35741639D01*
X96936939Y-35740500D01*
X97565897Y-35740500D01*
X97580471Y-35741359D01*
X97605105Y-35744275D01*
X97605108Y-35744275D01*
X97614310Y-35745364D01*
X97650974Y-35738668D01*
X97672022Y-35734824D01*
X97675864Y-35734184D01*
X97709017Y-35729199D01*
X97733962Y-35725449D01*
X97740475Y-35722321D01*
X97747573Y-35721025D01*
X97758970Y-35715105D01*
X97799663Y-35693967D01*
X97803146Y-35692227D01*
X97806803Y-35690471D01*
X97856079Y-35666809D01*
X97861299Y-35661984D01*
X97861520Y-35661835D01*
X97867788Y-35658579D01*
X97872828Y-35654275D01*
X97910097Y-35617006D01*
X97913607Y-35613631D01*
X97948749Y-35581147D01*
X97948751Y-35581144D01*
X97955556Y-35574854D01*
X97959237Y-35568516D01*
X97964828Y-35562275D01*
X98114324Y-35412779D01*
X101503978Y-35412779D01*
X101504309Y-35426653D01*
X101512125Y-35430000D01*
X102562170Y-35430000D01*
X102577169Y-35425596D01*
X102578356Y-35424226D01*
X102580000Y-35416668D01*
X102580000Y-35412170D01*
X103080000Y-35412170D01*
X103084404Y-35427169D01*
X103085774Y-35428356D01*
X103093332Y-35430000D01*
X104142806Y-35430000D01*
X104156123Y-35426090D01*
X104157333Y-35417674D01*
X104104832Y-35221736D01*
X104101143Y-35211603D01*
X104005890Y-35007333D01*
X104000492Y-34997983D01*
X103871216Y-34813357D01*
X103864281Y-34805093D01*
X103704909Y-34645721D01*
X103696643Y-34638785D01*
X103512008Y-34509502D01*
X103502676Y-34504114D01*
X103298397Y-34408857D01*
X103288264Y-34405168D01*
X103097221Y-34353978D01*
X103083347Y-34354309D01*
X103080000Y-34362125D01*
X103080000Y-35412170D01*
X102580000Y-35412170D01*
X102580000Y-34367194D01*
X102576090Y-34353877D01*
X102567674Y-34352667D01*
X102371736Y-34405168D01*
X102361603Y-34408857D01*
X102157333Y-34504110D01*
X102147983Y-34509508D01*
X101963357Y-34638784D01*
X101955093Y-34645719D01*
X101795719Y-34805093D01*
X101788784Y-34813357D01*
X101659508Y-34997983D01*
X101654110Y-35007333D01*
X101558857Y-35211603D01*
X101555168Y-35221736D01*
X101503978Y-35412779D01*
X98114324Y-35412779D01*
X101440336Y-32086767D01*
X101501659Y-32053282D01*
X101529964Y-32050463D01*
X101606290Y-32051662D01*
X101606293Y-32051662D01*
X101613760Y-32051779D01*
X101736209Y-32023735D01*
X101771738Y-32015598D01*
X101771739Y-32015598D01*
X101779029Y-32013928D01*
X101879620Y-31963336D01*
X101923820Y-31941106D01*
X101923822Y-31941105D01*
X101930498Y-31937747D01*
X101936180Y-31932894D01*
X101936183Y-31932892D01*
X102053741Y-31832487D01*
X102059423Y-31827634D01*
X102158361Y-31689947D01*
X102221601Y-31532634D01*
X102228853Y-31481680D01*
X102244918Y-31368800D01*
X102244918Y-31368794D01*
X102245490Y-31364778D01*
X102245645Y-31350000D01*
X102225276Y-31181680D01*
X102165345Y-31023077D01*
X102156657Y-31010436D01*
X102073549Y-30889513D01*
X102073546Y-30889510D01*
X102069312Y-30883349D01*
X101942721Y-30770560D01*
X101928347Y-30762949D01*
X101799489Y-30694723D01*
X101792881Y-30691224D01*
X101628441Y-30649919D01*
X101542248Y-30649468D01*
X101466368Y-30649070D01*
X101466367Y-30649070D01*
X101458895Y-30649031D01*
X101437235Y-30654231D01*
X101301295Y-30686868D01*
X101301293Y-30686869D01*
X101294032Y-30688612D01*
X101287399Y-30692035D01*
X101287395Y-30692037D01*
X101220465Y-30726583D01*
X101143369Y-30766375D01*
X101015604Y-30877831D01*
X100918113Y-31016547D01*
X100856524Y-31174513D01*
X100834394Y-31342611D01*
X100835405Y-31351772D01*
X100835183Y-31353025D01*
X100835136Y-31357516D01*
X100834387Y-31357508D01*
X100823199Y-31420563D01*
X100799836Y-31453061D01*
X97449716Y-34803181D01*
X97388393Y-34836666D01*
X97362035Y-34839500D01*
X96934667Y-34839500D01*
X96867628Y-34819815D01*
X96852178Y-34808083D01*
X96748303Y-34715533D01*
X96748301Y-34715532D01*
X96742721Y-34710560D01*
X96728347Y-34702949D01*
X96599489Y-34634723D01*
X96592881Y-34631224D01*
X96428441Y-34589919D01*
X96342248Y-34589468D01*
X96266368Y-34589070D01*
X96266367Y-34589070D01*
X96258895Y-34589031D01*
X96237235Y-34594231D01*
X96101295Y-34626868D01*
X96101293Y-34626869D01*
X96094032Y-34628612D01*
X96087399Y-34632035D01*
X96087395Y-34632037D01*
X96020465Y-34666583D01*
X95943369Y-34706375D01*
X95937737Y-34711288D01*
X95830206Y-34805093D01*
X95815604Y-34817831D01*
X95718113Y-34956547D01*
X95656524Y-35114513D01*
X95634394Y-35282611D01*
X91014821Y-35282611D01*
X90986440Y-35254950D01*
X90970500Y-35194130D01*
X90970500Y-30433665D01*
X90990185Y-30366626D01*
X91013968Y-30339375D01*
X91033741Y-30322487D01*
X91039423Y-30317634D01*
X91138361Y-30179947D01*
X91201601Y-30022634D01*
X91216137Y-29920500D01*
X91224918Y-29858800D01*
X91224918Y-29858794D01*
X91225490Y-29854778D01*
X91225645Y-29840000D01*
X91207393Y-29689171D01*
X91206175Y-29679105D01*
X91206174Y-29679101D01*
X91205276Y-29671680D01*
X91184737Y-29617326D01*
X91147989Y-29520073D01*
X91147987Y-29520070D01*
X91145345Y-29513077D01*
X91114957Y-29468862D01*
X91053549Y-29379513D01*
X91053546Y-29379510D01*
X91049312Y-29373349D01*
X90922721Y-29260560D01*
X90915511Y-29256742D01*
X90842275Y-29217966D01*
X90772881Y-29181224D01*
X90608441Y-29139919D01*
X90510609Y-29139407D01*
X90443675Y-29119372D01*
X90398197Y-29066329D01*
X90388157Y-29030306D01*
X90370866Y-28887418D01*
X90370865Y-28887414D01*
X90369967Y-28879993D01*
X90310036Y-28721390D01*
X90268173Y-28660479D01*
X90218240Y-28587826D01*
X90218237Y-28587823D01*
X90214003Y-28581662D01*
X90087412Y-28468873D01*
X90073038Y-28461262D01*
X89944180Y-28393036D01*
X89937572Y-28389537D01*
X89773132Y-28348232D01*
X89686939Y-28347781D01*
X89611059Y-28347383D01*
X89611058Y-28347383D01*
X89603586Y-28347344D01*
X89581926Y-28352544D01*
X89445986Y-28385181D01*
X89445984Y-28385182D01*
X89438723Y-28386925D01*
X89432090Y-28390348D01*
X89432086Y-28390350D01*
X89374804Y-28419916D01*
X89288060Y-28464688D01*
X89282428Y-28469601D01*
X89194810Y-28546035D01*
X89160295Y-28576144D01*
X89062804Y-28714860D01*
X89001215Y-28872826D01*
X89000239Y-28880238D01*
X89000239Y-28880239D01*
X88994514Y-28923727D01*
X88966248Y-28987624D01*
X88959256Y-28995224D01*
X88701333Y-29253147D01*
X88697585Y-29256742D01*
X88658065Y-29293082D01*
X88658063Y-29293084D01*
X88651844Y-29298803D01*
X88647390Y-29305987D01*
X88628864Y-29335866D01*
X88622247Y-29345494D01*
X88600998Y-29373488D01*
X88600996Y-29373491D01*
X88595888Y-29380221D01*
X88592777Y-29388079D01*
X88592774Y-29388084D01*
X88590290Y-29394359D01*
X88580382Y-29414060D01*
X88572365Y-29426990D01*
X88570007Y-29435107D01*
X88560200Y-29468862D01*
X88556416Y-29479913D01*
X88543476Y-29512596D01*
X88540364Y-29520457D01*
X88539481Y-29528861D01*
X88538774Y-29535585D01*
X88534529Y-29557220D01*
X88530285Y-29571829D01*
X88529500Y-29582519D01*
X88529500Y-29617326D01*
X88528821Y-29630286D01*
X88524599Y-29670458D01*
X88526008Y-29678788D01*
X88526008Y-29678791D01*
X88527764Y-29689171D01*
X88529500Y-29709850D01*
X88529500Y-31175757D01*
X88506951Y-31247057D01*
X88458113Y-31316547D01*
X88396524Y-31474513D01*
X88374394Y-31642611D01*
X45670500Y-31642611D01*
X45670500Y-29210862D01*
X59265497Y-29210862D01*
X59295134Y-29383340D01*
X59297957Y-29389973D01*
X59297957Y-29389975D01*
X59304203Y-29404653D01*
X59363654Y-29544373D01*
X59367921Y-29550171D01*
X59367922Y-29550173D01*
X59456443Y-29670458D01*
X59467383Y-29685324D01*
X59472874Y-29689989D01*
X59472875Y-29689990D01*
X59595261Y-29793965D01*
X59595264Y-29793967D01*
X59600755Y-29798632D01*
X59607172Y-29801909D01*
X59607174Y-29801910D01*
X59673616Y-29835837D01*
X59756616Y-29878219D01*
X59763612Y-29879931D01*
X59763615Y-29879932D01*
X59834763Y-29897341D01*
X59926606Y-29919815D01*
X59932114Y-29920157D01*
X59932116Y-29920157D01*
X59935744Y-29920382D01*
X59935748Y-29920382D01*
X59937648Y-29920500D01*
X60063822Y-29920500D01*
X60193828Y-29905343D01*
X60200595Y-29902887D01*
X60200598Y-29902886D01*
X60351557Y-29848090D01*
X60351558Y-29848089D01*
X60358331Y-29845631D01*
X60504685Y-29749677D01*
X60509637Y-29744449D01*
X60509640Y-29744447D01*
X60620087Y-29627857D01*
X60620089Y-29627855D01*
X60625040Y-29622628D01*
X60628656Y-29616403D01*
X60628658Y-29616400D01*
X60709322Y-29477525D01*
X60712939Y-29471298D01*
X60763667Y-29303807D01*
X60771385Y-29179403D01*
X60774057Y-29136332D01*
X60774057Y-29136329D01*
X60774503Y-29129138D01*
X60744866Y-28956660D01*
X60676346Y-28795627D01*
X60622029Y-28721819D01*
X60576888Y-28660479D01*
X60576886Y-28660477D01*
X60572617Y-28654676D01*
X60492216Y-28586370D01*
X60444739Y-28546035D01*
X60444736Y-28546033D01*
X60439245Y-28541368D01*
X60432828Y-28538091D01*
X60432826Y-28538090D01*
X60342388Y-28491910D01*
X60283384Y-28461781D01*
X60276388Y-28460069D01*
X60276385Y-28460068D01*
X60205237Y-28442659D01*
X60113394Y-28420185D01*
X60107886Y-28419843D01*
X60107884Y-28419843D01*
X60104256Y-28419618D01*
X60104252Y-28419618D01*
X60102352Y-28419500D01*
X59976178Y-28419500D01*
X59846172Y-28434657D01*
X59839405Y-28437113D01*
X59839402Y-28437114D01*
X59688443Y-28491910D01*
X59681669Y-28494369D01*
X59609984Y-28541368D01*
X59547612Y-28582261D01*
X59535315Y-28590323D01*
X59530363Y-28595551D01*
X59530360Y-28595553D01*
X59419913Y-28712143D01*
X59414960Y-28717372D01*
X59411344Y-28723597D01*
X59411342Y-28723600D01*
X59372875Y-28789827D01*
X59327061Y-28868702D01*
X59276333Y-29036193D01*
X59272230Y-29102332D01*
X59267119Y-29184723D01*
X59265497Y-29210862D01*
X45670500Y-29210862D01*
X45670500Y-26210862D01*
X59265497Y-26210862D01*
X59295134Y-26383340D01*
X59363654Y-26544373D01*
X59367921Y-26550171D01*
X59367922Y-26550173D01*
X59425092Y-26627857D01*
X59467383Y-26685324D01*
X59472874Y-26689989D01*
X59472875Y-26689990D01*
X59595261Y-26793965D01*
X59595264Y-26793967D01*
X59600755Y-26798632D01*
X59607172Y-26801909D01*
X59607174Y-26801910D01*
X59673616Y-26835837D01*
X59756616Y-26878219D01*
X59763612Y-26879931D01*
X59763615Y-26879932D01*
X59834763Y-26897341D01*
X59926606Y-26919815D01*
X59932114Y-26920157D01*
X59932116Y-26920157D01*
X59935744Y-26920382D01*
X59935748Y-26920382D01*
X59937648Y-26920500D01*
X60063822Y-26920500D01*
X60193828Y-26905343D01*
X60200595Y-26902887D01*
X60200598Y-26902886D01*
X60351557Y-26848090D01*
X60351558Y-26848089D01*
X60358331Y-26845631D01*
X60504685Y-26749677D01*
X60509637Y-26744449D01*
X60509640Y-26744447D01*
X60620087Y-26627857D01*
X60620089Y-26627855D01*
X60625040Y-26622628D01*
X60628656Y-26616403D01*
X60628658Y-26616400D01*
X60709322Y-26477525D01*
X60712939Y-26471298D01*
X60763667Y-26303807D01*
X60770100Y-26200110D01*
X60774057Y-26136332D01*
X60774057Y-26136329D01*
X60774503Y-26129138D01*
X60744866Y-25956660D01*
X60676346Y-25795627D01*
X60623340Y-25723600D01*
X60576888Y-25660479D01*
X60576886Y-25660477D01*
X60572617Y-25654676D01*
X60563974Y-25647333D01*
X60444739Y-25546035D01*
X60444736Y-25546033D01*
X60439245Y-25541368D01*
X60432828Y-25538091D01*
X60432826Y-25538090D01*
X60342388Y-25491910D01*
X60283384Y-25461781D01*
X60276388Y-25460069D01*
X60276385Y-25460068D01*
X60201217Y-25441675D01*
X60113394Y-25420185D01*
X60107886Y-25419843D01*
X60107884Y-25419843D01*
X60104256Y-25419618D01*
X60104252Y-25419618D01*
X60102352Y-25419500D01*
X59976178Y-25419500D01*
X59846172Y-25434657D01*
X59839405Y-25437113D01*
X59839402Y-25437114D01*
X59692333Y-25490498D01*
X59681669Y-25494369D01*
X59535315Y-25590323D01*
X59530363Y-25595551D01*
X59530360Y-25595553D01*
X59419913Y-25712143D01*
X59414960Y-25717372D01*
X59411344Y-25723597D01*
X59411342Y-25723600D01*
X59372875Y-25789827D01*
X59327061Y-25868702D01*
X59276333Y-26036193D01*
X59275887Y-26043385D01*
X59266068Y-26201662D01*
X59265497Y-26210862D01*
X45670500Y-26210862D01*
X45670500Y-24582326D01*
X75022667Y-24582326D01*
X75075168Y-24778264D01*
X75078857Y-24788397D01*
X75174110Y-24992667D01*
X75179508Y-25002017D01*
X75308784Y-25186643D01*
X75315719Y-25194907D01*
X75475091Y-25354279D01*
X75483357Y-25361215D01*
X75667992Y-25490498D01*
X75677324Y-25495886D01*
X75881603Y-25591143D01*
X75891736Y-25594832D01*
X76082779Y-25646022D01*
X76096653Y-25645691D01*
X76100000Y-25637875D01*
X76100000Y-25632806D01*
X76600000Y-25632806D01*
X76603910Y-25646123D01*
X76612326Y-25647333D01*
X76808264Y-25594832D01*
X76818397Y-25591143D01*
X77022676Y-25495886D01*
X77032008Y-25490498D01*
X77216643Y-25361215D01*
X77224909Y-25354279D01*
X77384281Y-25194907D01*
X77391216Y-25186643D01*
X77520492Y-25002017D01*
X77525890Y-24992667D01*
X77617656Y-24795876D01*
X77663829Y-24743437D01*
X77731022Y-24724285D01*
X77797903Y-24744501D01*
X77842648Y-24796368D01*
X77889369Y-24897714D01*
X77892647Y-24902352D01*
X77948662Y-24981611D01*
X78011405Y-25070391D01*
X78162865Y-25217937D01*
X78167588Y-25221093D01*
X78167592Y-25221096D01*
X78238663Y-25268584D01*
X78338677Y-25335411D01*
X78532953Y-25418878D01*
X78568277Y-25426871D01*
X78733638Y-25464289D01*
X78733642Y-25464290D01*
X78739186Y-25465544D01*
X78865315Y-25470500D01*
X78944789Y-25473623D01*
X78944791Y-25473623D01*
X78950470Y-25473846D01*
X78956090Y-25473031D01*
X78956092Y-25473031D01*
X79154103Y-25444320D01*
X79154104Y-25444320D01*
X79159730Y-25443504D01*
X79188249Y-25433823D01*
X79354565Y-25377367D01*
X79354568Y-25377366D01*
X79359955Y-25375537D01*
X79364916Y-25372759D01*
X79364922Y-25372756D01*
X79471530Y-25313052D01*
X79544442Y-25272219D01*
X79582165Y-25240846D01*
X79702645Y-25140644D01*
X79707012Y-25137012D01*
X79710644Y-25132645D01*
X79838584Y-24978813D01*
X79838585Y-24978811D01*
X79842219Y-24974442D01*
X79941946Y-24796368D01*
X79942756Y-24794922D01*
X79942759Y-24794916D01*
X79945537Y-24789955D01*
X79964234Y-24734877D01*
X80011675Y-24595118D01*
X80013504Y-24589730D01*
X80015954Y-24572831D01*
X80037820Y-24422033D01*
X80066921Y-24358512D01*
X80120225Y-24324346D01*
X80200974Y-24324346D01*
X80254347Y-24358736D01*
X80283296Y-24422327D01*
X80284271Y-24431707D01*
X80288796Y-24500749D01*
X80340845Y-24705690D01*
X80343219Y-24710841D01*
X80343221Y-24710845D01*
X80411411Y-24858760D01*
X80429369Y-24897714D01*
X80432647Y-24902352D01*
X80488662Y-24981611D01*
X80551405Y-25070391D01*
X80702865Y-25217937D01*
X80707588Y-25221093D01*
X80707592Y-25221096D01*
X80778663Y-25268584D01*
X80878677Y-25335411D01*
X81072953Y-25418878D01*
X81108277Y-25426871D01*
X81273638Y-25464289D01*
X81273642Y-25464290D01*
X81279186Y-25465544D01*
X81405315Y-25470500D01*
X81484789Y-25473623D01*
X81484791Y-25473623D01*
X81490470Y-25473846D01*
X81496090Y-25473031D01*
X81496092Y-25473031D01*
X81694103Y-25444320D01*
X81694104Y-25444320D01*
X81699730Y-25443504D01*
X81728249Y-25433823D01*
X81894565Y-25377367D01*
X81894568Y-25377366D01*
X81899955Y-25375537D01*
X81904916Y-25372759D01*
X81904922Y-25372756D01*
X82011530Y-25313052D01*
X82084442Y-25272219D01*
X82122165Y-25240846D01*
X82242645Y-25140644D01*
X82247012Y-25137012D01*
X82250644Y-25132645D01*
X82378584Y-24978813D01*
X82378585Y-24978811D01*
X82382219Y-24974442D01*
X82481946Y-24796368D01*
X82482756Y-24794922D01*
X82482759Y-24794916D01*
X82485537Y-24789955D01*
X82504234Y-24734877D01*
X82551675Y-24595118D01*
X82553504Y-24589730D01*
X82566406Y-24500749D01*
X82572783Y-24456769D01*
X82601884Y-24393248D01*
X82660707Y-24355543D01*
X82730577Y-24355627D01*
X82789310Y-24393471D01*
X82818259Y-24457061D01*
X82819500Y-24474562D01*
X82819500Y-25214646D01*
X82822618Y-25240846D01*
X82868061Y-25343153D01*
X82947287Y-25422241D01*
X82957758Y-25426870D01*
X82957759Y-25426871D01*
X83041147Y-25463737D01*
X83041149Y-25463738D01*
X83049673Y-25467506D01*
X83075354Y-25470500D01*
X84864646Y-25470500D01*
X84868300Y-25470065D01*
X84868302Y-25470065D01*
X84873266Y-25469474D01*
X84890846Y-25467382D01*
X84993153Y-25421939D01*
X85072241Y-25342713D01*
X85103407Y-25272219D01*
X85113737Y-25248853D01*
X85113738Y-25248851D01*
X85117506Y-25240327D01*
X85120500Y-25214646D01*
X85120500Y-24272611D01*
X85814394Y-24272611D01*
X85815214Y-24280039D01*
X85815214Y-24280041D01*
X85821621Y-24338074D01*
X85832999Y-24441135D01*
X85835565Y-24448147D01*
X85835566Y-24448151D01*
X85856829Y-24506253D01*
X85891266Y-24600356D01*
X85895433Y-24606558D01*
X85895435Y-24606561D01*
X85956421Y-24697317D01*
X85985830Y-24741083D01*
X85991360Y-24746115D01*
X86105702Y-24850159D01*
X86105706Y-24850162D01*
X86111233Y-24855191D01*
X86260235Y-24936092D01*
X86424233Y-24979116D01*
X86532868Y-24980822D01*
X86599589Y-25001557D01*
X86618601Y-25017126D01*
X87153568Y-25552093D01*
X87187053Y-25613416D01*
X87189138Y-25626165D01*
X87192999Y-25661135D01*
X87195565Y-25668147D01*
X87195566Y-25668151D01*
X87211665Y-25712143D01*
X87251266Y-25820356D01*
X87255433Y-25826558D01*
X87255435Y-25826561D01*
X87283753Y-25868702D01*
X87345830Y-25961083D01*
X87351360Y-25966115D01*
X87465702Y-26070159D01*
X87465706Y-26070162D01*
X87471233Y-26075191D01*
X87620235Y-26156092D01*
X87715585Y-26181107D01*
X87777005Y-26197220D01*
X87777007Y-26197220D01*
X87784233Y-26199116D01*
X87867178Y-26200419D01*
X87946290Y-26201662D01*
X87946293Y-26201662D01*
X87953760Y-26201779D01*
X88076209Y-26173735D01*
X88111738Y-26165598D01*
X88111739Y-26165598D01*
X88119029Y-26163928D01*
X88202326Y-26122034D01*
X88263820Y-26091106D01*
X88263822Y-26091105D01*
X88270498Y-26087747D01*
X88276180Y-26082894D01*
X88276183Y-26082892D01*
X88393741Y-25982487D01*
X88399423Y-25977634D01*
X88498361Y-25839947D01*
X88561601Y-25682634D01*
X88567971Y-25637875D01*
X88584918Y-25518800D01*
X88584918Y-25518794D01*
X88585490Y-25514778D01*
X88585645Y-25500000D01*
X88582025Y-25470084D01*
X88566210Y-25339397D01*
X88577698Y-25270478D01*
X88624623Y-25218711D01*
X88689312Y-25200500D01*
X94512035Y-25200500D01*
X94579074Y-25220185D01*
X94599716Y-25236819D01*
X97029058Y-27666161D01*
X97062543Y-27727484D01*
X97065370Y-27755139D01*
X97065369Y-27755203D01*
X97064394Y-27762611D01*
X97065214Y-27770039D01*
X97065214Y-27770040D01*
X97066393Y-27780715D01*
X97082999Y-27931135D01*
X97085565Y-27938147D01*
X97085566Y-27938151D01*
X97138697Y-28083336D01*
X97141266Y-28090356D01*
X97145433Y-28096558D01*
X97145435Y-28096561D01*
X97158510Y-28116018D01*
X97235830Y-28231083D01*
X97241360Y-28236115D01*
X97355702Y-28340159D01*
X97355706Y-28340162D01*
X97361233Y-28345191D01*
X97510235Y-28426092D01*
X97605585Y-28451107D01*
X97667005Y-28467220D01*
X97667007Y-28467220D01*
X97674233Y-28469116D01*
X97757178Y-28470419D01*
X97836290Y-28471662D01*
X97836293Y-28471662D01*
X97843760Y-28471779D01*
X97966209Y-28443735D01*
X98001738Y-28435598D01*
X98001739Y-28435598D01*
X98009029Y-28433928D01*
X98105952Y-28385181D01*
X98153820Y-28361106D01*
X98153822Y-28361105D01*
X98160498Y-28357747D01*
X98166180Y-28352894D01*
X98166183Y-28352892D01*
X98283741Y-28252487D01*
X98289423Y-28247634D01*
X98388361Y-28109947D01*
X98451601Y-27952634D01*
X98475490Y-27784778D01*
X98475645Y-27770000D01*
X98455276Y-27601680D01*
X98395345Y-27443077D01*
X98391108Y-27436912D01*
X98303549Y-27309513D01*
X98303546Y-27309510D01*
X98299312Y-27303349D01*
X98172721Y-27190560D01*
X98022881Y-27111224D01*
X97858441Y-27069919D01*
X97757207Y-27069389D01*
X97690271Y-27049354D01*
X97670175Y-27033072D01*
X95092667Y-24455564D01*
X95082969Y-24444651D01*
X95069817Y-24427968D01*
X95061872Y-24417890D01*
X95013554Y-24384495D01*
X95010454Y-24382281D01*
X94963184Y-24347366D01*
X94956368Y-24344973D01*
X94950431Y-24340869D01*
X94894481Y-24323174D01*
X94890791Y-24321943D01*
X94844116Y-24305552D01*
X94844112Y-24305551D01*
X94835369Y-24302481D01*
X94828265Y-24302202D01*
X94828014Y-24302153D01*
X94821270Y-24300020D01*
X94814663Y-24299500D01*
X94761932Y-24299500D01*
X94757063Y-24299404D01*
X94709273Y-24297526D01*
X94709272Y-24297526D01*
X94700006Y-24297162D01*
X94692922Y-24299040D01*
X94684562Y-24299500D01*
X87509386Y-24299500D01*
X87442347Y-24279815D01*
X87421705Y-24263181D01*
X87184717Y-24026193D01*
X87156403Y-23982342D01*
X87147989Y-23960075D01*
X87145345Y-23953077D01*
X87116701Y-23911400D01*
X87053549Y-23819513D01*
X87053546Y-23819510D01*
X87049312Y-23813349D01*
X87007340Y-23775953D01*
X86928303Y-23705533D01*
X86928301Y-23705532D01*
X86922721Y-23700560D01*
X86912151Y-23694963D01*
X86779489Y-23624723D01*
X86772881Y-23621224D01*
X86608441Y-23579919D01*
X86522248Y-23579468D01*
X86446368Y-23579070D01*
X86446367Y-23579070D01*
X86438895Y-23579031D01*
X86417235Y-23584231D01*
X86281295Y-23616868D01*
X86281293Y-23616869D01*
X86274032Y-23618612D01*
X86267399Y-23622035D01*
X86267395Y-23622037D01*
X86236501Y-23637983D01*
X86123369Y-23696375D01*
X85995604Y-23807831D01*
X85898113Y-23946547D01*
X85836524Y-24104513D01*
X85814394Y-24272611D01*
X85120500Y-24272611D01*
X85120500Y-23425354D01*
X85117382Y-23399154D01*
X85071939Y-23296847D01*
X84992713Y-23217759D01*
X84982242Y-23213130D01*
X84982241Y-23213129D01*
X84898853Y-23176263D01*
X84898851Y-23176262D01*
X84890327Y-23172494D01*
X84864646Y-23169500D01*
X83075354Y-23169500D01*
X83071700Y-23169935D01*
X83071698Y-23169935D01*
X83066734Y-23170526D01*
X83049154Y-23172618D01*
X82946847Y-23218061D01*
X82867759Y-23297287D01*
X82863130Y-23307758D01*
X82863129Y-23307759D01*
X82828876Y-23385238D01*
X82822494Y-23399673D01*
X82819500Y-23425354D01*
X82819500Y-24162727D01*
X82799815Y-24229766D01*
X82747011Y-24275521D01*
X82677853Y-24285465D01*
X82614297Y-24256440D01*
X82576523Y-24197662D01*
X82572020Y-24174073D01*
X82566601Y-24115101D01*
X82566601Y-24115100D01*
X82566081Y-24109440D01*
X82508686Y-23905931D01*
X82415165Y-23716290D01*
X82288651Y-23546867D01*
X82284481Y-23543012D01*
X82284478Y-23543009D01*
X82204153Y-23468758D01*
X82133381Y-23403337D01*
X82127574Y-23399673D01*
X81959363Y-23293539D01*
X81959361Y-23293538D01*
X81954554Y-23290505D01*
X81758160Y-23212152D01*
X81752579Y-23211042D01*
X81752576Y-23211041D01*
X81654467Y-23191526D01*
X81550775Y-23170901D01*
X81545088Y-23170827D01*
X81545083Y-23170826D01*
X81345034Y-23168207D01*
X81345029Y-23168207D01*
X81339346Y-23168133D01*
X81333742Y-23169096D01*
X81333741Y-23169096D01*
X81136550Y-23202979D01*
X81136547Y-23202980D01*
X81130953Y-23203941D01*
X80932575Y-23277127D01*
X80927697Y-23280029D01*
X80927695Y-23280030D01*
X80755740Y-23382332D01*
X80755737Y-23382334D01*
X80750856Y-23385238D01*
X80591881Y-23524655D01*
X80588362Y-23529119D01*
X80588359Y-23529122D01*
X80547640Y-23580775D01*
X80460976Y-23690708D01*
X80362523Y-23877836D01*
X80360837Y-23883267D01*
X80360835Y-23883271D01*
X80341074Y-23946912D01*
X80299820Y-24079773D01*
X80282851Y-24223140D01*
X80255425Y-24287398D01*
X80200974Y-24324346D01*
X80120225Y-24324346D01*
X80120667Y-24324063D01*
X80068057Y-24292081D01*
X80037453Y-24229271D01*
X80036232Y-24219909D01*
X80026601Y-24115100D01*
X80026081Y-24109440D01*
X79968686Y-23905931D01*
X79875165Y-23716290D01*
X79748651Y-23546867D01*
X79744481Y-23543012D01*
X79744478Y-23543009D01*
X79664153Y-23468758D01*
X79593381Y-23403337D01*
X79587574Y-23399673D01*
X79419363Y-23293539D01*
X79419361Y-23293538D01*
X79414554Y-23290505D01*
X79218160Y-23212152D01*
X79212579Y-23211042D01*
X79212576Y-23211041D01*
X79114467Y-23191526D01*
X79010775Y-23170901D01*
X79005088Y-23170827D01*
X79005083Y-23170826D01*
X78805034Y-23168207D01*
X78805029Y-23168207D01*
X78799346Y-23168133D01*
X78793742Y-23169096D01*
X78793741Y-23169096D01*
X78596550Y-23202979D01*
X78596547Y-23202980D01*
X78590953Y-23203941D01*
X78392575Y-23277127D01*
X78387697Y-23280029D01*
X78387695Y-23280030D01*
X78215740Y-23382332D01*
X78215737Y-23382334D01*
X78210856Y-23385238D01*
X78051881Y-23524655D01*
X78048362Y-23529119D01*
X78048359Y-23529122D01*
X78007640Y-23580775D01*
X77920976Y-23690708D01*
X77917634Y-23697061D01*
X77838685Y-23847117D01*
X77790050Y-23897281D01*
X77722015Y-23913187D01*
X77656181Y-23889786D01*
X77616565Y-23841786D01*
X77525890Y-23647333D01*
X77520492Y-23637983D01*
X77391216Y-23453357D01*
X77384281Y-23445093D01*
X77224909Y-23285721D01*
X77216643Y-23278785D01*
X77032008Y-23149502D01*
X77022676Y-23144114D01*
X76818397Y-23048857D01*
X76808264Y-23045168D01*
X76617221Y-22993978D01*
X76603347Y-22994309D01*
X76600000Y-23002125D01*
X76600000Y-25632806D01*
X76100000Y-25632806D01*
X76100000Y-24587830D01*
X76095596Y-24572831D01*
X76094226Y-24571644D01*
X76086668Y-24570000D01*
X75037194Y-24570000D01*
X75023877Y-24573910D01*
X75022667Y-24582326D01*
X45670500Y-24582326D01*
X45670500Y-23153583D01*
X45672042Y-23134088D01*
X45672043Y-23134079D01*
X45675094Y-23114917D01*
X45673033Y-23104266D01*
X45672872Y-23094616D01*
X45671813Y-23080680D01*
X45674849Y-23003789D01*
X46965996Y-23003789D01*
X46970581Y-23125911D01*
X46973856Y-23213129D01*
X46974913Y-23241295D01*
X46975990Y-23246430D01*
X46975991Y-23246435D01*
X47019878Y-23455598D01*
X47023719Y-23473904D01*
X47025648Y-23478788D01*
X47025649Y-23478792D01*
X47045526Y-23529122D01*
X47111020Y-23694963D01*
X47113741Y-23699447D01*
X47113743Y-23699451D01*
X47206072Y-23851603D01*
X47234319Y-23898153D01*
X47282352Y-23953506D01*
X47383440Y-24070000D01*
X47390090Y-24077664D01*
X47435747Y-24115100D01*
X47536439Y-24197662D01*
X47573880Y-24228362D01*
X47578441Y-24230958D01*
X47578442Y-24230959D01*
X47775875Y-24343345D01*
X47775880Y-24343347D01*
X47780433Y-24345939D01*
X48003844Y-24427034D01*
X48237725Y-24469326D01*
X48262619Y-24470500D01*
X48429680Y-24470500D01*
X48432296Y-24470278D01*
X48432297Y-24470278D01*
X48601590Y-24455913D01*
X48606823Y-24455469D01*
X48836874Y-24395760D01*
X49053576Y-24298143D01*
X49250732Y-24165409D01*
X49368799Y-24052779D01*
X75023978Y-24052779D01*
X75024309Y-24066653D01*
X75032125Y-24070000D01*
X76082170Y-24070000D01*
X76097169Y-24065596D01*
X76098356Y-24064226D01*
X76100000Y-24056668D01*
X76100000Y-23007194D01*
X76096090Y-22993877D01*
X76087674Y-22992667D01*
X75891736Y-23045168D01*
X75881603Y-23048857D01*
X75677333Y-23144110D01*
X75667983Y-23149508D01*
X75483357Y-23278784D01*
X75475093Y-23285719D01*
X75315719Y-23445093D01*
X75308784Y-23453357D01*
X75179508Y-23637983D01*
X75174110Y-23647333D01*
X75078857Y-23851603D01*
X75075168Y-23861736D01*
X75023978Y-24052779D01*
X49368799Y-24052779D01*
X49422705Y-24001355D01*
X49564579Y-23810670D01*
X49568522Y-23802914D01*
X49669913Y-23603493D01*
X49669915Y-23603488D01*
X49672295Y-23598807D01*
X49677595Y-23581740D01*
X49741215Y-23376848D01*
X49742775Y-23371824D01*
X49774004Y-23136211D01*
X49767319Y-22958151D01*
X49765284Y-22903949D01*
X49765284Y-22903948D01*
X49765087Y-22898705D01*
X49747274Y-22813806D01*
X49740729Y-22782611D01*
X88674394Y-22782611D01*
X88675214Y-22790039D01*
X88675214Y-22790041D01*
X88676807Y-22804469D01*
X88692999Y-22951135D01*
X88695565Y-22958147D01*
X88695566Y-22958151D01*
X88714186Y-23009031D01*
X88751266Y-23110356D01*
X88755433Y-23116558D01*
X88755435Y-23116561D01*
X88792697Y-23172012D01*
X88845830Y-23251083D01*
X88851360Y-23256115D01*
X88965702Y-23360159D01*
X88965706Y-23360162D01*
X88971233Y-23365191D01*
X89120235Y-23446092D01*
X89206633Y-23468758D01*
X89277005Y-23487220D01*
X89277007Y-23487220D01*
X89284233Y-23489116D01*
X89367178Y-23490419D01*
X89446290Y-23491662D01*
X89446293Y-23491662D01*
X89453760Y-23491779D01*
X89576209Y-23463735D01*
X89611738Y-23455598D01*
X89611739Y-23455598D01*
X89619029Y-23453928D01*
X89719618Y-23403337D01*
X89763820Y-23381106D01*
X89763822Y-23381105D01*
X89770498Y-23377747D01*
X89776180Y-23372894D01*
X89776183Y-23372892D01*
X89896407Y-23270210D01*
X89960168Y-23241639D01*
X89976939Y-23240500D01*
X93346227Y-23240500D01*
X93413266Y-23260185D01*
X93429680Y-23272786D01*
X93525698Y-23360155D01*
X93525700Y-23360157D01*
X93531233Y-23365191D01*
X93680235Y-23446092D01*
X93766633Y-23468758D01*
X93837005Y-23487220D01*
X93837007Y-23487220D01*
X93844233Y-23489116D01*
X93927178Y-23490419D01*
X94006290Y-23491662D01*
X94006293Y-23491662D01*
X94013760Y-23491779D01*
X94136209Y-23463735D01*
X94171738Y-23455598D01*
X94171739Y-23455598D01*
X94179029Y-23453928D01*
X94279618Y-23403337D01*
X94323820Y-23381106D01*
X94323822Y-23381105D01*
X94330498Y-23377747D01*
X94336180Y-23372894D01*
X94336183Y-23372892D01*
X94453741Y-23272487D01*
X94459423Y-23267634D01*
X94558361Y-23129947D01*
X94609077Y-23003789D01*
X101965996Y-23003789D01*
X101970581Y-23125911D01*
X101973856Y-23213129D01*
X101974913Y-23241295D01*
X101975990Y-23246430D01*
X101975991Y-23246435D01*
X102019878Y-23455598D01*
X102023719Y-23473904D01*
X102025648Y-23478788D01*
X102025649Y-23478792D01*
X102045526Y-23529122D01*
X102111020Y-23694963D01*
X102113741Y-23699447D01*
X102113743Y-23699451D01*
X102206072Y-23851603D01*
X102234319Y-23898153D01*
X102282352Y-23953506D01*
X102383440Y-24070000D01*
X102390090Y-24077664D01*
X102435747Y-24115100D01*
X102536439Y-24197662D01*
X102573880Y-24228362D01*
X102578441Y-24230958D01*
X102578442Y-24230959D01*
X102775875Y-24343345D01*
X102775880Y-24343347D01*
X102780433Y-24345939D01*
X103003844Y-24427034D01*
X103237725Y-24469326D01*
X103262619Y-24470500D01*
X103429680Y-24470500D01*
X103432296Y-24470278D01*
X103432297Y-24470278D01*
X103601590Y-24455913D01*
X103606823Y-24455469D01*
X103836874Y-24395760D01*
X104053576Y-24298143D01*
X104250732Y-24165409D01*
X104422705Y-24001355D01*
X104564579Y-23810670D01*
X104568522Y-23802914D01*
X104669913Y-23603493D01*
X104669915Y-23603488D01*
X104672295Y-23598807D01*
X104677595Y-23581740D01*
X104741215Y-23376848D01*
X104742775Y-23371824D01*
X104774004Y-23136211D01*
X104767319Y-22958151D01*
X104765284Y-22903949D01*
X104765284Y-22903948D01*
X104765087Y-22898705D01*
X104747274Y-22813806D01*
X104717361Y-22671242D01*
X104717360Y-22671239D01*
X104716281Y-22666096D01*
X104701673Y-22629105D01*
X104651473Y-22501992D01*
X104628980Y-22445037D01*
X104564939Y-22339500D01*
X104508408Y-22246341D01*
X104505681Y-22241847D01*
X104373811Y-22089880D01*
X104353356Y-22066307D01*
X104353355Y-22066306D01*
X104349910Y-22062336D01*
X104181106Y-21923926D01*
X104170179Y-21914966D01*
X104170178Y-21914965D01*
X104166120Y-21911638D01*
X104048687Y-21844791D01*
X103964125Y-21796655D01*
X103964120Y-21796653D01*
X103959567Y-21794061D01*
X103736156Y-21712966D01*
X103502275Y-21670674D01*
X103477381Y-21669500D01*
X103310320Y-21669500D01*
X103307704Y-21669722D01*
X103307703Y-21669722D01*
X103296484Y-21670674D01*
X103133177Y-21684531D01*
X102903126Y-21744240D01*
X102686424Y-21841857D01*
X102489268Y-21974591D01*
X102317295Y-22138645D01*
X102175421Y-22329330D01*
X102173042Y-22334008D01*
X102173042Y-22334009D01*
X102084135Y-22508878D01*
X102067705Y-22541193D01*
X102066146Y-22546213D01*
X102066145Y-22546216D01*
X102030439Y-22661208D01*
X101997225Y-22768176D01*
X101996534Y-22773386D01*
X101996534Y-22773388D01*
X101967253Y-22994309D01*
X101965996Y-23003789D01*
X94609077Y-23003789D01*
X94621601Y-22972634D01*
X94631376Y-22903949D01*
X94644918Y-22808800D01*
X94644918Y-22808794D01*
X94645490Y-22804778D01*
X94645645Y-22790000D01*
X94630651Y-22666096D01*
X94626175Y-22629105D01*
X94626174Y-22629101D01*
X94625276Y-22621680D01*
X94582652Y-22508878D01*
X94567989Y-22470073D01*
X94567987Y-22470070D01*
X94565345Y-22463077D01*
X94556657Y-22450436D01*
X94473549Y-22329513D01*
X94473546Y-22329510D01*
X94469312Y-22323349D01*
X94342721Y-22210560D01*
X94330859Y-22204279D01*
X94267801Y-22170892D01*
X94192881Y-22131224D01*
X94028441Y-22089919D01*
X93942248Y-22089468D01*
X93866368Y-22089070D01*
X93866367Y-22089070D01*
X93858895Y-22089031D01*
X93837235Y-22094231D01*
X93701295Y-22126868D01*
X93701293Y-22126869D01*
X93694032Y-22128612D01*
X93687399Y-22132035D01*
X93687395Y-22132037D01*
X93620465Y-22166583D01*
X93543369Y-22206375D01*
X93426779Y-22308083D01*
X93425794Y-22308942D01*
X93362336Y-22338178D01*
X93344280Y-22339500D01*
X89974667Y-22339500D01*
X89907628Y-22319815D01*
X89892178Y-22308083D01*
X89788303Y-22215533D01*
X89788301Y-22215532D01*
X89782721Y-22210560D01*
X89770859Y-22204279D01*
X89707801Y-22170892D01*
X89632881Y-22131224D01*
X89468441Y-22089919D01*
X89382248Y-22089468D01*
X89306368Y-22089070D01*
X89306367Y-22089070D01*
X89298895Y-22089031D01*
X89277235Y-22094231D01*
X89141295Y-22126868D01*
X89141293Y-22126869D01*
X89134032Y-22128612D01*
X89127399Y-22132035D01*
X89127395Y-22132037D01*
X89060465Y-22166583D01*
X88983369Y-22206375D01*
X88977737Y-22211288D01*
X88865794Y-22308942D01*
X88855604Y-22317831D01*
X88758113Y-22456547D01*
X88696524Y-22614513D01*
X88674394Y-22782611D01*
X49740729Y-22782611D01*
X49717361Y-22671242D01*
X49717360Y-22671239D01*
X49716281Y-22666096D01*
X49701673Y-22629105D01*
X49651473Y-22501992D01*
X49628980Y-22445037D01*
X49564939Y-22339500D01*
X49508408Y-22246341D01*
X49505681Y-22241847D01*
X49373811Y-22089880D01*
X49353356Y-22066307D01*
X49353355Y-22066306D01*
X49349910Y-22062336D01*
X49181106Y-21923926D01*
X49170179Y-21914966D01*
X49170178Y-21914965D01*
X49166120Y-21911638D01*
X49048687Y-21844791D01*
X48964125Y-21796655D01*
X48964120Y-21796653D01*
X48959567Y-21794061D01*
X48736156Y-21712966D01*
X48502275Y-21670674D01*
X48477381Y-21669500D01*
X48310320Y-21669500D01*
X48307704Y-21669722D01*
X48307703Y-21669722D01*
X48296484Y-21670674D01*
X48133177Y-21684531D01*
X47903126Y-21744240D01*
X47686424Y-21841857D01*
X47489268Y-21974591D01*
X47317295Y-22138645D01*
X47175421Y-22329330D01*
X47173042Y-22334008D01*
X47173042Y-22334009D01*
X47084135Y-22508878D01*
X47067705Y-22541193D01*
X47066146Y-22546213D01*
X47066145Y-22546216D01*
X47030439Y-22661208D01*
X46997225Y-22768176D01*
X46996534Y-22773386D01*
X46996534Y-22773388D01*
X46967253Y-22994309D01*
X46965996Y-23003789D01*
X45674849Y-23003789D01*
X45682349Y-22813806D01*
X45683676Y-22799960D01*
X45709795Y-22629105D01*
X45728175Y-22508872D01*
X45731042Y-22495277D01*
X45807863Y-22211007D01*
X45812239Y-22197804D01*
X45920416Y-21923926D01*
X45926244Y-21911296D01*
X46046970Y-21684087D01*
X46064409Y-21651266D01*
X46071614Y-21639369D01*
X46238033Y-21396452D01*
X46246525Y-21385436D01*
X46439112Y-21162676D01*
X46448786Y-21152680D01*
X46460079Y-21142251D01*
X46665100Y-20952904D01*
X46675832Y-20944054D01*
X46913169Y-20769755D01*
X46924825Y-20762164D01*
X47180188Y-20615545D01*
X47192616Y-20609308D01*
X47327707Y-20550760D01*
X47462794Y-20492213D01*
X47475847Y-20487406D01*
X47636528Y-20438277D01*
X47757443Y-20401306D01*
X47770944Y-20397993D01*
X47890820Y-20375623D01*
X48060419Y-20343975D01*
X48074214Y-20342195D01*
X48340491Y-20322922D01*
X48354774Y-20323537D01*
X48364209Y-20323385D01*
X48374923Y-20325096D01*
X48387093Y-20322747D01*
X48410593Y-20320500D01*
X103332861Y-20320500D01*
X103354391Y-20322384D01*
G37*
%TD.AperFunction*%
%TD*%
M02*
