%TF.GenerationSoftware,KiCad,Pcbnew,(6.0.9)*%
%TF.CreationDate,2023-07-19T12:20:02-07:00*%
%TF.ProjectId,pcb,7063622e-6b69-4636-9164-5f7063625858,0.1*%
%TF.SameCoordinates,Original*%
%TF.FileFunction,Legend,Bot*%
%TF.FilePolarity,Positive*%
%FSLAX46Y46*%
G04 Gerber Fmt 4.6, Leading zero omitted, Abs format (unit mm)*
G04 Created by KiCad (PCBNEW (6.0.9)) date 2023-07-19 12:20:02*
%MOMM*%
%LPD*%
G01*
G04 APERTURE LIST*
%ADD10C,0.150000*%
G04 APERTURE END LIST*
D10*
X54620000Y-28942380D02*
X54524761Y-28942380D01*
X54429523Y-28990000D01*
X54381904Y-29037619D01*
X54334285Y-29132857D01*
X54286666Y-29323333D01*
X54286666Y-29561428D01*
X54334285Y-29751904D01*
X54381904Y-29847142D01*
X54429523Y-29894761D01*
X54524761Y-29942380D01*
X54620000Y-29942380D01*
X54715238Y-29894761D01*
X54762857Y-29847142D01*
X54810476Y-29751904D01*
X54858095Y-29561428D01*
X54858095Y-29323333D01*
X54810476Y-29132857D01*
X54762857Y-29037619D01*
X54715238Y-28990000D01*
X54620000Y-28942380D01*
X53429523Y-28942380D02*
X53620000Y-28942380D01*
X53715238Y-28990000D01*
X53762857Y-29037619D01*
X53858095Y-29180476D01*
X53905714Y-29370952D01*
X53905714Y-29751904D01*
X53858095Y-29847142D01*
X53810476Y-29894761D01*
X53715238Y-29942380D01*
X53524761Y-29942380D01*
X53429523Y-29894761D01*
X53381904Y-29847142D01*
X53334285Y-29751904D01*
X53334285Y-29513809D01*
X53381904Y-29418571D01*
X53429523Y-29370952D01*
X53524761Y-29323333D01*
X53715238Y-29323333D01*
X53810476Y-29370952D01*
X53858095Y-29418571D01*
X53905714Y-29513809D01*
X52191428Y-28894761D02*
X53048571Y-30180476D01*
X51905714Y-29037619D02*
X51858095Y-28990000D01*
X51762857Y-28942380D01*
X51524761Y-28942380D01*
X51429523Y-28990000D01*
X51381904Y-29037619D01*
X51334285Y-29132857D01*
X51334285Y-29228095D01*
X51381904Y-29370952D01*
X51953333Y-29942380D01*
X51334285Y-29942380D01*
X51000952Y-28942380D02*
X50381904Y-28942380D01*
X50715238Y-29323333D01*
X50572380Y-29323333D01*
X50477142Y-29370952D01*
X50429523Y-29418571D01*
X50381904Y-29513809D01*
X50381904Y-29751904D01*
X50429523Y-29847142D01*
X50477142Y-29894761D01*
X50572380Y-29942380D01*
X50858095Y-29942380D01*
X50953333Y-29894761D01*
X51000952Y-29847142D01*
X54279523Y-31382380D02*
X54612857Y-30906190D01*
X54850952Y-31382380D02*
X54850952Y-30382380D01*
X54470000Y-30382380D01*
X54374761Y-30430000D01*
X54327142Y-30477619D01*
X54279523Y-30572857D01*
X54279523Y-30715714D01*
X54327142Y-30810952D01*
X54374761Y-30858571D01*
X54470000Y-30906190D01*
X54850952Y-30906190D01*
X53470000Y-31334761D02*
X53565238Y-31382380D01*
X53755714Y-31382380D01*
X53850952Y-31334761D01*
X53898571Y-31239523D01*
X53898571Y-30858571D01*
X53850952Y-30763333D01*
X53755714Y-30715714D01*
X53565238Y-30715714D01*
X53470000Y-30763333D01*
X53422380Y-30858571D01*
X53422380Y-30953809D01*
X53898571Y-31049047D01*
X53089047Y-30715714D02*
X52850952Y-31382380D01*
X52612857Y-30715714D01*
X52231904Y-31287142D02*
X52184285Y-31334761D01*
X52231904Y-31382380D01*
X52279523Y-31334761D01*
X52231904Y-31287142D01*
X52231904Y-31382380D01*
X52231904Y-30763333D02*
X52184285Y-30810952D01*
X52231904Y-30858571D01*
X52279523Y-30810952D01*
X52231904Y-30763333D01*
X52231904Y-30858571D01*
X50803333Y-30382380D02*
X50708095Y-30382380D01*
X50612857Y-30430000D01*
X50565238Y-30477619D01*
X50517619Y-30572857D01*
X50470000Y-30763333D01*
X50470000Y-31001428D01*
X50517619Y-31191904D01*
X50565238Y-31287142D01*
X50612857Y-31334761D01*
X50708095Y-31382380D01*
X50803333Y-31382380D01*
X50898571Y-31334761D01*
X50946190Y-31287142D01*
X50993809Y-31191904D01*
X51041428Y-31001428D01*
X51041428Y-30763333D01*
X50993809Y-30572857D01*
X50946190Y-30477619D01*
X50898571Y-30430000D01*
X50803333Y-30382380D01*
X50041428Y-31287142D02*
X49993809Y-31334761D01*
X50041428Y-31382380D01*
X50089047Y-31334761D01*
X50041428Y-31287142D01*
X50041428Y-31382380D01*
X49041428Y-31382380D02*
X49612857Y-31382380D01*
X49327142Y-31382380D02*
X49327142Y-30382380D01*
X49422380Y-30525238D01*
X49517619Y-30620476D01*
X49612857Y-30668095D01*
M02*
