%TF.GenerationSoftware,KiCad,Pcbnew,(6.0.9)*%
%TF.CreationDate,2023-07-19T12:20:02-07:00*%
%TF.ProjectId,pcb,7063622e-6b69-4636-9164-5f7063625858,0.1*%
%TF.SameCoordinates,Original*%
%TF.FileFunction,Copper,L1,Top*%
%TF.FilePolarity,Positive*%
%FSLAX46Y46*%
G04 Gerber Fmt 4.6, Leading zero omitted, Abs format (unit mm)*
G04 Created by KiCad (PCBNEW (6.0.9)) date 2023-07-19 12:20:02*
%MOMM*%
%LPD*%
G01*
G04 APERTURE LIST*
G04 Aperture macros list*
%AMRoundRect*
0 Rectangle with rounded corners*
0 $1 Rounding radius*
0 $2 $3 $4 $5 $6 $7 $8 $9 X,Y pos of 4 corners*
0 Add a 4 corners polygon primitive as box body*
4,1,4,$2,$3,$4,$5,$6,$7,$8,$9,$2,$3,0*
0 Add four circle primitives for the rounded corners*
1,1,$1+$1,$2,$3*
1,1,$1+$1,$4,$5*
1,1,$1+$1,$6,$7*
1,1,$1+$1,$8,$9*
0 Add four rect primitives between the rounded corners*
20,1,$1+$1,$2,$3,$4,$5,0*
20,1,$1+$1,$4,$5,$6,$7,0*
20,1,$1+$1,$6,$7,$8,$9,0*
20,1,$1+$1,$8,$9,$2,$3,0*%
G04 Aperture macros list end*
%TA.AperFunction,SMDPad,CuDef*%
%ADD10RoundRect,0.140000X-0.170000X0.140000X-0.170000X-0.140000X0.170000X-0.140000X0.170000X0.140000X0*%
%TD*%
%TA.AperFunction,SMDPad,CuDef*%
%ADD11R,0.500000X0.250000*%
%TD*%
%TA.AperFunction,SMDPad,CuDef*%
%ADD12R,0.250000X0.500000*%
%TD*%
%TA.AperFunction,SMDPad,CuDef*%
%ADD13RoundRect,0.325000X-0.925000X-0.925000X0.925000X-0.925000X0.925000X0.925000X-0.925000X0.925000X0*%
%TD*%
%TA.AperFunction,SMDPad,CuDef*%
%ADD14RoundRect,0.200000X-0.200000X-0.275000X0.200000X-0.275000X0.200000X0.275000X-0.200000X0.275000X0*%
%TD*%
%TA.AperFunction,SMDPad,CuDef*%
%ADD15RoundRect,0.218750X-0.256250X0.218750X-0.256250X-0.218750X0.256250X-0.218750X0.256250X0.218750X0*%
%TD*%
%TA.AperFunction,SMDPad,CuDef*%
%ADD16R,1.500000X0.450000*%
%TD*%
%TA.AperFunction,ComponentPad*%
%ADD17O,1.100000X2.200000*%
%TD*%
%TA.AperFunction,SMDPad,CuDef*%
%ADD18RoundRect,0.140000X-0.140000X-0.170000X0.140000X-0.170000X0.140000X0.170000X-0.140000X0.170000X0*%
%TD*%
%TA.AperFunction,SMDPad,CuDef*%
%ADD19RoundRect,0.200000X0.200000X0.275000X-0.200000X0.275000X-0.200000X-0.275000X0.200000X-0.275000X0*%
%TD*%
%TA.AperFunction,SMDPad,CuDef*%
%ADD20RoundRect,0.218750X0.256250X-0.218750X0.256250X0.218750X-0.256250X0.218750X-0.256250X-0.218750X0*%
%TD*%
%TA.AperFunction,SMDPad,CuDef*%
%ADD21RoundRect,0.225000X0.225000X0.250000X-0.225000X0.250000X-0.225000X-0.250000X0.225000X-0.250000X0*%
%TD*%
%TA.AperFunction,SMDPad,CuDef*%
%ADD22RoundRect,0.200000X0.275000X-0.200000X0.275000X0.200000X-0.275000X0.200000X-0.275000X-0.200000X0*%
%TD*%
%TA.AperFunction,SMDPad,CuDef*%
%ADD23RoundRect,0.140000X0.140000X0.170000X-0.140000X0.170000X-0.140000X-0.170000X0.140000X-0.170000X0*%
%TD*%
%TA.AperFunction,SMDPad,CuDef*%
%ADD24RoundRect,0.140000X0.170000X-0.140000X0.170000X0.140000X-0.170000X0.140000X-0.170000X-0.140000X0*%
%TD*%
%TA.AperFunction,SMDPad,CuDef*%
%ADD25R,1.500000X0.700000*%
%TD*%
%TA.AperFunction,SMDPad,CuDef*%
%ADD26R,0.800000X1.000000*%
%TD*%
%TA.AperFunction,SMDPad,CuDef*%
%ADD27RoundRect,0.225000X-0.225000X-0.250000X0.225000X-0.250000X0.225000X0.250000X-0.225000X0.250000X0*%
%TD*%
%TA.AperFunction,ComponentPad*%
%ADD28R,1.700000X1.700000*%
%TD*%
%TA.AperFunction,ComponentPad*%
%ADD29O,1.700000X1.700000*%
%TD*%
%TA.AperFunction,SMDPad,CuDef*%
%ADD30RoundRect,0.135000X-0.135000X-0.185000X0.135000X-0.185000X0.135000X0.185000X-0.135000X0.185000X0*%
%TD*%
%TA.AperFunction,SMDPad,CuDef*%
%ADD31RoundRect,0.135000X0.135000X0.185000X-0.135000X0.185000X-0.135000X-0.185000X0.135000X-0.185000X0*%
%TD*%
%TA.AperFunction,SMDPad,CuDef*%
%ADD32R,0.300000X0.300000*%
%TD*%
%TA.AperFunction,SMDPad,CuDef*%
%ADD33R,0.900000X0.300000*%
%TD*%
%TA.AperFunction,SMDPad,CuDef*%
%ADD34R,0.300000X0.900000*%
%TD*%
%TA.AperFunction,SMDPad,CuDef*%
%ADD35R,1.800000X1.800000*%
%TD*%
%TA.AperFunction,SMDPad,CuDef*%
%ADD36RoundRect,0.200000X-0.275000X0.200000X-0.275000X-0.200000X0.275000X-0.200000X0.275000X0.200000X0*%
%TD*%
%TA.AperFunction,SMDPad,CuDef*%
%ADD37R,2.500000X1.200000*%
%TD*%
%TA.AperFunction,SMDPad,CuDef*%
%ADD38RoundRect,0.135000X0.185000X-0.135000X0.185000X0.135000X-0.185000X0.135000X-0.185000X-0.135000X0*%
%TD*%
%TA.AperFunction,SMDPad,CuDef*%
%ADD39R,1.200000X1.400000*%
%TD*%
%TA.AperFunction,SMDPad,CuDef*%
%ADD40RoundRect,0.075000X-0.700000X-0.075000X0.700000X-0.075000X0.700000X0.075000X-0.700000X0.075000X0*%
%TD*%
%TA.AperFunction,SMDPad,CuDef*%
%ADD41RoundRect,0.075000X-0.075000X-0.700000X0.075000X-0.700000X0.075000X0.700000X-0.075000X0.700000X0*%
%TD*%
%TA.AperFunction,ViaPad*%
%ADD42C,0.800000*%
%TD*%
%TA.AperFunction,Conductor*%
%ADD43C,0.300000*%
%TD*%
%TA.AperFunction,Conductor*%
%ADD44C,0.250000*%
%TD*%
%TA.AperFunction,Conductor*%
%ADD45C,0.500000*%
%TD*%
%TA.AperFunction,Conductor*%
%ADD46C,0.200000*%
%TD*%
G04 APERTURE END LIST*
D10*
%TO.P,C10,1*%
%TO.N,+3.3V*%
X98820000Y-29440000D03*
%TO.P,C10,2*%
%TO.N,GND*%
X98820000Y-30400000D03*
%TD*%
D11*
%TO.P,U1,1,HPDRIVE*%
%TO.N,/HPDRIVE*%
X93770000Y-30570000D03*
%TO.P,U1,2,+IN*%
%TO.N,/IN+*%
X93770000Y-31070000D03*
%TO.P,U1,3,-IN*%
%TO.N,/IN-*%
X93770000Y-31570000D03*
%TO.P,U1,4,RLDFB*%
%TO.N,/RLDFB*%
X93770000Y-32070000D03*
%TO.P,U1,5,RLD*%
%TO.N,/RLD*%
X93770000Y-32570000D03*
D12*
%TO.P,U1,6,SW*%
%TO.N,/SW*%
X94620000Y-33420000D03*
%TO.P,U1,7,OPAMP+*%
%TO.N,/OPAMP+*%
X95120000Y-33420000D03*
%TO.P,U1,8,REFOUT*%
%TO.N,/REFOUT*%
X95620000Y-33420000D03*
%TO.P,U1,9,OPAMP-*%
%TO.N,/OPAMP-*%
X96120000Y-33420000D03*
%TO.P,U1,10,OUT*%
%TO.N,/ADC1_IN1*%
X96620000Y-33420000D03*
D11*
%TO.P,U1,11,LO-*%
%TO.N,/AD8232_LOD_P*%
X97470000Y-32570000D03*
%TO.P,U1,12,LO+*%
%TO.N,/AD8232_LOD_N*%
X97470000Y-32070000D03*
%TO.P,U1,13,~{SDN}*%
%TO.N,+3.3V*%
X97470000Y-31570000D03*
%TO.P,U1,14,AC/~{DC}*%
%TO.N,GND*%
X97470000Y-31070000D03*
%TO.P,U1,15,FR*%
%TO.N,+3.3V*%
X97470000Y-30570000D03*
D12*
%TO.P,U1,16,GND*%
%TO.N,GND*%
X96620000Y-29720000D03*
%TO.P,U1,17,+VS*%
%TO.N,+3.3V*%
X96120000Y-29720000D03*
%TO.P,U1,18,REFIN*%
%TO.N,/REFIN*%
X95620000Y-29720000D03*
%TO.P,U1,19,IAOUT*%
%TO.N,/IAOUT*%
X95120000Y-29720000D03*
%TO.P,U1,20,HPSENSE*%
%TO.N,/HPSENSE*%
X94620000Y-29720000D03*
D13*
%TO.P,U1,PAD,GND_PAD*%
%TO.N,GND*%
X95620000Y-31570000D03*
%TD*%
D14*
%TO.P,R15,1*%
%TO.N,Net-(R13-Pad1)*%
X95570000Y-24270000D03*
%TO.P,R15,2*%
%TO.N,/SW*%
X97220000Y-24270000D03*
%TD*%
D15*
%TO.P,FB1,1*%
%TO.N,+3.3VA*%
X66670000Y-41320000D03*
%TO.P,FB1,2*%
%TO.N,+3.3V*%
X66670000Y-42895000D03*
%TD*%
D16*
%TO.P,J4,1,VBUS*%
%TO.N,+5V*%
X48180000Y-41210000D03*
%TO.P,J4,2,D-*%
%TO.N,/USB_D-*%
X48180000Y-41860000D03*
%TO.P,J4,3,D+*%
%TO.N,/USB_D+*%
X48180000Y-42510000D03*
%TO.P,J4,4,ID*%
%TO.N,unconnected-(J4-Pad4)*%
X48180000Y-43160000D03*
%TO.P,J4,5,GND*%
%TO.N,GND*%
X48180000Y-43810000D03*
D17*
%TO.P,J4,S1,SHIELD*%
%TO.N,unconnected-(J4-PadS1)*%
X48430000Y-39710000D03*
%TO.P,J4,S2,SHIELD*%
X48430000Y-45310000D03*
%TO.P,J4,S3,SHIELD*%
X46280000Y-42510000D03*
%TD*%
D14*
%TO.P,R11,1*%
%TO.N,/REFIN*%
X98415000Y-26020000D03*
%TO.P,R11,2*%
%TO.N,GND*%
X100065000Y-26020000D03*
%TD*%
D18*
%TO.P,C1,1*%
%TO.N,Net-(C1-Pad1)*%
X96440000Y-38220000D03*
%TO.P,C1,2*%
%TO.N,/ADC1_IN1*%
X97400000Y-38220000D03*
%TD*%
D19*
%TO.P,R3,1*%
%TO.N,+3.3V*%
X88920000Y-32970000D03*
%TO.P,R3,2*%
%TO.N,/RA*%
X87270000Y-32970000D03*
%TD*%
D10*
%TO.P,C5,1*%
%TO.N,/RCC_OSC_OUT*%
X62460000Y-36780000D03*
%TO.P,C5,2*%
%TO.N,GND*%
X62460000Y-37740000D03*
%TD*%
D20*
%TO.P,D1,1,K*%
%TO.N,/HR_LED_K*%
X72370000Y-45007500D03*
%TO.P,D1,2,A*%
%TO.N,/LED*%
X72370000Y-43432500D03*
%TD*%
D21*
%TO.P,C19,1*%
%TO.N,+3.3V*%
X54075000Y-44860000D03*
%TO.P,C19,2*%
%TO.N,GND*%
X52525000Y-44860000D03*
%TD*%
D22*
%TO.P,R14,1*%
%TO.N,/HPSENSE*%
X92320000Y-27570000D03*
%TO.P,R14,2*%
%TO.N,Net-(R13-Pad1)*%
X92320000Y-25920000D03*
%TD*%
D23*
%TO.P,C14,1*%
%TO.N,+3.3V*%
X77130000Y-42770000D03*
%TO.P,C14,2*%
%TO.N,GND*%
X76170000Y-42770000D03*
%TD*%
D24*
%TO.P,C16,1*%
%TO.N,+3.3VA*%
X65220000Y-37820000D03*
%TO.P,C16,2*%
%TO.N,GND*%
X65220000Y-36860000D03*
%TD*%
D23*
%TO.P,C12,1*%
%TO.N,GND*%
X99750000Y-27770000D03*
%TO.P,C12,2*%
%TO.N,/REFIN*%
X98790000Y-27770000D03*
%TD*%
D25*
%TO.P,SW1,1*%
%TO.N,+3.3V*%
X61770000Y-25420000D03*
%TO.P,SW1,2*%
%TO.N,/SW_BOOT0*%
X61770000Y-28420000D03*
%TO.P,SW1,3*%
%TO.N,GND*%
X61770000Y-29920000D03*
D26*
%TO.P,SW1,S1,SHIELD*%
%TO.N,unconnected-(SW1-PadS1)*%
X60985000Y-24020000D03*
%TO.P,SW1,S2,SHIELD*%
X59055000Y-24020000D03*
%TO.P,SW1,S3,SHIELD*%
X59055000Y-31320000D03*
%TO.P,SW1,S4,SHIELD*%
X60985000Y-31320000D03*
%TD*%
D24*
%TO.P,C6,1*%
%TO.N,/HPDRIVE*%
X92320000Y-30200000D03*
%TO.P,C6,2*%
%TO.N,/HPSENSE*%
X92320000Y-29240000D03*
%TD*%
D19*
%TO.P,R1,1*%
%TO.N,+3.3V*%
X88895000Y-27870000D03*
%TO.P,R1,2*%
%TO.N,/LA*%
X87245000Y-27870000D03*
%TD*%
D27*
%TO.P,C7,1*%
%TO.N,+3.3V*%
X68920000Y-26220000D03*
%TO.P,C7,2*%
%TO.N,GND*%
X70470000Y-26220000D03*
%TD*%
D14*
%TO.P,R13,1*%
%TO.N,Net-(R13-Pad1)*%
X92295000Y-24270000D03*
%TO.P,R13,2*%
%TO.N,/IAOUT*%
X93945000Y-24270000D03*
%TD*%
D19*
%TO.P,R7,1*%
%TO.N,/RLD*%
X88895000Y-34720000D03*
%TO.P,R7,2*%
%TO.N,/RL*%
X87245000Y-34720000D03*
%TD*%
D18*
%TO.P,C3,1*%
%TO.N,/OPAMP+*%
X93170000Y-36370000D03*
%TO.P,C3,2*%
%TO.N,/REFOUT*%
X94130000Y-36370000D03*
%TD*%
D24*
%TO.P,C9,1*%
%TO.N,+3.3V*%
X65470000Y-31570000D03*
%TO.P,C9,2*%
%TO.N,GND*%
X65470000Y-30610000D03*
%TD*%
D28*
%TO.P,J2,1,Pin_1*%
%TO.N,/ADC1_IN1*%
X102830000Y-38220000D03*
D29*
%TO.P,J2,2,Pin_2*%
%TO.N,GND*%
X102830000Y-35680000D03*
%TD*%
D23*
%TO.P,C15,1*%
%TO.N,/REFOUT*%
X99600000Y-24270000D03*
%TO.P,C15,2*%
%TO.N,/SW*%
X98640000Y-24270000D03*
%TD*%
D24*
%TO.P,C2,1*%
%TO.N,/RCC_OSC_IN*%
X62370000Y-35370000D03*
%TO.P,C2,2*%
%TO.N,GND*%
X62370000Y-34410000D03*
%TD*%
D30*
%TO.P,R12,1*%
%TO.N,/SW_BOOT0*%
X64860000Y-26370000D03*
%TO.P,R12,2*%
%TO.N,/BOOT0*%
X65880000Y-26370000D03*
%TD*%
D21*
%TO.P,C17,1*%
%TO.N,+3.3VA*%
X64420000Y-40370000D03*
%TO.P,C17,2*%
%TO.N,GND*%
X62870000Y-40370000D03*
%TD*%
D31*
%TO.P,R6,1*%
%TO.N,/IN-*%
X88070000Y-31220000D03*
%TO.P,R6,2*%
%TO.N,/RA*%
X87050000Y-31220000D03*
%TD*%
D14*
%TO.P,R4,1*%
%TO.N,/OPAMP+*%
X93395000Y-38170000D03*
%TO.P,R4,2*%
%TO.N,Net-(C1-Pad1)*%
X95045000Y-38170000D03*
%TD*%
D31*
%TO.P,R5,1*%
%TO.N,/IN+*%
X88040000Y-29620000D03*
%TO.P,R5,2*%
%TO.N,/LA*%
X87020000Y-29620000D03*
%TD*%
D30*
%TO.P,R8,1*%
%TO.N,/REFOUT*%
X95320000Y-36370000D03*
%TO.P,R8,2*%
%TO.N,/OPAMP-*%
X96340000Y-36370000D03*
%TD*%
D32*
%TO.P,U3,1,RS485/GPIO.1*%
%TO.N,unconnected-(U3-Pad1)*%
X56220000Y-40720000D03*
D33*
%TO.P,U3,2,CLK/GPIO.0*%
%TO.N,unconnected-(U3-Pad2)*%
X55920000Y-41220000D03*
%TO.P,U3,3,GND*%
%TO.N,GND*%
X55920000Y-41720000D03*
%TO.P,U3,4,D+*%
%TO.N,/USB_D+*%
X55920000Y-42220000D03*
%TO.P,U3,5,D-*%
%TO.N,/USB_D-*%
X55920000Y-42720000D03*
D32*
%TO.P,U3,6,VDD*%
%TO.N,+3.3V*%
X56220000Y-43220000D03*
D34*
%TO.P,U3,7,VREGIN*%
%TO.N,+5V*%
X56720000Y-43520000D03*
%TO.P,U3,8,VBUS*%
X57220000Y-43520000D03*
%TO.P,U3,9,~{RST}*%
%TO.N,Net-(R18-Pad2)*%
X57720000Y-43520000D03*
%TO.P,U3,10,NC*%
%TO.N,unconnected-(U3-Pad10)*%
X58220000Y-43520000D03*
D32*
%TO.P,U3,11,~{SUSPEND}*%
%TO.N,unconnected-(U3-Pad11)*%
X58720000Y-43220000D03*
D33*
%TO.P,U3,12,GND*%
%TO.N,GND*%
X59020000Y-42720000D03*
%TO.P,U3,13,~{WAKEUP}*%
%TO.N,unconnected-(U3-Pad13)*%
X59020000Y-42220000D03*
%TO.P,U3,14,SUSPEND*%
%TO.N,unconnected-(U3-Pad14)*%
X59020000Y-41720000D03*
%TO.P,U3,15,~{CTS}*%
%TO.N,unconnected-(U3-Pad15)*%
X59020000Y-41220000D03*
D32*
%TO.P,U3,16,~{RTS}*%
%TO.N,unconnected-(U3-Pad16)*%
X58720000Y-40720000D03*
D34*
%TO.P,U3,17,RXD*%
%TO.N,/USART2_TX*%
X58220000Y-40420000D03*
%TO.P,U3,18,TXD*%
%TO.N,unconnected-(U3-Pad18)*%
X57720000Y-40420000D03*
%TO.P,U3,19,~{RXT}/GPIO.3*%
%TO.N,unconnected-(U3-Pad19)*%
X57220000Y-40420000D03*
%TO.P,U3,20,~{TXT}/GPIO.2*%
%TO.N,unconnected-(U3-Pad20)*%
X56720000Y-40420000D03*
D35*
%TO.P,U3,21,GND*%
%TO.N,GND*%
X57470000Y-41970000D03*
%TD*%
D36*
%TO.P,R10,1*%
%TO.N,/REFIN*%
X96470000Y-25920000D03*
%TO.P,R10,2*%
%TO.N,+3.3V*%
X96470000Y-27570000D03*
%TD*%
D37*
%TO.P,J1,1*%
%TO.N,unconnected-(J1-Pad1)*%
X88820000Y-39870000D03*
%TO.P,J1,2*%
%TO.N,/LA*%
X82320000Y-40970000D03*
%TO.P,J1,3*%
%TO.N,/RL*%
X82320000Y-44970000D03*
%TO.P,J1,4*%
%TO.N,/RA*%
X82320000Y-47970000D03*
%TD*%
D15*
%TO.P,D2,1,K*%
%TO.N,/PWR_LED_K*%
X55870000Y-35895000D03*
%TO.P,D2,2,A*%
%TO.N,+3.3V*%
X55870000Y-37470000D03*
%TD*%
D14*
%TO.P,R9,1*%
%TO.N,/OPAMP-*%
X98085000Y-36500000D03*
%TO.P,R9,2*%
%TO.N,/ADC1_IN1*%
X99735000Y-36500000D03*
%TD*%
D18*
%TO.P,C8,1*%
%TO.N,/NRST*%
X68670000Y-42810000D03*
%TO.P,C8,2*%
%TO.N,GND*%
X69630000Y-42810000D03*
%TD*%
D30*
%TO.P,R16,1*%
%TO.N,/HR_LED_K*%
X72410000Y-47680000D03*
%TO.P,R16,2*%
%TO.N,GND*%
X73430000Y-47680000D03*
%TD*%
D10*
%TO.P,C20,1*%
%TO.N,+3.3V*%
X55550000Y-44850000D03*
%TO.P,C20,2*%
%TO.N,GND*%
X55550000Y-45810000D03*
%TD*%
D21*
%TO.P,C22,1*%
%TO.N,+5V*%
X55420000Y-47270000D03*
%TO.P,C22,2*%
%TO.N,GND*%
X53870000Y-47270000D03*
%TD*%
D38*
%TO.P,R18,1*%
%TO.N,+3.3V*%
X59470000Y-45800000D03*
%TO.P,R18,2*%
%TO.N,Net-(R18-Pad2)*%
X59470000Y-44780000D03*
%TD*%
D28*
%TO.P,J3,1,Pin_1*%
%TO.N,+3.3V*%
X83970000Y-24320000D03*
D29*
%TO.P,J3,2,Pin_2*%
%TO.N,/TMS*%
X81430000Y-24320000D03*
%TO.P,J3,3,Pin_3*%
%TO.N,/TCK*%
X78890000Y-24320000D03*
%TO.P,J3,4,Pin_4*%
%TO.N,GND*%
X76350000Y-24320000D03*
%TD*%
D39*
%TO.P,Y1,1,1*%
%TO.N,/RCC_OSC_IN*%
X58770000Y-35020000D03*
%TO.P,Y1,2,2*%
%TO.N,GND*%
X58770000Y-37220000D03*
%TO.P,Y1,3,3*%
%TO.N,/RCC_OSC_OUT*%
X60470000Y-37220000D03*
%TO.P,Y1,4,4*%
%TO.N,GND*%
X60470000Y-35020000D03*
%TD*%
D27*
%TO.P,C18,1*%
%TO.N,+3.3V*%
X62870000Y-43470000D03*
%TO.P,C18,2*%
%TO.N,GND*%
X64420000Y-43470000D03*
%TD*%
D18*
%TO.P,C13,1*%
%TO.N,+3.3V*%
X69160000Y-27770000D03*
%TO.P,C13,2*%
%TO.N,GND*%
X70120000Y-27770000D03*
%TD*%
D10*
%TO.P,C21,1*%
%TO.N,+5V*%
X57490000Y-45260000D03*
%TO.P,C21,2*%
%TO.N,GND*%
X57490000Y-46220000D03*
%TD*%
%TO.P,C11,1*%
%TO.N,+3.3V*%
X80870000Y-31360000D03*
%TO.P,C11,2*%
%TO.N,GND*%
X80870000Y-32320000D03*
%TD*%
D31*
%TO.P,R17,1*%
%TO.N,/PWR_LED_K*%
X56170000Y-33870000D03*
%TO.P,R17,2*%
%TO.N,GND*%
X55150000Y-33870000D03*
%TD*%
D40*
%TO.P,U2,1,VBAT*%
%TO.N,+3.3V*%
X67445000Y-31570000D03*
%TO.P,U2,2,PC13*%
%TO.N,unconnected-(U2-Pad2)*%
X67445000Y-32070000D03*
%TO.P,U2,3,PC14*%
%TO.N,unconnected-(U2-Pad3)*%
X67445000Y-32570000D03*
%TO.P,U2,4,PC15*%
%TO.N,unconnected-(U2-Pad4)*%
X67445000Y-33070000D03*
%TO.P,U2,5,PF0*%
%TO.N,/RCC_OSC_IN*%
X67445000Y-33570000D03*
%TO.P,U2,6,PF1*%
%TO.N,/RCC_OSC_OUT*%
X67445000Y-34070000D03*
%TO.P,U2,7,NRST*%
%TO.N,/NRST*%
X67445000Y-34570000D03*
%TO.P,U2,8,PC0*%
%TO.N,unconnected-(U2-Pad8)*%
X67445000Y-35070000D03*
%TO.P,U2,9,PC1*%
%TO.N,/AD8232_LOD_P*%
X67445000Y-35570000D03*
%TO.P,U2,10,PC2*%
%TO.N,/AD8232_LOD_N*%
X67445000Y-36070000D03*
%TO.P,U2,11,PC3*%
%TO.N,unconnected-(U2-Pad11)*%
X67445000Y-36570000D03*
%TO.P,U2,12,VSSA*%
%TO.N,GND*%
X67445000Y-37070000D03*
%TO.P,U2,13,VDDA*%
%TO.N,+3.3VA*%
X67445000Y-37570000D03*
%TO.P,U2,14,PA0*%
%TO.N,/ADC1_IN1*%
X67445000Y-38070000D03*
%TO.P,U2,15,PA1*%
%TO.N,unconnected-(U2-Pad15)*%
X67445000Y-38570000D03*
%TO.P,U2,16,PA2*%
%TO.N,/USART2_TX*%
X67445000Y-39070000D03*
D41*
%TO.P,U2,17,PA3*%
%TO.N,unconnected-(U2-Pad17)*%
X69370000Y-40995000D03*
%TO.P,U2,18,VSS*%
%TO.N,GND*%
X69870000Y-40995000D03*
%TO.P,U2,19,VDD*%
%TO.N,+3.3V*%
X70370000Y-40995000D03*
%TO.P,U2,20,PA4*%
%TO.N,unconnected-(U2-Pad20)*%
X70870000Y-40995000D03*
%TO.P,U2,21,PA5*%
%TO.N,/LED*%
X71370000Y-40995000D03*
%TO.P,U2,22,PA6*%
%TO.N,unconnected-(U2-Pad22)*%
X71870000Y-40995000D03*
%TO.P,U2,23,PA7*%
%TO.N,unconnected-(U2-Pad23)*%
X72370000Y-40995000D03*
%TO.P,U2,24,PC4*%
%TO.N,unconnected-(U2-Pad24)*%
X72870000Y-40995000D03*
%TO.P,U2,25,PC5*%
%TO.N,unconnected-(U2-Pad25)*%
X73370000Y-40995000D03*
%TO.P,U2,26,PB0*%
%TO.N,unconnected-(U2-Pad26)*%
X73870000Y-40995000D03*
%TO.P,U2,27,PB1*%
%TO.N,unconnected-(U2-Pad27)*%
X74370000Y-40995000D03*
%TO.P,U2,28,PB2*%
%TO.N,unconnected-(U2-Pad28)*%
X74870000Y-40995000D03*
%TO.P,U2,29,PB10*%
%TO.N,unconnected-(U2-Pad29)*%
X75370000Y-40995000D03*
%TO.P,U2,30,PB11*%
%TO.N,unconnected-(U2-Pad30)*%
X75870000Y-40995000D03*
%TO.P,U2,31,VSS*%
%TO.N,GND*%
X76370000Y-40995000D03*
%TO.P,U2,32,VDD*%
%TO.N,+3.3V*%
X76870000Y-40995000D03*
D40*
%TO.P,U2,33,PB12*%
%TO.N,unconnected-(U2-Pad33)*%
X78795000Y-39070000D03*
%TO.P,U2,34,PB13*%
%TO.N,unconnected-(U2-Pad34)*%
X78795000Y-38570000D03*
%TO.P,U2,35,PB14*%
%TO.N,unconnected-(U2-Pad35)*%
X78795000Y-38070000D03*
%TO.P,U2,36,PB15*%
%TO.N,unconnected-(U2-Pad36)*%
X78795000Y-37570000D03*
%TO.P,U2,37,PC6*%
%TO.N,unconnected-(U2-Pad37)*%
X78795000Y-37070000D03*
%TO.P,U2,38,PC7*%
%TO.N,unconnected-(U2-Pad38)*%
X78795000Y-36570000D03*
%TO.P,U2,39,PC8*%
%TO.N,unconnected-(U2-Pad39)*%
X78795000Y-36070000D03*
%TO.P,U2,40,PC9*%
%TO.N,unconnected-(U2-Pad40)*%
X78795000Y-35570000D03*
%TO.P,U2,41,PA8*%
%TO.N,unconnected-(U2-Pad41)*%
X78795000Y-35070000D03*
%TO.P,U2,42,PA9*%
%TO.N,unconnected-(U2-Pad42)*%
X78795000Y-34570000D03*
%TO.P,U2,43,PA10*%
%TO.N,unconnected-(U2-Pad43)*%
X78795000Y-34070000D03*
%TO.P,U2,44,PA11*%
%TO.N,unconnected-(U2-Pad44)*%
X78795000Y-33570000D03*
%TO.P,U2,45,PA12*%
%TO.N,unconnected-(U2-Pad45)*%
X78795000Y-33070000D03*
%TO.P,U2,46,PA13*%
%TO.N,/TMS*%
X78795000Y-32570000D03*
%TO.P,U2,47,VSS*%
%TO.N,GND*%
X78795000Y-32070000D03*
%TO.P,U2,48,VDD*%
%TO.N,+3.3V*%
X78795000Y-31570000D03*
D41*
%TO.P,U2,49,PA14*%
%TO.N,/TCK*%
X76870000Y-29645000D03*
%TO.P,U2,50,PA15*%
%TO.N,unconnected-(U2-Pad50)*%
X76370000Y-29645000D03*
%TO.P,U2,51,PC10*%
%TO.N,unconnected-(U2-Pad51)*%
X75870000Y-29645000D03*
%TO.P,U2,52,PC11*%
%TO.N,unconnected-(U2-Pad52)*%
X75370000Y-29645000D03*
%TO.P,U2,53,PC12*%
%TO.N,unconnected-(U2-Pad53)*%
X74870000Y-29645000D03*
%TO.P,U2,54,PD2*%
%TO.N,unconnected-(U2-Pad54)*%
X74370000Y-29645000D03*
%TO.P,U2,55,PB3*%
%TO.N,unconnected-(U2-Pad55)*%
X73870000Y-29645000D03*
%TO.P,U2,56,PB4*%
%TO.N,unconnected-(U2-Pad56)*%
X73370000Y-29645000D03*
%TO.P,U2,57,PB5*%
%TO.N,unconnected-(U2-Pad57)*%
X72870000Y-29645000D03*
%TO.P,U2,58,PB6*%
%TO.N,unconnected-(U2-Pad58)*%
X72370000Y-29645000D03*
%TO.P,U2,59,PB7*%
%TO.N,unconnected-(U2-Pad59)*%
X71870000Y-29645000D03*
%TO.P,U2,60,BOOT0*%
%TO.N,/BOOT0*%
X71370000Y-29645000D03*
%TO.P,U2,61,PB8*%
%TO.N,unconnected-(U2-Pad61)*%
X70870000Y-29645000D03*
%TO.P,U2,62,PB9*%
%TO.N,unconnected-(U2-Pad62)*%
X70370000Y-29645000D03*
%TO.P,U2,63,VSS*%
%TO.N,GND*%
X69870000Y-29645000D03*
%TO.P,U2,64,VDD*%
%TO.N,+3.3V*%
X69370000Y-29645000D03*
%TD*%
D10*
%TO.P,C4,1*%
%TO.N,/RLDFB*%
X92370000Y-32790000D03*
%TO.P,C4,2*%
%TO.N,/RLD*%
X92370000Y-33750000D03*
%TD*%
D19*
%TO.P,R2,1*%
%TO.N,Net-(C1-Pad1)*%
X95070000Y-40020000D03*
%TO.P,R2,2*%
%TO.N,/IAOUT*%
X93420000Y-40020000D03*
%TD*%
D42*
%TO.N,/ADC1_IN1*%
X70450000Y-37820000D03*
X75630000Y-37830000D03*
%TO.N,GND*%
X52380000Y-47270000D03*
X60360000Y-42720000D03*
X76170000Y-43860000D03*
X63660000Y-34410000D03*
X57710000Y-47460000D03*
X64420000Y-44990000D03*
X82010000Y-32310000D03*
X57470000Y-41970000D03*
X58660000Y-38920000D03*
X95620000Y-31570000D03*
X46700000Y-47440000D03*
X61360000Y-40350000D03*
X66830000Y-30360000D03*
X69440000Y-43790000D03*
X71810000Y-26220000D03*
X76350000Y-26740000D03*
X54000000Y-33820000D03*
X100790500Y-27760000D03*
X74600000Y-47680000D03*
%TO.N,/REFOUT*%
X101540000Y-31350000D03*
X96340000Y-35290000D03*
%TO.N,+3.3V*%
X77130000Y-45900000D03*
X54460000Y-41280000D03*
X97770000Y-27770000D03*
X86520000Y-24280000D03*
X58500000Y-45800000D03*
X87880000Y-25500000D03*
X80180000Y-40350000D03*
X71150000Y-46410000D03*
X89080000Y-31650000D03*
X89684691Y-29048313D03*
X56471608Y-44717017D03*
X78080000Y-41450000D03*
X54460000Y-43480000D03*
%TO.N,/NRST*%
X69260000Y-34570000D03*
X69260000Y-39080000D03*
%TO.N,/SW*%
X90520000Y-29840000D03*
X90760000Y-35950000D03*
%TO.N,+3.3VA*%
X64110000Y-38160000D03*
X66070000Y-39794500D03*
%TO.N,+5V*%
X50330000Y-44570000D03*
X50330000Y-40510000D03*
%TO.N,/RA*%
X86630000Y-40820000D03*
X85440000Y-39580000D03*
%TO.N,/USB_D+*%
X51930378Y-42839622D03*
X53120000Y-41920000D03*
%TO.N,/IAOUT*%
X88370000Y-37460000D03*
X89380000Y-22790000D03*
X93940000Y-22790000D03*
X83460000Y-37460000D03*
%TO.N,/AD8232_LOD_N*%
X72968768Y-39431232D03*
X73905000Y-42785082D03*
%TO.N,/AD8232_LOD_P*%
X74955000Y-42785082D03*
X73711232Y-38688768D03*
%TD*%
D43*
%TO.N,Net-(C1-Pad1)*%
X96440000Y-38220000D02*
X95095000Y-38220000D01*
X95045000Y-39995000D02*
X95070000Y-40020000D01*
X95045000Y-38170000D02*
X95045000Y-39995000D01*
X95095000Y-38220000D02*
X95045000Y-38170000D01*
%TO.N,/ADC1_IN1*%
X99740000Y-34480000D02*
X99740000Y-36495000D01*
X98680000Y-33420000D02*
X99740000Y-34480000D01*
X99735000Y-45325000D02*
X94450000Y-50610000D01*
X99710000Y-38220000D02*
X102830000Y-38220000D01*
X82010000Y-50610000D02*
X79160000Y-47760000D01*
X67445000Y-38070000D02*
X70200000Y-38070000D01*
X99735000Y-38195000D02*
X99735000Y-45325000D01*
X99735000Y-36500000D02*
X99735000Y-38195000D01*
X96620000Y-33420000D02*
X98680000Y-33420000D01*
X97400000Y-38220000D02*
X98770000Y-38220000D01*
X79160000Y-47500000D02*
X79150000Y-47490000D01*
X79150000Y-47490000D02*
X79150000Y-41350000D01*
X99735000Y-38195000D02*
X99710000Y-38220000D01*
X94450000Y-50610000D02*
X82010000Y-50610000D01*
X70200000Y-38070000D02*
X70450000Y-37820000D01*
X99740000Y-36495000D02*
X99735000Y-36500000D01*
X79150000Y-41350000D02*
X75630000Y-37830000D01*
X98770000Y-38220000D02*
X99710000Y-38220000D01*
X79160000Y-47760000D02*
X79160000Y-47500000D01*
%TO.N,/RCC_OSC_IN*%
X64320000Y-35370000D02*
X62370000Y-35370000D01*
X62370000Y-35370000D02*
X61670000Y-36070000D01*
X59520000Y-36070000D02*
X58770000Y-35320000D01*
X67445000Y-33570000D02*
X66120000Y-33570000D01*
X58770000Y-35320000D02*
X58770000Y-35020000D01*
X61670000Y-36070000D02*
X59520000Y-36070000D01*
X66120000Y-33570000D02*
X64320000Y-35370000D01*
%TO.N,GND*%
X78795000Y-32070000D02*
X79720000Y-32070000D01*
X66580000Y-30610000D02*
X66830000Y-30360000D01*
X70470000Y-27220000D02*
X70470000Y-26220000D01*
X63260000Y-29920000D02*
X63960000Y-30620000D01*
X57490000Y-46220000D02*
X57490000Y-47240000D01*
X66520000Y-37070000D02*
X66270000Y-36820000D01*
X47580000Y-43810000D02*
X46710000Y-44680000D01*
X96120000Y-31070000D02*
X95620000Y-31570000D01*
X62460000Y-37740000D02*
X63450000Y-37740000D01*
X55740000Y-45760000D02*
X55720000Y-45780000D01*
D44*
X69870000Y-40995000D02*
X69870000Y-42570000D01*
D43*
X82000000Y-32320000D02*
X82010000Y-32310000D01*
X64590000Y-37280000D02*
X65010000Y-36860000D01*
X61605000Y-38595000D02*
X59535000Y-38595000D01*
X63960000Y-30620000D02*
X65460000Y-30620000D01*
X96620000Y-29720000D02*
X96620000Y-30570000D01*
X58770000Y-37830000D02*
X58770000Y-37220000D01*
X62460000Y-37740000D02*
X61605000Y-38595000D01*
X57220000Y-41720000D02*
X56300000Y-41720000D01*
X97470000Y-31070000D02*
X96120000Y-31070000D01*
X59535000Y-38595000D02*
X58770000Y-37830000D01*
X63910000Y-37280000D02*
X64590000Y-37280000D01*
X76370000Y-41920000D02*
X76170000Y-42120000D01*
X100780500Y-27770000D02*
X100790500Y-27760000D01*
X70120000Y-28470000D02*
X70120000Y-27770000D01*
X65460000Y-30620000D02*
X65470000Y-30610000D01*
X76370000Y-40995000D02*
X76370000Y-41920000D01*
X76170000Y-42120000D02*
X76170000Y-42770000D01*
X61640000Y-34410000D02*
X62370000Y-34410000D01*
X70470000Y-26220000D02*
X71810000Y-26220000D01*
X53870000Y-47270000D02*
X52600000Y-46000000D01*
X61030000Y-35020000D02*
X61640000Y-34410000D01*
X54050000Y-33870000D02*
X54000000Y-33820000D01*
D44*
X69870000Y-42570000D02*
X69630000Y-42810000D01*
D43*
X67445000Y-37070000D02*
X66520000Y-37070000D01*
X98820000Y-30400000D02*
X98790000Y-30400000D01*
X99760000Y-27780000D02*
X99750000Y-27770000D01*
X80870000Y-32320000D02*
X82000000Y-32320000D01*
X60470000Y-35020000D02*
X61030000Y-35020000D01*
X55330000Y-45810000D02*
X53870000Y-47270000D01*
X55150000Y-33870000D02*
X54050000Y-33870000D01*
X79720000Y-32070000D02*
X79970000Y-32320000D01*
X76170000Y-42770000D02*
X76170000Y-43860000D01*
X76350000Y-24320000D02*
X76350000Y-26740000D01*
X100065000Y-27035000D02*
X100065000Y-26020000D01*
X58770000Y-38810000D02*
X58660000Y-38920000D01*
X73430000Y-47680000D02*
X74600000Y-47680000D01*
X57490000Y-47240000D02*
X57710000Y-47460000D01*
X52600000Y-46000000D02*
X52600000Y-44935000D01*
X53870000Y-47270000D02*
X52380000Y-47270000D01*
X58770000Y-37220000D02*
X58770000Y-38810000D01*
X55550000Y-45810000D02*
X55330000Y-45810000D01*
X46710000Y-44680000D02*
X46700000Y-44690000D01*
X98120000Y-31070000D02*
X97470000Y-31070000D01*
X69870000Y-28720000D02*
X70120000Y-28470000D01*
X70120000Y-27570000D02*
X70470000Y-27220000D01*
X59020000Y-42720000D02*
X60360000Y-42720000D01*
X62870000Y-40370000D02*
X61380000Y-40370000D01*
X69870000Y-29645000D02*
X69870000Y-28720000D01*
X48180000Y-43810000D02*
X47580000Y-43810000D01*
X70120000Y-27770000D02*
X70120000Y-27570000D01*
X61770000Y-29920000D02*
X63260000Y-29920000D01*
X57470000Y-41970000D02*
X57220000Y-41720000D01*
X99750000Y-27770000D02*
X100780500Y-27770000D01*
X58220000Y-42720000D02*
X57470000Y-41970000D01*
X61380000Y-40370000D02*
X61360000Y-40350000D01*
X66270000Y-36820000D02*
X65260000Y-36820000D01*
X63450000Y-37740000D02*
X63910000Y-37280000D01*
D44*
X69630000Y-42810000D02*
X69630000Y-43600000D01*
D43*
X62370000Y-34410000D02*
X63660000Y-34410000D01*
X96620000Y-30570000D02*
X95620000Y-31570000D01*
X79970000Y-32320000D02*
X80870000Y-32320000D01*
X65470000Y-30610000D02*
X66580000Y-30610000D01*
D44*
X69630000Y-43600000D02*
X69440000Y-43790000D01*
D43*
X65260000Y-36820000D02*
X65220000Y-36860000D01*
X64420000Y-43470000D02*
X64420000Y-44990000D01*
X99750000Y-27350000D02*
X100065000Y-27035000D01*
X59020000Y-42720000D02*
X58220000Y-42720000D01*
X52600000Y-44935000D02*
X52525000Y-44860000D01*
X46700000Y-44690000D02*
X46700000Y-47440000D01*
X98790000Y-30400000D02*
X98120000Y-31070000D01*
X65010000Y-36860000D02*
X65220000Y-36860000D01*
X99750000Y-27770000D02*
X99750000Y-27350000D01*
%TO.N,/OPAMP+*%
X93400000Y-37160000D02*
X93400000Y-38165000D01*
X93170000Y-36370000D02*
X93170000Y-35945000D01*
X95120000Y-33995000D02*
X95120000Y-33420000D01*
X93170000Y-37945000D02*
X93395000Y-38170000D01*
X93170000Y-36930000D02*
X93400000Y-37160000D01*
X93170000Y-36370000D02*
X93170000Y-36930000D01*
X93400000Y-38165000D02*
X93395000Y-38170000D01*
X93170000Y-35945000D02*
X95120000Y-33995000D01*
%TO.N,/REFOUT*%
X95620000Y-34770000D02*
X95620000Y-33420000D01*
X101540000Y-25400000D02*
X101540000Y-31350000D01*
X96340000Y-35290000D02*
X95360000Y-35290000D01*
X99600000Y-24270000D02*
X100410000Y-24270000D01*
X100410000Y-24270000D02*
X101540000Y-25400000D01*
X95320000Y-36370000D02*
X94130000Y-36370000D01*
X95360000Y-35290000D02*
X95320000Y-35330000D01*
X95320000Y-35070000D02*
X95620000Y-34770000D01*
X95320000Y-35330000D02*
X95320000Y-35070000D01*
X95320000Y-36370000D02*
X95320000Y-35330000D01*
%TO.N,/RLDFB*%
X92370000Y-32790000D02*
X92370000Y-32420000D01*
X92370000Y-32420000D02*
X92720000Y-32070000D01*
X92720000Y-32070000D02*
X93770000Y-32070000D01*
%TO.N,/RLD*%
X91400000Y-34720000D02*
X92370000Y-33750000D01*
X92590000Y-33750000D02*
X93770000Y-32570000D01*
X88895000Y-34720000D02*
X91400000Y-34720000D01*
X92370000Y-33750000D02*
X92590000Y-33750000D01*
%TO.N,/RCC_OSC_OUT*%
X60470000Y-37220000D02*
X60910000Y-36780000D01*
X60910000Y-36780000D02*
X62460000Y-36780000D01*
X62460000Y-36780000D02*
X63858959Y-36780000D01*
X63858959Y-36780000D02*
X66568959Y-34070000D01*
X66568959Y-34070000D02*
X67445000Y-34070000D01*
%TO.N,/HPDRIVE*%
X93400000Y-30200000D02*
X93770000Y-30570000D01*
X92320000Y-30200000D02*
X93400000Y-30200000D01*
%TO.N,/HPSENSE*%
X93190000Y-29240000D02*
X93670000Y-29720000D01*
X93670000Y-29720000D02*
X94620000Y-29720000D01*
X92320000Y-29240000D02*
X93190000Y-29240000D01*
X92320000Y-27570000D02*
X92320000Y-29240000D01*
D45*
%TO.N,+3.3V*%
X61670000Y-22490000D02*
X58290000Y-22490000D01*
X88920000Y-32970000D02*
X88920000Y-31810000D01*
D43*
X96470000Y-27570000D02*
X96470000Y-28320000D01*
X82120661Y-31360000D02*
X82870000Y-32109339D01*
D45*
X54460000Y-38880000D02*
X55870000Y-37470000D01*
D43*
X79930000Y-31360000D02*
X80870000Y-31360000D01*
D45*
X62090000Y-45840000D02*
X65550000Y-45840000D01*
X66670000Y-44720000D02*
X66670000Y-42895000D01*
X68120000Y-25420000D02*
X68920000Y-26220000D01*
D43*
X77170000Y-42730000D02*
X77130000Y-42770000D01*
X68920000Y-27170000D02*
X68920000Y-26220000D01*
D45*
X83970000Y-24320000D02*
X86480000Y-24320000D01*
D43*
X97380000Y-28670000D02*
X97770000Y-28280000D01*
X98150000Y-29440000D02*
X98820000Y-29440000D01*
X70370000Y-42360000D02*
X70800000Y-42790000D01*
D45*
X63950000Y-33090000D02*
X65470000Y-31570000D01*
X63360000Y-25420000D02*
X63360000Y-24180000D01*
X56338625Y-44850000D02*
X56471608Y-44717017D01*
D43*
X79720000Y-31570000D02*
X79930000Y-31360000D01*
X80870000Y-31360000D02*
X82120661Y-31360000D01*
D45*
X54075000Y-44860000D02*
X54075000Y-43865000D01*
X89684691Y-29048313D02*
X89684691Y-28659691D01*
D43*
X69160000Y-27770000D02*
X69160000Y-27410000D01*
X99230000Y-29440000D02*
X99930000Y-30140000D01*
D45*
X57080000Y-37470000D02*
X57310000Y-37240000D01*
X87880000Y-25500000D02*
X88900000Y-26520000D01*
D43*
X97380000Y-28670000D02*
X98150000Y-29440000D01*
D45*
X61770000Y-25420000D02*
X63360000Y-25420000D01*
X63360000Y-25420000D02*
X68120000Y-25420000D01*
X80870000Y-31360000D02*
X80870000Y-29740000D01*
X88920000Y-31810000D02*
X89080000Y-31650000D01*
D43*
X76870000Y-40995000D02*
X76870000Y-41820000D01*
D45*
X86480000Y-24320000D02*
X86520000Y-24280000D01*
D43*
X96120000Y-28670000D02*
X96120000Y-29720000D01*
D45*
X56190000Y-31260000D02*
X58020000Y-33090000D01*
X59470000Y-45800000D02*
X62050000Y-45800000D01*
D43*
X77170000Y-42120000D02*
X77170000Y-42730000D01*
X78795000Y-31570000D02*
X79720000Y-31570000D01*
D45*
X63360000Y-24180000D02*
X61670000Y-22490000D01*
D43*
X98820000Y-29440000D02*
X99230000Y-29440000D01*
D45*
X57310000Y-33800000D02*
X58020000Y-33090000D01*
X57310000Y-37240000D02*
X57310000Y-33800000D01*
X70580000Y-45840000D02*
X71150000Y-46410000D01*
X62050000Y-45800000D02*
X62090000Y-45840000D01*
D43*
X97470000Y-30570000D02*
X97470000Y-30120000D01*
D45*
X58500000Y-45800000D02*
X59470000Y-45800000D01*
D43*
X82870000Y-32109339D02*
X82870000Y-35860000D01*
X80180000Y-38550000D02*
X80180000Y-40350000D01*
D45*
X88900000Y-27865000D02*
X88895000Y-27870000D01*
X55870000Y-37470000D02*
X57080000Y-37470000D01*
D43*
X97470000Y-30120000D02*
X98150000Y-29440000D01*
D45*
X77130000Y-45900000D02*
X77130000Y-42770000D01*
D43*
X96120000Y-28670000D02*
X97380000Y-28670000D01*
D45*
X55550000Y-44850000D02*
X55550000Y-43960000D01*
D43*
X99930000Y-30920000D02*
X99280000Y-31570000D01*
X97470000Y-31570000D02*
X98240000Y-31570000D01*
D45*
X62870000Y-44980000D02*
X62870000Y-43470000D01*
D43*
X97770000Y-28280000D02*
X97770000Y-27770000D01*
D45*
X69930000Y-45840000D02*
X70580000Y-45840000D01*
X83970000Y-26600000D02*
X83970000Y-24320000D01*
X58020000Y-33090000D02*
X63950000Y-33090000D01*
D43*
X76870000Y-40995000D02*
X77625000Y-40995000D01*
D45*
X88900000Y-26520000D02*
X88900000Y-27865000D01*
D43*
X69160000Y-28510000D02*
X69160000Y-27770000D01*
D45*
X54075000Y-44860000D02*
X55540000Y-44860000D01*
D43*
X83990000Y-26620000D02*
X83970000Y-26600000D01*
X99930000Y-30140000D02*
X99930000Y-30920000D01*
D45*
X55540000Y-44860000D02*
X55550000Y-44850000D01*
D43*
X77625000Y-40995000D02*
X78080000Y-41450000D01*
D45*
X55550000Y-44850000D02*
X56338625Y-44850000D01*
D43*
X65470000Y-31570000D02*
X67445000Y-31570000D01*
X70370000Y-40995000D02*
X70370000Y-42360000D01*
D45*
X55550000Y-43960000D02*
X56120000Y-43390000D01*
X54075000Y-43865000D02*
X54460000Y-43480000D01*
X89684691Y-28659691D02*
X88895000Y-27870000D01*
X65550000Y-45840000D02*
X69930000Y-45840000D01*
X69930000Y-45840000D02*
X70800000Y-44970000D01*
D43*
X69370000Y-28720000D02*
X69160000Y-28510000D01*
X96470000Y-28320000D02*
X96120000Y-28670000D01*
X69370000Y-29645000D02*
X69370000Y-28720000D01*
D45*
X80870000Y-29740000D02*
X83990000Y-26620000D01*
D43*
X99280000Y-31570000D02*
X98240000Y-31570000D01*
D45*
X56190000Y-24590000D02*
X56190000Y-31260000D01*
D43*
X76870000Y-41820000D02*
X77170000Y-42120000D01*
X98240000Y-31570000D02*
X98230000Y-31560000D01*
X69160000Y-27410000D02*
X68920000Y-27170000D01*
D45*
X70800000Y-44970000D02*
X70800000Y-42790000D01*
X58290000Y-22490000D02*
X56190000Y-24590000D01*
X54460000Y-41280000D02*
X54460000Y-38880000D01*
X62050000Y-45800000D02*
X62870000Y-44980000D01*
D43*
X82870000Y-35860000D02*
X80180000Y-38550000D01*
D45*
X65550000Y-45840000D02*
X66670000Y-44720000D01*
D44*
%TO.N,/NRST*%
X68460000Y-42600000D02*
X68670000Y-42810000D01*
X68460000Y-39880000D02*
X69260000Y-39080000D01*
X68460000Y-39880000D02*
X68460000Y-42600000D01*
X67445000Y-34570000D02*
X69260000Y-34570000D01*
D43*
%TO.N,/REFIN*%
X95470000Y-25920000D02*
X96470000Y-25920000D01*
X98790000Y-27020000D02*
X98790000Y-27770000D01*
X98570000Y-25920000D02*
X98670000Y-26020000D01*
X98415000Y-26020000D02*
X98415000Y-26645000D01*
X95170000Y-26220000D02*
X95470000Y-25920000D01*
X95620000Y-28670000D02*
X95170000Y-28220000D01*
X95170000Y-28220000D02*
X95170000Y-26220000D01*
X98415000Y-26645000D02*
X98790000Y-27020000D01*
X98670000Y-27650000D02*
X98790000Y-27770000D01*
X95620000Y-29720000D02*
X95620000Y-28670000D01*
X96470000Y-25920000D02*
X98315000Y-25920000D01*
X98315000Y-25920000D02*
X98415000Y-26020000D01*
%TO.N,/SW*%
X94220000Y-33420000D02*
X94620000Y-33420000D01*
X97220000Y-24270000D02*
X98640000Y-24270000D01*
X93990000Y-33650000D02*
X94220000Y-33420000D01*
X90500000Y-29820000D02*
X90500000Y-22900000D01*
X90500000Y-22900000D02*
X92540000Y-20860000D01*
X91720000Y-35950000D02*
X93990000Y-33680000D01*
X97220000Y-21900000D02*
X97220000Y-24270000D01*
X90520000Y-29840000D02*
X90500000Y-29820000D01*
X92540000Y-20860000D02*
X96180000Y-20860000D01*
X90760000Y-35950000D02*
X91720000Y-35950000D01*
X93990000Y-33680000D02*
X93990000Y-33650000D01*
X96180000Y-20860000D02*
X97220000Y-21900000D01*
%TO.N,+3.3VA*%
X66270000Y-37820000D02*
X65220000Y-37820000D01*
D45*
X64420000Y-40370000D02*
X65720000Y-40370000D01*
D43*
X67445000Y-37570000D02*
X66520000Y-37570000D01*
X66520000Y-37570000D02*
X66270000Y-37820000D01*
D45*
X65720000Y-40370000D02*
X65720000Y-40144500D01*
X65720000Y-40370000D02*
X66670000Y-41320000D01*
X64110000Y-38160000D02*
X64880000Y-38160000D01*
X65720000Y-40144500D02*
X66070000Y-39794500D01*
X64880000Y-38160000D02*
X65220000Y-37820000D01*
%TO.N,+5V*%
X55420000Y-48420000D02*
X55420000Y-47270000D01*
X57130000Y-45260000D02*
X57490000Y-45260000D01*
X50320000Y-45681752D02*
X50320000Y-47240000D01*
X52330000Y-49250000D02*
X54590000Y-49250000D01*
D44*
X48180000Y-41210000D02*
X49630000Y-41210000D01*
X50330000Y-45671752D02*
X50320000Y-45681752D01*
D43*
X56720000Y-43520000D02*
X57220000Y-43520000D01*
D45*
X56600000Y-46670000D02*
X56600000Y-45790000D01*
D44*
X57220000Y-44500000D02*
X57220000Y-43520000D01*
D45*
X50320000Y-47240000D02*
X52330000Y-49250000D01*
X56600000Y-45790000D02*
X57130000Y-45260000D01*
X55420000Y-47270000D02*
X56000000Y-47270000D01*
X54590000Y-49250000D02*
X55420000Y-48420000D01*
D44*
X49630000Y-41210000D02*
X50330000Y-40510000D01*
X57490000Y-44770000D02*
X57220000Y-44500000D01*
D45*
X50330000Y-44570000D02*
X50330000Y-45671752D01*
D44*
X57490000Y-45260000D02*
X57490000Y-44770000D01*
D45*
X56000000Y-47270000D02*
X56600000Y-46670000D01*
D43*
%TO.N,/HR_LED_K*%
X72370000Y-47640000D02*
X72410000Y-47680000D01*
X72370000Y-45007500D02*
X72370000Y-47640000D01*
%TO.N,/LED*%
X71370000Y-40995000D02*
X71370000Y-42070000D01*
X72370000Y-42580000D02*
X72370000Y-43432500D01*
X71370000Y-42070000D02*
X71680000Y-42380000D01*
X71680000Y-42380000D02*
X72150000Y-42380000D01*
X72160000Y-42370000D02*
X72370000Y-42580000D01*
X72150000Y-42380000D02*
X72160000Y-42370000D01*
%TO.N,/PWR_LED_K*%
X55870000Y-35895000D02*
X55870000Y-35020000D01*
X55870000Y-35020000D02*
X56170000Y-34720000D01*
X56170000Y-34720000D02*
X56170000Y-33870000D01*
%TO.N,/RL*%
X82320000Y-44541549D02*
X84755775Y-42105774D01*
X82320000Y-44970000D02*
X82320000Y-44541549D01*
X87245000Y-38945000D02*
X87245000Y-34720000D01*
X84755775Y-42105774D02*
X84755775Y-41434225D01*
X84755775Y-41434225D02*
X87245000Y-38945000D01*
%TO.N,/LA*%
X85720000Y-27870000D02*
X87245000Y-27870000D01*
X84570000Y-29020000D02*
X85720000Y-27870000D01*
X84020000Y-40970000D02*
X84570000Y-40420000D01*
X87245000Y-27870000D02*
X87245000Y-28635000D01*
X84570000Y-40420000D02*
X84570000Y-29020000D01*
X87245000Y-28635000D02*
X87020000Y-28860000D01*
X87020000Y-28860000D02*
X87020000Y-29620000D01*
X82320000Y-40970000D02*
X84020000Y-40970000D01*
%TO.N,/RA*%
X86770000Y-43520000D02*
X86770000Y-40960000D01*
X87270000Y-32970000D02*
X87270000Y-32200000D01*
X82320000Y-47970000D02*
X86770000Y-43520000D01*
X87270000Y-32200000D02*
X87050000Y-31980000D01*
X85440000Y-33550000D02*
X86020000Y-32970000D01*
X86770000Y-40960000D02*
X86630000Y-40820000D01*
X87050000Y-31980000D02*
X87050000Y-31220000D01*
X85440000Y-39580000D02*
X85440000Y-33550000D01*
X86020000Y-32970000D02*
X87270000Y-32970000D01*
%TO.N,/TMS*%
X78795000Y-32570000D02*
X77918959Y-32570000D01*
X77918959Y-32570000D02*
X77670000Y-32321041D01*
X77670000Y-30720000D02*
X81430000Y-26960000D01*
X77670000Y-32321041D02*
X77670000Y-30720000D01*
X81430000Y-26960000D02*
X81430000Y-24320000D01*
%TO.N,/TCK*%
X76870000Y-28420000D02*
X78890000Y-26400000D01*
X76870000Y-29645000D02*
X76870000Y-28420000D01*
X78890000Y-26400000D02*
X78890000Y-24320000D01*
D46*
%TO.N,/USB_D-*%
X52820000Y-42720000D02*
X55920000Y-42720000D01*
X48180000Y-41860000D02*
X51940000Y-41860000D01*
X52810000Y-42730000D02*
X52820000Y-42720000D01*
X51940000Y-41860000D02*
X52810000Y-42730000D01*
%TO.N,/USB_D+*%
X53120000Y-41920000D02*
X53420000Y-42220000D01*
X48180000Y-42510000D02*
X51600756Y-42510000D01*
X51600756Y-42510000D02*
X51930378Y-42839622D01*
X53420000Y-42220000D02*
X55920000Y-42220000D01*
D43*
%TO.N,/IAOUT*%
X89380000Y-22810000D02*
X89380000Y-22790000D01*
X91660000Y-38120000D02*
X91000000Y-37460000D01*
X91630000Y-39380000D02*
X91630000Y-38150000D01*
X93945000Y-24270000D02*
X93945000Y-27895000D01*
X91630000Y-38150000D02*
X91660000Y-38120000D01*
X93420000Y-40020000D02*
X92270000Y-40020000D01*
X83460000Y-28730000D02*
X88610000Y-23580000D01*
X83460000Y-37460000D02*
X83460000Y-28730000D01*
X88610000Y-23580000D02*
X89380000Y-22810000D01*
X93940000Y-22790000D02*
X93940000Y-24265000D01*
X93940000Y-24265000D02*
X93945000Y-24270000D01*
X92270000Y-40020000D02*
X91630000Y-39380000D01*
X95120000Y-29070000D02*
X95120000Y-29720000D01*
X93945000Y-27895000D02*
X95120000Y-29070000D01*
X91000000Y-37460000D02*
X88370000Y-37460000D01*
%TO.N,/IN+*%
X90650000Y-31070000D02*
X89200000Y-29620000D01*
X89200000Y-29620000D02*
X88040000Y-29620000D01*
X93770000Y-31070000D02*
X90650000Y-31070000D01*
%TO.N,/IN-*%
X88250000Y-30420000D02*
X88070000Y-30600000D01*
X88080000Y-31210000D02*
X88070000Y-31220000D01*
X88070000Y-30600000D02*
X88070000Y-31220000D01*
X89030000Y-30420000D02*
X88250000Y-30420000D01*
X90180000Y-31570000D02*
X89030000Y-30420000D01*
X93770000Y-31570000D02*
X90180000Y-31570000D01*
%TO.N,/OPAMP-*%
X98085000Y-35435000D02*
X98085000Y-36500000D01*
X97110000Y-36500000D02*
X98085000Y-36500000D01*
X96120000Y-33995000D02*
X96120000Y-33420000D01*
X96685000Y-34560000D02*
X96120000Y-33995000D01*
X96340000Y-36370000D02*
X96980000Y-36370000D01*
X97210000Y-34560000D02*
X98085000Y-35435000D01*
X97210000Y-34560000D02*
X96685000Y-34560000D01*
X96980000Y-36370000D02*
X97110000Y-36500000D01*
%TO.N,/SW_BOOT0*%
X63570000Y-27020000D02*
X64220000Y-26370000D01*
X61770000Y-28420000D02*
X62970000Y-28420000D01*
X63570000Y-27820000D02*
X63570000Y-27020000D01*
X64220000Y-26370000D02*
X64860000Y-26370000D01*
X62970000Y-28420000D02*
X63570000Y-27820000D01*
%TO.N,/BOOT0*%
X65880000Y-28030000D02*
X65880000Y-26370000D01*
X71370000Y-29645000D02*
X71370000Y-30920000D01*
X71170000Y-31120000D02*
X68970000Y-31120000D01*
X68970000Y-31120000D02*
X65880000Y-28030000D01*
X71370000Y-30920000D02*
X71170000Y-31120000D01*
%TO.N,Net-(R13-Pad1)*%
X92295000Y-24270000D02*
X92295000Y-25895000D01*
X95580000Y-22340000D02*
X95580000Y-24260000D01*
X95590000Y-24250000D02*
X95570000Y-24270000D01*
X93020000Y-21760000D02*
X95000000Y-21760000D01*
X92295000Y-22485000D02*
X93020000Y-21760000D01*
X92295000Y-25895000D02*
X92320000Y-25920000D01*
X95580000Y-24260000D02*
X95570000Y-24270000D01*
X95000000Y-21760000D02*
X95580000Y-22340000D01*
X92295000Y-24270000D02*
X92295000Y-22485000D01*
D44*
%TO.N,Net-(R18-Pad2)*%
X57720000Y-44270000D02*
X58230000Y-44780000D01*
X57720000Y-43520000D02*
X57720000Y-44270000D01*
X58230000Y-44780000D02*
X59470000Y-44780000D01*
D46*
%TO.N,/AD8232_LOD_N*%
X74204999Y-43085081D02*
X73905000Y-42785082D01*
X105815000Y-41643200D02*
X95163200Y-52295000D01*
X72968768Y-39431232D02*
X72968768Y-39006967D01*
X81436800Y-52295000D02*
X74204999Y-45063199D01*
X97845001Y-32070000D02*
X97870001Y-32095000D01*
X104153200Y-32095000D02*
X105815000Y-33756800D01*
X105815000Y-33756800D02*
X105815000Y-41643200D01*
X70006801Y-36045001D02*
X67469999Y-36045001D01*
X67469999Y-36045001D02*
X67445000Y-36070000D01*
X97870001Y-32095000D02*
X104153200Y-32095000D01*
X95163200Y-52295000D02*
X81436800Y-52295000D01*
X72968768Y-39006967D02*
X70006801Y-36045001D01*
X74204999Y-45063199D02*
X74204999Y-43085081D01*
X97470000Y-32070000D02*
X97845001Y-32070000D01*
%TO.N,/AD8232_LOD_P*%
X103966800Y-32545000D02*
X105365000Y-33943200D01*
X97845001Y-32570000D02*
X97870001Y-32545000D01*
X105365000Y-41456800D02*
X94976800Y-51845000D01*
X73286967Y-38688768D02*
X70193199Y-35594999D01*
X97870001Y-32545000D02*
X103966800Y-32545000D01*
X74655001Y-44876801D02*
X74655001Y-43085081D01*
X94976800Y-51845000D02*
X81623200Y-51845000D01*
X70193199Y-35594999D02*
X67469999Y-35594999D01*
X81623200Y-51845000D02*
X74655001Y-44876801D01*
X67469999Y-35594999D02*
X67445000Y-35570000D01*
X74655001Y-43085081D02*
X74955000Y-42785082D01*
X97470000Y-32570000D02*
X97845001Y-32570000D01*
X73711232Y-38688768D02*
X73286967Y-38688768D01*
X67445000Y-35570000D02*
X67469999Y-35545001D01*
X105365000Y-33943200D02*
X105365000Y-41456800D01*
%TO.N,unconnected-(U2-Pad8)*%
X67445000Y-35070000D02*
X67469999Y-35094999D01*
D44*
%TO.N,/USART2_TX*%
X67445000Y-39070000D02*
X59570000Y-39070000D01*
X59570000Y-39070000D02*
X58220000Y-40420000D01*
%TD*%
M02*
