%TF.GenerationSoftware,KiCad,Pcbnew,(6.0.9)*%
%TF.CreationDate,2023-07-19T12:20:02-07:00*%
%TF.ProjectId,pcb,7063622e-6b69-4636-9164-5f7063625858,0.1*%
%TF.SameCoordinates,Original*%
%TF.FileFunction,Legend,Top*%
%TF.FilePolarity,Positive*%
%FSLAX46Y46*%
G04 Gerber Fmt 4.6, Leading zero omitted, Abs format (unit mm)*
G04 Created by KiCad (PCBNEW (6.0.9)) date 2023-07-19 12:20:02*
%MOMM*%
%LPD*%
G01*
G04 APERTURE LIST*
%ADD10C,0.150000*%
%ADD11C,0.125000*%
%ADD12C,0.120000*%
%ADD13C,0.127000*%
%ADD14C,0.200000*%
%ADD15C,0.250000*%
G04 APERTURE END LIST*
D10*
X79222380Y-52045714D02*
X79936666Y-52045714D01*
X80079523Y-52093333D01*
X80174761Y-52188571D01*
X80222380Y-52331428D01*
X80222380Y-52426666D01*
X79936666Y-51617142D02*
X79936666Y-51140952D01*
X80222380Y-51712380D02*
X79222380Y-51379047D01*
X80222380Y-51045714D01*
X80127142Y-50140952D02*
X80174761Y-50188571D01*
X80222380Y-50331428D01*
X80222380Y-50426666D01*
X80174761Y-50569523D01*
X80079523Y-50664761D01*
X79984285Y-50712380D01*
X79793809Y-50760000D01*
X79650952Y-50760000D01*
X79460476Y-50712380D01*
X79365238Y-50664761D01*
X79270000Y-50569523D01*
X79222380Y-50426666D01*
X79222380Y-50331428D01*
X79270000Y-50188571D01*
X79317619Y-50140952D01*
X80222380Y-49712380D02*
X79222380Y-49712380D01*
X80222380Y-49140952D02*
X79650952Y-49569523D01*
X79222380Y-49140952D02*
X79793809Y-49712380D01*
X77701428Y-21421904D02*
X78158571Y-21421904D01*
X77930000Y-22221904D02*
X77930000Y-21421904D01*
X78882380Y-22145714D02*
X78844285Y-22183809D01*
X78730000Y-22221904D01*
X78653809Y-22221904D01*
X78539523Y-22183809D01*
X78463333Y-22107619D01*
X78425238Y-22031428D01*
X78387142Y-21879047D01*
X78387142Y-21764761D01*
X78425238Y-21612380D01*
X78463333Y-21536190D01*
X78539523Y-21460000D01*
X78653809Y-21421904D01*
X78730000Y-21421904D01*
X78844285Y-21460000D01*
X78882380Y-21498095D01*
X79225238Y-22221904D02*
X79225238Y-21421904D01*
X79682380Y-22221904D02*
X79339523Y-21764761D01*
X79682380Y-21421904D02*
X79225238Y-21879047D01*
X73414285Y-44622380D02*
X73414285Y-43622380D01*
X73414285Y-44098571D02*
X73985714Y-44098571D01*
X73985714Y-44622380D02*
X73985714Y-43622380D01*
X75033333Y-44622380D02*
X74700000Y-44146190D01*
X74461904Y-44622380D02*
X74461904Y-43622380D01*
X74842857Y-43622380D01*
X74938095Y-43670000D01*
X74985714Y-43717619D01*
X75033333Y-43812857D01*
X75033333Y-43955714D01*
X74985714Y-44050952D01*
X74938095Y-44098571D01*
X74842857Y-44146190D01*
X74461904Y-44146190D01*
X71632857Y-24814761D02*
X71775714Y-24862380D01*
X72013809Y-24862380D01*
X72109047Y-24814761D01*
X72156666Y-24767142D01*
X72204285Y-24671904D01*
X72204285Y-24576666D01*
X72156666Y-24481428D01*
X72109047Y-24433809D01*
X72013809Y-24386190D01*
X71823333Y-24338571D01*
X71728095Y-24290952D01*
X71680476Y-24243333D01*
X71632857Y-24148095D01*
X71632857Y-24052857D01*
X71680476Y-23957619D01*
X71728095Y-23910000D01*
X71823333Y-23862380D01*
X72061428Y-23862380D01*
X72204285Y-23910000D01*
X72537619Y-23862380D02*
X72775714Y-24862380D01*
X72966190Y-24148095D01*
X73156666Y-24862380D01*
X73394761Y-23862380D01*
X73775714Y-24862380D02*
X73775714Y-23862380D01*
X74013809Y-23862380D01*
X74156666Y-23910000D01*
X74251904Y-24005238D01*
X74299523Y-24100476D01*
X74347142Y-24290952D01*
X74347142Y-24433809D01*
X74299523Y-24624285D01*
X74251904Y-24719523D01*
X74156666Y-24814761D01*
X74013809Y-24862380D01*
X73775714Y-24862380D01*
X101886190Y-41224761D02*
X102029047Y-41272380D01*
X102267142Y-41272380D01*
X102362380Y-41224761D01*
X102410000Y-41177142D01*
X102457619Y-41081904D01*
X102457619Y-40986666D01*
X102410000Y-40891428D01*
X102362380Y-40843809D01*
X102267142Y-40796190D01*
X102076666Y-40748571D01*
X101981428Y-40700952D01*
X101933809Y-40653333D01*
X101886190Y-40558095D01*
X101886190Y-40462857D01*
X101933809Y-40367619D01*
X101981428Y-40320000D01*
X102076666Y-40272380D01*
X102314761Y-40272380D01*
X102457619Y-40320000D01*
X102886190Y-41272380D02*
X102886190Y-40272380D01*
X103886190Y-40320000D02*
X103790952Y-40272380D01*
X103648095Y-40272380D01*
X103505238Y-40320000D01*
X103410000Y-40415238D01*
X103362380Y-40510476D01*
X103314761Y-40700952D01*
X103314761Y-40843809D01*
X103362380Y-41034285D01*
X103410000Y-41129523D01*
X103505238Y-41224761D01*
X103648095Y-41272380D01*
X103743333Y-41272380D01*
X103886190Y-41224761D01*
X103933809Y-41177142D01*
X103933809Y-40843809D01*
X103743333Y-40843809D01*
X53502857Y-27678571D02*
X53645714Y-27726190D01*
X53693333Y-27773809D01*
X53740952Y-27869047D01*
X53740952Y-28011904D01*
X53693333Y-28107142D01*
X53645714Y-28154761D01*
X53550476Y-28202380D01*
X53169523Y-28202380D01*
X53169523Y-27202380D01*
X53502857Y-27202380D01*
X53598095Y-27250000D01*
X53645714Y-27297619D01*
X53693333Y-27392857D01*
X53693333Y-27488095D01*
X53645714Y-27583333D01*
X53598095Y-27630952D01*
X53502857Y-27678571D01*
X53169523Y-27678571D01*
X54360000Y-27202380D02*
X54550476Y-27202380D01*
X54645714Y-27250000D01*
X54740952Y-27345238D01*
X54788571Y-27535714D01*
X54788571Y-27869047D01*
X54740952Y-28059523D01*
X54645714Y-28154761D01*
X54550476Y-28202380D01*
X54360000Y-28202380D01*
X54264761Y-28154761D01*
X54169523Y-28059523D01*
X54121904Y-27869047D01*
X54121904Y-27535714D01*
X54169523Y-27345238D01*
X54264761Y-27250000D01*
X54360000Y-27202380D01*
X55407619Y-27202380D02*
X55598095Y-27202380D01*
X55693333Y-27250000D01*
X55788571Y-27345238D01*
X55836190Y-27535714D01*
X55836190Y-27869047D01*
X55788571Y-28059523D01*
X55693333Y-28154761D01*
X55598095Y-28202380D01*
X55407619Y-28202380D01*
X55312380Y-28154761D01*
X55217142Y-28059523D01*
X55169523Y-27869047D01*
X55169523Y-27535714D01*
X55217142Y-27345238D01*
X55312380Y-27250000D01*
X55407619Y-27202380D01*
X56121904Y-27202380D02*
X56693333Y-27202380D01*
X56407619Y-28202380D02*
X56407619Y-27202380D01*
X75590476Y-21460000D02*
X75514285Y-21421904D01*
X75400000Y-21421904D01*
X75285714Y-21460000D01*
X75209523Y-21536190D01*
X75171428Y-21612380D01*
X75133333Y-21764761D01*
X75133333Y-21879047D01*
X75171428Y-22031428D01*
X75209523Y-22107619D01*
X75285714Y-22183809D01*
X75400000Y-22221904D01*
X75476190Y-22221904D01*
X75590476Y-22183809D01*
X75628571Y-22145714D01*
X75628571Y-21879047D01*
X75476190Y-21879047D01*
X75971428Y-22221904D02*
X75971428Y-21421904D01*
X76428571Y-22221904D01*
X76428571Y-21421904D01*
X76809523Y-22221904D02*
X76809523Y-21421904D01*
X77000000Y-21421904D01*
X77114285Y-21460000D01*
X77190476Y-21536190D01*
X77228571Y-21612380D01*
X77266666Y-21764761D01*
X77266666Y-21879047D01*
X77228571Y-22031428D01*
X77190476Y-22107619D01*
X77114285Y-22183809D01*
X77000000Y-22221904D01*
X76809523Y-22221904D01*
X105720000Y-34980476D02*
X105758095Y-34904285D01*
X105758095Y-34790000D01*
X105720000Y-34675714D01*
X105643809Y-34599523D01*
X105567619Y-34561428D01*
X105415238Y-34523333D01*
X105300952Y-34523333D01*
X105148571Y-34561428D01*
X105072380Y-34599523D01*
X104996190Y-34675714D01*
X104958095Y-34790000D01*
X104958095Y-34866190D01*
X104996190Y-34980476D01*
X105034285Y-35018571D01*
X105300952Y-35018571D01*
X105300952Y-34866190D01*
X104958095Y-35361428D02*
X105758095Y-35361428D01*
X104958095Y-35818571D01*
X105758095Y-35818571D01*
X104958095Y-36199523D02*
X105758095Y-36199523D01*
X105758095Y-36390000D01*
X105720000Y-36504285D01*
X105643809Y-36580476D01*
X105567619Y-36618571D01*
X105415238Y-36656666D01*
X105300952Y-36656666D01*
X105148571Y-36618571D01*
X105072380Y-36580476D01*
X104996190Y-36504285D01*
X104958095Y-36390000D01*
X104958095Y-36199523D01*
X105758095Y-37610000D02*
X105758095Y-37762380D01*
X105720000Y-37838571D01*
X105643809Y-37914761D01*
X105491428Y-37952857D01*
X105224761Y-37952857D01*
X105072380Y-37914761D01*
X104996190Y-37838571D01*
X104958095Y-37762380D01*
X104958095Y-37610000D01*
X104996190Y-37533809D01*
X105072380Y-37457619D01*
X105224761Y-37419523D01*
X105491428Y-37419523D01*
X105643809Y-37457619D01*
X105720000Y-37533809D01*
X105758095Y-37610000D01*
X105758095Y-38295714D02*
X105110476Y-38295714D01*
X105034285Y-38333809D01*
X104996190Y-38371904D01*
X104958095Y-38448095D01*
X104958095Y-38600476D01*
X104996190Y-38676666D01*
X105034285Y-38714761D01*
X105110476Y-38752857D01*
X105758095Y-38752857D01*
X105758095Y-39019523D02*
X105758095Y-39476666D01*
X104958095Y-39248095D02*
X105758095Y-39248095D01*
X80173333Y-21441904D02*
X80630476Y-21441904D01*
X80401904Y-22241904D02*
X80401904Y-21441904D01*
X80897142Y-22241904D02*
X80897142Y-21441904D01*
X81163809Y-22013333D01*
X81430476Y-21441904D01*
X81430476Y-22241904D01*
X81773333Y-22203809D02*
X81887619Y-22241904D01*
X82078095Y-22241904D01*
X82154285Y-22203809D01*
X82192380Y-22165714D01*
X82230476Y-22089523D01*
X82230476Y-22013333D01*
X82192380Y-21937142D01*
X82154285Y-21899047D01*
X82078095Y-21860952D01*
X81925714Y-21822857D01*
X81849523Y-21784761D01*
X81811428Y-21746666D01*
X81773333Y-21670476D01*
X81773333Y-21594285D01*
X81811428Y-21518095D01*
X81849523Y-21480000D01*
X81925714Y-21441904D01*
X82116190Y-21441904D01*
X82230476Y-21480000D01*
X47138095Y-36862380D02*
X47138095Y-37671904D01*
X47185714Y-37767142D01*
X47233333Y-37814761D01*
X47328571Y-37862380D01*
X47519047Y-37862380D01*
X47614285Y-37814761D01*
X47661904Y-37767142D01*
X47709523Y-37671904D01*
X47709523Y-36862380D01*
X48138095Y-37814761D02*
X48280952Y-37862380D01*
X48519047Y-37862380D01*
X48614285Y-37814761D01*
X48661904Y-37767142D01*
X48709523Y-37671904D01*
X48709523Y-37576666D01*
X48661904Y-37481428D01*
X48614285Y-37433809D01*
X48519047Y-37386190D01*
X48328571Y-37338571D01*
X48233333Y-37290952D01*
X48185714Y-37243333D01*
X48138095Y-37148095D01*
X48138095Y-37052857D01*
X48185714Y-36957619D01*
X48233333Y-36910000D01*
X48328571Y-36862380D01*
X48566666Y-36862380D01*
X48709523Y-36910000D01*
X49471428Y-37338571D02*
X49614285Y-37386190D01*
X49661904Y-37433809D01*
X49709523Y-37529047D01*
X49709523Y-37671904D01*
X49661904Y-37767142D01*
X49614285Y-37814761D01*
X49519047Y-37862380D01*
X49138095Y-37862380D01*
X49138095Y-36862380D01*
X49471428Y-36862380D01*
X49566666Y-36910000D01*
X49614285Y-36957619D01*
X49661904Y-37052857D01*
X49661904Y-37148095D01*
X49614285Y-37243333D01*
X49566666Y-37290952D01*
X49471428Y-37338571D01*
X49138095Y-37338571D01*
X82739523Y-21441904D02*
X83234761Y-21441904D01*
X82968095Y-21746666D01*
X83082380Y-21746666D01*
X83158571Y-21784761D01*
X83196666Y-21822857D01*
X83234761Y-21899047D01*
X83234761Y-22089523D01*
X83196666Y-22165714D01*
X83158571Y-22203809D01*
X83082380Y-22241904D01*
X82853809Y-22241904D01*
X82777619Y-22203809D01*
X82739523Y-22165714D01*
X83463333Y-21441904D02*
X83730000Y-22241904D01*
X83996666Y-21441904D01*
X84187142Y-21441904D02*
X84682380Y-21441904D01*
X84415714Y-21746666D01*
X84530000Y-21746666D01*
X84606190Y-21784761D01*
X84644285Y-21822857D01*
X84682380Y-21899047D01*
X84682380Y-22089523D01*
X84644285Y-22165714D01*
X84606190Y-22203809D01*
X84530000Y-22241904D01*
X84301428Y-22241904D01*
X84225238Y-22203809D01*
X84187142Y-22165714D01*
X51946666Y-37712380D02*
X51946666Y-36712380D01*
X52327619Y-36712380D01*
X52422857Y-36760000D01*
X52470476Y-36807619D01*
X52518095Y-36902857D01*
X52518095Y-37045714D01*
X52470476Y-37140952D01*
X52422857Y-37188571D01*
X52327619Y-37236190D01*
X51946666Y-37236190D01*
X52851428Y-36712380D02*
X53089523Y-37712380D01*
X53280000Y-36998095D01*
X53470476Y-37712380D01*
X53708571Y-36712380D01*
X54660952Y-37712380D02*
X54327619Y-37236190D01*
X54089523Y-37712380D02*
X54089523Y-36712380D01*
X54470476Y-36712380D01*
X54565714Y-36760000D01*
X54613333Y-36807619D01*
X54660952Y-36902857D01*
X54660952Y-37045714D01*
X54613333Y-37140952D01*
X54565714Y-37188571D01*
X54470476Y-37236190D01*
X54089523Y-37236190D01*
%TO.C,C10*%
X101117142Y-30192857D02*
X101164761Y-30240476D01*
X101212380Y-30383333D01*
X101212380Y-30478571D01*
X101164761Y-30621428D01*
X101069523Y-30716666D01*
X100974285Y-30764285D01*
X100783809Y-30811904D01*
X100640952Y-30811904D01*
X100450476Y-30764285D01*
X100355238Y-30716666D01*
X100260000Y-30621428D01*
X100212380Y-30478571D01*
X100212380Y-30383333D01*
X100260000Y-30240476D01*
X100307619Y-30192857D01*
X101212380Y-29240476D02*
X101212380Y-29811904D01*
X101212380Y-29526190D02*
X100212380Y-29526190D01*
X100355238Y-29621428D01*
X100450476Y-29716666D01*
X100498095Y-29811904D01*
X100212380Y-28621428D02*
X100212380Y-28526190D01*
X100260000Y-28430952D01*
X100307619Y-28383333D01*
X100402857Y-28335714D01*
X100593333Y-28288095D01*
X100831428Y-28288095D01*
X101021904Y-28335714D01*
X101117142Y-28383333D01*
X101164761Y-28430952D01*
X101212380Y-28526190D01*
X101212380Y-28621428D01*
X101164761Y-28716666D01*
X101117142Y-28764285D01*
X101021904Y-28811904D01*
X100831428Y-28859523D01*
X100593333Y-28859523D01*
X100402857Y-28811904D01*
X100307619Y-28764285D01*
X100260000Y-28716666D01*
X100212380Y-28621428D01*
%TO.C,U1*%
X93192380Y-28369523D02*
X93192380Y-28887619D01*
X93222857Y-28948571D01*
X93253333Y-28979047D01*
X93314285Y-29009523D01*
X93436190Y-29009523D01*
X93497142Y-28979047D01*
X93527619Y-28948571D01*
X93558095Y-28887619D01*
X93558095Y-28369523D01*
X94198095Y-29009523D02*
X93832380Y-29009523D01*
X94015238Y-29009523D02*
X94015238Y-28369523D01*
X93954285Y-28460952D01*
X93893333Y-28521904D01*
X93832380Y-28552380D01*
%TO.C,R15*%
X95737142Y-23252380D02*
X95403809Y-22776190D01*
X95165714Y-23252380D02*
X95165714Y-22252380D01*
X95546666Y-22252380D01*
X95641904Y-22300000D01*
X95689523Y-22347619D01*
X95737142Y-22442857D01*
X95737142Y-22585714D01*
X95689523Y-22680952D01*
X95641904Y-22728571D01*
X95546666Y-22776190D01*
X95165714Y-22776190D01*
X96689523Y-23252380D02*
X96118095Y-23252380D01*
X96403809Y-23252380D02*
X96403809Y-22252380D01*
X96308571Y-22395238D01*
X96213333Y-22490476D01*
X96118095Y-22538095D01*
X97594285Y-22252380D02*
X97118095Y-22252380D01*
X97070476Y-22728571D01*
X97118095Y-22680952D01*
X97213333Y-22633333D01*
X97451428Y-22633333D01*
X97546666Y-22680952D01*
X97594285Y-22728571D01*
X97641904Y-22823809D01*
X97641904Y-23061904D01*
X97594285Y-23157142D01*
X97546666Y-23204761D01*
X97451428Y-23252380D01*
X97213333Y-23252380D01*
X97118095Y-23204761D01*
X97070476Y-23157142D01*
%TO.C,FB1*%
X65956666Y-44288571D02*
X65623333Y-44288571D01*
X65623333Y-44812380D02*
X65623333Y-43812380D01*
X66099523Y-43812380D01*
X66813809Y-44288571D02*
X66956666Y-44336190D01*
X67004285Y-44383809D01*
X67051904Y-44479047D01*
X67051904Y-44621904D01*
X67004285Y-44717142D01*
X66956666Y-44764761D01*
X66861428Y-44812380D01*
X66480476Y-44812380D01*
X66480476Y-43812380D01*
X66813809Y-43812380D01*
X66909047Y-43860000D01*
X66956666Y-43907619D01*
X67004285Y-44002857D01*
X67004285Y-44098095D01*
X66956666Y-44193333D01*
X66909047Y-44240952D01*
X66813809Y-44288571D01*
X66480476Y-44288571D01*
X68004285Y-44812380D02*
X67432857Y-44812380D01*
X67718571Y-44812380D02*
X67718571Y-43812380D01*
X67623333Y-43955238D01*
X67528095Y-44050476D01*
X67432857Y-44098095D01*
%TO.C,R11*%
X102477142Y-26732380D02*
X102143809Y-26256190D01*
X101905714Y-26732380D02*
X101905714Y-25732380D01*
X102286666Y-25732380D01*
X102381904Y-25780000D01*
X102429523Y-25827619D01*
X102477142Y-25922857D01*
X102477142Y-26065714D01*
X102429523Y-26160952D01*
X102381904Y-26208571D01*
X102286666Y-26256190D01*
X101905714Y-26256190D01*
X103429523Y-26732380D02*
X102858095Y-26732380D01*
X103143809Y-26732380D02*
X103143809Y-25732380D01*
X103048571Y-25875238D01*
X102953333Y-25970476D01*
X102858095Y-26018095D01*
X104381904Y-26732380D02*
X103810476Y-26732380D01*
X104096190Y-26732380D02*
X104096190Y-25732380D01*
X104000952Y-25875238D01*
X103905714Y-25970476D01*
X103810476Y-26018095D01*
%TO.C,C1*%
X97073333Y-39897142D02*
X97025714Y-39944761D01*
X96882857Y-39992380D01*
X96787619Y-39992380D01*
X96644761Y-39944761D01*
X96549523Y-39849523D01*
X96501904Y-39754285D01*
X96454285Y-39563809D01*
X96454285Y-39420952D01*
X96501904Y-39230476D01*
X96549523Y-39135238D01*
X96644761Y-39040000D01*
X96787619Y-38992380D01*
X96882857Y-38992380D01*
X97025714Y-39040000D01*
X97073333Y-39087619D01*
X98025714Y-39992380D02*
X97454285Y-39992380D01*
X97740000Y-39992380D02*
X97740000Y-38992380D01*
X97644761Y-39135238D01*
X97549523Y-39230476D01*
X97454285Y-39278095D01*
%TO.C,R3*%
X85203333Y-33422380D02*
X84870000Y-32946190D01*
X84631904Y-33422380D02*
X84631904Y-32422380D01*
X85012857Y-32422380D01*
X85108095Y-32470000D01*
X85155714Y-32517619D01*
X85203333Y-32612857D01*
X85203333Y-32755714D01*
X85155714Y-32850952D01*
X85108095Y-32898571D01*
X85012857Y-32946190D01*
X84631904Y-32946190D01*
X85536666Y-32422380D02*
X86155714Y-32422380D01*
X85822380Y-32803333D01*
X85965238Y-32803333D01*
X86060476Y-32850952D01*
X86108095Y-32898571D01*
X86155714Y-32993809D01*
X86155714Y-33231904D01*
X86108095Y-33327142D01*
X86060476Y-33374761D01*
X85965238Y-33422380D01*
X85679523Y-33422380D01*
X85584285Y-33374761D01*
X85536666Y-33327142D01*
%TO.C,C5*%
X64187142Y-36386666D02*
X64234761Y-36434285D01*
X64282380Y-36577142D01*
X64282380Y-36672380D01*
X64234761Y-36815238D01*
X64139523Y-36910476D01*
X64044285Y-36958095D01*
X63853809Y-37005714D01*
X63710952Y-37005714D01*
X63520476Y-36958095D01*
X63425238Y-36910476D01*
X63330000Y-36815238D01*
X63282380Y-36672380D01*
X63282380Y-36577142D01*
X63330000Y-36434285D01*
X63377619Y-36386666D01*
X63282380Y-35481904D02*
X63282380Y-35958095D01*
X63758571Y-36005714D01*
X63710952Y-35958095D01*
X63663333Y-35862857D01*
X63663333Y-35624761D01*
X63710952Y-35529523D01*
X63758571Y-35481904D01*
X63853809Y-35434285D01*
X64091904Y-35434285D01*
X64187142Y-35481904D01*
X64234761Y-35529523D01*
X64282380Y-35624761D01*
X64282380Y-35862857D01*
X64234761Y-35958095D01*
X64187142Y-36005714D01*
%TO.C,D1*%
X73421904Y-45982380D02*
X73421904Y-44982380D01*
X73660000Y-44982380D01*
X73802857Y-45030000D01*
X73898095Y-45125238D01*
X73945714Y-45220476D01*
X73993333Y-45410952D01*
X73993333Y-45553809D01*
X73945714Y-45744285D01*
X73898095Y-45839523D01*
X73802857Y-45934761D01*
X73660000Y-45982380D01*
X73421904Y-45982380D01*
X74945714Y-45982380D02*
X74374285Y-45982380D01*
X74660000Y-45982380D02*
X74660000Y-44982380D01*
X74564761Y-45125238D01*
X74469523Y-45220476D01*
X74374285Y-45268095D01*
%TO.C,C19*%
X51457142Y-46972857D02*
X51504761Y-47020476D01*
X51552380Y-47163333D01*
X51552380Y-47258571D01*
X51504761Y-47401428D01*
X51409523Y-47496666D01*
X51314285Y-47544285D01*
X51123809Y-47591904D01*
X50980952Y-47591904D01*
X50790476Y-47544285D01*
X50695238Y-47496666D01*
X50600000Y-47401428D01*
X50552380Y-47258571D01*
X50552380Y-47163333D01*
X50600000Y-47020476D01*
X50647619Y-46972857D01*
X51552380Y-46020476D02*
X51552380Y-46591904D01*
X51552380Y-46306190D02*
X50552380Y-46306190D01*
X50695238Y-46401428D01*
X50790476Y-46496666D01*
X50838095Y-46591904D01*
X51552380Y-45544285D02*
X51552380Y-45353809D01*
X51504761Y-45258571D01*
X51457142Y-45210952D01*
X51314285Y-45115714D01*
X51123809Y-45068095D01*
X50742857Y-45068095D01*
X50647619Y-45115714D01*
X50600000Y-45163333D01*
X50552380Y-45258571D01*
X50552380Y-45449047D01*
X50600000Y-45544285D01*
X50647619Y-45591904D01*
X50742857Y-45639523D01*
X50980952Y-45639523D01*
X51076190Y-45591904D01*
X51123809Y-45544285D01*
X51171428Y-45449047D01*
X51171428Y-45258571D01*
X51123809Y-45163333D01*
X51076190Y-45115714D01*
X50980952Y-45068095D01*
%TO.C,R14*%
X91172380Y-27387857D02*
X90696190Y-27721190D01*
X91172380Y-27959285D02*
X90172380Y-27959285D01*
X90172380Y-27578333D01*
X90220000Y-27483095D01*
X90267619Y-27435476D01*
X90362857Y-27387857D01*
X90505714Y-27387857D01*
X90600952Y-27435476D01*
X90648571Y-27483095D01*
X90696190Y-27578333D01*
X90696190Y-27959285D01*
X91172380Y-26435476D02*
X91172380Y-27006904D01*
X91172380Y-26721190D02*
X90172380Y-26721190D01*
X90315238Y-26816428D01*
X90410476Y-26911666D01*
X90458095Y-27006904D01*
X90505714Y-25578333D02*
X91172380Y-25578333D01*
X90124761Y-25816428D02*
X90839047Y-26054523D01*
X90839047Y-25435476D01*
%TO.C,C14*%
X78667142Y-44242857D02*
X78714761Y-44290476D01*
X78762380Y-44433333D01*
X78762380Y-44528571D01*
X78714761Y-44671428D01*
X78619523Y-44766666D01*
X78524285Y-44814285D01*
X78333809Y-44861904D01*
X78190952Y-44861904D01*
X78000476Y-44814285D01*
X77905238Y-44766666D01*
X77810000Y-44671428D01*
X77762380Y-44528571D01*
X77762380Y-44433333D01*
X77810000Y-44290476D01*
X77857619Y-44242857D01*
X78762380Y-43290476D02*
X78762380Y-43861904D01*
X78762380Y-43576190D02*
X77762380Y-43576190D01*
X77905238Y-43671428D01*
X78000476Y-43766666D01*
X78048095Y-43861904D01*
X78095714Y-42433333D02*
X78762380Y-42433333D01*
X77714761Y-42671428D02*
X78429047Y-42909523D01*
X78429047Y-42290476D01*
D11*
%TO.C,C16*%
X65637142Y-35552857D02*
X65684761Y-35600476D01*
X65732380Y-35743333D01*
X65732380Y-35838571D01*
X65684761Y-35981428D01*
X65589523Y-36076666D01*
X65494285Y-36124285D01*
X65303809Y-36171904D01*
X65160952Y-36171904D01*
X64970476Y-36124285D01*
X64875238Y-36076666D01*
X64780000Y-35981428D01*
X64732380Y-35838571D01*
X64732380Y-35743333D01*
X64780000Y-35600476D01*
X64827619Y-35552857D01*
X65732380Y-34600476D02*
X65732380Y-35171904D01*
X65732380Y-34886190D02*
X64732380Y-34886190D01*
X64875238Y-34981428D01*
X64970476Y-35076666D01*
X65018095Y-35171904D01*
X64732380Y-33743333D02*
X64732380Y-33933809D01*
X64780000Y-34029047D01*
X64827619Y-34076666D01*
X64970476Y-34171904D01*
X65160952Y-34219523D01*
X65541904Y-34219523D01*
X65637142Y-34171904D01*
X65684761Y-34124285D01*
X65732380Y-34029047D01*
X65732380Y-33838571D01*
X65684761Y-33743333D01*
X65637142Y-33695714D01*
X65541904Y-33648095D01*
X65303809Y-33648095D01*
X65208571Y-33695714D01*
X65160952Y-33743333D01*
X65113333Y-33838571D01*
X65113333Y-34029047D01*
X65160952Y-34124285D01*
X65208571Y-34171904D01*
X65303809Y-34219523D01*
D10*
%TO.C,C12*%
X102477142Y-28037142D02*
X102429523Y-28084761D01*
X102286666Y-28132380D01*
X102191428Y-28132380D01*
X102048571Y-28084761D01*
X101953333Y-27989523D01*
X101905714Y-27894285D01*
X101858095Y-27703809D01*
X101858095Y-27560952D01*
X101905714Y-27370476D01*
X101953333Y-27275238D01*
X102048571Y-27180000D01*
X102191428Y-27132380D01*
X102286666Y-27132380D01*
X102429523Y-27180000D01*
X102477142Y-27227619D01*
X103429523Y-28132380D02*
X102858095Y-28132380D01*
X103143809Y-28132380D02*
X103143809Y-27132380D01*
X103048571Y-27275238D01*
X102953333Y-27370476D01*
X102858095Y-27418095D01*
X103810476Y-27227619D02*
X103858095Y-27180000D01*
X103953333Y-27132380D01*
X104191428Y-27132380D01*
X104286666Y-27180000D01*
X104334285Y-27227619D01*
X104381904Y-27322857D01*
X104381904Y-27418095D01*
X104334285Y-27560952D01*
X103762857Y-28132380D01*
X104381904Y-28132380D01*
%TO.C,C6*%
X90820000Y-29171428D02*
X90777142Y-29214285D01*
X90648571Y-29257142D01*
X90562857Y-29257142D01*
X90434285Y-29214285D01*
X90348571Y-29128571D01*
X90305714Y-29042857D01*
X90262857Y-28871428D01*
X90262857Y-28742857D01*
X90305714Y-28571428D01*
X90348571Y-28485714D01*
X90434285Y-28400000D01*
X90562857Y-28357142D01*
X90648571Y-28357142D01*
X90777142Y-28400000D01*
X90820000Y-28442857D01*
X91591428Y-28357142D02*
X91420000Y-28357142D01*
X91334285Y-28400000D01*
X91291428Y-28442857D01*
X91205714Y-28571428D01*
X91162857Y-28742857D01*
X91162857Y-29085714D01*
X91205714Y-29171428D01*
X91248571Y-29214285D01*
X91334285Y-29257142D01*
X91505714Y-29257142D01*
X91591428Y-29214285D01*
X91634285Y-29171428D01*
X91677142Y-29085714D01*
X91677142Y-28871428D01*
X91634285Y-28785714D01*
X91591428Y-28742857D01*
X91505714Y-28700000D01*
X91334285Y-28700000D01*
X91248571Y-28742857D01*
X91205714Y-28785714D01*
X91162857Y-28871428D01*
%TO.C,R1*%
X87853333Y-26872380D02*
X87520000Y-26396190D01*
X87281904Y-26872380D02*
X87281904Y-25872380D01*
X87662857Y-25872380D01*
X87758095Y-25920000D01*
X87805714Y-25967619D01*
X87853333Y-26062857D01*
X87853333Y-26205714D01*
X87805714Y-26300952D01*
X87758095Y-26348571D01*
X87662857Y-26396190D01*
X87281904Y-26396190D01*
X88805714Y-26872380D02*
X88234285Y-26872380D01*
X88520000Y-26872380D02*
X88520000Y-25872380D01*
X88424761Y-26015238D01*
X88329523Y-26110476D01*
X88234285Y-26158095D01*
%TO.C,C7*%
X69528333Y-25147142D02*
X69480714Y-25194761D01*
X69337857Y-25242380D01*
X69242619Y-25242380D01*
X69099761Y-25194761D01*
X69004523Y-25099523D01*
X68956904Y-25004285D01*
X68909285Y-24813809D01*
X68909285Y-24670952D01*
X68956904Y-24480476D01*
X69004523Y-24385238D01*
X69099761Y-24290000D01*
X69242619Y-24242380D01*
X69337857Y-24242380D01*
X69480714Y-24290000D01*
X69528333Y-24337619D01*
X69861666Y-24242380D02*
X70528333Y-24242380D01*
X70099761Y-25242380D01*
%TO.C,R13*%
X90120000Y-24206666D02*
X89886666Y-23873333D01*
X89720000Y-24206666D02*
X89720000Y-23506666D01*
X89986666Y-23506666D01*
X90053333Y-23540000D01*
X90086666Y-23573333D01*
X90120000Y-23640000D01*
X90120000Y-23740000D01*
X90086666Y-23806666D01*
X90053333Y-23840000D01*
X89986666Y-23873333D01*
X89720000Y-23873333D01*
X90786666Y-24206666D02*
X90386666Y-24206666D01*
X90586666Y-24206666D02*
X90586666Y-23506666D01*
X90520000Y-23606666D01*
X90453333Y-23673333D01*
X90386666Y-23706666D01*
X91020000Y-23506666D02*
X91453333Y-23506666D01*
X91220000Y-23773333D01*
X91320000Y-23773333D01*
X91386666Y-23806666D01*
X91420000Y-23840000D01*
X91453333Y-23906666D01*
X91453333Y-24073333D01*
X91420000Y-24140000D01*
X91386666Y-24173333D01*
X91320000Y-24206666D01*
X91120000Y-24206666D01*
X91053333Y-24173333D01*
X91020000Y-24140000D01*
%TO.C,R7*%
X85203333Y-35272380D02*
X84870000Y-34796190D01*
X84631904Y-35272380D02*
X84631904Y-34272380D01*
X85012857Y-34272380D01*
X85108095Y-34320000D01*
X85155714Y-34367619D01*
X85203333Y-34462857D01*
X85203333Y-34605714D01*
X85155714Y-34700952D01*
X85108095Y-34748571D01*
X85012857Y-34796190D01*
X84631904Y-34796190D01*
X85536666Y-34272380D02*
X86203333Y-34272380D01*
X85774761Y-35272380D01*
%TO.C,C3*%
X92343333Y-35587142D02*
X92295714Y-35634761D01*
X92152857Y-35682380D01*
X92057619Y-35682380D01*
X91914761Y-35634761D01*
X91819523Y-35539523D01*
X91771904Y-35444285D01*
X91724285Y-35253809D01*
X91724285Y-35110952D01*
X91771904Y-34920476D01*
X91819523Y-34825238D01*
X91914761Y-34730000D01*
X92057619Y-34682380D01*
X92152857Y-34682380D01*
X92295714Y-34730000D01*
X92343333Y-34777619D01*
X92676666Y-34682380D02*
X93295714Y-34682380D01*
X92962380Y-35063333D01*
X93105238Y-35063333D01*
X93200476Y-35110952D01*
X93248095Y-35158571D01*
X93295714Y-35253809D01*
X93295714Y-35491904D01*
X93248095Y-35587142D01*
X93200476Y-35634761D01*
X93105238Y-35682380D01*
X92819523Y-35682380D01*
X92724285Y-35634761D01*
X92676666Y-35587142D01*
%TO.C,C9*%
X65303333Y-29677142D02*
X65255714Y-29724761D01*
X65112857Y-29772380D01*
X65017619Y-29772380D01*
X64874761Y-29724761D01*
X64779523Y-29629523D01*
X64731904Y-29534285D01*
X64684285Y-29343809D01*
X64684285Y-29200952D01*
X64731904Y-29010476D01*
X64779523Y-28915238D01*
X64874761Y-28820000D01*
X65017619Y-28772380D01*
X65112857Y-28772380D01*
X65255714Y-28820000D01*
X65303333Y-28867619D01*
X65779523Y-29772380D02*
X65970000Y-29772380D01*
X66065238Y-29724761D01*
X66112857Y-29677142D01*
X66208095Y-29534285D01*
X66255714Y-29343809D01*
X66255714Y-28962857D01*
X66208095Y-28867619D01*
X66160476Y-28820000D01*
X66065238Y-28772380D01*
X65874761Y-28772380D01*
X65779523Y-28820000D01*
X65731904Y-28867619D01*
X65684285Y-28962857D01*
X65684285Y-29200952D01*
X65731904Y-29296190D01*
X65779523Y-29343809D01*
X65874761Y-29391428D01*
X66065238Y-29391428D01*
X66160476Y-29343809D01*
X66208095Y-29296190D01*
X66255714Y-29200952D01*
%TO.C,C15*%
X98727142Y-23467142D02*
X98679523Y-23514761D01*
X98536666Y-23562380D01*
X98441428Y-23562380D01*
X98298571Y-23514761D01*
X98203333Y-23419523D01*
X98155714Y-23324285D01*
X98108095Y-23133809D01*
X98108095Y-22990952D01*
X98155714Y-22800476D01*
X98203333Y-22705238D01*
X98298571Y-22610000D01*
X98441428Y-22562380D01*
X98536666Y-22562380D01*
X98679523Y-22610000D01*
X98727142Y-22657619D01*
X99679523Y-23562380D02*
X99108095Y-23562380D01*
X99393809Y-23562380D02*
X99393809Y-22562380D01*
X99298571Y-22705238D01*
X99203333Y-22800476D01*
X99108095Y-22848095D01*
X100584285Y-22562380D02*
X100108095Y-22562380D01*
X100060476Y-23038571D01*
X100108095Y-22990952D01*
X100203333Y-22943333D01*
X100441428Y-22943333D01*
X100536666Y-22990952D01*
X100584285Y-23038571D01*
X100631904Y-23133809D01*
X100631904Y-23371904D01*
X100584285Y-23467142D01*
X100536666Y-23514761D01*
X100441428Y-23562380D01*
X100203333Y-23562380D01*
X100108095Y-23514761D01*
X100060476Y-23467142D01*
%TO.C,C2*%
X62193333Y-33497142D02*
X62145714Y-33544761D01*
X62002857Y-33592380D01*
X61907619Y-33592380D01*
X61764761Y-33544761D01*
X61669523Y-33449523D01*
X61621904Y-33354285D01*
X61574285Y-33163809D01*
X61574285Y-33020952D01*
X61621904Y-32830476D01*
X61669523Y-32735238D01*
X61764761Y-32640000D01*
X61907619Y-32592380D01*
X62002857Y-32592380D01*
X62145714Y-32640000D01*
X62193333Y-32687619D01*
X62574285Y-32687619D02*
X62621904Y-32640000D01*
X62717142Y-32592380D01*
X62955238Y-32592380D01*
X63050476Y-32640000D01*
X63098095Y-32687619D01*
X63145714Y-32782857D01*
X63145714Y-32878095D01*
X63098095Y-33020952D01*
X62526666Y-33592380D01*
X63145714Y-33592380D01*
%TO.C,R12*%
X64737142Y-24952380D02*
X64403809Y-24476190D01*
X64165714Y-24952380D02*
X64165714Y-23952380D01*
X64546666Y-23952380D01*
X64641904Y-24000000D01*
X64689523Y-24047619D01*
X64737142Y-24142857D01*
X64737142Y-24285714D01*
X64689523Y-24380952D01*
X64641904Y-24428571D01*
X64546666Y-24476190D01*
X64165714Y-24476190D01*
X65689523Y-24952380D02*
X65118095Y-24952380D01*
X65403809Y-24952380D02*
X65403809Y-23952380D01*
X65308571Y-24095238D01*
X65213333Y-24190476D01*
X65118095Y-24238095D01*
X66070476Y-24047619D02*
X66118095Y-24000000D01*
X66213333Y-23952380D01*
X66451428Y-23952380D01*
X66546666Y-24000000D01*
X66594285Y-24047619D01*
X66641904Y-24142857D01*
X66641904Y-24238095D01*
X66594285Y-24380952D01*
X66022857Y-24952380D01*
X66641904Y-24952380D01*
%TO.C,C17*%
X62907142Y-42237142D02*
X62859523Y-42284761D01*
X62716666Y-42332380D01*
X62621428Y-42332380D01*
X62478571Y-42284761D01*
X62383333Y-42189523D01*
X62335714Y-42094285D01*
X62288095Y-41903809D01*
X62288095Y-41760952D01*
X62335714Y-41570476D01*
X62383333Y-41475238D01*
X62478571Y-41380000D01*
X62621428Y-41332380D01*
X62716666Y-41332380D01*
X62859523Y-41380000D01*
X62907142Y-41427619D01*
X63859523Y-42332380D02*
X63288095Y-42332380D01*
X63573809Y-42332380D02*
X63573809Y-41332380D01*
X63478571Y-41475238D01*
X63383333Y-41570476D01*
X63288095Y-41618095D01*
X64192857Y-41332380D02*
X64859523Y-41332380D01*
X64430952Y-42332380D01*
%TO.C,R6*%
X85283333Y-31632380D02*
X84950000Y-31156190D01*
X84711904Y-31632380D02*
X84711904Y-30632380D01*
X85092857Y-30632380D01*
X85188095Y-30680000D01*
X85235714Y-30727619D01*
X85283333Y-30822857D01*
X85283333Y-30965714D01*
X85235714Y-31060952D01*
X85188095Y-31108571D01*
X85092857Y-31156190D01*
X84711904Y-31156190D01*
X86140476Y-30632380D02*
X85950000Y-30632380D01*
X85854761Y-30680000D01*
X85807142Y-30727619D01*
X85711904Y-30870476D01*
X85664285Y-31060952D01*
X85664285Y-31441904D01*
X85711904Y-31537142D01*
X85759523Y-31584761D01*
X85854761Y-31632380D01*
X86045238Y-31632380D01*
X86140476Y-31584761D01*
X86188095Y-31537142D01*
X86235714Y-31441904D01*
X86235714Y-31203809D01*
X86188095Y-31108571D01*
X86140476Y-31060952D01*
X86045238Y-31013333D01*
X85854761Y-31013333D01*
X85759523Y-31060952D01*
X85711904Y-31108571D01*
X85664285Y-31203809D01*
%TO.C,R4*%
X91933333Y-37546666D02*
X91700000Y-37213333D01*
X91533333Y-37546666D02*
X91533333Y-36846666D01*
X91800000Y-36846666D01*
X91866666Y-36880000D01*
X91900000Y-36913333D01*
X91933333Y-36980000D01*
X91933333Y-37080000D01*
X91900000Y-37146666D01*
X91866666Y-37180000D01*
X91800000Y-37213333D01*
X91533333Y-37213333D01*
X92533333Y-37080000D02*
X92533333Y-37546666D01*
X92366666Y-36813333D02*
X92200000Y-37313333D01*
X92633333Y-37313333D01*
%TO.C,R5*%
X85253333Y-30092380D02*
X84920000Y-29616190D01*
X84681904Y-30092380D02*
X84681904Y-29092380D01*
X85062857Y-29092380D01*
X85158095Y-29140000D01*
X85205714Y-29187619D01*
X85253333Y-29282857D01*
X85253333Y-29425714D01*
X85205714Y-29520952D01*
X85158095Y-29568571D01*
X85062857Y-29616190D01*
X84681904Y-29616190D01*
X86158095Y-29092380D02*
X85681904Y-29092380D01*
X85634285Y-29568571D01*
X85681904Y-29520952D01*
X85777142Y-29473333D01*
X86015238Y-29473333D01*
X86110476Y-29520952D01*
X86158095Y-29568571D01*
X86205714Y-29663809D01*
X86205714Y-29901904D01*
X86158095Y-29997142D01*
X86110476Y-30044761D01*
X86015238Y-30092380D01*
X85777142Y-30092380D01*
X85681904Y-30044761D01*
X85634285Y-29997142D01*
%TO.C,R8*%
X94583333Y-35652380D02*
X94250000Y-35176190D01*
X94011904Y-35652380D02*
X94011904Y-34652380D01*
X94392857Y-34652380D01*
X94488095Y-34700000D01*
X94535714Y-34747619D01*
X94583333Y-34842857D01*
X94583333Y-34985714D01*
X94535714Y-35080952D01*
X94488095Y-35128571D01*
X94392857Y-35176190D01*
X94011904Y-35176190D01*
X95154761Y-35080952D02*
X95059523Y-35033333D01*
X95011904Y-34985714D01*
X94964285Y-34890476D01*
X94964285Y-34842857D01*
X95011904Y-34747619D01*
X95059523Y-34700000D01*
X95154761Y-34652380D01*
X95345238Y-34652380D01*
X95440476Y-34700000D01*
X95488095Y-34747619D01*
X95535714Y-34842857D01*
X95535714Y-34890476D01*
X95488095Y-34985714D01*
X95440476Y-35033333D01*
X95345238Y-35080952D01*
X95154761Y-35080952D01*
X95059523Y-35128571D01*
X95011904Y-35176190D01*
X94964285Y-35271428D01*
X94964285Y-35461904D01*
X95011904Y-35557142D01*
X95059523Y-35604761D01*
X95154761Y-35652380D01*
X95345238Y-35652380D01*
X95440476Y-35604761D01*
X95488095Y-35557142D01*
X95535714Y-35461904D01*
X95535714Y-35271428D01*
X95488095Y-35176190D01*
X95440476Y-35128571D01*
X95345238Y-35080952D01*
%TO.C,U3*%
X56982380Y-38813123D02*
X56982380Y-39331219D01*
X57012857Y-39392171D01*
X57043333Y-39422647D01*
X57104285Y-39453123D01*
X57226190Y-39453123D01*
X57287142Y-39422647D01*
X57317619Y-39392171D01*
X57348095Y-39331219D01*
X57348095Y-38813123D01*
X57591904Y-38813123D02*
X57988095Y-38813123D01*
X57774761Y-39056933D01*
X57866190Y-39056933D01*
X57927142Y-39087409D01*
X57957619Y-39117885D01*
X57988095Y-39178838D01*
X57988095Y-39331219D01*
X57957619Y-39392171D01*
X57927142Y-39422647D01*
X57866190Y-39453123D01*
X57683333Y-39453123D01*
X57622380Y-39422647D01*
X57591904Y-39392171D01*
%TO.C,R10*%
X95322380Y-27387857D02*
X94846190Y-27721190D01*
X95322380Y-27959285D02*
X94322380Y-27959285D01*
X94322380Y-27578333D01*
X94370000Y-27483095D01*
X94417619Y-27435476D01*
X94512857Y-27387857D01*
X94655714Y-27387857D01*
X94750952Y-27435476D01*
X94798571Y-27483095D01*
X94846190Y-27578333D01*
X94846190Y-27959285D01*
X95322380Y-26435476D02*
X95322380Y-27006904D01*
X95322380Y-26721190D02*
X94322380Y-26721190D01*
X94465238Y-26816428D01*
X94560476Y-26911666D01*
X94608095Y-27006904D01*
X94322380Y-25816428D02*
X94322380Y-25721190D01*
X94370000Y-25625952D01*
X94417619Y-25578333D01*
X94512857Y-25530714D01*
X94703333Y-25483095D01*
X94941428Y-25483095D01*
X95131904Y-25530714D01*
X95227142Y-25578333D01*
X95274761Y-25625952D01*
X95322380Y-25721190D01*
X95322380Y-25816428D01*
X95274761Y-25911666D01*
X95227142Y-25959285D01*
X95131904Y-26006904D01*
X94941428Y-26054523D01*
X94703333Y-26054523D01*
X94512857Y-26006904D01*
X94417619Y-25959285D01*
X94370000Y-25911666D01*
X94322380Y-25816428D01*
%TO.C,D2*%
X53151904Y-36242380D02*
X53151904Y-35242380D01*
X53390000Y-35242380D01*
X53532857Y-35290000D01*
X53628095Y-35385238D01*
X53675714Y-35480476D01*
X53723333Y-35670952D01*
X53723333Y-35813809D01*
X53675714Y-36004285D01*
X53628095Y-36099523D01*
X53532857Y-36194761D01*
X53390000Y-36242380D01*
X53151904Y-36242380D01*
X54104285Y-35337619D02*
X54151904Y-35290000D01*
X54247142Y-35242380D01*
X54485238Y-35242380D01*
X54580476Y-35290000D01*
X54628095Y-35337619D01*
X54675714Y-35432857D01*
X54675714Y-35528095D01*
X54628095Y-35670952D01*
X54056666Y-36242380D01*
X54675714Y-36242380D01*
%TO.C,R9*%
X98743333Y-35522380D02*
X98410000Y-35046190D01*
X98171904Y-35522380D02*
X98171904Y-34522380D01*
X98552857Y-34522380D01*
X98648095Y-34570000D01*
X98695714Y-34617619D01*
X98743333Y-34712857D01*
X98743333Y-34855714D01*
X98695714Y-34950952D01*
X98648095Y-34998571D01*
X98552857Y-35046190D01*
X98171904Y-35046190D01*
X99219523Y-35522380D02*
X99410000Y-35522380D01*
X99505238Y-35474761D01*
X99552857Y-35427142D01*
X99648095Y-35284285D01*
X99695714Y-35093809D01*
X99695714Y-34712857D01*
X99648095Y-34617619D01*
X99600476Y-34570000D01*
X99505238Y-34522380D01*
X99314761Y-34522380D01*
X99219523Y-34570000D01*
X99171904Y-34617619D01*
X99124285Y-34712857D01*
X99124285Y-34950952D01*
X99171904Y-35046190D01*
X99219523Y-35093809D01*
X99314761Y-35141428D01*
X99505238Y-35141428D01*
X99600476Y-35093809D01*
X99648095Y-35046190D01*
X99695714Y-34950952D01*
%TO.C,C8*%
X69013333Y-45257142D02*
X68965714Y-45304761D01*
X68822857Y-45352380D01*
X68727619Y-45352380D01*
X68584761Y-45304761D01*
X68489523Y-45209523D01*
X68441904Y-45114285D01*
X68394285Y-44923809D01*
X68394285Y-44780952D01*
X68441904Y-44590476D01*
X68489523Y-44495238D01*
X68584761Y-44400000D01*
X68727619Y-44352380D01*
X68822857Y-44352380D01*
X68965714Y-44400000D01*
X69013333Y-44447619D01*
X69584761Y-44780952D02*
X69489523Y-44733333D01*
X69441904Y-44685714D01*
X69394285Y-44590476D01*
X69394285Y-44542857D01*
X69441904Y-44447619D01*
X69489523Y-44400000D01*
X69584761Y-44352380D01*
X69775238Y-44352380D01*
X69870476Y-44400000D01*
X69918095Y-44447619D01*
X69965714Y-44542857D01*
X69965714Y-44590476D01*
X69918095Y-44685714D01*
X69870476Y-44733333D01*
X69775238Y-44780952D01*
X69584761Y-44780952D01*
X69489523Y-44828571D01*
X69441904Y-44876190D01*
X69394285Y-44971428D01*
X69394285Y-45161904D01*
X69441904Y-45257142D01*
X69489523Y-45304761D01*
X69584761Y-45352380D01*
X69775238Y-45352380D01*
X69870476Y-45304761D01*
X69918095Y-45257142D01*
X69965714Y-45161904D01*
X69965714Y-44971428D01*
X69918095Y-44876190D01*
X69870476Y-44828571D01*
X69775238Y-44780952D01*
%TO.C,R16*%
X72387142Y-49432380D02*
X72053809Y-48956190D01*
X71815714Y-49432380D02*
X71815714Y-48432380D01*
X72196666Y-48432380D01*
X72291904Y-48480000D01*
X72339523Y-48527619D01*
X72387142Y-48622857D01*
X72387142Y-48765714D01*
X72339523Y-48860952D01*
X72291904Y-48908571D01*
X72196666Y-48956190D01*
X71815714Y-48956190D01*
X73339523Y-49432380D02*
X72768095Y-49432380D01*
X73053809Y-49432380D02*
X73053809Y-48432380D01*
X72958571Y-48575238D01*
X72863333Y-48670476D01*
X72768095Y-48718095D01*
X74196666Y-48432380D02*
X74006190Y-48432380D01*
X73910952Y-48480000D01*
X73863333Y-48527619D01*
X73768095Y-48670476D01*
X73720476Y-48860952D01*
X73720476Y-49241904D01*
X73768095Y-49337142D01*
X73815714Y-49384761D01*
X73910952Y-49432380D01*
X74101428Y-49432380D01*
X74196666Y-49384761D01*
X74244285Y-49337142D01*
X74291904Y-49241904D01*
X74291904Y-49003809D01*
X74244285Y-48908571D01*
X74196666Y-48860952D01*
X74101428Y-48813333D01*
X73910952Y-48813333D01*
X73815714Y-48860952D01*
X73768095Y-48908571D01*
X73720476Y-49003809D01*
%TO.C,C20*%
X53654285Y-46274285D02*
X53625714Y-46302857D01*
X53540000Y-46331428D01*
X53482857Y-46331428D01*
X53397142Y-46302857D01*
X53340000Y-46245714D01*
X53311428Y-46188571D01*
X53282857Y-46074285D01*
X53282857Y-45988571D01*
X53311428Y-45874285D01*
X53340000Y-45817142D01*
X53397142Y-45760000D01*
X53482857Y-45731428D01*
X53540000Y-45731428D01*
X53625714Y-45760000D01*
X53654285Y-45788571D01*
X53882857Y-45788571D02*
X53911428Y-45760000D01*
X53968571Y-45731428D01*
X54111428Y-45731428D01*
X54168571Y-45760000D01*
X54197142Y-45788571D01*
X54225714Y-45845714D01*
X54225714Y-45902857D01*
X54197142Y-45988571D01*
X53854285Y-46331428D01*
X54225714Y-46331428D01*
X54597142Y-45731428D02*
X54654285Y-45731428D01*
X54711428Y-45760000D01*
X54740000Y-45788571D01*
X54768571Y-45845714D01*
X54797142Y-45960000D01*
X54797142Y-46102857D01*
X54768571Y-46217142D01*
X54740000Y-46274285D01*
X54711428Y-46302857D01*
X54654285Y-46331428D01*
X54597142Y-46331428D01*
X54540000Y-46302857D01*
X54511428Y-46274285D01*
X54482857Y-46217142D01*
X54454285Y-46102857D01*
X54454285Y-45960000D01*
X54482857Y-45845714D01*
X54511428Y-45788571D01*
X54540000Y-45760000D01*
X54597142Y-45731428D01*
%TO.C,C22*%
X53947142Y-49187142D02*
X53899523Y-49234761D01*
X53756666Y-49282380D01*
X53661428Y-49282380D01*
X53518571Y-49234761D01*
X53423333Y-49139523D01*
X53375714Y-49044285D01*
X53328095Y-48853809D01*
X53328095Y-48710952D01*
X53375714Y-48520476D01*
X53423333Y-48425238D01*
X53518571Y-48330000D01*
X53661428Y-48282380D01*
X53756666Y-48282380D01*
X53899523Y-48330000D01*
X53947142Y-48377619D01*
X54328095Y-48377619D02*
X54375714Y-48330000D01*
X54470952Y-48282380D01*
X54709047Y-48282380D01*
X54804285Y-48330000D01*
X54851904Y-48377619D01*
X54899523Y-48472857D01*
X54899523Y-48568095D01*
X54851904Y-48710952D01*
X54280476Y-49282380D01*
X54899523Y-49282380D01*
X55280476Y-48377619D02*
X55328095Y-48330000D01*
X55423333Y-48282380D01*
X55661428Y-48282380D01*
X55756666Y-48330000D01*
X55804285Y-48377619D01*
X55851904Y-48472857D01*
X55851904Y-48568095D01*
X55804285Y-48710952D01*
X55232857Y-49282380D01*
X55851904Y-49282380D01*
%TO.C,R18*%
X60817142Y-46712380D02*
X60483809Y-46236190D01*
X60245714Y-46712380D02*
X60245714Y-45712380D01*
X60626666Y-45712380D01*
X60721904Y-45760000D01*
X60769523Y-45807619D01*
X60817142Y-45902857D01*
X60817142Y-46045714D01*
X60769523Y-46140952D01*
X60721904Y-46188571D01*
X60626666Y-46236190D01*
X60245714Y-46236190D01*
X61769523Y-46712380D02*
X61198095Y-46712380D01*
X61483809Y-46712380D02*
X61483809Y-45712380D01*
X61388571Y-45855238D01*
X61293333Y-45950476D01*
X61198095Y-45998095D01*
X62340952Y-46140952D02*
X62245714Y-46093333D01*
X62198095Y-46045714D01*
X62150476Y-45950476D01*
X62150476Y-45902857D01*
X62198095Y-45807619D01*
X62245714Y-45760000D01*
X62340952Y-45712380D01*
X62531428Y-45712380D01*
X62626666Y-45760000D01*
X62674285Y-45807619D01*
X62721904Y-45902857D01*
X62721904Y-45950476D01*
X62674285Y-46045714D01*
X62626666Y-46093333D01*
X62531428Y-46140952D01*
X62340952Y-46140952D01*
X62245714Y-46188571D01*
X62198095Y-46236190D01*
X62150476Y-46331428D01*
X62150476Y-46521904D01*
X62198095Y-46617142D01*
X62245714Y-46664761D01*
X62340952Y-46712380D01*
X62531428Y-46712380D01*
X62626666Y-46664761D01*
X62674285Y-46617142D01*
X62721904Y-46521904D01*
X62721904Y-46331428D01*
X62674285Y-46236190D01*
X62626666Y-46188571D01*
X62531428Y-46140952D01*
%TO.C,Y1*%
X59383809Y-33076190D02*
X59383809Y-33552380D01*
X59050476Y-32552380D02*
X59383809Y-33076190D01*
X59717142Y-32552380D01*
X60574285Y-33552380D02*
X60002857Y-33552380D01*
X60288571Y-33552380D02*
X60288571Y-32552380D01*
X60193333Y-32695238D01*
X60098095Y-32790476D01*
X60002857Y-32838095D01*
%TO.C,C18*%
X61707142Y-45317142D02*
X61659523Y-45364761D01*
X61516666Y-45412380D01*
X61421428Y-45412380D01*
X61278571Y-45364761D01*
X61183333Y-45269523D01*
X61135714Y-45174285D01*
X61088095Y-44983809D01*
X61088095Y-44840952D01*
X61135714Y-44650476D01*
X61183333Y-44555238D01*
X61278571Y-44460000D01*
X61421428Y-44412380D01*
X61516666Y-44412380D01*
X61659523Y-44460000D01*
X61707142Y-44507619D01*
X62659523Y-45412380D02*
X62088095Y-45412380D01*
X62373809Y-45412380D02*
X62373809Y-44412380D01*
X62278571Y-44555238D01*
X62183333Y-44650476D01*
X62088095Y-44698095D01*
X63230952Y-44840952D02*
X63135714Y-44793333D01*
X63088095Y-44745714D01*
X63040476Y-44650476D01*
X63040476Y-44602857D01*
X63088095Y-44507619D01*
X63135714Y-44460000D01*
X63230952Y-44412380D01*
X63421428Y-44412380D01*
X63516666Y-44460000D01*
X63564285Y-44507619D01*
X63611904Y-44602857D01*
X63611904Y-44650476D01*
X63564285Y-44745714D01*
X63516666Y-44793333D01*
X63421428Y-44840952D01*
X63230952Y-44840952D01*
X63135714Y-44888571D01*
X63088095Y-44936190D01*
X63040476Y-45031428D01*
X63040476Y-45221904D01*
X63088095Y-45317142D01*
X63135714Y-45364761D01*
X63230952Y-45412380D01*
X63421428Y-45412380D01*
X63516666Y-45364761D01*
X63564285Y-45317142D01*
X63611904Y-45221904D01*
X63611904Y-45031428D01*
X63564285Y-44936190D01*
X63516666Y-44888571D01*
X63421428Y-44840952D01*
%TO.C,C13*%
X66771428Y-27981428D02*
X66728571Y-28024285D01*
X66600000Y-28067142D01*
X66514285Y-28067142D01*
X66385714Y-28024285D01*
X66300000Y-27938571D01*
X66257142Y-27852857D01*
X66214285Y-27681428D01*
X66214285Y-27552857D01*
X66257142Y-27381428D01*
X66300000Y-27295714D01*
X66385714Y-27210000D01*
X66514285Y-27167142D01*
X66600000Y-27167142D01*
X66728571Y-27210000D01*
X66771428Y-27252857D01*
X67628571Y-28067142D02*
X67114285Y-28067142D01*
X67371428Y-28067142D02*
X67371428Y-27167142D01*
X67285714Y-27295714D01*
X67200000Y-27381428D01*
X67114285Y-27424285D01*
X67928571Y-27167142D02*
X68485714Y-27167142D01*
X68185714Y-27510000D01*
X68314285Y-27510000D01*
X68400000Y-27552857D01*
X68442857Y-27595714D01*
X68485714Y-27681428D01*
X68485714Y-27895714D01*
X68442857Y-27981428D01*
X68400000Y-28024285D01*
X68314285Y-28067142D01*
X68057142Y-28067142D01*
X67971428Y-28024285D01*
X67928571Y-27981428D01*
%TO.C,C21*%
X59277142Y-48322857D02*
X59324761Y-48370476D01*
X59372380Y-48513333D01*
X59372380Y-48608571D01*
X59324761Y-48751428D01*
X59229523Y-48846666D01*
X59134285Y-48894285D01*
X58943809Y-48941904D01*
X58800952Y-48941904D01*
X58610476Y-48894285D01*
X58515238Y-48846666D01*
X58420000Y-48751428D01*
X58372380Y-48608571D01*
X58372380Y-48513333D01*
X58420000Y-48370476D01*
X58467619Y-48322857D01*
X58467619Y-47941904D02*
X58420000Y-47894285D01*
X58372380Y-47799047D01*
X58372380Y-47560952D01*
X58420000Y-47465714D01*
X58467619Y-47418095D01*
X58562857Y-47370476D01*
X58658095Y-47370476D01*
X58800952Y-47418095D01*
X59372380Y-47989523D01*
X59372380Y-47370476D01*
X59372380Y-46418095D02*
X59372380Y-46989523D01*
X59372380Y-46703809D02*
X58372380Y-46703809D01*
X58515238Y-46799047D01*
X58610476Y-46894285D01*
X58658095Y-46989523D01*
%TO.C,C11*%
X80687142Y-33847142D02*
X80639523Y-33894761D01*
X80496666Y-33942380D01*
X80401428Y-33942380D01*
X80258571Y-33894761D01*
X80163333Y-33799523D01*
X80115714Y-33704285D01*
X80068095Y-33513809D01*
X80068095Y-33370952D01*
X80115714Y-33180476D01*
X80163333Y-33085238D01*
X80258571Y-32990000D01*
X80401428Y-32942380D01*
X80496666Y-32942380D01*
X80639523Y-32990000D01*
X80687142Y-33037619D01*
X81639523Y-33942380D02*
X81068095Y-33942380D01*
X81353809Y-33942380D02*
X81353809Y-32942380D01*
X81258571Y-33085238D01*
X81163333Y-33180476D01*
X81068095Y-33228095D01*
X82591904Y-33942380D02*
X82020476Y-33942380D01*
X82306190Y-33942380D02*
X82306190Y-32942380D01*
X82210952Y-33085238D01*
X82115714Y-33180476D01*
X82020476Y-33228095D01*
%TO.C,R17*%
X54487142Y-33102380D02*
X54153809Y-32626190D01*
X53915714Y-33102380D02*
X53915714Y-32102380D01*
X54296666Y-32102380D01*
X54391904Y-32150000D01*
X54439523Y-32197619D01*
X54487142Y-32292857D01*
X54487142Y-32435714D01*
X54439523Y-32530952D01*
X54391904Y-32578571D01*
X54296666Y-32626190D01*
X53915714Y-32626190D01*
X55439523Y-33102380D02*
X54868095Y-33102380D01*
X55153809Y-33102380D02*
X55153809Y-32102380D01*
X55058571Y-32245238D01*
X54963333Y-32340476D01*
X54868095Y-32388095D01*
X55772857Y-32102380D02*
X56439523Y-32102380D01*
X56010952Y-33102380D01*
%TO.C,U2*%
X72358095Y-27372380D02*
X72358095Y-28181904D01*
X72405714Y-28277142D01*
X72453333Y-28324761D01*
X72548571Y-28372380D01*
X72739047Y-28372380D01*
X72834285Y-28324761D01*
X72881904Y-28277142D01*
X72929523Y-28181904D01*
X72929523Y-27372380D01*
X73358095Y-27467619D02*
X73405714Y-27420000D01*
X73500952Y-27372380D01*
X73739047Y-27372380D01*
X73834285Y-27420000D01*
X73881904Y-27467619D01*
X73929523Y-27562857D01*
X73929523Y-27658095D01*
X73881904Y-27800952D01*
X73310476Y-28372380D01*
X73929523Y-28372380D01*
%TO.C,C4*%
X90603333Y-33627142D02*
X90555714Y-33674761D01*
X90412857Y-33722380D01*
X90317619Y-33722380D01*
X90174761Y-33674761D01*
X90079523Y-33579523D01*
X90031904Y-33484285D01*
X89984285Y-33293809D01*
X89984285Y-33150952D01*
X90031904Y-32960476D01*
X90079523Y-32865238D01*
X90174761Y-32770000D01*
X90317619Y-32722380D01*
X90412857Y-32722380D01*
X90555714Y-32770000D01*
X90603333Y-32817619D01*
X91460476Y-33055714D02*
X91460476Y-33722380D01*
X91222380Y-32674761D02*
X90984285Y-33389047D01*
X91603333Y-33389047D01*
%TO.C,R2*%
X94743333Y-41942380D02*
X94410000Y-41466190D01*
X94171904Y-41942380D02*
X94171904Y-40942380D01*
X94552857Y-40942380D01*
X94648095Y-40990000D01*
X94695714Y-41037619D01*
X94743333Y-41132857D01*
X94743333Y-41275714D01*
X94695714Y-41370952D01*
X94648095Y-41418571D01*
X94552857Y-41466190D01*
X94171904Y-41466190D01*
X95124285Y-41037619D02*
X95171904Y-40990000D01*
X95267142Y-40942380D01*
X95505238Y-40942380D01*
X95600476Y-40990000D01*
X95648095Y-41037619D01*
X95695714Y-41132857D01*
X95695714Y-41228095D01*
X95648095Y-41370952D01*
X95076666Y-41942380D01*
X95695714Y-41942380D01*
D12*
%TO.C,C10*%
X98460000Y-29812164D02*
X98460000Y-30027836D01*
X99180000Y-29812164D02*
X99180000Y-30027836D01*
%TO.C,R15*%
X96157742Y-23747500D02*
X96632258Y-23747500D01*
X96157742Y-24792500D02*
X96632258Y-24792500D01*
%TO.C,FB1*%
X66160000Y-41944721D02*
X66160000Y-42270279D01*
X67180000Y-41944721D02*
X67180000Y-42270279D01*
D13*
%TO.C,J4*%
X49305000Y-38510000D02*
X49305000Y-40485000D01*
X46205000Y-46510000D02*
X46205000Y-43860000D01*
X46205000Y-38510000D02*
X47953000Y-38510000D01*
X46205000Y-41160000D02*
X46205000Y-38510000D01*
X47953000Y-46510000D02*
X46205000Y-46510000D01*
X49305000Y-44535000D02*
X49305000Y-46510000D01*
X48897000Y-38510000D02*
X49305000Y-38510000D01*
X50655000Y-44535000D02*
X49305000Y-44535000D01*
X49305000Y-40485000D02*
X50655000Y-40485000D01*
X50655000Y-40485000D02*
X50655000Y-44535000D01*
X49305000Y-46510000D02*
X48897000Y-46510000D01*
D14*
X51292000Y-41107000D02*
G75*
G03*
X51292000Y-41107000I-100000J0D01*
G01*
D12*
%TO.C,R11*%
X99002742Y-26542500D02*
X99477258Y-26542500D01*
X99002742Y-25497500D02*
X99477258Y-25497500D01*
%TO.C,C1*%
X96812164Y-37860000D02*
X97027836Y-37860000D01*
X96812164Y-38580000D02*
X97027836Y-38580000D01*
%TO.C,R3*%
X88332258Y-32447500D02*
X87857742Y-32447500D01*
X88332258Y-33492500D02*
X87857742Y-33492500D01*
%TO.C,C5*%
X62100000Y-37152164D02*
X62100000Y-37367836D01*
X62820000Y-37152164D02*
X62820000Y-37367836D01*
%TO.C,D1*%
X73105000Y-45705000D02*
X73105000Y-43420000D01*
X71635000Y-43420000D02*
X71635000Y-45705000D01*
X71635000Y-45705000D02*
X73105000Y-45705000D01*
%TO.C,C19*%
X53440580Y-45370000D02*
X53159420Y-45370000D01*
X53440580Y-44350000D02*
X53159420Y-44350000D01*
%TO.C,R14*%
X92842500Y-26982258D02*
X92842500Y-26507742D01*
X91797500Y-26982258D02*
X91797500Y-26507742D01*
%TO.C,C14*%
X76757836Y-43130000D02*
X76542164Y-43130000D01*
X76757836Y-42410000D02*
X76542164Y-42410000D01*
%TO.C,C16*%
X64860000Y-37447836D02*
X64860000Y-37232164D01*
X65580000Y-37447836D02*
X65580000Y-37232164D01*
%TO.C,C12*%
X99377836Y-27410000D02*
X99162164Y-27410000D01*
X99377836Y-28130000D02*
X99162164Y-28130000D01*
D13*
%TO.C,SW1*%
X58720000Y-24770000D02*
X58720000Y-30570000D01*
X61320000Y-26070000D02*
X61320000Y-27770000D01*
X60320000Y-31020000D02*
X59720000Y-31020000D01*
X59720000Y-24320000D02*
X60320000Y-24320000D01*
D15*
X62620000Y-24470000D02*
G75*
G03*
X62620000Y-24470000I-100000J0D01*
G01*
D12*
%TO.C,C6*%
X92680000Y-29827836D02*
X92680000Y-29612164D01*
X91960000Y-29827836D02*
X91960000Y-29612164D01*
%TO.C,G\u002A\u002A\u002A*%
G36*
X96180908Y-44981579D02*
G01*
X96176605Y-44985881D01*
X96172303Y-44981579D01*
X96176605Y-44977277D01*
X96180908Y-44981579D01*
G37*
G36*
X96387324Y-48336414D02*
G01*
X96436291Y-48349418D01*
X96475298Y-48374801D01*
X96493748Y-48395139D01*
X96507566Y-48416844D01*
X96514394Y-48439724D01*
X96516331Y-48471273D01*
X96516335Y-48475752D01*
X96509168Y-48529973D01*
X96487464Y-48575365D01*
X96450429Y-48613459D01*
X96441251Y-48620240D01*
X96420482Y-48633415D01*
X96400542Y-48641492D01*
X96375700Y-48645987D01*
X96340224Y-48648418D01*
X96333769Y-48648693D01*
X96278368Y-48648253D01*
X96237702Y-48641922D01*
X96229813Y-48639371D01*
X96194097Y-48621982D01*
X96170404Y-48598691D01*
X96154144Y-48564519D01*
X96150647Y-48553508D01*
X96141922Y-48500506D01*
X96149366Y-48452658D01*
X96173383Y-48408232D01*
X96188412Y-48390279D01*
X96216201Y-48365403D01*
X96247632Y-48349070D01*
X96287492Y-48339378D01*
X96326884Y-48335247D01*
X96387324Y-48336414D01*
G37*
G36*
X97142442Y-43432257D02*
G01*
X97159392Y-43448130D01*
X97169325Y-43458504D01*
X97170406Y-43460221D01*
X97167721Y-43462429D01*
X97158300Y-43454694D01*
X97140092Y-43435329D01*
X97139750Y-43434950D01*
X97114478Y-43406986D01*
X97142442Y-43432257D01*
G37*
G36*
X97072890Y-43353925D02*
G01*
X97073920Y-43364137D01*
X97072890Y-43365398D01*
X97067775Y-43364217D01*
X97067154Y-43359662D01*
X97070302Y-43352579D01*
X97072890Y-43353925D01*
G37*
G36*
X95380704Y-47458506D02*
G01*
X95373940Y-47450404D01*
X95375922Y-47454874D01*
X95374015Y-47455473D01*
X95362097Y-47445877D01*
X95342409Y-47427972D01*
X95330749Y-47416875D01*
X95324338Y-47410392D01*
X95333612Y-47410392D01*
X95334267Y-47413738D01*
X95341323Y-47420792D01*
X95341985Y-47420908D01*
X95348855Y-47415024D01*
X95349703Y-47413738D01*
X95347382Y-47408002D01*
X95372100Y-47408002D01*
X95376402Y-47412304D01*
X95380704Y-47408002D01*
X95376402Y-47403700D01*
X95372100Y-47408002D01*
X95347382Y-47408002D01*
X95347139Y-47407402D01*
X95341985Y-47406568D01*
X95333612Y-47410392D01*
X95324338Y-47410392D01*
X95306553Y-47392407D01*
X95288095Y-47371545D01*
X95284134Y-47365939D01*
X95290369Y-47365939D01*
X95298963Y-47377887D01*
X95311437Y-47390574D01*
X95317578Y-47395095D01*
X95316070Y-47388959D01*
X95309873Y-47377887D01*
X95298511Y-47364447D01*
X95291258Y-47360678D01*
X95290369Y-47365939D01*
X95284134Y-47365939D01*
X95278298Y-47357681D01*
X95277452Y-47355002D01*
X95271029Y-47341197D01*
X95268531Y-47339167D01*
X95303265Y-47339167D01*
X95307568Y-47343469D01*
X95311870Y-47339167D01*
X95307568Y-47334865D01*
X95303265Y-47339167D01*
X95268531Y-47339167D01*
X95267519Y-47338345D01*
X95261623Y-47337409D01*
X95264429Y-47344291D01*
X95262132Y-47344581D01*
X95250009Y-47334739D01*
X95230444Y-47316757D01*
X95223203Y-47309806D01*
X95200718Y-47287226D01*
X95184333Y-47269240D01*
X95176942Y-47259070D01*
X95176817Y-47258180D01*
X95172054Y-47251537D01*
X95169898Y-47250758D01*
X95158759Y-47243476D01*
X95140441Y-47227374D01*
X95118069Y-47205699D01*
X95094768Y-47181700D01*
X95073663Y-47158625D01*
X95057879Y-47139723D01*
X95050540Y-47128242D01*
X95050498Y-47126645D01*
X95049551Y-47121324D01*
X95047343Y-47121694D01*
X95035726Y-47118176D01*
X95020059Y-47106850D01*
X95423726Y-47106850D01*
X95428028Y-47111152D01*
X95432330Y-47106850D01*
X95449539Y-47106850D01*
X95453841Y-47111152D01*
X95458143Y-47106850D01*
X95453841Y-47102548D01*
X95449539Y-47106850D01*
X95432330Y-47106850D01*
X95428028Y-47102548D01*
X95423726Y-47106850D01*
X95020059Y-47106850D01*
X95018782Y-47105927D01*
X95001014Y-47089297D01*
X94986921Y-47072634D01*
X94981006Y-47060288D01*
X94981498Y-47058078D01*
X94982467Y-47052152D01*
X94979234Y-47053411D01*
X94971701Y-47048585D01*
X94959535Y-47038015D01*
X95380704Y-47038015D01*
X95385007Y-47042318D01*
X95389309Y-47038015D01*
X95385007Y-47033713D01*
X95380704Y-47038015D01*
X94959535Y-47038015D01*
X94953624Y-47032879D01*
X94926466Y-47007744D01*
X94891691Y-46974627D01*
X94850761Y-46934977D01*
X94805139Y-46890244D01*
X94756289Y-46841875D01*
X94705673Y-46791319D01*
X94654755Y-46740026D01*
X94604998Y-46689443D01*
X94557864Y-46641021D01*
X94514818Y-46596206D01*
X94477321Y-46556449D01*
X94476945Y-46556045D01*
X94299667Y-46358538D01*
X94137326Y-46162456D01*
X93988082Y-45965394D01*
X93850095Y-45764948D01*
X93749514Y-45605393D01*
X93655224Y-45449883D01*
X94042356Y-45449883D01*
X94042865Y-45451431D01*
X94065737Y-45488256D01*
X94097715Y-45536181D01*
X94137120Y-45592899D01*
X94182270Y-45656104D01*
X94231486Y-45723488D01*
X94283086Y-45792745D01*
X94335390Y-45861566D01*
X94386717Y-45927646D01*
X94423641Y-45974119D01*
X94455431Y-46013781D01*
X94484579Y-46050330D01*
X94508881Y-46080991D01*
X94526135Y-46102990D01*
X94532872Y-46111788D01*
X94549962Y-46133468D01*
X94576415Y-46165365D01*
X94610030Y-46204953D01*
X94648604Y-46249704D01*
X94689936Y-46297093D01*
X94731825Y-46344591D01*
X94772069Y-46389673D01*
X94808467Y-46429812D01*
X94833485Y-46456824D01*
X94862530Y-46487382D01*
X94899594Y-46525781D01*
X94943423Y-46570767D01*
X94992766Y-46621086D01*
X95046368Y-46675483D01*
X95102978Y-46732704D01*
X95161342Y-46791496D01*
X95220208Y-46850605D01*
X95278321Y-46908775D01*
X95334430Y-46964754D01*
X95387282Y-47017287D01*
X95435623Y-47065119D01*
X95478201Y-47106998D01*
X95513763Y-47141668D01*
X95541055Y-47167876D01*
X95558826Y-47184368D01*
X95565821Y-47189889D01*
X95565854Y-47189869D01*
X95569065Y-47193652D01*
X95570000Y-47204669D01*
X95572171Y-47217870D01*
X95581847Y-47217103D01*
X95587065Y-47214481D01*
X95601488Y-47204048D01*
X95623335Y-47185220D01*
X95648037Y-47161944D01*
X95649602Y-47160401D01*
X95675315Y-47135631D01*
X95709015Y-47104061D01*
X95745780Y-47070272D01*
X95771963Y-47046620D01*
X95807198Y-47014613D01*
X95849918Y-46975102D01*
X95895288Y-46932596D01*
X95938472Y-46891603D01*
X95948196Y-46882277D01*
X95989650Y-46842554D01*
X96033954Y-46800316D01*
X96076440Y-46760002D01*
X96112438Y-46726051D01*
X96120179Y-46718795D01*
X96151941Y-46688865D01*
X96191980Y-46650826D01*
X96236229Y-46608558D01*
X96280622Y-46565942D01*
X96304137Y-46543266D01*
X96342127Y-46506421D01*
X96377661Y-46471603D01*
X96413004Y-46436535D01*
X96450421Y-46398935D01*
X96492174Y-46356524D01*
X96540529Y-46307023D01*
X96597748Y-46248152D01*
X96619729Y-46225489D01*
X96686387Y-46154780D01*
X96756585Y-46076802D01*
X96827902Y-45994479D01*
X96897919Y-45910735D01*
X96964216Y-45828494D01*
X97024373Y-45750681D01*
X97075970Y-45680218D01*
X97100858Y-45644113D01*
X97123225Y-45611044D01*
X97142981Y-45582434D01*
X97157618Y-45561884D01*
X97163713Y-45553942D01*
X97172119Y-45541142D01*
X97173088Y-45536175D01*
X97177220Y-45527240D01*
X97189535Y-45510473D01*
X97196929Y-45501584D01*
X97212000Y-45479910D01*
X97219776Y-45460375D01*
X97220060Y-45454818D01*
X97219019Y-45450567D01*
X97216117Y-45447055D01*
X97209794Y-45444187D01*
X97198492Y-45441869D01*
X97180651Y-45440006D01*
X97154713Y-45438505D01*
X97119119Y-45437271D01*
X97072310Y-45436210D01*
X97012728Y-45435228D01*
X96938812Y-45434230D01*
X96864112Y-45433307D01*
X96772893Y-45432090D01*
X96697485Y-45430824D01*
X96636491Y-45429446D01*
X96588515Y-45427896D01*
X96552157Y-45426114D01*
X96526022Y-45424037D01*
X96508712Y-45421606D01*
X96498830Y-45418759D01*
X96496371Y-45417274D01*
X96492539Y-45411796D01*
X96507872Y-45411796D01*
X96512175Y-45416098D01*
X96516477Y-45411796D01*
X96512175Y-45407494D01*
X96507872Y-45411796D01*
X96492539Y-45411796D01*
X96487304Y-45404311D01*
X96487786Y-45396585D01*
X96487873Y-45391817D01*
X96482436Y-45394355D01*
X96469226Y-45392944D01*
X96465736Y-45389725D01*
X96466960Y-45389725D01*
X96468137Y-45390285D01*
X96475989Y-45384228D01*
X96477757Y-45381681D01*
X96479950Y-45373637D01*
X96478773Y-45373076D01*
X96470921Y-45379134D01*
X96469153Y-45381681D01*
X96466960Y-45389725D01*
X96465736Y-45389725D01*
X96451586Y-45376672D01*
X96451300Y-45376324D01*
X96437540Y-45357607D01*
X96431410Y-45345720D01*
X96433303Y-45343062D01*
X96443611Y-45352035D01*
X96448153Y-45357066D01*
X96465872Y-45377378D01*
X96451514Y-45353790D01*
X96439863Y-45338787D01*
X96430908Y-45334134D01*
X96430433Y-45334357D01*
X96422012Y-45330931D01*
X96410359Y-45317957D01*
X96399712Y-45301391D01*
X96394308Y-45287188D01*
X96394462Y-45283805D01*
X96391277Y-45271997D01*
X96384506Y-45262294D01*
X96372208Y-45244996D01*
X96358941Y-45221968D01*
X96358113Y-45220349D01*
X96347008Y-45201981D01*
X96337855Y-45192671D01*
X96336673Y-45192385D01*
X96331627Y-45200121D01*
X96326447Y-45219997D01*
X96323629Y-45237558D01*
X96319170Y-45261670D01*
X96310569Y-45299026D01*
X96298703Y-45346405D01*
X96284449Y-45400591D01*
X96268683Y-45458365D01*
X96252282Y-45516509D01*
X96236122Y-45571804D01*
X96221080Y-45621034D01*
X96209383Y-45657019D01*
X96191160Y-45705300D01*
X96173063Y-45739969D01*
X96152762Y-45764449D01*
X96127929Y-45782161D01*
X96122104Y-45785248D01*
X96067469Y-45804870D01*
X96014373Y-45808402D01*
X95964764Y-45796079D01*
X95928559Y-45773178D01*
X96112073Y-45773178D01*
X96116375Y-45777480D01*
X96120677Y-45773178D01*
X96116375Y-45768876D01*
X96112073Y-45773178D01*
X95928559Y-45773178D01*
X95920590Y-45768137D01*
X95911650Y-45759773D01*
X95908232Y-45755969D01*
X95939986Y-45755969D01*
X95944288Y-45760271D01*
X95948591Y-45755969D01*
X95944288Y-45751667D01*
X95939986Y-45755969D01*
X95908232Y-45755969D01*
X95891627Y-45737486D01*
X95883255Y-45720937D01*
X95883938Y-45706823D01*
X95886670Y-45694115D01*
X95882664Y-45696183D01*
X95879573Y-45700041D01*
X95872791Y-45707013D01*
X95872697Y-45699466D01*
X95873905Y-45693576D01*
X95874745Y-45680361D01*
X95871348Y-45678409D01*
X95865933Y-45672874D01*
X95858662Y-45652013D01*
X95849843Y-45617576D01*
X95839781Y-45571308D01*
X95828785Y-45514957D01*
X95817161Y-45450271D01*
X95805218Y-45378997D01*
X95793261Y-45302882D01*
X95781599Y-45223674D01*
X95770538Y-45143120D01*
X95760386Y-45062967D01*
X95754882Y-45015996D01*
X95749468Y-44970699D01*
X95742372Y-44915002D01*
X95734059Y-44852214D01*
X95724992Y-44785643D01*
X95715634Y-44718599D01*
X95706449Y-44654390D01*
X95697901Y-44596326D01*
X95690452Y-44547715D01*
X95684567Y-44511867D01*
X95683165Y-44504038D01*
X95676011Y-44465319D01*
X95669478Y-44508341D01*
X95666288Y-44528400D01*
X95660683Y-44562650D01*
X95653124Y-44608312D01*
X95644072Y-44662611D01*
X95633989Y-44722769D01*
X95624455Y-44779377D01*
X95612723Y-44849157D01*
X95600606Y-44921731D01*
X95588810Y-44992822D01*
X95578046Y-45058151D01*
X95569020Y-45113441D01*
X95564615Y-45140759D01*
X95555780Y-45195116D01*
X95544977Y-45260295D01*
X95533234Y-45330171D01*
X95521576Y-45398621D01*
X95514104Y-45441911D01*
X95503362Y-45504823D01*
X95492133Y-45572490D01*
X95481362Y-45639088D01*
X95471994Y-45698794D01*
X95466618Y-45734458D01*
X95453328Y-45823817D01*
X95441827Y-45897738D01*
X95431653Y-45957845D01*
X95422345Y-46005761D01*
X95413443Y-46043108D01*
X95404485Y-46071512D01*
X95395009Y-46092593D01*
X95384555Y-46107977D01*
X95372661Y-46119286D01*
X95358867Y-46128143D01*
X95354050Y-46130687D01*
X95310803Y-46144422D01*
X95266802Y-46143980D01*
X95226017Y-46130484D01*
X95192414Y-46105057D01*
X95174907Y-46080017D01*
X95170085Y-46070594D01*
X95165806Y-46061757D01*
X95161852Y-46052284D01*
X95158006Y-46040948D01*
X95154051Y-46026526D01*
X95149770Y-46007794D01*
X95144945Y-45983527D01*
X95139361Y-45952502D01*
X95132798Y-45913493D01*
X95125041Y-45865276D01*
X95115873Y-45806628D01*
X95105075Y-45736324D01*
X95092432Y-45653139D01*
X95077725Y-45555849D01*
X95060739Y-45443230D01*
X95053708Y-45396608D01*
X95048837Y-45359291D01*
X95043953Y-45313639D01*
X95039987Y-45268496D01*
X95039442Y-45261089D01*
X95036376Y-45227037D01*
X95032765Y-45200640D01*
X95029193Y-45185731D01*
X95027649Y-45183781D01*
X95023985Y-45191679D01*
X95019920Y-45212622D01*
X95016209Y-45242488D01*
X95015460Y-45250465D01*
X95010266Y-45300692D01*
X95003249Y-45356391D01*
X94995018Y-45413737D01*
X94986182Y-45468908D01*
X94977350Y-45518083D01*
X94969131Y-45557438D01*
X94962704Y-45581477D01*
X94940778Y-45623910D01*
X94908802Y-45653640D01*
X94869460Y-45669545D01*
X94825433Y-45670501D01*
X94782573Y-45656956D01*
X94760947Y-45644632D01*
X94743184Y-45628948D01*
X94725554Y-45605821D01*
X94704473Y-45571416D01*
X94683794Y-45537260D01*
X94663009Y-45505300D01*
X94645819Y-45481166D01*
X94642117Y-45476533D01*
X94618349Y-45448063D01*
X94327117Y-45443752D01*
X94247604Y-45442661D01*
X94183743Y-45442017D01*
X94133982Y-45441861D01*
X94096768Y-45442236D01*
X94070551Y-45443184D01*
X94053778Y-45444747D01*
X94044897Y-45446966D01*
X94042356Y-45449883D01*
X93655224Y-45449883D01*
X93652999Y-45446213D01*
X93482180Y-45441911D01*
X93423252Y-45440308D01*
X93378852Y-45438665D01*
X93346302Y-45436665D01*
X93322926Y-45433992D01*
X93306044Y-45430328D01*
X93292980Y-45425356D01*
X93281055Y-45418758D01*
X93279706Y-45417925D01*
X93245540Y-45387287D01*
X93224006Y-45347832D01*
X93215875Y-45303211D01*
X93221915Y-45257073D01*
X93238091Y-45220487D01*
X93256947Y-45196840D01*
X93282216Y-45179888D01*
X93316922Y-45168436D01*
X93364087Y-45161288D01*
X93393904Y-45158916D01*
X93476952Y-45153666D01*
X93439297Y-45029926D01*
X93392093Y-44848228D01*
X93361876Y-44669219D01*
X93348645Y-44492919D01*
X93349521Y-44452412D01*
X93707425Y-44452412D01*
X93707670Y-44517528D01*
X93708389Y-44568954D01*
X93709853Y-44610209D01*
X93712336Y-44644810D01*
X93716112Y-44676276D01*
X93721454Y-44708124D01*
X93728634Y-44743873D01*
X93730878Y-44754438D01*
X93766522Y-44893167D01*
X93812515Y-45022432D01*
X93840584Y-45086572D01*
X93873445Y-45157148D01*
X94263541Y-45159709D01*
X94356815Y-45160375D01*
X94434435Y-45161084D01*
X94497957Y-45161897D01*
X94548934Y-45162880D01*
X94588922Y-45164096D01*
X94619477Y-45165609D01*
X94642152Y-45167483D01*
X94658503Y-45169782D01*
X94670085Y-45172569D01*
X94678452Y-45175908D01*
X94680194Y-45176820D01*
X94711548Y-45201672D01*
X94744920Y-45242656D01*
X94779610Y-45298913D01*
X94779792Y-45299242D01*
X94793750Y-45322195D01*
X94801957Y-45330243D01*
X94804047Y-45325752D01*
X94805973Y-45309742D01*
X94810978Y-45282072D01*
X94818115Y-45247814D01*
X94820897Y-45235407D01*
X94828858Y-45198662D01*
X94838602Y-45150831D01*
X94848964Y-45097781D01*
X94858776Y-45045381D01*
X94859917Y-45039109D01*
X94871832Y-44976638D01*
X94882654Y-44928560D01*
X94893358Y-44892183D01*
X94904916Y-44864816D01*
X94918303Y-44843765D01*
X94934491Y-44826340D01*
X94937998Y-44823187D01*
X94974627Y-44801203D01*
X95017782Y-44790863D01*
X95062294Y-44792231D01*
X95102997Y-44805370D01*
X95125625Y-44820847D01*
X95139873Y-44835968D01*
X95152303Y-44854808D01*
X95163312Y-44879059D01*
X95173301Y-44910414D01*
X95182666Y-44950566D01*
X95191806Y-45001208D01*
X95201119Y-45064032D01*
X95211005Y-45140732D01*
X95221153Y-45226803D01*
X95228162Y-45285804D01*
X95235435Y-45343057D01*
X95242472Y-45394907D01*
X95248774Y-45437701D01*
X95253840Y-45467784D01*
X95254676Y-45472026D01*
X95262504Y-45514556D01*
X95269845Y-45561644D01*
X95273850Y-45592487D01*
X95280666Y-45652717D01*
X95287591Y-45583883D01*
X95291320Y-45553381D01*
X95297518Y-45509996D01*
X95305564Y-45457775D01*
X95314833Y-45400762D01*
X95324703Y-45343003D01*
X95324710Y-45342961D01*
X95351708Y-45188408D01*
X95376723Y-45043842D01*
X95399621Y-44910065D01*
X95420271Y-44787879D01*
X95438540Y-44678083D01*
X95454295Y-44581480D01*
X95467404Y-44498870D01*
X95477734Y-44431055D01*
X95485153Y-44378835D01*
X95488372Y-44353463D01*
X95496375Y-44287623D01*
X95503406Y-44236276D01*
X95510012Y-44196771D01*
X95516742Y-44166459D01*
X95524143Y-44142691D01*
X95532761Y-44122817D01*
X95538101Y-44112796D01*
X95568328Y-44073291D01*
X95606256Y-44049061D01*
X95652757Y-44039586D01*
X95661058Y-44039404D01*
X95715989Y-44045448D01*
X95759622Y-44063996D01*
X95793109Y-44095676D01*
X95807677Y-44119033D01*
X95815564Y-44140164D01*
X95825120Y-44175175D01*
X95835693Y-44220893D01*
X95846628Y-44274147D01*
X95857272Y-44331763D01*
X95866972Y-44390570D01*
X95874606Y-44443808D01*
X95880083Y-44484517D01*
X95887407Y-44537478D01*
X95895910Y-44597919D01*
X95904918Y-44661071D01*
X95913323Y-44719147D01*
X95923061Y-44786251D01*
X95934225Y-44863775D01*
X95945867Y-44945097D01*
X95957039Y-45023593D01*
X95965695Y-45084831D01*
X95974846Y-45147059D01*
X95984809Y-45210046D01*
X95994859Y-45269516D01*
X96004268Y-45321193D01*
X96012310Y-45360803D01*
X96013483Y-45366002D01*
X96022360Y-45406765D01*
X96029607Y-45444199D01*
X96034319Y-45473375D01*
X96035632Y-45486462D01*
X96037112Y-45501625D01*
X96039656Y-45500988D01*
X96040492Y-45497839D01*
X96052339Y-45446572D01*
X96064605Y-45396132D01*
X96076518Y-45349426D01*
X96087307Y-45309361D01*
X96096203Y-45278841D01*
X96102433Y-45260773D01*
X96104278Y-45257348D01*
X96110562Y-45242782D01*
X96112073Y-45229723D01*
X96113775Y-45222500D01*
X96120677Y-45222500D01*
X96124979Y-45226803D01*
X96129282Y-45222500D01*
X96124979Y-45218198D01*
X96120677Y-45222500D01*
X96113775Y-45222500D01*
X96116853Y-45209442D01*
X96123462Y-45199633D01*
X96130797Y-45183586D01*
X96130819Y-45167900D01*
X96130657Y-45162270D01*
X96559498Y-45162270D01*
X96563801Y-45166572D01*
X96568103Y-45162270D01*
X96563801Y-45157968D01*
X96559498Y-45162270D01*
X96130657Y-45162270D01*
X96130417Y-45153889D01*
X96134795Y-45151755D01*
X96141988Y-45149262D01*
X96143785Y-45142279D01*
X96146064Y-45124137D01*
X96150270Y-45099593D01*
X96150627Y-45097738D01*
X96152836Y-45084831D01*
X96499268Y-45084831D01*
X96503570Y-45089133D01*
X96507872Y-45084831D01*
X96503570Y-45080529D01*
X96499268Y-45084831D01*
X96152836Y-45084831D01*
X96155878Y-45067051D01*
X96156987Y-45059018D01*
X96499268Y-45059018D01*
X96503570Y-45063320D01*
X96507872Y-45059018D01*
X96503570Y-45054716D01*
X96499268Y-45059018D01*
X96156987Y-45059018D01*
X96159822Y-45038484D01*
X96166259Y-45013450D01*
X96177086Y-44993955D01*
X96177178Y-44993853D01*
X96186060Y-44978923D01*
X96185991Y-44969937D01*
X96185283Y-44956701D01*
X96185548Y-44955766D01*
X96456246Y-44955766D01*
X96460549Y-44960068D01*
X96464851Y-44955766D01*
X96460549Y-44951464D01*
X96456246Y-44955766D01*
X96185548Y-44955766D01*
X96190830Y-44937128D01*
X96197466Y-44915975D01*
X96198921Y-44901125D01*
X96201554Y-44893566D01*
X96205174Y-44894580D01*
X96212402Y-44892982D01*
X96212998Y-44888990D01*
X96215269Y-44863771D01*
X96226950Y-44846425D01*
X96242855Y-44846425D01*
X96245440Y-44847948D01*
X96259580Y-44843664D01*
X96266951Y-44839607D01*
X96273838Y-44832790D01*
X96271253Y-44831267D01*
X96257113Y-44835551D01*
X96249742Y-44839607D01*
X96242855Y-44846425D01*
X96226950Y-44846425D01*
X96227135Y-44846150D01*
X96241607Y-44835305D01*
X96261003Y-44824468D01*
X96274709Y-44820114D01*
X96276000Y-44820248D01*
X96283854Y-44816044D01*
X96284160Y-44813794D01*
X96291903Y-44808911D01*
X96311725Y-44805793D01*
X96327689Y-44805190D01*
X96354379Y-44806517D01*
X96365476Y-44810751D01*
X96365079Y-44815124D01*
X96364059Y-44821007D01*
X96368940Y-44818877D01*
X96380971Y-44818869D01*
X96393264Y-44827254D01*
X96399516Y-44838481D01*
X96397757Y-44844256D01*
X96399027Y-44847456D01*
X96406668Y-44845590D01*
X96418169Y-44843834D01*
X96419812Y-44846370D01*
X96422881Y-44857066D01*
X96432791Y-44874630D01*
X96433564Y-44875798D01*
X96442537Y-44894753D01*
X96443031Y-44908890D01*
X96442752Y-44909393D01*
X96441312Y-44915618D01*
X96447234Y-44912996D01*
X96454223Y-44911799D01*
X96452522Y-44923789D01*
X96451944Y-44925651D01*
X96449728Y-44939174D01*
X96455341Y-44939117D01*
X96464862Y-44941747D01*
X96473873Y-44957399D01*
X96482780Y-44978707D01*
X96496286Y-45007960D01*
X96512547Y-45041512D01*
X96529719Y-45075718D01*
X96545958Y-45106934D01*
X96559420Y-45131515D01*
X96568262Y-45145814D01*
X96570254Y-45147930D01*
X96576432Y-45157831D01*
X96576704Y-45160836D01*
X96581168Y-45163346D01*
X96595263Y-45165379D01*
X96620042Y-45166956D01*
X96656556Y-45168098D01*
X96705857Y-45168826D01*
X96768998Y-45169163D01*
X96847031Y-45169128D01*
X96941008Y-45168744D01*
X96961748Y-45168628D01*
X97041709Y-45168087D01*
X97116474Y-45167438D01*
X97184265Y-45166707D01*
X97243302Y-45165920D01*
X97291804Y-45165102D01*
X97327994Y-45164280D01*
X97350091Y-45163478D01*
X97356348Y-45162906D01*
X97363809Y-45153570D01*
X97374274Y-45132383D01*
X97385510Y-45103882D01*
X97385765Y-45103162D01*
X97396505Y-45075976D01*
X97406068Y-45057397D01*
X97412496Y-45051185D01*
X97412781Y-45051312D01*
X97418153Y-45047594D01*
X97419932Y-45035134D01*
X97422502Y-45015932D01*
X97429154Y-44987513D01*
X97436098Y-44963640D01*
X97447049Y-44927321D01*
X97457501Y-44889699D01*
X97462388Y-44870470D01*
X97472318Y-44836678D01*
X97484983Y-44802997D01*
X97489244Y-44793566D01*
X97500007Y-44763830D01*
X97505704Y-44733545D01*
X97505975Y-44727309D01*
X97507692Y-44699890D01*
X97512052Y-44665980D01*
X97514945Y-44649335D01*
X97517345Y-44628195D01*
X97519442Y-44593273D01*
X97521194Y-44547994D01*
X97522558Y-44495782D01*
X97523491Y-44440062D01*
X97523950Y-44384258D01*
X97523893Y-44331796D01*
X97523277Y-44286100D01*
X97522059Y-44250595D01*
X97520196Y-44228704D01*
X97520196Y-44228700D01*
X97516789Y-44209836D01*
X97510986Y-44180231D01*
X97503982Y-44145972D01*
X97503289Y-44142656D01*
X97495917Y-44105720D01*
X97489465Y-44070375D01*
X97485305Y-44044142D01*
X97485248Y-44043706D01*
X97479265Y-44011724D01*
X97469197Y-43970591D01*
X97456959Y-43927285D01*
X97444467Y-43888781D01*
X97438058Y-43871875D01*
X97431752Y-43849079D01*
X97431523Y-43831013D01*
X97430633Y-43815422D01*
X97426399Y-43810068D01*
X97421466Y-43809793D01*
X97424234Y-43815691D01*
X97426524Y-43822874D01*
X97420675Y-43820453D01*
X97413824Y-43807967D01*
X97414773Y-43801915D01*
X97416502Y-43785468D01*
X97411329Y-43772360D01*
X97402123Y-43768975D01*
X97400360Y-43769829D01*
X97394881Y-43769146D01*
X97396860Y-43760728D01*
X97398197Y-43751159D01*
X97411328Y-43751159D01*
X97415630Y-43755461D01*
X97419932Y-43751159D01*
X97415630Y-43746857D01*
X97411328Y-43751159D01*
X97398197Y-43751159D01*
X97398256Y-43750739D01*
X97394839Y-43750714D01*
X97386713Y-43746604D01*
X97373809Y-43731016D01*
X97363281Y-43714592D01*
X97343620Y-43682520D01*
X97320865Y-43647600D01*
X97310537Y-43632512D01*
X97295849Y-43609031D01*
X97290076Y-43596281D01*
X97290867Y-43596281D01*
X97295169Y-43600583D01*
X97299471Y-43596281D01*
X97295169Y-43591979D01*
X97290867Y-43596281D01*
X97290076Y-43596281D01*
X97287508Y-43590610D01*
X97286905Y-43582824D01*
X97285468Y-43576593D01*
X97280751Y-43576708D01*
X97271831Y-43571922D01*
X97270647Y-43563441D01*
X97269645Y-43552688D01*
X97267136Y-43552611D01*
X97257692Y-43552985D01*
X97247943Y-43543964D01*
X97243963Y-43532136D01*
X97245017Y-43528622D01*
X97246162Y-43523428D01*
X97243470Y-43525314D01*
X97232789Y-43525564D01*
X97219846Y-43516526D01*
X97210801Y-43503918D01*
X97210769Y-43501894D01*
X97224258Y-43501894D01*
X97225981Y-43505363D01*
X97234185Y-43514259D01*
X97235694Y-43507985D01*
X97233606Y-43501262D01*
X97227271Y-43491892D01*
X97224410Y-43492085D01*
X97224258Y-43501894D01*
X97210769Y-43501894D01*
X97210658Y-43494852D01*
X97210586Y-43490014D01*
X97207303Y-43491497D01*
X97195768Y-43489932D01*
X97183129Y-43479919D01*
X97174431Y-43467520D01*
X97175526Y-43462519D01*
X97173359Y-43457027D01*
X97160823Y-43442737D01*
X97140359Y-43422340D01*
X97131687Y-43414174D01*
X97109814Y-43393299D01*
X97095715Y-43378709D01*
X97091460Y-43372605D01*
X97092967Y-43373027D01*
X97098631Y-43373780D01*
X97091348Y-43363285D01*
X97089666Y-43361344D01*
X97075611Y-43349538D01*
X97065627Y-43347699D01*
X97053464Y-43347340D01*
X97041731Y-43338019D01*
X97037349Y-43326045D01*
X97038463Y-43322940D01*
X97038518Y-43318136D01*
X97033689Y-43320353D01*
X97019350Y-43320864D01*
X97010442Y-43315989D01*
X97002278Y-43305803D01*
X97008668Y-43297681D01*
X97014763Y-43291799D01*
X97006924Y-43291488D01*
X96983447Y-43291677D01*
X96975909Y-43285546D01*
X96977630Y-43280893D01*
X96978651Y-43274922D01*
X96974847Y-43276474D01*
X96962668Y-43275469D01*
X96945101Y-43265582D01*
X96943624Y-43264447D01*
X96918942Y-43248142D01*
X96882338Y-43227801D01*
X96838016Y-43205406D01*
X96790176Y-43182939D01*
X96743018Y-43162383D01*
X96700746Y-43145720D01*
X96671355Y-43135974D01*
X96598233Y-43120830D01*
X96513989Y-43112862D01*
X96423111Y-43112013D01*
X96330091Y-43118222D01*
X96239418Y-43131430D01*
X96189512Y-43142315D01*
X96082787Y-43176977D01*
X95974353Y-43228068D01*
X95865209Y-43295023D01*
X95756357Y-43377277D01*
X95723053Y-43405598D01*
X95692019Y-43432154D01*
X95661846Y-43457057D01*
X95637597Y-43476159D01*
X95631223Y-43480867D01*
X95600115Y-43503123D01*
X95552495Y-43462263D01*
X95455319Y-43385249D01*
X95353531Y-43316426D01*
X95249143Y-43256644D01*
X95144168Y-43206752D01*
X95040618Y-43167597D01*
X94940507Y-43140031D01*
X94845846Y-43124902D01*
X94758647Y-43123059D01*
X94750049Y-43123668D01*
X94656015Y-43134755D01*
X94572071Y-43152984D01*
X94491944Y-43180166D01*
X94409363Y-43218113D01*
X94392352Y-43226968D01*
X94333225Y-43260005D01*
X94280623Y-43293695D01*
X94230262Y-43331234D01*
X94177856Y-43375821D01*
X94119118Y-43430655D01*
X94118166Y-43431572D01*
X94016732Y-43539018D01*
X93931115Y-43651069D01*
X93860115Y-43769771D01*
X93802533Y-43897169D01*
X93757167Y-44035309D01*
X93751464Y-44056613D01*
X93737376Y-44112304D01*
X93726607Y-44159944D01*
X93718725Y-44203410D01*
X93713300Y-44246577D01*
X93709899Y-44293323D01*
X93708091Y-44347525D01*
X93707445Y-44413058D01*
X93707425Y-44452412D01*
X93349521Y-44452412D01*
X93352399Y-44319348D01*
X93373134Y-44148526D01*
X93410849Y-43980471D01*
X93465542Y-43815204D01*
X93537212Y-43652743D01*
X93584729Y-43563056D01*
X93613601Y-43515519D01*
X93651014Y-43459590D01*
X93693861Y-43399543D01*
X93739035Y-43339654D01*
X93783429Y-43284197D01*
X93810413Y-43252532D01*
X93833667Y-43228223D01*
X93866937Y-43196241D01*
X93906790Y-43159648D01*
X93949793Y-43121506D01*
X93992514Y-43084879D01*
X94031519Y-43052828D01*
X94053085Y-43036028D01*
X94132189Y-42982645D01*
X94222921Y-42932226D01*
X94320756Y-42886673D01*
X94421171Y-42847885D01*
X94519644Y-42817763D01*
X94611652Y-42798208D01*
X94623169Y-42796504D01*
X94693505Y-42788885D01*
X94768232Y-42784586D01*
X94842073Y-42783670D01*
X94909748Y-42786200D01*
X94965979Y-42792239D01*
X94966991Y-42792403D01*
X95036324Y-42807223D01*
X95113510Y-42830560D01*
X95199938Y-42862936D01*
X95296998Y-42904877D01*
X95406079Y-42956905D01*
X95414890Y-42961282D01*
X95608408Y-43057651D01*
X95673096Y-43015299D01*
X95753131Y-42966292D01*
X95838060Y-42920363D01*
X95924161Y-42879198D01*
X96007711Y-42844484D01*
X96084985Y-42817905D01*
X96141184Y-42803338D01*
X96253670Y-42785006D01*
X96369995Y-42775786D01*
X96486592Y-42775507D01*
X96599896Y-42783996D01*
X96706343Y-42801084D01*
X96802367Y-42826597D01*
X96830323Y-42836517D01*
X96872393Y-42853992D01*
X96920707Y-42876436D01*
X96971780Y-42901980D01*
X97022127Y-42928751D01*
X97068264Y-42954880D01*
X97106706Y-42978494D01*
X97133968Y-42997724D01*
X97139780Y-43002663D01*
X97157433Y-43018233D01*
X97168501Y-43026843D01*
X97170406Y-43027461D01*
X97176009Y-43030135D01*
X97189692Y-43040988D01*
X97191624Y-43042655D01*
X97204892Y-43057188D01*
X97208650Y-43067751D01*
X97208385Y-43068312D01*
X97210402Y-43072323D01*
X97215520Y-43071074D01*
X97227570Y-43073644D01*
X97242238Y-43084801D01*
X97254461Y-43099288D01*
X97259179Y-43111851D01*
X97257903Y-43115081D01*
X97258230Y-43117605D01*
X97262610Y-43115491D01*
X97274717Y-43116759D01*
X97291521Y-43126831D01*
X97307852Y-43141264D01*
X97318542Y-43155615D01*
X97319413Y-43164300D01*
X97319547Y-43169057D01*
X97322896Y-43167540D01*
X97331143Y-43171705D01*
X97348277Y-43186101D01*
X97371732Y-43208117D01*
X97398941Y-43235144D01*
X97427335Y-43264570D01*
X97454349Y-43293785D01*
X97477415Y-43320177D01*
X97493965Y-43341136D01*
X97494898Y-43342453D01*
X97509586Y-43361324D01*
X97528028Y-43382566D01*
X97528983Y-43383600D01*
X97545750Y-43404576D01*
X97567219Y-43435737D01*
X97591997Y-43474599D01*
X97618693Y-43518678D01*
X97645912Y-43565488D01*
X97672264Y-43612545D01*
X97696356Y-43657364D01*
X97716794Y-43697461D01*
X97732187Y-43730351D01*
X97741143Y-43753549D01*
X97742389Y-43764398D01*
X97742805Y-43772109D01*
X97745386Y-43772670D01*
X97753373Y-43779933D01*
X97757941Y-43792030D01*
X97763483Y-43810842D01*
X97772921Y-43838284D01*
X97779989Y-43857317D01*
X97808165Y-43944843D01*
X97831272Y-44045361D01*
X97848984Y-44155321D01*
X97860976Y-44271174D01*
X97866922Y-44389369D01*
X97866496Y-44506356D01*
X97859371Y-44618585D01*
X97854111Y-44664929D01*
X97842525Y-44735914D01*
X97825532Y-44816390D01*
X97804673Y-44900103D01*
X97781487Y-44980798D01*
X97761291Y-45041809D01*
X97749577Y-45076754D01*
X97739665Y-45110115D01*
X97733779Y-45134306D01*
X97727773Y-45166572D01*
X97795414Y-45166933D01*
X97843668Y-45169421D01*
X97877919Y-45176569D01*
X97890567Y-45181990D01*
X97920415Y-45204168D01*
X97946226Y-45234386D01*
X97964151Y-45267193D01*
X97970370Y-45295072D01*
X97963196Y-45336876D01*
X97943286Y-45376231D01*
X97914056Y-45407106D01*
X97902754Y-45414514D01*
X97888521Y-45421724D01*
X97873519Y-45426824D01*
X97854535Y-45430173D01*
X97828356Y-45432130D01*
X97791769Y-45433054D01*
X97741563Y-45433305D01*
X97734700Y-45433307D01*
X97683186Y-45433498D01*
X97646326Y-45434250D01*
X97621568Y-45435826D01*
X97606361Y-45438491D01*
X97598152Y-45442511D01*
X97594498Y-45447862D01*
X97586757Y-45463837D01*
X97571744Y-45491437D01*
X97551229Y-45527644D01*
X97526985Y-45569441D01*
X97500781Y-45613811D01*
X97474390Y-45657738D01*
X97449582Y-45698204D01*
X97428128Y-45732194D01*
X97422437Y-45740941D01*
X97388067Y-45791532D01*
X97345588Y-45851352D01*
X97297941Y-45916437D01*
X97248064Y-45982822D01*
X97198900Y-46046543D01*
X97153950Y-46102944D01*
X97125097Y-46138457D01*
X97097186Y-46172903D01*
X97073730Y-46201938D01*
X97060205Y-46218765D01*
X97037999Y-46244752D01*
X97004486Y-46281521D01*
X96960789Y-46327952D01*
X96908033Y-46382929D01*
X96847342Y-46445333D01*
X96779842Y-46514046D01*
X96706656Y-46587950D01*
X96628909Y-46665928D01*
X96547725Y-46746861D01*
X96464229Y-46829633D01*
X96379545Y-46913124D01*
X96294797Y-46996217D01*
X96211111Y-47077794D01*
X96129610Y-47156738D01*
X96051419Y-47231930D01*
X95977662Y-47302252D01*
X95909464Y-47366587D01*
X95849824Y-47422088D01*
X95814180Y-47455267D01*
X95772214Y-47494766D01*
X95729939Y-47534906D01*
X95702807Y-47560902D01*
X95660969Y-47600812D01*
X95629801Y-47629606D01*
X95607938Y-47648470D01*
X95594015Y-47658586D01*
X95587208Y-47661193D01*
X95579380Y-47655559D01*
X95562992Y-47640876D01*
X95541593Y-47620322D01*
X95521798Y-47598998D01*
X95509334Y-47582011D01*
X95506846Y-47572978D01*
X95506913Y-47572906D01*
X95505939Y-47570084D01*
X95497258Y-47572523D01*
X95485627Y-47574719D01*
X95485955Y-47565819D01*
X95486455Y-47564477D01*
X95486854Y-47553271D01*
X95481496Y-47552228D01*
X95473471Y-47547773D01*
X95473414Y-47542881D01*
X95471087Y-47535538D01*
X95467504Y-47536599D01*
X95457646Y-47533584D01*
X95440168Y-47520633D01*
X95418597Y-47500919D01*
X95402439Y-47483908D01*
X95410576Y-47483908D01*
X95417255Y-47495848D01*
X95420197Y-47499202D01*
X95432838Y-47511531D01*
X95439300Y-47515556D01*
X95437699Y-47510232D01*
X95429343Y-47499800D01*
X95420800Y-47485375D01*
X95421556Y-47476910D01*
X95421696Y-47473946D01*
X95416712Y-47476311D01*
X95410576Y-47483908D01*
X95402439Y-47483908D01*
X95396461Y-47477615D01*
X95380704Y-47458506D01*
G37*
G36*
X93979022Y-49017337D02*
G01*
X94014163Y-49031930D01*
X94039324Y-49059678D01*
X94053228Y-49099395D01*
X94055637Y-49128869D01*
X94049138Y-49175513D01*
X94030119Y-49211434D01*
X93999298Y-49235525D01*
X93982242Y-49242075D01*
X93951175Y-49248866D01*
X93903114Y-49256079D01*
X93838006Y-49263721D01*
X93755797Y-49271797D01*
X93664139Y-49279689D01*
X93617460Y-49283558D01*
X93572768Y-49287370D01*
X93535099Y-49290688D01*
X93509486Y-49293076D01*
X93509261Y-49293098D01*
X93473046Y-49293341D01*
X93445978Y-49286851D01*
X93444729Y-49286232D01*
X93421689Y-49266204D01*
X93402500Y-49235069D01*
X93389975Y-49198900D01*
X93386929Y-49163768D01*
X93387100Y-49161921D01*
X93397450Y-49119499D01*
X93419257Y-49089409D01*
X93453943Y-49070090D01*
X93476090Y-49064078D01*
X93518083Y-49056683D01*
X93572156Y-49049516D01*
X93639695Y-49042428D01*
X93722088Y-49035269D01*
X93788902Y-49030166D01*
X93834717Y-49026646D01*
X93876905Y-49023083D01*
X93911167Y-49019863D01*
X93933202Y-49017369D01*
X93935176Y-49017083D01*
X93979022Y-49017337D01*
G37*
G36*
X97643645Y-49466973D02*
G01*
X97646458Y-49429973D01*
X97653996Y-49382925D01*
X97664909Y-49331879D01*
X97677848Y-49282886D01*
X97691462Y-49241998D01*
X97696572Y-49229754D01*
X97708837Y-49202027D01*
X97717628Y-49180795D01*
X97721082Y-49170564D01*
X97721084Y-49170495D01*
X97725511Y-49161377D01*
X97737314Y-49141635D01*
X97754272Y-49114931D01*
X97761243Y-49104270D01*
X97824453Y-49020417D01*
X97894000Y-48950517D01*
X97968844Y-48895220D01*
X98047947Y-48855174D01*
X98130269Y-48831031D01*
X98210310Y-48823415D01*
X98248849Y-48826102D01*
X98274205Y-48835395D01*
X98289734Y-48853139D01*
X98296331Y-48870749D01*
X98303349Y-48896552D01*
X98364545Y-48893586D01*
X98400312Y-48893481D01*
X98433643Y-48896123D01*
X98455804Y-48900540D01*
X98474127Y-48908536D01*
X98487074Y-48920119D01*
X98495015Y-48937610D01*
X98498317Y-48963329D01*
X98497349Y-48999596D01*
X98492480Y-49048731D01*
X98486614Y-49094502D01*
X98479885Y-49143277D01*
X98473280Y-49189240D01*
X98467426Y-49228157D01*
X98462950Y-49255792D01*
X98461783Y-49262236D01*
X98456812Y-49290155D01*
X98450664Y-49327452D01*
X98444597Y-49366468D01*
X98444100Y-49369790D01*
X98437753Y-49411917D01*
X98430158Y-49461694D01*
X98422742Y-49509773D01*
X98421225Y-49519527D01*
X98415083Y-49564063D01*
X98413754Y-49593049D01*
X98418225Y-49607714D01*
X98429486Y-49609286D01*
X98448525Y-49598993D01*
X98471439Y-49581930D01*
X98496292Y-49562905D01*
X98530714Y-49537224D01*
X98570238Y-49508190D01*
X98610400Y-49479106D01*
X98612133Y-49477861D01*
X98707281Y-49409570D01*
X98716919Y-49307939D01*
X98725523Y-49237290D01*
X98737823Y-49164125D01*
X98752962Y-49091963D01*
X98770082Y-49024325D01*
X98788323Y-48964729D01*
X98806829Y-48916695D01*
X98817604Y-48895060D01*
X98837866Y-48865101D01*
X98860994Y-48845129D01*
X98891124Y-48833023D01*
X98932393Y-48826659D01*
X98953740Y-48825204D01*
X98990200Y-48823837D01*
X99013546Y-48824756D01*
X99027788Y-48828510D01*
X99036933Y-48835645D01*
X99037831Y-48836697D01*
X99047118Y-48859872D01*
X99048511Y-48897593D01*
X99041993Y-48950078D01*
X99027548Y-49017546D01*
X99022243Y-49038523D01*
X99000508Y-49128655D01*
X98980982Y-49224079D01*
X98962693Y-49329716D01*
X98955135Y-49378395D01*
X98948839Y-49440439D01*
X98950992Y-49487829D01*
X98961723Y-49520973D01*
X98981159Y-49540281D01*
X99007688Y-49546179D01*
X99025599Y-49543735D01*
X99042606Y-49534495D01*
X99063085Y-49515603D01*
X99076176Y-49501441D01*
X99098137Y-49472529D01*
X99123663Y-49431891D01*
X99150402Y-49383961D01*
X99176001Y-49333173D01*
X99198109Y-49283961D01*
X99214226Y-49241209D01*
X99224760Y-49210087D01*
X99236872Y-49175927D01*
X99239928Y-49167589D01*
X99250893Y-49135732D01*
X99264775Y-49092118D01*
X99280096Y-49041625D01*
X99295380Y-48989134D01*
X99309147Y-48939524D01*
X99310287Y-48935271D01*
X99329878Y-48886694D01*
X99359339Y-48852002D01*
X99399311Y-48830733D01*
X99450435Y-48822421D01*
X99466124Y-48822335D01*
X99492127Y-48823458D01*
X99512667Y-48826647D01*
X99528004Y-48833564D01*
X99538396Y-48845870D01*
X99544099Y-48865228D01*
X99545371Y-48893300D01*
X99542471Y-48931749D01*
X99535656Y-48982236D01*
X99525183Y-49046424D01*
X99512317Y-49120265D01*
X99491603Y-49239077D01*
X99473995Y-49342860D01*
X99459588Y-49431053D01*
X99448474Y-49503096D01*
X99445955Y-49520366D01*
X99436250Y-49585684D01*
X99425126Y-49656812D01*
X99413244Y-49729813D01*
X99401267Y-49800748D01*
X99389858Y-49865678D01*
X99379679Y-49920664D01*
X99372859Y-49954885D01*
X99359107Y-50019522D01*
X99347083Y-50073186D01*
X99335494Y-50120834D01*
X99323043Y-50167420D01*
X99308437Y-50217902D01*
X99290379Y-50277235D01*
X99279414Y-50312531D01*
X99241084Y-50425447D01*
X99201355Y-50522417D01*
X99159590Y-50604683D01*
X99115154Y-50673491D01*
X99067411Y-50730085D01*
X99064430Y-50733117D01*
X99013033Y-50778848D01*
X98961813Y-50810747D01*
X98905931Y-50831447D01*
X98868968Y-50839446D01*
X98809418Y-50841462D01*
X98749612Y-50828670D01*
X98694479Y-50802632D01*
X98655472Y-50771756D01*
X98620001Y-50724513D01*
X98597948Y-50668326D01*
X98589108Y-50604770D01*
X98593107Y-50538303D01*
X98792643Y-50538303D01*
X98792951Y-50572758D01*
X98795039Y-50594547D01*
X98800057Y-50608200D01*
X98809150Y-50618249D01*
X98813834Y-50622004D01*
X98844311Y-50636866D01*
X98875585Y-50634804D01*
X98908318Y-50615752D01*
X98912789Y-50611959D01*
X98942183Y-50579452D01*
X98972749Y-50533732D01*
X99002365Y-50478476D01*
X99028911Y-50417363D01*
X99036113Y-50398009D01*
X99053998Y-50345782D01*
X99071167Y-50291737D01*
X99086702Y-50239166D01*
X99099689Y-50191363D01*
X99109209Y-50151621D01*
X99114346Y-50123233D01*
X99114986Y-50114630D01*
X99113692Y-50096700D01*
X99107859Y-50092509D01*
X99099060Y-50096170D01*
X99081212Y-50108838D01*
X99054885Y-50131398D01*
X99023084Y-50160925D01*
X98988812Y-50194495D01*
X98955075Y-50229182D01*
X98924876Y-50262062D01*
X98906387Y-50283739D01*
X98878503Y-50321166D01*
X98850060Y-50364460D01*
X98826967Y-50404591D01*
X98825926Y-50406613D01*
X98809110Y-50441206D01*
X98799176Y-50468073D01*
X98794321Y-50494346D01*
X98792743Y-50527155D01*
X98792643Y-50538303D01*
X98593107Y-50538303D01*
X98593280Y-50535421D01*
X98610260Y-50461854D01*
X98639847Y-50385644D01*
X98681836Y-50308367D01*
X98722767Y-50248763D01*
X98752033Y-50213132D01*
X98791790Y-50169392D01*
X98839188Y-50120309D01*
X98891381Y-50068646D01*
X98945519Y-50017170D01*
X98998755Y-49968645D01*
X99048241Y-49925836D01*
X99089522Y-49892723D01*
X99171401Y-49830561D01*
X99182501Y-49767960D01*
X99189711Y-49728077D01*
X99197387Y-49686804D01*
X99203059Y-49657241D01*
X99207930Y-49620731D01*
X99206585Y-49594830D01*
X99199280Y-49581904D01*
X99194846Y-49580892D01*
X99188493Y-49588331D01*
X99177376Y-49607909D01*
X99163514Y-49635951D01*
X99158167Y-49647575D01*
X99125353Y-49707602D01*
X99085805Y-49759213D01*
X99041600Y-49800888D01*
X98994814Y-49831107D01*
X98947523Y-49848352D01*
X98901804Y-49851102D01*
X98884555Y-49847839D01*
X98839466Y-49827904D01*
X98796604Y-49795094D01*
X98759964Y-49753649D01*
X98733538Y-49707812D01*
X98723547Y-49676814D01*
X98716348Y-49656122D01*
X98706894Y-49644236D01*
X98706091Y-49643866D01*
X98694402Y-49646557D01*
X98672559Y-49657427D01*
X98644294Y-49674492D01*
X98628062Y-49685318D01*
X98592261Y-49709898D01*
X98548598Y-49739748D01*
X98503469Y-49770501D01*
X98474713Y-49790035D01*
X98434436Y-49817109D01*
X98404596Y-49837861D01*
X98383215Y-49855493D01*
X98368316Y-49873209D01*
X98357918Y-49894212D01*
X98350044Y-49921706D01*
X98342714Y-49958894D01*
X98333951Y-50008978D01*
X98331729Y-50021515D01*
X98323153Y-50062042D01*
X98310149Y-50114111D01*
X98293883Y-50173825D01*
X98275520Y-50237284D01*
X98256227Y-50300591D01*
X98237168Y-50359846D01*
X98219509Y-50411151D01*
X98204417Y-50450609D01*
X98201149Y-50458239D01*
X98159950Y-50546304D01*
X98120017Y-50621586D01*
X98081999Y-50683012D01*
X98046548Y-50729509D01*
X98022068Y-50753909D01*
X97964135Y-50794483D01*
X97901791Y-50823781D01*
X97868626Y-50833728D01*
X97828395Y-50841780D01*
X97796399Y-50843798D01*
X97764742Y-50839745D01*
X97738033Y-50833132D01*
X97680124Y-50808620D01*
X97630642Y-50770422D01*
X97599432Y-50731721D01*
X97577084Y-50681924D01*
X97566477Y-50622491D01*
X97567495Y-50556260D01*
X97568516Y-50550537D01*
X97764105Y-50550537D01*
X97765736Y-50580806D01*
X97772132Y-50601016D01*
X97785552Y-50618133D01*
X97786248Y-50618833D01*
X97805577Y-50634009D01*
X97825944Y-50637531D01*
X97838942Y-50636019D01*
X97864931Y-50628254D01*
X97885956Y-50616254D01*
X97886664Y-50615636D01*
X97904280Y-50595667D01*
X97926003Y-50565157D01*
X97948629Y-50529147D01*
X97968953Y-50492675D01*
X97981278Y-50466843D01*
X97994151Y-50437042D01*
X98006562Y-50408784D01*
X98010034Y-50401010D01*
X98018528Y-50377499D01*
X98022230Y-50358067D01*
X98022236Y-50357558D01*
X98025763Y-50339549D01*
X98029463Y-50333046D01*
X98036111Y-50319747D01*
X98044820Y-50294358D01*
X98054681Y-50260604D01*
X98064785Y-50222217D01*
X98074222Y-50182922D01*
X98082083Y-50146450D01*
X98087458Y-50116528D01*
X98089438Y-50096885D01*
X98088422Y-50091341D01*
X98077345Y-50091701D01*
X98057469Y-50103497D01*
X98030776Y-50124754D01*
X97999253Y-50153496D01*
X97964883Y-50187749D01*
X97929650Y-50225537D01*
X97895539Y-50264886D01*
X97864534Y-50303821D01*
X97839377Y-50339213D01*
X97801839Y-50403110D01*
X97777745Y-50461434D01*
X97765873Y-50517617D01*
X97764105Y-50550537D01*
X97568516Y-50550537D01*
X97580022Y-50486068D01*
X97603942Y-50414751D01*
X97613196Y-50393833D01*
X97646863Y-50328434D01*
X97685712Y-50266083D01*
X97731385Y-50204909D01*
X97785526Y-50143036D01*
X97849777Y-50078593D01*
X97925784Y-50009704D01*
X98015188Y-49934499D01*
X98018576Y-49931732D01*
X98056480Y-49900578D01*
X98090035Y-49872564D01*
X98116804Y-49849755D01*
X98134356Y-49834219D01*
X98139894Y-49828726D01*
X98147439Y-49812933D01*
X98154068Y-49789095D01*
X98154871Y-49784950D01*
X98156727Y-49762074D01*
X98150781Y-49753387D01*
X98136009Y-49758626D01*
X98114748Y-49774671D01*
X98058781Y-49812022D01*
X97997107Y-49836168D01*
X97933248Y-49846354D01*
X97870727Y-49841827D01*
X97840071Y-49833463D01*
X97805544Y-49817300D01*
X97770300Y-49791755D01*
X97739647Y-49763520D01*
X97714968Y-49739600D01*
X97695079Y-49721135D01*
X97682978Y-49710872D01*
X97680865Y-49709662D01*
X97672388Y-49714632D01*
X97655104Y-49727405D01*
X97640791Y-49738737D01*
X97567743Y-49788506D01*
X97490264Y-49823660D01*
X97410764Y-49843281D01*
X97355743Y-49847283D01*
X97293189Y-49841983D01*
X97242382Y-49825356D01*
X97201099Y-49796124D01*
X97167115Y-49753007D01*
X97155254Y-49731947D01*
X97144271Y-49708598D01*
X97137538Y-49686857D01*
X97134087Y-49661269D01*
X97132946Y-49626381D01*
X97132927Y-49606410D01*
X97137853Y-49526792D01*
X97151768Y-49436342D01*
X97155624Y-49417114D01*
X97165159Y-49367396D01*
X97173801Y-49315331D01*
X97180498Y-49267667D01*
X97183835Y-49236179D01*
X97186269Y-49199268D01*
X97186188Y-49175565D01*
X97183212Y-49161203D01*
X97176959Y-49152317D01*
X97175444Y-49150990D01*
X97157735Y-49144819D01*
X97135917Y-49153077D01*
X97109189Y-49176274D01*
X97078279Y-49212926D01*
X97050296Y-49254431D01*
X97019603Y-49308613D01*
X96987937Y-49371523D01*
X96957038Y-49439214D01*
X96928643Y-49507738D01*
X96904492Y-49573149D01*
X96886321Y-49631498D01*
X96877586Y-49668666D01*
X96869304Y-49702013D01*
X96856766Y-49740847D01*
X96846575Y-49767280D01*
X96830779Y-49800151D01*
X96815366Y-49820716D01*
X96796929Y-49833455D01*
X96795873Y-49833964D01*
X96755213Y-49845536D01*
X96711917Y-49845313D01*
X96673108Y-49833516D01*
X96666785Y-49829957D01*
X96644722Y-49809191D01*
X96625453Y-49779180D01*
X96613263Y-49747499D01*
X96611124Y-49731506D01*
X96606209Y-49716611D01*
X96591691Y-49715724D01*
X96567915Y-49728809D01*
X96556980Y-49737073D01*
X96484042Y-49789035D01*
X96414868Y-49825715D01*
X96350089Y-49846877D01*
X96290337Y-49852283D01*
X96259349Y-49848350D01*
X96195242Y-49828768D01*
X96144875Y-49799997D01*
X96106849Y-49761036D01*
X96085070Y-49723393D01*
X96074120Y-49709527D01*
X96059745Y-49701500D01*
X96047598Y-49701252D01*
X96043238Y-49709039D01*
X96036223Y-49718285D01*
X96017492Y-49733407D01*
X95990520Y-49752193D01*
X95958779Y-49772427D01*
X95925743Y-49791898D01*
X95894886Y-49808392D01*
X95869681Y-49819695D01*
X95869462Y-49819777D01*
X95783554Y-49843983D01*
X95699280Y-49851480D01*
X95621626Y-49843747D01*
X95540360Y-49822213D01*
X95471939Y-49790072D01*
X95414869Y-49746235D01*
X95367659Y-49689612D01*
X95336681Y-49635793D01*
X95322794Y-49608755D01*
X95311589Y-49589078D01*
X95305306Y-49580668D01*
X95305045Y-49580597D01*
X95297625Y-49586379D01*
X95280790Y-49602101D01*
X95257077Y-49625326D01*
X95230480Y-49652133D01*
X95197223Y-49684173D01*
X95162627Y-49714348D01*
X95131426Y-49738682D01*
X95113512Y-49750469D01*
X95065663Y-49773166D01*
X95009899Y-49792387D01*
X94953075Y-49806198D01*
X94902047Y-49812667D01*
X94891980Y-49812914D01*
X94858846Y-49815298D01*
X94831927Y-49824518D01*
X94807054Y-49839733D01*
X94754434Y-49867254D01*
X94694691Y-49884158D01*
X94632023Y-49890324D01*
X94570630Y-49885634D01*
X94514711Y-49869967D01*
X94476336Y-49849165D01*
X94445179Y-49818185D01*
X94422536Y-49778168D01*
X94411111Y-49735031D01*
X94411166Y-49706672D01*
X94424591Y-49663303D01*
X94451354Y-49630068D01*
X94490631Y-49607327D01*
X94541594Y-49595440D01*
X94603419Y-49594768D01*
X94652812Y-49601180D01*
X94695008Y-49608761D01*
X94690115Y-49561359D01*
X94683451Y-49525740D01*
X94672191Y-49489945D01*
X94666192Y-49476291D01*
X94650919Y-49449476D01*
X94630625Y-49418442D01*
X94607803Y-49386458D01*
X94584943Y-49356793D01*
X94564540Y-49332718D01*
X94549084Y-49317500D01*
X94542368Y-49313862D01*
X94533647Y-49320896D01*
X94518936Y-49339917D01*
X94500482Y-49367804D01*
X94485243Y-49393170D01*
X94462858Y-49428758D01*
X94433516Y-49470778D01*
X94399585Y-49516285D01*
X94363436Y-49562336D01*
X94327436Y-49605986D01*
X94293956Y-49644292D01*
X94265363Y-49674310D01*
X94244028Y-49693095D01*
X94243703Y-49693328D01*
X94205607Y-49713714D01*
X94170475Y-49719875D01*
X94140656Y-49712194D01*
X94118498Y-49691051D01*
X94109703Y-49671567D01*
X94105024Y-49647636D01*
X94106939Y-49623568D01*
X94116603Y-49596752D01*
X94135171Y-49564576D01*
X94163799Y-49524429D01*
X94189329Y-49491586D01*
X94237052Y-49429946D01*
X94281354Y-49369786D01*
X94320338Y-49313843D01*
X94352105Y-49264859D01*
X94374757Y-49225572D01*
X94377721Y-49219738D01*
X94392305Y-49190632D01*
X94406309Y-49163293D01*
X94410824Y-49154682D01*
X94423553Y-49129390D01*
X94440354Y-49093658D01*
X94461951Y-49045898D01*
X94489069Y-48984524D01*
X94503075Y-48952480D01*
X94519436Y-48915866D01*
X94534694Y-48883337D01*
X94546714Y-48859365D01*
X94551658Y-48850679D01*
X94575519Y-48827414D01*
X94611396Y-48808706D01*
X94654430Y-48795740D01*
X94699760Y-48789702D01*
X94742529Y-48791779D01*
X94766910Y-48798140D01*
X94787288Y-48808469D01*
X94798228Y-48822165D01*
X94799855Y-48841964D01*
X94792297Y-48870605D01*
X94775682Y-48910826D01*
X94772471Y-48917908D01*
X94757977Y-48953980D01*
X94744183Y-48995312D01*
X94737638Y-49018902D01*
X94730703Y-49049771D01*
X94728704Y-49071152D01*
X94731751Y-49090071D01*
X94739070Y-49111258D01*
X94749888Y-49132887D01*
X94768766Y-49164036D01*
X94793133Y-49200692D01*
X94820418Y-49238840D01*
X94823024Y-49242337D01*
X94851546Y-49281300D01*
X94878665Y-49319835D01*
X94901396Y-49353608D01*
X94916753Y-49378284D01*
X94917243Y-49379148D01*
X94940624Y-49429007D01*
X94956958Y-49481198D01*
X94964796Y-49530091D01*
X94964183Y-49561553D01*
X94962651Y-49587317D01*
X94967239Y-49600389D01*
X94971478Y-49603099D01*
X94988504Y-49601187D01*
X95015055Y-49587172D01*
X95049658Y-49562183D01*
X95090837Y-49527351D01*
X95137119Y-49483806D01*
X95168623Y-49452003D01*
X95261995Y-49355336D01*
X95264200Y-49201272D01*
X95264715Y-49141639D01*
X95264253Y-49097376D01*
X95262718Y-49066667D01*
X95260014Y-49047697D01*
X95256045Y-49038648D01*
X95255610Y-49038248D01*
X95241812Y-49033800D01*
X95216630Y-49031144D01*
X95189532Y-49030810D01*
X95143225Y-49029297D01*
X95110785Y-49020956D01*
X95089800Y-49004546D01*
X95077861Y-48978823D01*
X95076351Y-48972472D01*
X95072473Y-48930074D01*
X95077714Y-48889777D01*
X95090939Y-48856568D01*
X95106906Y-48838154D01*
X95123790Y-48828503D01*
X95144963Y-48823541D01*
X95175839Y-48822253D01*
X95190265Y-48822489D01*
X95223831Y-48822552D01*
X95252978Y-48821237D01*
X95270769Y-48818942D01*
X95279976Y-48815021D01*
X95287611Y-48806795D01*
X95294487Y-48791837D01*
X95301418Y-48767721D01*
X95304531Y-48753475D01*
X95546968Y-48753475D01*
X95551138Y-48769480D01*
X95562502Y-48770645D01*
X95582103Y-48757288D01*
X95602268Y-48738492D01*
X95670429Y-48660618D01*
X95727284Y-48574181D01*
X95771459Y-48482081D01*
X95801581Y-48387219D01*
X95816278Y-48292494D01*
X95816711Y-48285644D01*
X95817107Y-48224320D01*
X95810625Y-48177712D01*
X95797410Y-48146130D01*
X95777605Y-48129886D01*
X95751357Y-48129290D01*
X95744768Y-48131277D01*
X95726595Y-48145144D01*
X95706009Y-48173404D01*
X95684026Y-48213586D01*
X95661664Y-48263218D01*
X95639937Y-48319829D01*
X95619863Y-48380948D01*
X95602458Y-48444104D01*
X95588739Y-48506827D01*
X95587486Y-48513659D01*
X95580790Y-48549125D01*
X95572531Y-48590393D01*
X95566974Y-48616911D01*
X95559310Y-48656202D01*
X95552344Y-48697949D01*
X95548952Y-48722314D01*
X95546968Y-48753475D01*
X95304531Y-48753475D01*
X95309218Y-48732021D01*
X95318700Y-48682312D01*
X95321224Y-48668537D01*
X95344716Y-48563709D01*
X95376898Y-48455887D01*
X95416034Y-48349585D01*
X95460386Y-48249315D01*
X95508217Y-48159589D01*
X95531479Y-48122234D01*
X95580690Y-48054988D01*
X95630260Y-48003187D01*
X95682315Y-47965161D01*
X95738975Y-47939235D01*
X95777436Y-47928486D01*
X95832119Y-47923891D01*
X95881166Y-47935298D01*
X95923620Y-47962393D01*
X95943138Y-47983028D01*
X95965088Y-48011521D01*
X95979397Y-48035177D01*
X95988711Y-48060225D01*
X95995676Y-48092898D01*
X95999286Y-48115206D01*
X96005857Y-48166983D01*
X96008161Y-48213961D01*
X96006115Y-48262538D01*
X95999638Y-48319114D01*
X95996371Y-48341572D01*
X95974688Y-48437087D01*
X95938657Y-48529048D01*
X95887483Y-48618971D01*
X95820374Y-48708373D01*
X95781208Y-48752693D01*
X95759313Y-48777712D01*
X95743809Y-48798149D01*
X95737044Y-48810781D01*
X95737307Y-48812923D01*
X95747620Y-48815214D01*
X95772049Y-48817490D01*
X95807503Y-48819555D01*
X95850890Y-48821210D01*
X95878182Y-48821899D01*
X95927660Y-48823471D01*
X95969782Y-48825872D01*
X96001672Y-48828869D01*
X96020454Y-48832228D01*
X96023762Y-48833708D01*
X96032154Y-48850215D01*
X96034939Y-48877147D01*
X96032462Y-48908784D01*
X96025069Y-48939406D01*
X96016213Y-48958743D01*
X96002657Y-48977808D01*
X95986791Y-48992903D01*
X95966472Y-49004554D01*
X95939556Y-49013285D01*
X95903897Y-49019620D01*
X95857352Y-49024084D01*
X95797776Y-49027203D01*
X95727432Y-49029389D01*
X95653302Y-49031713D01*
X95596228Y-49034507D01*
X95556063Y-49037782D01*
X95532661Y-49041550D01*
X95526377Y-49044259D01*
X95522784Y-49053714D01*
X95520438Y-49074531D01*
X95519296Y-49108113D01*
X95519313Y-49155868D01*
X95520449Y-49219198D01*
X95520691Y-49229252D01*
X95523414Y-49306808D01*
X95527643Y-49369711D01*
X95533826Y-49420482D01*
X95542414Y-49461644D01*
X95553852Y-49495721D01*
X95568591Y-49525233D01*
X95575186Y-49535829D01*
X95611590Y-49576355D01*
X95658949Y-49606121D01*
X95713410Y-49623139D01*
X95750691Y-49626423D01*
X95798110Y-49622862D01*
X95842175Y-49611118D01*
X95886094Y-49589629D01*
X95933077Y-49556830D01*
X95985206Y-49512188D01*
X96009369Y-49489527D01*
X96023836Y-49472389D01*
X96031645Y-49454720D01*
X96035831Y-49430466D01*
X96038215Y-49406527D01*
X96043384Y-49361350D01*
X96051256Y-49304916D01*
X96060927Y-49242792D01*
X96071494Y-49180547D01*
X96082056Y-49123750D01*
X96090890Y-49081545D01*
X96108244Y-49008122D01*
X96124081Y-48949945D01*
X96139656Y-48905277D01*
X96156226Y-48872380D01*
X96175046Y-48849515D01*
X96197370Y-48834947D01*
X96224456Y-48826936D01*
X96257558Y-48823746D01*
X96277405Y-48823415D01*
X96324605Y-48827357D01*
X96357463Y-48839038D01*
X96372222Y-48852667D01*
X96377553Y-48872086D01*
X96378150Y-48905346D01*
X96374183Y-48949791D01*
X96365822Y-49002767D01*
X96361062Y-49026821D01*
X96351673Y-49072520D01*
X96342008Y-49120878D01*
X96333708Y-49163648D01*
X96331351Y-49176193D01*
X96324430Y-49213149D01*
X96315610Y-49259729D01*
X96306271Y-49308663D01*
X96301138Y-49335373D01*
X96291134Y-49401891D01*
X96287051Y-49464548D01*
X96288835Y-49519999D01*
X96296432Y-49564897D01*
X96305131Y-49588158D01*
X96326933Y-49613395D01*
X96356960Y-49625623D01*
X96390562Y-49623253D01*
X96398902Y-49620224D01*
X96440505Y-49595870D01*
X96487919Y-49555967D01*
X96537066Y-49504950D01*
X96582578Y-49453945D01*
X96588513Y-49355939D01*
X96591577Y-49313281D01*
X96595257Y-49274007D01*
X96599040Y-49243070D01*
X96601756Y-49227819D01*
X96606816Y-49204106D01*
X96613142Y-49170528D01*
X96619390Y-49134229D01*
X96619563Y-49133171D01*
X96626884Y-49095125D01*
X96637488Y-49048534D01*
X96649536Y-49001279D01*
X96654569Y-48983180D01*
X96674371Y-48925044D01*
X96697254Y-48882147D01*
X96725567Y-48852531D01*
X96761657Y-48834243D01*
X96807871Y-48825327D01*
X96846158Y-48823620D01*
X96885087Y-48826647D01*
X96909287Y-48836644D01*
X96920047Y-48854291D01*
X96920881Y-48863029D01*
X96918859Y-48880626D01*
X96913429Y-48910008D01*
X96905541Y-48946312D01*
X96900336Y-48968130D01*
X96879733Y-49052863D01*
X96863488Y-49122508D01*
X96851307Y-49178543D01*
X96842896Y-49222448D01*
X96837959Y-49255702D01*
X96836202Y-49279783D01*
X96836434Y-49288986D01*
X96840663Y-49314421D01*
X96847978Y-49325155D01*
X96857294Y-49320157D01*
X96861667Y-49312871D01*
X96867636Y-49300419D01*
X96879049Y-49276233D01*
X96894085Y-49244176D01*
X96906011Y-49218657D01*
X96937337Y-49157537D01*
X96974553Y-49094522D01*
X97014461Y-49034513D01*
X97053861Y-48982410D01*
X97078918Y-48953799D01*
X97130932Y-48906856D01*
X97187484Y-48869411D01*
X97245829Y-48842462D01*
X97303223Y-48827010D01*
X97356924Y-48824053D01*
X97404188Y-48834591D01*
X97405151Y-48834989D01*
X97433299Y-48850823D01*
X97451941Y-48873042D01*
X97464921Y-48906580D01*
X97467015Y-48914448D01*
X97470573Y-48936222D01*
X97471378Y-48964258D01*
X97469225Y-49000097D01*
X97463908Y-49045279D01*
X97455219Y-49101344D01*
X97442951Y-49169835D01*
X97426899Y-49252291D01*
X97411726Y-49326769D01*
X97403201Y-49368059D01*
X97394718Y-49409203D01*
X97387786Y-49442881D01*
X97386317Y-49450037D01*
X97378243Y-49509748D01*
X97380661Y-49557969D01*
X97393388Y-49593927D01*
X97416239Y-49616849D01*
X97427217Y-49621869D01*
X97454753Y-49627036D01*
X97482932Y-49622212D01*
X97514289Y-49606257D01*
X97551357Y-49578027D01*
X97578490Y-49553701D01*
X97609215Y-49524096D01*
X97628821Y-49502474D01*
X97639500Y-49485914D01*
X97639677Y-49485267D01*
X97901291Y-49485267D01*
X97905917Y-49532907D01*
X97915803Y-49575481D01*
X97930313Y-49609149D01*
X97948809Y-49630073D01*
X97950433Y-49631076D01*
X97972329Y-49637662D01*
X98003346Y-49640221D01*
X98035876Y-49638768D01*
X98062311Y-49633315D01*
X98067974Y-49630871D01*
X98096062Y-49609809D01*
X98121028Y-49577390D01*
X98143438Y-49532337D01*
X98163858Y-49473378D01*
X98182854Y-49399239D01*
X98193541Y-49348280D01*
X98210305Y-49262486D01*
X98223846Y-49192124D01*
X98234406Y-49135768D01*
X98242226Y-49091992D01*
X98247550Y-49059371D01*
X98250618Y-49036480D01*
X98251673Y-49021894D01*
X98250956Y-49014187D01*
X98250436Y-49013011D01*
X98238861Y-49005422D01*
X98217235Y-49006062D01*
X98183643Y-49015140D01*
X98162379Y-49022679D01*
X98112417Y-49049284D01*
X98063473Y-49090028D01*
X98017912Y-49141893D01*
X97978097Y-49201864D01*
X97946395Y-49266922D01*
X97928258Y-49321384D01*
X97919796Y-49353859D01*
X97911316Y-49386528D01*
X97910379Y-49390148D01*
X97902566Y-49436401D01*
X97901291Y-49485267D01*
X97639677Y-49485267D01*
X97643446Y-49471497D01*
X97643645Y-49466973D01*
G37*
G36*
X97411328Y-43785576D02*
G01*
X97407026Y-43789878D01*
X97402723Y-43785576D01*
X97407026Y-43781274D01*
X97411328Y-43785576D01*
G37*
G36*
X96387412Y-45274126D02*
G01*
X96383110Y-45278429D01*
X96378807Y-45274126D01*
X96383110Y-45269824D01*
X96387412Y-45274126D01*
G37*
G36*
X95174200Y-47253124D02*
G01*
X95169898Y-47257426D01*
X95165596Y-47253124D01*
X95169898Y-47248822D01*
X95174200Y-47253124D01*
G37*
G36*
X91594142Y-49269496D02*
G01*
X91594747Y-49255348D01*
X91599238Y-49225921D01*
X91611467Y-49186282D01*
X91629684Y-49140575D01*
X91652141Y-49092944D01*
X91677087Y-49047536D01*
X91693141Y-49022162D01*
X91749219Y-48953219D01*
X91814455Y-48898066D01*
X91887378Y-48857405D01*
X91966518Y-48831938D01*
X92050405Y-48822369D01*
X92105909Y-48824912D01*
X92157419Y-48832419D01*
X92197063Y-48843591D01*
X92230104Y-48860435D01*
X92260547Y-48883846D01*
X92282743Y-48905451D01*
X92299565Y-48928132D01*
X92313326Y-48956263D01*
X92326336Y-48994220D01*
X92335148Y-49024998D01*
X92344302Y-49061267D01*
X92348346Y-49088103D01*
X92347763Y-49112347D01*
X92343241Y-49139807D01*
X92329271Y-49199570D01*
X92312760Y-49247101D01*
X92291196Y-49287376D01*
X92262064Y-49325372D01*
X92235012Y-49354093D01*
X92193666Y-49391990D01*
X92150118Y-49423961D01*
X92100737Y-49452046D01*
X92041891Y-49478290D01*
X91969948Y-49504736D01*
X91963084Y-49507068D01*
X91920318Y-49522591D01*
X91891497Y-49535431D01*
X91877770Y-49545045D01*
X91876795Y-49548058D01*
X91886861Y-49565123D01*
X91907853Y-49585663D01*
X91935022Y-49606054D01*
X91963619Y-49622673D01*
X91985740Y-49631186D01*
X92033199Y-49638545D01*
X92088833Y-49640204D01*
X92144621Y-49636280D01*
X92187677Y-49628246D01*
X92244140Y-49608339D01*
X92306909Y-49577770D01*
X92371141Y-49538984D01*
X92390698Y-49525601D01*
X92442324Y-49489203D01*
X92439364Y-49436136D01*
X92440942Y-49365614D01*
X92452159Y-49289311D01*
X92471657Y-49211482D01*
X92498079Y-49136385D01*
X92530069Y-49068278D01*
X92566268Y-49011419D01*
X92580145Y-48994437D01*
X92614844Y-48959359D01*
X92657114Y-48922898D01*
X92701728Y-48889120D01*
X92743464Y-48862095D01*
X92764067Y-48851223D01*
X92786747Y-48841417D01*
X92807727Y-48834903D01*
X92831514Y-48830998D01*
X92862619Y-48829016D01*
X92905549Y-48828273D01*
X92915562Y-48828215D01*
X92960458Y-48828290D01*
X92992252Y-48829430D01*
X93015045Y-48832244D01*
X93032937Y-48837340D01*
X93050028Y-48845327D01*
X93057132Y-48849228D01*
X93104282Y-48885011D01*
X93138535Y-48932029D01*
X93159762Y-48989977D01*
X93167834Y-49058555D01*
X93166203Y-49105961D01*
X93157966Y-49161691D01*
X93142674Y-49205791D01*
X93118479Y-49243032D01*
X93108895Y-49253916D01*
X93092632Y-49268950D01*
X93075808Y-49276600D01*
X93051665Y-49279250D01*
X93036482Y-49279445D01*
X93005559Y-49277992D01*
X92985225Y-49272327D01*
X92969009Y-49260488D01*
X92966797Y-49258325D01*
X92952272Y-49239138D01*
X92946677Y-49216910D01*
X92949668Y-49187331D01*
X92958491Y-49153898D01*
X92969287Y-49109648D01*
X92970559Y-49077038D01*
X92962067Y-49053218D01*
X92948819Y-49039148D01*
X92926445Y-49026514D01*
X92904818Y-49021315D01*
X92870031Y-49029362D01*
X92833808Y-49052057D01*
X92798348Y-49087226D01*
X92765855Y-49132697D01*
X92739164Y-49184797D01*
X92730356Y-49208108D01*
X92724163Y-49232399D01*
X92719970Y-49261838D01*
X92717162Y-49300593D01*
X92715323Y-49346489D01*
X92714070Y-49394743D01*
X92714163Y-49429846D01*
X92715979Y-49455828D01*
X92719893Y-49476721D01*
X92726280Y-49496554D01*
X92730234Y-49506635D01*
X92754179Y-49550355D01*
X92786359Y-49587896D01*
X92821577Y-49613488D01*
X92852640Y-49623532D01*
X92893383Y-49628880D01*
X92936793Y-49629009D01*
X92970695Y-49624593D01*
X93020382Y-49606062D01*
X93072250Y-49571846D01*
X93124786Y-49523071D01*
X93157077Y-49485955D01*
X93182746Y-49455557D01*
X93201693Y-49437005D01*
X93216818Y-49427877D01*
X93229256Y-49425719D01*
X93255045Y-49431019D01*
X93272400Y-49447923D01*
X93282172Y-49477937D01*
X93285211Y-49522567D01*
X93285204Y-49524791D01*
X93283537Y-49563866D01*
X93277783Y-49594265D01*
X93266046Y-49624383D01*
X93259885Y-49636983D01*
X93219947Y-49697505D01*
X93166303Y-49750395D01*
X93101371Y-49794035D01*
X93027569Y-49826809D01*
X92947314Y-49847102D01*
X92945100Y-49847458D01*
X92870250Y-49852267D01*
X92793519Y-49844418D01*
X92718592Y-49825089D01*
X92649155Y-49795461D01*
X92588892Y-49756713D01*
X92550929Y-49721257D01*
X92510282Y-49675653D01*
X92480605Y-49700081D01*
X92453103Y-49719674D01*
X92414797Y-49743056D01*
X92370805Y-49767483D01*
X92326245Y-49790215D01*
X92286234Y-49808511D01*
X92259225Y-49818651D01*
X92222380Y-49828493D01*
X92178546Y-49837971D01*
X92133134Y-49846143D01*
X92091555Y-49852071D01*
X92059221Y-49854815D01*
X92050826Y-49854840D01*
X92026636Y-49852813D01*
X91993125Y-49848575D01*
X91960481Y-49843522D01*
X91868626Y-49821373D01*
X91790027Y-49788304D01*
X91724451Y-49744082D01*
X91671666Y-49688473D01*
X91631438Y-49621244D01*
X91603534Y-49542159D01*
X91590136Y-49471795D01*
X91584101Y-49413217D01*
X91583262Y-49366716D01*
X91586580Y-49333306D01*
X91587267Y-49328374D01*
X91835862Y-49328374D01*
X91837088Y-49354238D01*
X91841378Y-49368272D01*
X91841549Y-49368451D01*
X91848314Y-49371245D01*
X91860891Y-49369634D01*
X91881894Y-49362815D01*
X91913935Y-49349984D01*
X91945438Y-49336514D01*
X91981903Y-49318831D01*
X92017753Y-49298379D01*
X92045283Y-49279557D01*
X92045489Y-49279393D01*
X92084150Y-49240156D01*
X92110967Y-49195204D01*
X92124628Y-49147942D01*
X92123821Y-49101773D01*
X92119868Y-49086474D01*
X92105090Y-49056654D01*
X92082808Y-49038742D01*
X92050182Y-49031235D01*
X92016252Y-49031596D01*
X91984448Y-49035255D01*
X91962539Y-49042530D01*
X91943223Y-49056376D01*
X91934205Y-49064785D01*
X91902610Y-49104049D01*
X91874429Y-49155719D01*
X91852163Y-49215017D01*
X91848218Y-49228946D01*
X91841662Y-49260812D01*
X91837465Y-49295593D01*
X91835862Y-49328374D01*
X91587267Y-49328374D01*
X91591177Y-49300288D01*
X91594142Y-49269496D01*
G37*
%TO.C,R1*%
X88307258Y-27347500D02*
X87832742Y-27347500D01*
X88307258Y-28392500D02*
X87832742Y-28392500D01*
%TO.C,C7*%
X69554420Y-25710000D02*
X69835580Y-25710000D01*
X69554420Y-26730000D02*
X69835580Y-26730000D01*
%TO.C,R13*%
X92882742Y-23747500D02*
X93357258Y-23747500D01*
X92882742Y-24792500D02*
X93357258Y-24792500D01*
%TO.C,R7*%
X88307258Y-35242500D02*
X87832742Y-35242500D01*
X88307258Y-34197500D02*
X87832742Y-34197500D01*
%TO.C,C3*%
X93542164Y-36730000D02*
X93757836Y-36730000D01*
X93542164Y-36010000D02*
X93757836Y-36010000D01*
%TO.C,C9*%
X65830000Y-31197836D02*
X65830000Y-30982164D01*
X65110000Y-31197836D02*
X65110000Y-30982164D01*
%TO.C,J2*%
X104160000Y-39550000D02*
X102830000Y-39550000D01*
X104160000Y-38220000D02*
X104160000Y-39550000D01*
X104160000Y-36950000D02*
X101500000Y-36950000D01*
X104160000Y-34350000D02*
X101500000Y-34350000D01*
X104160000Y-36950000D02*
X104160000Y-34350000D01*
X101500000Y-36950000D02*
X101500000Y-34350000D01*
%TO.C,C15*%
X99227836Y-24630000D02*
X99012164Y-24630000D01*
X99227836Y-23910000D02*
X99012164Y-23910000D01*
%TO.C,C2*%
X62730000Y-34997836D02*
X62730000Y-34782164D01*
X62010000Y-34997836D02*
X62010000Y-34782164D01*
%TO.C,R12*%
X65216359Y-25990000D02*
X65523641Y-25990000D01*
X65216359Y-26750000D02*
X65523641Y-26750000D01*
%TO.C,C17*%
X63785580Y-39860000D02*
X63504420Y-39860000D01*
X63785580Y-40880000D02*
X63504420Y-40880000D01*
%TO.C,R6*%
X87713641Y-31600000D02*
X87406359Y-31600000D01*
X87713641Y-30840000D02*
X87406359Y-30840000D01*
%TO.C,R4*%
X93982742Y-37647500D02*
X94457258Y-37647500D01*
X93982742Y-38692500D02*
X94457258Y-38692500D01*
%TO.C,R5*%
X87683641Y-29240000D02*
X87376359Y-29240000D01*
X87683641Y-30000000D02*
X87376359Y-30000000D01*
%TO.C,R8*%
X95676359Y-36750000D02*
X95983641Y-36750000D01*
X95676359Y-35990000D02*
X95983641Y-35990000D01*
D13*
%TO.C,U3*%
X59190000Y-40250000D02*
X59190000Y-40750000D01*
X55750000Y-43690000D02*
X55750000Y-43190000D01*
X59190000Y-43190000D02*
X59190000Y-43690000D01*
X58690000Y-40250000D02*
X59190000Y-40250000D01*
X56250000Y-43690000D02*
X55750000Y-43690000D01*
X55750000Y-40750000D02*
X55750000Y-40250000D01*
X55750000Y-40250000D02*
X56250000Y-40250000D01*
X59190000Y-43690000D02*
X58690000Y-43690000D01*
D14*
X55070000Y-40670000D02*
G75*
G03*
X55070000Y-40670000I-100000J0D01*
G01*
D12*
%TO.C,R10*%
X95947500Y-26507742D02*
X95947500Y-26982258D01*
X96992500Y-26507742D02*
X96992500Y-26982258D01*
D13*
%TO.C,J1*%
X82520000Y-40050000D02*
X82520000Y-39070000D01*
X82520000Y-39070000D02*
X87250000Y-39070000D01*
X82520000Y-52970000D02*
X82520000Y-48890000D01*
X88620000Y-40790000D02*
X88620000Y-52970000D01*
D14*
X91170000Y-39870000D02*
G75*
G03*
X91170000Y-39870000I-100000J0D01*
G01*
D12*
%TO.C,D2*%
X55135000Y-35197500D02*
X55135000Y-37482500D01*
X56605000Y-35197500D02*
X55135000Y-35197500D01*
X56605000Y-37482500D02*
X56605000Y-35197500D01*
%TO.C,R9*%
X98672742Y-37022500D02*
X99147258Y-37022500D01*
X98672742Y-35977500D02*
X99147258Y-35977500D01*
%TO.C,C8*%
X69042164Y-43170000D02*
X69257836Y-43170000D01*
X69042164Y-42450000D02*
X69257836Y-42450000D01*
%TO.C,R16*%
X72766359Y-48060000D02*
X73073641Y-48060000D01*
X72766359Y-47300000D02*
X73073641Y-47300000D01*
%TO.C,C20*%
X55910000Y-45222164D02*
X55910000Y-45437836D01*
X55190000Y-45222164D02*
X55190000Y-45437836D01*
%TO.C,C22*%
X54785580Y-46760000D02*
X54504420Y-46760000D01*
X54785580Y-47780000D02*
X54504420Y-47780000D01*
%TO.C,R18*%
X59850000Y-45443641D02*
X59850000Y-45136359D01*
X59090000Y-45443641D02*
X59090000Y-45136359D01*
%TO.C,J3*%
X83970000Y-22990000D02*
X85300000Y-22990000D01*
X85300000Y-22990000D02*
X85300000Y-24320000D01*
X82700000Y-22990000D02*
X82700000Y-25650000D01*
X82700000Y-25650000D02*
X75020000Y-25650000D01*
X75020000Y-22990000D02*
X75020000Y-25650000D01*
X82700000Y-22990000D02*
X75020000Y-22990000D01*
%TO.C,Y1*%
X57970000Y-34120000D02*
X57970000Y-38120000D01*
X61270000Y-34120000D02*
X57970000Y-34120000D01*
%TO.C,C18*%
X63504420Y-43980000D02*
X63785580Y-43980000D01*
X63504420Y-42960000D02*
X63785580Y-42960000D01*
%TO.C,C13*%
X69532164Y-28130000D02*
X69747836Y-28130000D01*
X69532164Y-27410000D02*
X69747836Y-27410000D01*
%TO.C,C21*%
X57130000Y-45632164D02*
X57130000Y-45847836D01*
X57850000Y-45632164D02*
X57850000Y-45847836D01*
%TO.C,C11*%
X80510000Y-31732164D02*
X80510000Y-31947836D01*
X81230000Y-31732164D02*
X81230000Y-31947836D01*
%TO.C,R17*%
X55813641Y-33490000D02*
X55506359Y-33490000D01*
X55813641Y-34250000D02*
X55506359Y-34250000D01*
%TO.C,U2*%
X68010000Y-31160000D02*
X66670000Y-31160000D01*
X68960000Y-40430000D02*
X68010000Y-40430000D01*
X68010000Y-40430000D02*
X68010000Y-39480000D01*
X78230000Y-40430000D02*
X78230000Y-39480000D01*
X77280000Y-40430000D02*
X78230000Y-40430000D01*
X77280000Y-30210000D02*
X78230000Y-30210000D01*
X68010000Y-30210000D02*
X68010000Y-31160000D01*
X78230000Y-30210000D02*
X78230000Y-31160000D01*
X68960000Y-30210000D02*
X68010000Y-30210000D01*
%TO.C,C4*%
X92730000Y-33162164D02*
X92730000Y-33377836D01*
X92010000Y-33162164D02*
X92010000Y-33377836D01*
%TO.C,R2*%
X94482258Y-40542500D02*
X94007742Y-40542500D01*
X94482258Y-39497500D02*
X94007742Y-39497500D01*
%TD*%
M02*
