M48
; DRILL file {KiCad (6.0.9)} date Wed Jul 19 12:19:50 2023
; FORMAT={-:-/ absolute / metric / decimal}
; #@! TF.CreationDate,2023-07-19T12:19:50-07:00
; #@! TF.GenerationSoftware,Kicad,Pcbnew,(6.0.9)
; #@! TF.FileFunction,MixedPlating,1,2
FMAT,2
METRIC
; #@! TA.AperFunction,Plated,PTH,ViaDrill
T1C0.400
; #@! TA.AperFunction,Plated,PTH,ComponentDrill
T2C0.500
; #@! TA.AperFunction,Plated,PTH,ComponentDrill
T3C1.000
; #@! TA.AperFunction,NonPlated,NPTH,ComponentDrill
T4C0.900
; #@! TA.AperFunction,NonPlated,NPTH,ComponentDrill
T5C1.000
; #@! TA.AperFunction,NonPlated,NPTH,ComponentDrill
T6C2.200
%
G90
G05
T1
X46.7Y-47.44
X50.33Y-40.51
X50.33Y-44.57
X51.93Y-42.84
X52.38Y-47.27
X53.12Y-41.92
X54.0Y-33.82
X54.46Y-41.28
X54.46Y-43.48
X56.472Y-44.717
X57.47Y-41.97
X57.71Y-47.46
X58.5Y-45.8
X58.66Y-38.92
X60.36Y-42.72
X61.36Y-40.35
X63.66Y-34.41
X64.11Y-38.16
X64.42Y-44.99
X66.07Y-39.794
X66.83Y-30.36
X69.26Y-34.57
X69.26Y-39.08
X69.44Y-43.79
X70.45Y-37.82
X71.15Y-46.41
X71.81Y-26.22
X72.969Y-39.431
X73.711Y-38.689
X73.905Y-42.785
X74.6Y-47.68
X74.955Y-42.785
X75.63Y-37.83
X76.17Y-43.86
X76.35Y-26.74
X77.13Y-45.9
X78.08Y-41.45
X80.18Y-40.35
X82.01Y-32.31
X83.46Y-37.46
X85.44Y-39.58
X86.52Y-24.28
X86.63Y-40.82
X87.88Y-25.5
X88.37Y-37.46
X89.08Y-31.65
X89.38Y-22.79
X89.685Y-29.048
X90.52Y-29.84
X90.76Y-35.95
X93.94Y-22.79
X95.62Y-31.57
X96.34Y-35.29
X97.77Y-27.77
X100.79Y-27.76
X101.54Y-31.35
T3
X76.35Y-24.32
X78.89Y-24.32
X81.43Y-24.32
X83.97Y-24.32
X102.83Y-35.68
X102.83Y-38.22
T4
X60.02Y-26.17
X60.02Y-29.17
T5
X85.57Y-42.57
X85.57Y-49.57
T6
X48.37Y-23.07
X48.37Y-50.07
X103.37Y-23.07
X103.37Y-50.07
T2
G00X46.28Y-41.96
M15
G01X46.28Y-43.06
M16
G05
G00X48.43Y-39.36
M15
G01X48.43Y-40.06
M16
G05
G00X48.43Y-44.96
M15
G01X48.43Y-45.66
M16
G05
T0
M30
