M48
; DRILL file {KiCad (6.0.9)} date Fri Dec 23 02:35:21 2022
; FORMAT={-:-/ absolute / metric / decimal}
; #@! TF.CreationDate,2022-12-23T02:35:21-08:00
; #@! TF.GenerationSoftware,Kicad,Pcbnew,(6.0.9)
; #@! TF.FileFunction,MixedPlating,1,2
FMAT,2
METRIC
; #@! TA.AperFunction,Plated,PTH,ComponentDrill
T1C1.000
%
G90
G05
T1
X139.7Y-81.28
X139.7Y-83.82
X139.7Y-86.36
X139.7Y-88.9
X139.7Y-91.44
X139.7Y-93.98
X139.7Y-96.52
X139.7Y-99.06
X139.7Y-101.6
X139.7Y-104.14
X155.0Y-81.27
X155.0Y-83.81
X155.0Y-86.35
X155.0Y-88.89
X155.0Y-91.43
X155.0Y-93.97
X155.0Y-96.51
X155.0Y-99.05
X155.0Y-101.59
X155.0Y-104.13
T0
M30
