%TF.GenerationSoftware,KiCad,Pcbnew,(6.0.9)*%
%TF.CreationDate,2022-12-23T02:35:25-08:00*%
%TF.ProjectId,AD8232_breakout,41443832-3332-45f6-9272-65616b6f7574,rev?*%
%TF.SameCoordinates,Original*%
%TF.FileFunction,Soldermask,Top*%
%TF.FilePolarity,Negative*%
%FSLAX46Y46*%
G04 Gerber Fmt 4.6, Leading zero omitted, Abs format (unit mm)*
G04 Created by KiCad (PCBNEW (6.0.9)) date 2022-12-23 02:35:25*
%MOMM*%
%LPD*%
G01*
G04 APERTURE LIST*
G04 Aperture macros list*
%AMRoundRect*
0 Rectangle with rounded corners*
0 $1 Rounding radius*
0 $2 $3 $4 $5 $6 $7 $8 $9 X,Y pos of 4 corners*
0 Add a 4 corners polygon primitive as box body*
4,1,4,$2,$3,$4,$5,$6,$7,$8,$9,$2,$3,0*
0 Add four circle primitives for the rounded corners*
1,1,$1+$1,$2,$3*
1,1,$1+$1,$4,$5*
1,1,$1+$1,$6,$7*
1,1,$1+$1,$8,$9*
0 Add four rect primitives between the rounded corners*
20,1,$1+$1,$2,$3,$4,$5,0*
20,1,$1+$1,$4,$5,$6,$7,0*
20,1,$1+$1,$6,$7,$8,$9,0*
20,1,$1+$1,$8,$9,$2,$3,0*%
G04 Aperture macros list end*
%ADD10R,0.500000X0.250000*%
%ADD11R,0.250000X0.500000*%
%ADD12RoundRect,0.325000X-0.925000X-0.925000X0.925000X-0.925000X0.925000X0.925000X-0.925000X0.925000X0*%
%ADD13R,1.700000X1.700000*%
%ADD14O,1.700000X1.700000*%
G04 APERTURE END LIST*
D10*
%TO.C,U1*%
X145470000Y-91705000D03*
X145470000Y-92205000D03*
X145470000Y-92705000D03*
X145470000Y-93205000D03*
X145470000Y-93705000D03*
D11*
X146320000Y-94555000D03*
X146820000Y-94555000D03*
X147320000Y-94555000D03*
X147820000Y-94555000D03*
X148320000Y-94555000D03*
D10*
X149170000Y-93705000D03*
X149170000Y-93205000D03*
X149170000Y-92705000D03*
X149170000Y-92205000D03*
X149170000Y-91705000D03*
D11*
X148320000Y-90855000D03*
X147820000Y-90855000D03*
X147320000Y-90855000D03*
X146820000Y-90855000D03*
X146320000Y-90855000D03*
D12*
X147320000Y-92705000D03*
%TD*%
D13*
%TO.C,J1*%
X139700000Y-81280000D03*
D14*
X139700000Y-83820000D03*
X139700000Y-86360000D03*
X139700000Y-88900000D03*
X139700000Y-91440000D03*
X139700000Y-93980000D03*
X139700000Y-96520000D03*
X139700000Y-99060000D03*
X139700000Y-101600000D03*
X139700000Y-104140000D03*
%TD*%
D13*
%TO.C,J2*%
X155000000Y-104130000D03*
D14*
X155000000Y-101590000D03*
X155000000Y-99050000D03*
X155000000Y-96510000D03*
X155000000Y-93970000D03*
X155000000Y-91430000D03*
X155000000Y-88890000D03*
X155000000Y-86350000D03*
X155000000Y-83810000D03*
X155000000Y-81270000D03*
%TD*%
M02*
