%TF.GenerationSoftware,KiCad,Pcbnew,(6.0.9)*%
%TF.CreationDate,2022-12-23T02:35:24-08:00*%
%TF.ProjectId,AD8232_breakout,41443832-3332-45f6-9272-65616b6f7574,rev?*%
%TF.SameCoordinates,Original*%
%TF.FileFunction,Copper,L1,Top*%
%TF.FilePolarity,Positive*%
%FSLAX46Y46*%
G04 Gerber Fmt 4.6, Leading zero omitted, Abs format (unit mm)*
G04 Created by KiCad (PCBNEW (6.0.9)) date 2022-12-23 02:35:24*
%MOMM*%
%LPD*%
G01*
G04 APERTURE LIST*
G04 Aperture macros list*
%AMRoundRect*
0 Rectangle with rounded corners*
0 $1 Rounding radius*
0 $2 $3 $4 $5 $6 $7 $8 $9 X,Y pos of 4 corners*
0 Add a 4 corners polygon primitive as box body*
4,1,4,$2,$3,$4,$5,$6,$7,$8,$9,$2,$3,0*
0 Add four circle primitives for the rounded corners*
1,1,$1+$1,$2,$3*
1,1,$1+$1,$4,$5*
1,1,$1+$1,$6,$7*
1,1,$1+$1,$8,$9*
0 Add four rect primitives between the rounded corners*
20,1,$1+$1,$2,$3,$4,$5,0*
20,1,$1+$1,$4,$5,$6,$7,0*
20,1,$1+$1,$6,$7,$8,$9,0*
20,1,$1+$1,$8,$9,$2,$3,0*%
G04 Aperture macros list end*
%TA.AperFunction,SMDPad,CuDef*%
%ADD10R,0.500000X0.250000*%
%TD*%
%TA.AperFunction,SMDPad,CuDef*%
%ADD11R,0.250000X0.500000*%
%TD*%
%TA.AperFunction,SMDPad,CuDef*%
%ADD12RoundRect,0.325000X-0.925000X-0.925000X0.925000X-0.925000X0.925000X0.925000X-0.925000X0.925000X0*%
%TD*%
%TA.AperFunction,ComponentPad*%
%ADD13R,1.700000X1.700000*%
%TD*%
%TA.AperFunction,ComponentPad*%
%ADD14O,1.700000X1.700000*%
%TD*%
%TA.AperFunction,Conductor*%
%ADD15C,0.300000*%
%TD*%
G04 APERTURE END LIST*
D10*
%TO.P,U1,1,HPDRIVE*%
%TO.N,Net-(J1-Pad1)*%
X145470000Y-91705000D03*
%TO.P,U1,2,+IN*%
%TO.N,Net-(J1-Pad2)*%
X145470000Y-92205000D03*
%TO.P,U1,3,-IN*%
%TO.N,Net-(J1-Pad3)*%
X145470000Y-92705000D03*
%TO.P,U1,4,RLDFB*%
%TO.N,Net-(J1-Pad4)*%
X145470000Y-93205000D03*
%TO.P,U1,5,RLD*%
%TO.N,Net-(J1-Pad5)*%
X145470000Y-93705000D03*
D11*
%TO.P,U1,6,SW*%
%TO.N,Net-(J1-Pad6)*%
X146320000Y-94555000D03*
%TO.P,U1,7,OPAMP+*%
%TO.N,Net-(J1-Pad7)*%
X146820000Y-94555000D03*
%TO.P,U1,8,REFOUT*%
%TO.N,Net-(J1-Pad8)*%
X147320000Y-94555000D03*
%TO.P,U1,9,OPAMP-*%
%TO.N,Net-(J1-Pad9)*%
X147820000Y-94555000D03*
%TO.P,U1,10,OUT*%
%TO.N,Net-(J1-Pad10)*%
X148320000Y-94555000D03*
D10*
%TO.P,U1,11,LO-*%
%TO.N,Net-(J2-Pad1)*%
X149170000Y-93705000D03*
%TO.P,U1,12,LO+*%
%TO.N,Net-(J2-Pad2)*%
X149170000Y-93205000D03*
%TO.P,U1,13,~{SDN}*%
%TO.N,Net-(J2-Pad3)*%
X149170000Y-92705000D03*
%TO.P,U1,14,AC/~{DC}*%
%TO.N,Net-(J2-Pad4)*%
X149170000Y-92205000D03*
%TO.P,U1,15,FR*%
%TO.N,Net-(J2-Pad5)*%
X149170000Y-91705000D03*
D11*
%TO.P,U1,16,GND*%
%TO.N,Net-(J2-Pad6)*%
X148320000Y-90855000D03*
%TO.P,U1,17,+VS*%
%TO.N,Net-(J2-Pad7)*%
X147820000Y-90855000D03*
%TO.P,U1,18,REFIN*%
%TO.N,Net-(J2-Pad8)*%
X147320000Y-90855000D03*
%TO.P,U1,19,IAOUT*%
%TO.N,Net-(J2-Pad9)*%
X146820000Y-90855000D03*
%TO.P,U1,20,HPSENSE*%
%TO.N,Net-(J2-Pad10)*%
X146320000Y-90855000D03*
D12*
%TO.P,U1,PAD,GND_PAD*%
%TO.N,unconnected-(U1-PadPAD)*%
X147320000Y-92705000D03*
%TD*%
D13*
%TO.P,J1,1,Pin_1*%
%TO.N,Net-(J1-Pad1)*%
X139700000Y-81280000D03*
D14*
%TO.P,J1,2,Pin_2*%
%TO.N,Net-(J1-Pad2)*%
X139700000Y-83820000D03*
%TO.P,J1,3,Pin_3*%
%TO.N,Net-(J1-Pad3)*%
X139700000Y-86360000D03*
%TO.P,J1,4,Pin_4*%
%TO.N,Net-(J1-Pad4)*%
X139700000Y-88900000D03*
%TO.P,J1,5,Pin_5*%
%TO.N,Net-(J1-Pad5)*%
X139700000Y-91440000D03*
%TO.P,J1,6,Pin_6*%
%TO.N,Net-(J1-Pad6)*%
X139700000Y-93980000D03*
%TO.P,J1,7,Pin_7*%
%TO.N,Net-(J1-Pad7)*%
X139700000Y-96520000D03*
%TO.P,J1,8,Pin_8*%
%TO.N,Net-(J1-Pad8)*%
X139700000Y-99060000D03*
%TO.P,J1,9,Pin_9*%
%TO.N,Net-(J1-Pad9)*%
X139700000Y-101600000D03*
%TO.P,J1,10,Pin_10*%
%TO.N,Net-(J1-Pad10)*%
X139700000Y-104140000D03*
%TD*%
D13*
%TO.P,J2,1,Pin_1*%
%TO.N,Net-(J2-Pad1)*%
X155000000Y-104130000D03*
D14*
%TO.P,J2,2,Pin_2*%
%TO.N,Net-(J2-Pad2)*%
X155000000Y-101590000D03*
%TO.P,J2,3,Pin_3*%
%TO.N,Net-(J2-Pad3)*%
X155000000Y-99050000D03*
%TO.P,J2,4,Pin_4*%
%TO.N,Net-(J2-Pad4)*%
X155000000Y-96510000D03*
%TO.P,J2,5,Pin_5*%
%TO.N,Net-(J2-Pad5)*%
X155000000Y-93970000D03*
%TO.P,J2,6,Pin_6*%
%TO.N,Net-(J2-Pad6)*%
X155000000Y-91430000D03*
%TO.P,J2,7,Pin_7*%
%TO.N,Net-(J2-Pad7)*%
X155000000Y-88890000D03*
%TO.P,J2,8,Pin_8*%
%TO.N,Net-(J2-Pad8)*%
X155000000Y-86350000D03*
%TO.P,J2,9,Pin_9*%
%TO.N,Net-(J2-Pad9)*%
X155000000Y-83810000D03*
%TO.P,J2,10,Pin_10*%
%TO.N,Net-(J2-Pad10)*%
X155000000Y-81270000D03*
%TD*%
D15*
%TO.N,Net-(J1-Pad1)*%
X145470000Y-87050000D02*
X139700000Y-81280000D01*
X145470000Y-91705000D02*
X145470000Y-87050000D01*
%TO.N,Net-(J1-Pad2)*%
X144703800Y-92013800D02*
X144703800Y-87376000D01*
X145470000Y-92205000D02*
X144895000Y-92205000D01*
X144703800Y-87376000D02*
X141147800Y-83820000D01*
X141147800Y-83820000D02*
X139700000Y-83820000D01*
X144895000Y-92205000D02*
X144703800Y-92013800D01*
%TO.N,Net-(J1-Pad3)*%
X145470000Y-92705000D02*
X144317800Y-92705000D01*
X142697200Y-86360000D02*
X139700000Y-86360000D01*
X144317800Y-92705000D02*
X143967200Y-92354400D01*
X143967200Y-87630000D02*
X142697200Y-86360000D01*
X143967200Y-92354400D02*
X143967200Y-87630000D01*
%TO.N,Net-(J1-Pad4)*%
X142722600Y-89230200D02*
X142392400Y-88900000D01*
X145470000Y-93205000D02*
X143853200Y-93205000D01*
X142392400Y-88900000D02*
X139700000Y-88900000D01*
X143840200Y-93218000D02*
X142722600Y-92100400D01*
X142722600Y-92100400D02*
X142722600Y-89230200D01*
X143853200Y-93205000D02*
X143840200Y-93218000D01*
%TO.N,Net-(J1-Pad5)*%
X141859000Y-91541600D02*
X141757400Y-91440000D01*
X145470000Y-93705000D02*
X144500600Y-93705000D01*
X144500600Y-93705000D02*
X144475200Y-93730400D01*
X141859000Y-92760800D02*
X141859000Y-91541600D01*
X141757400Y-91440000D02*
X139700000Y-91440000D01*
X144475200Y-94259400D02*
X143357600Y-94259400D01*
X144475200Y-93730400D02*
X144475200Y-94259400D01*
X143357600Y-94259400D02*
X141859000Y-92760800D01*
%TO.N,Net-(J1-Pad6)*%
X141579600Y-93980000D02*
X139700000Y-93980000D01*
X144881600Y-94919800D02*
X144881600Y-95097600D01*
X142697200Y-95097600D02*
X141579600Y-93980000D01*
X144881600Y-95097600D02*
X142697200Y-95097600D01*
X145246400Y-94555000D02*
X144881600Y-94919800D01*
X146320000Y-94555000D02*
X145246400Y-94555000D01*
%TO.N,Net-(J1-Pad7)*%
X145430000Y-96520000D02*
X139700000Y-96520000D01*
X146820000Y-94555000D02*
X146820000Y-95130000D01*
X146820000Y-95130000D02*
X145430000Y-96520000D01*
%TO.N,Net-(J1-Pad8)*%
X147320000Y-96723200D02*
X144957800Y-99085400D01*
X144957800Y-99085400D02*
X144932400Y-99060000D01*
X144932400Y-99060000D02*
X139700000Y-99060000D01*
X147320000Y-94555000D02*
X147320000Y-96723200D01*
%TO.N,Net-(J1-Pad9)*%
X144627600Y-101600000D02*
X139700000Y-101600000D01*
X147820000Y-94555000D02*
X147820000Y-98407600D01*
X147820000Y-98407600D02*
X144627600Y-101600000D01*
%TO.N,Net-(J1-Pad10)*%
X148320000Y-94555000D02*
X148320000Y-100600000D01*
X144754600Y-104165400D02*
X144729200Y-104140000D01*
X148320000Y-100600000D02*
X144754600Y-104165400D01*
X144729200Y-104140000D02*
X139700000Y-104140000D01*
%TO.N,Net-(J2-Pad1)*%
X149170000Y-98300000D02*
X155000000Y-104130000D01*
X149170000Y-93705000D02*
X149170000Y-98300000D01*
%TO.N,Net-(J2-Pad2)*%
X149745000Y-93205000D02*
X150037800Y-93497800D01*
X150037800Y-93497800D02*
X150037800Y-97942400D01*
X150037800Y-97942400D02*
X153685400Y-101590000D01*
X149170000Y-93205000D02*
X149745000Y-93205000D01*
X153685400Y-101590000D02*
X155000000Y-101590000D01*
%TO.N,Net-(J2-Pad3)*%
X153355200Y-99050000D02*
X155000000Y-99050000D01*
X149170000Y-92705000D02*
X150744000Y-92705000D01*
X151409400Y-93370400D02*
X151409400Y-97104200D01*
X151409400Y-97104200D02*
X153355200Y-99050000D01*
X150744000Y-92705000D02*
X151409400Y-93370400D01*
%TO.N,Net-(J2-Pad4)*%
X149170000Y-92205000D02*
X151666400Y-92205000D01*
X151666400Y-92205000D02*
X152704800Y-93243400D01*
X153025000Y-96510000D02*
X155000000Y-96510000D01*
X152704800Y-96189800D02*
X153025000Y-96510000D01*
X152704800Y-93243400D02*
X152704800Y-96189800D01*
%TO.N,Net-(J2-Pad5)*%
X149170000Y-91705000D02*
X152735000Y-91705000D01*
X152735000Y-91705000D02*
X155000000Y-93970000D01*
%TO.N,Net-(J2-Pad6)*%
X154425000Y-90855000D02*
X155000000Y-91430000D01*
X148320000Y-90855000D02*
X154425000Y-90855000D01*
%TO.N,Net-(J2-Pad7)*%
X148904800Y-88890000D02*
X155000000Y-88890000D01*
X147820000Y-89974800D02*
X148904800Y-88890000D01*
X147820000Y-90855000D02*
X147820000Y-89974800D01*
%TO.N,Net-(J2-Pad8)*%
X147320000Y-90855000D02*
X147320000Y-88341200D01*
X147320000Y-88341200D02*
X149352000Y-86309200D01*
X149352000Y-86309200D02*
X149392800Y-86350000D01*
X149392800Y-86350000D02*
X155000000Y-86350000D01*
%TO.N,Net-(J2-Pad9)*%
X146820000Y-86479000D02*
X149489000Y-83810000D01*
X146820000Y-90855000D02*
X146820000Y-86479000D01*
X149489000Y-83810000D02*
X155000000Y-83810000D01*
%TO.N,Net-(J2-Pad10)*%
X146320000Y-83194400D02*
X148244400Y-81270000D01*
X148244400Y-81270000D02*
X155000000Y-81270000D01*
X146320000Y-90855000D02*
X146320000Y-83194400D01*
%TD*%
M02*
